<svg xmlns="http://www.w3.org/2000/svg" viewBox="0 0 500 500"><g id="freepik--Floor--inject-85"><ellipse id="freepik--floor--inject-85" cx="250" cy="352.31" rx="235.03" ry="135.7" style="fill:#fafafa"></ellipse></g><g id="freepik--Shadows--inject-85"><path id="freepik--Shadow--inject-85" d="M187.9,465.64l-51.62-29.79c-2.47-1.43-2.47-3.74,0-5.16l146.39-84.53a9.89,9.89,0,0,1,8.93,0L343.23,376c2.46,1.42,2.46,3.73,0,5.15l-146.4,84.53A9.83,9.83,0,0,1,187.9,465.64Z" style="fill:#e0e0e0"></path><path id="freepik--shadow--inject-85" d="M71.9,433.61,28.15,408.36c-2.46-1.43-2.46-3.74,0-5.16L306.86,242.4a9.86,9.86,0,0,1,8.93,0l43.75,25.26c2.46,1.42,2.46,3.73,0,5.16L80.83,433.61A9.83,9.83,0,0,1,71.9,433.61Z" style="fill:#e0e0e0"></path><path id="freepik--shadow--inject-85" d="M379.24,358c-23.84,13.76-23.84,36.07,0,49.83s62.48,13.77,86.32,0,23.84-36.07,0-49.83S403.07,344.22,379.24,358Z" style="fill:#e0e0e0"></path></g><g id="freepik--Gears--inject-85"><g id="freepik--gears--inject-85"><path d="M103.14,51.4h0l-5.28-3h0a.57.57,0,0,0-.54,0L93.72,50a1.49,1.49,0,0,1,.11-.87L98,40.74a.94.94,0,0,0-.37-1.22l-4.51-2.6h0l-5.25-3a.93.93,0,0,0-1.24.29L81.41,42a1.6,1.6,0,0,1-.69.52l-.39-4a.58.58,0,0,0-.27-.47h0l-5.28-3h0a.59.59,0,0,0-.57.05l-7,4a1.9,1.9,0,0,0-.83,1.31l-.7,7.8a2.65,2.65,0,0,1-.73,1.45A41.46,41.46,0,0,0,61,53.83a1.35,1.35,0,0,1-1.37.39l-4.5-1.58a1.13,1.13,0,0,0-1.27.47L48.75,62A1.1,1.1,0,0,0,49,63.37l3.61,3.11a1.35,1.35,0,0,1,.35,1.39,41,41,0,0,0-1.62,5.43,2.68,2.68,0,0,1-.9,1.36L44,79.16a1.89,1.89,0,0,0-.72,1.38v8.1a.6.6,0,0,0,.25.52h0l5.27,3h0a.57.57,0,0,0,.54,0L53,90.55a1.56,1.56,0,0,1-.11.87L48.7,99.81a1,1,0,0,0,.37,1.22l6.34,3.64h0l3.43,2a1,1,0,0,0,1.25-.29l5.18-7.8a1.57,1.57,0,0,1,.68-.52l.4,4a.56.56,0,0,0,.27.48h0l5.27,3h0a.56.56,0,0,0,.57,0l7-4a1.88,1.88,0,0,0,.84-1.31l.7-7.79a2.55,2.55,0,0,1,.73-1.46,42.37,42.37,0,0,0,3.89-4.12A1.35,1.35,0,0,1,87,86.34l4.5,1.57a1.09,1.09,0,0,0,1.26-.47l5.15-8.92a1.08,1.08,0,0,0-.22-1.33L94.1,74.08a1.34,1.34,0,0,1-.35-1.39,41.87,41.87,0,0,0,1.62-5.43,2.55,2.55,0,0,1,.9-1.36l6.4-4.51a1.89,1.89,0,0,0,.72-1.38V51.92A.58.58,0,0,0,103.14,51.4Zm-39,27.22c0-7.55,5.3-16.73,11.84-20.5,2.56-1.48,4.92-1.91,6.86-1.43A10.84,10.84,0,0,1,84.37,63c0,7.56-5.3,16.74-11.84,20.51C70,85,67.8,85.43,66.1,85A9.65,9.65,0,0,1,64.14,78.62Z" style="fill:#BA68C8"></path><path d="M103.14,51.4h0l-5.28-3h0a.57.57,0,0,0-.54,0L93.72,50a1.49,1.49,0,0,1,.11-.87L98,40.74a.94.94,0,0,0-.37-1.22l-4.51-2.6h0l-5.25-3a.93.93,0,0,0-1.24.29L81.41,42a1.6,1.6,0,0,1-.69.52l-.39-4a.58.58,0,0,0-.27-.47h0l-5.28-3h0a.59.59,0,0,0-.57.05l-7,4a1.9,1.9,0,0,0-.83,1.31l-.7,7.8a2.65,2.65,0,0,1-.73,1.45A41.46,41.46,0,0,0,61,53.83a1.35,1.35,0,0,1-1.37.39l-4.5-1.58a1.13,1.13,0,0,0-1.27.47L48.75,62A1.1,1.1,0,0,0,49,63.37l3.61,3.11a1.35,1.35,0,0,1,.35,1.39,41,41,0,0,0-1.62,5.43,2.68,2.68,0,0,1-.9,1.36L44,79.16a1.89,1.89,0,0,0-.72,1.38v8.1a.6.6,0,0,0,.25.52h0l5.27,3h0a.57.57,0,0,0,.54,0L53,90.55a1.56,1.56,0,0,1-.11.87L48.7,99.81a1,1,0,0,0,.37,1.22l6.34,3.64h0l3.43,2a1,1,0,0,0,1.25-.29l5.18-7.8a1.57,1.57,0,0,1,.68-.52l.4,4a.56.56,0,0,0,.27.48h0l5.27,3h0a.56.56,0,0,0,.57,0l7-4a1.88,1.88,0,0,0,.84-1.31l.7-7.79a2.55,2.55,0,0,1,.73-1.46,42.37,42.37,0,0,0,3.89-4.12A1.35,1.35,0,0,1,87,86.34l4.5,1.57a1.09,1.09,0,0,0,1.26-.47l5.15-8.92a1.08,1.08,0,0,0-.22-1.33L94.1,74.08a1.34,1.34,0,0,1-.35-1.39,41.87,41.87,0,0,0,1.62-5.43,2.55,2.55,0,0,1,.9-1.36l6.4-4.51a1.89,1.89,0,0,0,.72-1.38V51.92A.58.58,0,0,0,103.14,51.4Zm-39,27.22c0-7.55,5.3-16.73,11.84-20.5,2.56-1.48,4.92-1.91,6.86-1.43A10.84,10.84,0,0,1,84.37,63c0,7.56-5.3,16.74-11.84,20.51C70,85,67.8,85.43,66.1,85A9.65,9.65,0,0,1,64.14,78.62Z" style="fill:#fff;opacity:0.2"></path><path d="M56.65,89.84a.74.74,0,0,0-1-.48L53,90.54a1.51,1.51,0,0,1-.12.88L48.7,99.81a1,1,0,0,0,.37,1.22l6.34,3.64-1.07-.62a.94.94,0,0,1-.37-1.22l4.16-8.38A1.74,1.74,0,0,0,58,92.94,14,14,0,0,1,56.65,89.84Zm15.19,15.64a.68.68,0,0,1-.21-.45l-.69-6.81a.74.74,0,0,0-.93-.66,14.36,14.36,0,0,1-3.38.34,1.66,1.66,0,0,0-.67.15l.4,4a.56.56,0,0,0,.27.48h0Z" style="opacity:0.1"></path><path d="M87.82,65c0,7.55-5.3,16.74-11.84,20.51-4.13,2.39-7.77,2-9.89-.44,1.7.41,3.88-.07,6.44-1.55,6.54-3.77,11.84-13,11.84-20.51a10.79,10.79,0,0,0-1.53-6.27C85.86,57.42,87.82,60.36,87.82,65Z" style="opacity:0.1"></path><path d="M87.83,33.89a.94.94,0,0,0-1.24.3L81.41,42a1.59,1.59,0,0,1-.35.33l5.28,3a1.22,1.22,0,0,0,.34-.34l5.18-7.79A1,1,0,0,1,93,36.86Zm10,14.47h0a.62.62,0,0,0-.55,0L93.71,50a1.8,1.8,0,0,0,.21.63,13.91,13.91,0,0,1,1.34,2.94.88.88,0,0,1,0,.15.89.89,0,0,0,.19.33l.09.08a.78.78,0,0,0,.2.11.73.73,0,0,0,.39,0l.17-.05,6.24-2.82.16,0a.38.38,0,0,1,.21,0,.48.48,0,0,1,.18.06h0ZM74.78,35a.57.57,0,0,0-.57.06l-7,4a1.86,1.86,0,0,0-.7.85l5.26,3a1.8,1.8,0,0,1,.71-.84l7-4.05a.6.6,0,0,1,.54-.07ZM50.91,74.13a2.29,2.29,0,0,1-.49.53L44,79.16a1.87,1.87,0,0,0-.43.49l5.26,3a1.46,1.46,0,0,1,.44-.48l6.4-4.51a2.5,2.5,0,0,0,.5-.52ZM54.8,52.59a1.13,1.13,0,0,0-.9.53L48.75,62a1.12,1.12,0,0,0-.12.65l5.27,3a1.09,1.09,0,0,1,.12-.66l5.16-8.92a1,1,0,0,1,.83-.52Z" style="fill:#BA68C8"></path><path d="M87.83,33.89a.94.94,0,0,0-1.24.3L81.41,42a1.59,1.59,0,0,1-.35.33l5.28,3a1.22,1.22,0,0,0,.34-.34l5.18-7.79A1,1,0,0,1,93,36.86Zm10,14.47h0a.62.62,0,0,0-.55,0L93.71,50a1.8,1.8,0,0,0,.21.63,13.91,13.91,0,0,1,1.34,2.94.88.88,0,0,1,0,.15.89.89,0,0,0,.19.33l.09.08a.78.78,0,0,0,.2.11.73.73,0,0,0,.39,0l.17-.05,6.24-2.82.16,0a.38.38,0,0,1,.21,0,.48.48,0,0,1,.18.06h0ZM74.78,35a.57.57,0,0,0-.57.06l-7,4a1.86,1.86,0,0,0-.7.85l5.26,3a1.8,1.8,0,0,1,.71-.84l7-4.05a.6.6,0,0,1,.54-.07ZM50.91,74.13a2.29,2.29,0,0,1-.49.53L44,79.16a1.87,1.87,0,0,0-.43.49l5.26,3a1.46,1.46,0,0,1,.44-.48l6.4-4.51a2.5,2.5,0,0,0,.5-.52ZM54.8,52.59a1.13,1.13,0,0,0-.9.53L48.75,62a1.12,1.12,0,0,0-.12.65l5.27,3a1.09,1.09,0,0,1,.12-.66l5.16-8.92a1,1,0,0,1,.83-.52Z" style="fill:#fff;opacity:0.7000000000000001"></path><path d="M103.39,60V51.92a.52.52,0,0,0-.8-.52l-6.24,2.81a.74.74,0,0,1-1-.48,14.08,14.08,0,0,0-1.39-3.09,1.71,1.71,0,0,1-.09-1.51L98,40.74a.94.94,0,0,0-.37-1.22l-4.51-2.6a1,1,0,0,0-1.24.29L86.68,45a1.76,1.76,0,0,1-1.36.68A13.77,13.77,0,0,0,82,46a.75.75,0,0,1-.94-.66l-.68-6.81a.53.53,0,0,0-.85-.43l-7,4a1.92,1.92,0,0,0-.83,1.31l-.7,7.8a2.71,2.71,0,0,1-.73,1.46,41.34,41.34,0,0,0-3.9,4.12,1.33,1.33,0,0,1-1.37.39l-4.5-1.57a1.11,1.11,0,0,0-1.27.47L54,65.06a1.1,1.1,0,0,0,.23,1.33l3.61,3.11a1.36,1.36,0,0,1,.35,1.39,41,41,0,0,0-1.62,5.43,2.68,2.68,0,0,1-.9,1.36l-6.4,4.51a1.87,1.87,0,0,0-.72,1.38v8.09a.52.52,0,0,0,.8.51l6.24-2.81a.74.74,0,0,1,1,.48A14,14,0,0,0,58,92.94a1.71,1.71,0,0,1,.09,1.51L54,102.83a1,1,0,0,0,.37,1.22l4.51,2.61a1,1,0,0,0,1.25-.29l5.18-7.8a1.73,1.73,0,0,1,1.36-.67A13.77,13.77,0,0,0,70,97.56a.73.73,0,0,1,.93.66l.69,6.81a.52.52,0,0,0,.84.43l7-4a1.88,1.88,0,0,0,.84-1.31l.7-7.79a2.55,2.55,0,0,1,.73-1.46,42.37,42.37,0,0,0,3.89-4.12A1.35,1.35,0,0,1,87,86.34l4.5,1.57a1.09,1.09,0,0,0,1.26-.47l5.15-8.92a1.08,1.08,0,0,0-.22-1.33L94.1,74.08a1.34,1.34,0,0,1-.35-1.39,41.87,41.87,0,0,0,1.62-5.43,2.55,2.55,0,0,1,.9-1.36l6.4-4.51A1.89,1.89,0,0,0,103.39,60ZM76,85.46c-6.54,3.78-11.84.72-11.84-6.84S69.44,61.89,76,58.12,87.82,57.4,87.82,65,82.52,81.69,76,85.46Z" style="fill:#BA68C8"></path><g style="opacity:0.55"><path d="M103.39,60V51.92a.52.52,0,0,0-.8-.52l-6.24,2.81a.74.74,0,0,1-1-.48,14.08,14.08,0,0,0-1.39-3.09,1.71,1.71,0,0,1-.09-1.51L98,40.74a.94.94,0,0,0-.37-1.22l-4.51-2.6a1,1,0,0,0-1.24.29L86.68,45a1.76,1.76,0,0,1-1.36.68A13.77,13.77,0,0,0,82,46a.75.75,0,0,1-.94-.66l-.68-6.81a.53.53,0,0,0-.85-.43l-7,4a1.92,1.92,0,0,0-.83,1.31l-.7,7.8a2.71,2.71,0,0,1-.73,1.46,41.34,41.34,0,0,0-3.9,4.12,1.33,1.33,0,0,1-1.37.39l-4.5-1.57a1.11,1.11,0,0,0-1.27.47L54,65.06a1.1,1.1,0,0,0,.23,1.33l3.61,3.11a1.36,1.36,0,0,1,.35,1.39,41,41,0,0,0-1.62,5.43,2.68,2.68,0,0,1-.9,1.36l-6.4,4.51a1.87,1.87,0,0,0-.72,1.38v8.09a.52.52,0,0,0,.8.51l6.24-2.81a.74.74,0,0,1,1,.48A14,14,0,0,0,58,92.94a1.71,1.71,0,0,1,.09,1.51L54,102.83a1,1,0,0,0,.37,1.22l4.51,2.61a1,1,0,0,0,1.25-.29l5.18-7.8a1.73,1.73,0,0,1,1.36-.67A13.77,13.77,0,0,0,70,97.56a.73.73,0,0,1,.93.66l.69,6.81a.52.52,0,0,0,.84.43l7-4a1.88,1.88,0,0,0,.84-1.31l.7-7.79a2.55,2.55,0,0,1,.73-1.46,42.37,42.37,0,0,0,3.89-4.12A1.35,1.35,0,0,1,87,86.34l4.5,1.57a1.09,1.09,0,0,0,1.26-.47l5.15-8.92a1.08,1.08,0,0,0-.22-1.33L94.1,74.08a1.34,1.34,0,0,1-.35-1.39,41.87,41.87,0,0,0,1.62-5.43,2.55,2.55,0,0,1,.9-1.36l6.4-4.51A1.89,1.89,0,0,0,103.39,60ZM76,85.46c-6.54,3.78-11.84.72-11.84-6.84S69.44,61.89,76,58.12,87.82,57.4,87.82,65,82.52,81.69,76,85.46Z" style="fill:#fff"></path><path d="M59.31,107.12a1.28,1.28,0,0,1-.63-.16l-4.51-2.61a1.3,1.3,0,0,1-.51-1.67l4.16-8.38a1.37,1.37,0,0,0-.08-1.18A14.28,14.28,0,0,1,56.32,90a.44.44,0,0,0-.24-.29.39.39,0,0,0-.33,0l-6.24,2.81a.93.93,0,0,1-.89,0,.91.91,0,0,1-.39-.8V83.57a2.24,2.24,0,0,1,.86-1.66l6.4-4.51a2.27,2.27,0,0,0,.76-1.15,41,41,0,0,1,1.64-5.48,1,1,0,0,0-.26-1L54,66.65a1.45,1.45,0,0,1-.3-1.76L58.88,56a1.44,1.44,0,0,1,1.67-.62l4.5,1.57a1,1,0,0,0,1-.28A43.41,43.41,0,0,1,70,52.47a2.2,2.2,0,0,0,.62-1.23l.71-7.8a2.21,2.21,0,0,1,1-1.57l7-4a.92.92,0,0,1,.89-.06.93.93,0,0,1,.47.76l.68,6.81a.42.42,0,0,0,.16.29.44.44,0,0,0,.36.06,14.42,14.42,0,0,1,3.46-.35,1.43,1.43,0,0,0,1.06-.52L91.57,37a1.3,1.3,0,0,1,1.7-.4l4.52,2.61a1.3,1.3,0,0,1,.5,1.67l-4.16,8.38a1.4,1.4,0,0,0,.08,1.18,14.78,14.78,0,0,1,1.43,3.17.44.44,0,0,0,.23.28.37.37,0,0,0,.34,0l6.24-2.81a.93.93,0,0,1,.89,0,.91.91,0,0,1,.39.8V60a2.25,2.25,0,0,1-.86,1.66l-6.4,4.51a2.17,2.17,0,0,0-.76,1.15,44.67,44.67,0,0,1-1.64,5.48,1,1,0,0,0,.25,1l3.61,3.12a1.42,1.42,0,0,1,.3,1.76l-5.15,8.92a1.43,1.43,0,0,1-1.67.62l-4.5-1.57a1,1,0,0,0-1,.29A43.42,43.42,0,0,1,82,91.1a2.29,2.29,0,0,0-.62,1.24l-.7,7.79a2.23,2.23,0,0,1-1,1.58l-7,4.05a1,1,0,0,1-.89.06.9.9,0,0,1-.47-.76l-.69-6.81a.38.38,0,0,0-.16-.3.43.43,0,0,0-.36-.06,13.85,13.85,0,0,1-3.45.35,1.51,1.51,0,0,0-1.07.52l-5.18,7.8A1.28,1.28,0,0,1,59.31,107.12ZM55.94,88.94a1,1,0,0,1,.43.1,1.14,1.14,0,0,1,.6.7,13.87,13.87,0,0,0,1.36,3,2.06,2.06,0,0,1,.11,1.84L54.28,103a.62.62,0,0,0,.23.78l4.52,2.6a.6.6,0,0,0,.78-.18L65,98.38a2.07,2.07,0,0,1,1.65-.82,14.13,14.13,0,0,0,3.3-.34,1.09,1.09,0,0,1,1.35,1L72,105a.29.29,0,0,0,.1.22.27.27,0,0,0,.23,0l7-4a1.57,1.57,0,0,0,.67-1l.7-7.8a2.88,2.88,0,0,1,.84-1.67,44.58,44.58,0,0,0,3.86-4.09,1.7,1.7,0,0,1,1.75-.5l4.5,1.57a.74.74,0,0,0,.85-.31l5.16-8.93a.74.74,0,0,0-.16-.89l-3.61-3.11a1.71,1.71,0,0,1-.44-1.77A43.19,43.19,0,0,0,95,67.18a2.84,2.84,0,0,1,1-1.56l6.4-4.51A1.53,1.53,0,0,0,103,60V51.92a.31.31,0,0,0-.07-.23.27.27,0,0,0-.24,0l-6.24,2.81a1.09,1.09,0,0,1-.9,0,1.15,1.15,0,0,1-.61-.7,13.85,13.85,0,0,0-1.35-3A2,2,0,0,1,93.52,49l4.16-8.39a.61.61,0,0,0-.24-.77l-4.51-2.6a.6.6,0,0,0-.78.18L87,45.19a2,2,0,0,1-1.65.83,14.63,14.63,0,0,0-3.29.33,1.08,1.08,0,0,1-1.35-1L80,38.58a.32.32,0,0,0-.1-.21c-.06,0-.14,0-.24.05l-7,4a1.52,1.52,0,0,0-.67,1l-.7,7.8A2.88,2.88,0,0,1,70.44,53a42,42,0,0,0-3.86,4.09,1.69,1.69,0,0,1-1.76.49L60.32,56a.75.75,0,0,0-.85.32l-5.15,8.92a.76.76,0,0,0,.15.9l3.61,3.11A1.69,1.69,0,0,1,58.53,71a42.7,42.7,0,0,0-1.61,5.39,2.93,2.93,0,0,1-1,1.56l-6.41,4.51a1.55,1.55,0,0,0-.57,1.1v8.09a.25.25,0,0,0,.08.22.3.3,0,0,0,.24,0l6.24-2.81A1.12,1.12,0,0,1,55.94,88.94Zm14.75-1.51a6.44,6.44,0,0,1-3.26-.84c-2.34-1.36-3.64-4.19-3.64-8,0-7.64,5.39-17,12-20.8,3.27-1.89,6.37-2.19,8.71-.83s3.64,4.18,3.64,8c0,7.65-5.39,17-12,20.81h0A11.09,11.09,0,0,1,70.69,87.43ZM81.27,56.84a10.46,10.46,0,0,0-5.12,1.57C69.72,62.13,64.48,71.2,64.48,78.62c0,3.53,1.17,6.15,3.3,7.37s5,.93,8-.83h0C82.24,81.45,87.48,72.38,87.48,65c0-3.52-1.18-6.14-3.3-7.37A5.83,5.83,0,0,0,81.27,56.84Z" style="fill:#fff"></path></g><path d="M142.06,49.56a3.06,3.06,0,0,1,.8-1.64l3.31-3a2,2,0,0,0,.56-1.63l-.63-3.61a.67.67,0,0,0-.31-.5h0l-3.91-2.26h0a.61.61,0,0,0-.69.06l-1.42.93,1.37-3.71a.82.82,0,0,0-.38-1h0l-3.92-2.26h0a.76.76,0,0,0-.26-.11l-2.49-.56a1.36,1.36,0,0,0-1.41.66l-2.34,4.46a2.32,2.32,0,0,1-.94.86l-.1-.35a.76.76,0,0,0-.32-.44h0l-3.93-2.27h0a.64.64,0,0,0-.74.11l-3.73,2.93a2.11,2.11,0,0,0-.71,1.58l.23,3.55a2.87,2.87,0,0,1-.58,1.72,26.17,26.17,0,0,0-1.74,2.3,2,2,0,0,1-1.52.77l-2.4-.12a1.52,1.52,0,0,0-1.37.84l-2.26,5.06a1,1,0,0,0,.39,1.22h0l2.65,1.53a1.17,1.17,0,0,1,.07.69,21.38,21.38,0,0,0-.42,2.41,3,3,0,0,1-.81,1.64l-3.3,3a2,2,0,0,0-.56,1.63l.62,3.61a.69.69,0,0,0,.3.49h0l3.94,2.28h0a.62.62,0,0,0,.68-.07l1.42-.93-1.38,3.71a.82.82,0,0,0,.33,1h0l3.94,2.27h0a.88.88,0,0,0,.28.12l2.49.56a1.34,1.34,0,0,0,1.41-.66L124.64,72a2.35,2.35,0,0,1,.93-.86l.11.36a.7.7,0,0,0,.32.43h0l3.9,2.25h0l0,0h0a.64.64,0,0,0,.71-.11l3.74-2.94a2.06,2.06,0,0,0,.7-1.58L134.88,66a2.81,2.81,0,0,1,.58-1.72c.61-.73,1.19-1.5,1.74-2.29a1.89,1.89,0,0,1,1.51-.77l2.4.11a1.54,1.54,0,0,0,1.38-.84l2.26-5.06a1,1,0,0,0-.51-1.28l-1.93-.82a1.21,1.21,0,0,1-.67-1.34A21,21,0,0,0,142.06,49.56Zm-19.92,11c-.73-4.25,2-10.27,6-13.45a8.14,8.14,0,0,1,4.25-1.89,6.54,6.54,0,0,1,.47,1.56c.73,4.25-2,10.27-6,13.45a8.19,8.19,0,0,1-4.24,1.89A6.08,6.08,0,0,1,122.14,60.53Z" style="fill:#BA68C8"></path><path d="M142.06,49.56a3.06,3.06,0,0,1,.8-1.64l3.31-3a2,2,0,0,0,.56-1.63l-.63-3.61a.67.67,0,0,0-.31-.5h0l-3.91-2.26h0a.61.61,0,0,0-.69.06l-1.42.93,1.37-3.71a.82.82,0,0,0-.38-1h0l-3.92-2.26h0a.76.76,0,0,0-.26-.11l-2.49-.56a1.36,1.36,0,0,0-1.41.66l-2.34,4.46a2.32,2.32,0,0,1-.94.86l-.1-.35a.76.76,0,0,0-.32-.44h0l-3.93-2.27h0a.64.64,0,0,0-.74.11l-3.73,2.93a2.11,2.11,0,0,0-.71,1.58l.23,3.55a2.87,2.87,0,0,1-.58,1.72,26.17,26.17,0,0,0-1.74,2.3,2,2,0,0,1-1.52.77l-2.4-.12a1.52,1.52,0,0,0-1.37.84l-2.26,5.06a1,1,0,0,0,.39,1.22h0l2.65,1.53a1.17,1.17,0,0,1,.07.69,21.38,21.38,0,0,0-.42,2.41,3,3,0,0,1-.81,1.64l-3.3,3a2,2,0,0,0-.56,1.63l.62,3.61a.69.69,0,0,0,.3.49h0l3.94,2.28h0a.62.62,0,0,0,.68-.07l1.42-.93-1.38,3.71a.82.82,0,0,0,.33,1h0l3.94,2.27h0a.88.88,0,0,0,.28.12l2.49.56a1.34,1.34,0,0,0,1.41-.66L124.64,72a2.35,2.35,0,0,1,.93-.86l.11.36a.7.7,0,0,0,.32.43h0l3.9,2.25h0l0,0h0a.64.64,0,0,0,.71-.11l3.74-2.94a2.06,2.06,0,0,0,.7-1.58L134.88,66a2.81,2.81,0,0,1,.58-1.72c.61-.73,1.19-1.5,1.74-2.29a1.89,1.89,0,0,1,1.51-.77l2.4.11a1.54,1.54,0,0,0,1.38-.84l2.26-5.06a1,1,0,0,0-.51-1.28l-1.93-.82a1.21,1.21,0,0,1-.67-1.34A21,21,0,0,0,142.06,49.56Zm-19.92,11c-.73-4.25,2-10.27,6-13.45a8.14,8.14,0,0,1,4.25-1.89,6.54,6.54,0,0,1,.47,1.56c.73,4.25-2,10.27-6,13.45a8.19,8.19,0,0,1-4.24,1.89A6.08,6.08,0,0,1,122.14,60.53Z" style="fill:#fff;opacity:0.2"></path><path d="M118.44,68.46a1,1,0,0,0-1.33-.3l-1.89,1.24-1.37,3.71a.84.84,0,0,0,.33,1l3.89,2.24a.82.82,0,0,1-.29-1l1.69-4.56a1.66,1.66,0,0,0-.39-1.57A7.11,7.11,0,0,1,118.44,68.46Zm11.48,5.69a.75.75,0,0,1-.31-.44l-.84-2.79a.85.85,0,0,0-1.18-.54,12.47,12.47,0,0,1-1.53.51,1.69,1.69,0,0,0-.49.2l.11.36a.74.74,0,0,0,.32.43h0Z" style="opacity:0.1"></path><path d="M130.79,62.47c-3.49,2.74-6.85,2.48-8.17-.38a8.19,8.19,0,0,0,4.24-1.89c4-3.18,6.73-9.2,6-13.45a6.24,6.24,0,0,0-.47-1.56c2.22-.19,3.94,1.14,4.4,3.82C137.52,53.27,134.83,59.28,130.79,62.47Z" style="opacity:0.1"></path><path d="M117,45.94a1.57,1.57,0,0,1-.68.14L113.88,46a1.45,1.45,0,0,0-1,.36l3.93,2.27a1.56,1.56,0,0,1,1-.37l2.41.12a1.55,1.55,0,0,0,.68-.13Zm8.1-12.81a.64.64,0,0,0-.73.1l-3.74,2.94a2,2,0,0,0-.62,1l3.93,2.26a2.07,2.07,0,0,1,.62-1l3.73-2.92a.62.62,0,0,1,.74-.1h0Zm-13,26.27-3.26,3a1.92,1.92,0,0,0-.51.94l3.92,2.26a1.93,1.93,0,0,1,.52-.93l3.26-3Zm24.77-28.52a.76.76,0,0,0-.26-.11l-2.49-.56a1.36,1.36,0,0,0-1.41.66l-2.34,4.46a2.15,2.15,0,0,1-.54.6l3.93,2.26a1.76,1.76,0,0,0,.53-.6l2.35-4.46a1.33,1.33,0,0,1,1.41-.65l2.49.56a1.06,1.06,0,0,1,.25.09Zm5,6h0a.64.64,0,0,0-.68.07l-1.42.94-.32.84a1.67,1.67,0,0,0,.4,1.58,6.19,6.19,0,0,1,.64.78,1.54,1.54,0,0,0,.17.19l.14.11a.91.91,0,0,0,.33.13.82.82,0,0,0,.44,0,.58.58,0,0,0,.24-.11l3.31-2.17a1.79,1.79,0,0,1,.24-.12.54.54,0,0,1,.28,0l.16,0Z" style="fill:#BA68C8"></path><path d="M117,45.94a1.57,1.57,0,0,1-.68.14L113.88,46a1.45,1.45,0,0,0-1,.36l3.93,2.27a1.56,1.56,0,0,1,1-.37l2.41.12a1.55,1.55,0,0,0,.68-.13Zm8.1-12.81a.64.64,0,0,0-.73.1l-3.74,2.94a2,2,0,0,0-.62,1l3.93,2.26a2.07,2.07,0,0,1,.62-1l3.73-2.92a.62.62,0,0,1,.74-.1h0Zm-13,26.27-3.26,3a1.92,1.92,0,0,0-.51.94l3.92,2.26a1.93,1.93,0,0,1,.52-.93l3.26-3Zm24.77-28.52a.76.76,0,0,0-.26-.11l-2.49-.56a1.36,1.36,0,0,0-1.41.66l-2.34,4.46a2.15,2.15,0,0,1-.54.6l3.93,2.26a1.76,1.76,0,0,0,.53-.6l2.35-4.46a1.33,1.33,0,0,1,1.41-.65l2.49.56a1.06,1.06,0,0,1,.25.09Zm5,6h0a.64.64,0,0,0-.68.07l-1.42.94-.32.84a1.67,1.67,0,0,0,.4,1.58,6.19,6.19,0,0,1,.64.78,1.54,1.54,0,0,0,.17.19l.14.11a.91.91,0,0,0,.33.13.82.82,0,0,0,.44,0,.58.58,0,0,0,.24-.11l3.31-2.17a1.79,1.79,0,0,1,.24-.12.54.54,0,0,1,.28,0l.16,0Z" style="fill:#fff;opacity:0.7000000000000001"></path><path d="M146.73,43.25l-.63-3.61a.59.59,0,0,0-1-.42l-3.3,2.17a1,1,0,0,1-1.33-.3,7.11,7.11,0,0,0-.64-.79,1.61,1.61,0,0,1-.39-1.57l1.68-4.56a.82.82,0,0,0-.61-1.13L138,32.48a1.34,1.34,0,0,0-1.41.66l-2.35,4.46a2.43,2.43,0,0,1-1.41,1.06,12.47,12.47,0,0,0-1.53.51.85.85,0,0,1-1.18-.54l-.84-2.79a.63.63,0,0,0-1.06-.34l-3.73,2.94a2.11,2.11,0,0,0-.71,1.58l.22,3.55a2.77,2.77,0,0,1-.58,1.72c-.61.73-1.19,1.5-1.73,2.29a1.9,1.9,0,0,1-1.52.77l-2.4-.12a1.55,1.55,0,0,0-1.37.85l-2.26,5.06a1,1,0,0,0,.5,1.28l1.94.82a1.21,1.21,0,0,1,.67,1.34,21,21,0,0,0-.42,2.41,3,3,0,0,1-.81,1.64l-3.31,3a2,2,0,0,0-.55,1.63l.62,3.61a.59.59,0,0,0,1,.42l3.3-2.17a1,1,0,0,1,1.33.3,7.11,7.11,0,0,0,.64.79,1.63,1.63,0,0,1,.39,1.57l-1.69,4.56a.84.84,0,0,0,.62,1.13l2.49.56a1.34,1.34,0,0,0,1.41-.66L124.64,72a2.42,2.42,0,0,1,1.42-1.06,12.47,12.47,0,0,0,1.53-.51.85.85,0,0,1,1.18.54l.84,2.79a.62.62,0,0,0,1,.34l3.74-2.94a2.06,2.06,0,0,0,.7-1.58L134.88,66a2.87,2.87,0,0,1,.58-1.72c.61-.73,1.19-1.5,1.74-2.29a1.89,1.89,0,0,1,1.51-.77l2.4.11a1.54,1.54,0,0,0,1.38-.84l2.26-5.06a1,1,0,0,0-.51-1.28l-1.93-.82a1.21,1.21,0,0,1-.67-1.34,21,21,0,0,0,.42-2.41,3.06,3.06,0,0,1,.8-1.64l3.31-3A2,2,0,0,0,146.73,43.25ZM130.79,62.47c-4,3.18-7.92,2.31-8.65-1.94s2-10.27,6-13.45,7.92-2.31,8.65,1.94S134.83,59.29,130.79,62.47Z" style="fill:#BA68C8"></path><g style="opacity:0.55"><path d="M146.73,43.25l-.63-3.61a.59.59,0,0,0-1-.42l-3.3,2.17a1,1,0,0,1-1.33-.3,7.11,7.11,0,0,0-.64-.79,1.61,1.61,0,0,1-.39-1.57l1.68-4.56a.82.82,0,0,0-.61-1.13L138,32.48a1.34,1.34,0,0,0-1.41.66l-2.35,4.46a2.43,2.43,0,0,1-1.41,1.06,12.47,12.47,0,0,0-1.53.51.85.85,0,0,1-1.18-.54l-.84-2.79a.63.63,0,0,0-1.06-.34l-3.73,2.94a2.11,2.11,0,0,0-.71,1.58l.22,3.55a2.77,2.77,0,0,1-.58,1.72c-.61.73-1.19,1.5-1.73,2.29a1.9,1.9,0,0,1-1.52.77l-2.4-.12a1.55,1.55,0,0,0-1.37.85l-2.26,5.06a1,1,0,0,0,.5,1.28l1.94.82a1.21,1.21,0,0,1,.67,1.34,21,21,0,0,0-.42,2.41,3,3,0,0,1-.81,1.64l-3.31,3a2,2,0,0,0-.55,1.63l.62,3.61a.59.59,0,0,0,1,.42l3.3-2.17a1,1,0,0,1,1.33.3,7.11,7.11,0,0,0,.64.79,1.63,1.63,0,0,1,.39,1.57l-1.69,4.56a.84.84,0,0,0,.62,1.13l2.49.56a1.34,1.34,0,0,0,1.41-.66L124.64,72a2.42,2.42,0,0,1,1.42-1.06,12.47,12.47,0,0,0,1.53-.51.85.85,0,0,1,1.18.54l.84,2.79a.62.62,0,0,0,1,.34l3.74-2.94a2.06,2.06,0,0,0,.7-1.58L134.88,66a2.87,2.87,0,0,1,.58-1.72c.61-.73,1.19-1.5,1.74-2.29a1.89,1.89,0,0,1,1.51-.77l2.4.11a1.54,1.54,0,0,0,1.38-.84l2.26-5.06a1,1,0,0,0-.51-1.28l-1.93-.82a1.21,1.21,0,0,1-.67-1.34,21,21,0,0,0,.42-2.41,3.06,3.06,0,0,1,.8-1.64l3.31-3A2,2,0,0,0,146.73,43.25ZM130.79,62.47c-4,3.18-7.92,2.31-8.65-1.94s2-10.27,6-13.45,7.92-2.31,8.65,1.94S134.83,59.29,130.79,62.47Z" style="fill:#fff"></path><path d="M121.13,77.48a1.24,1.24,0,0,1-.33,0l-2.49-.55a1.26,1.26,0,0,1-.83-.62,1.23,1.23,0,0,1-.06-1l1.69-4.55a1.3,1.3,0,0,0-.31-1.18,7,7,0,0,1-.68-.83.58.58,0,0,0-.8-.2L114,70.65a1,1,0,0,1-1,.13,1,1,0,0,1-.58-.81l-.62-3.61a2.4,2.4,0,0,1,.67-2l3.31-3a2.73,2.73,0,0,0,.69-1.4,22.21,22.21,0,0,1,.42-2.46.81.81,0,0,0-.44-.89l-1.94-.83a1.34,1.34,0,0,1-.7-1.79l2.25-5.06a1.92,1.92,0,0,1,1.75-1.07l2.4.12a1.57,1.57,0,0,0,1.18-.6A29,29,0,0,1,123.17,45a2.41,2.41,0,0,0,.49-1.45L123.44,40a2.49,2.49,0,0,1,.85-1.91L128,35.2a1.09,1.09,0,0,1,1-.22,1,1,0,0,1,.67.74l.85,2.8a.42.42,0,0,0,.24.29.51.51,0,0,0,.42,0,13.23,13.23,0,0,1,1.58-.52,2.1,2.1,0,0,0,1.17-.87L136.28,33a1.73,1.73,0,0,1,1.84-.85l2.49.55a1.22,1.22,0,0,1,.83.61,1.24,1.24,0,0,1,.07,1l-1.69,4.56a1.27,1.27,0,0,0,.3,1.18,6.2,6.2,0,0,1,.69.83.57.57,0,0,0,.79.2l3.31-2.18a1.05,1.05,0,0,1,1-.13,1,1,0,0,1,.58.82l.63,3.6a2.42,2.42,0,0,1-.68,2l-3.31,3a2.71,2.71,0,0,0-.68,1.4,22.61,22.61,0,0,1-.42,2.46.82.82,0,0,0,.44.89l1.94.83a1.34,1.34,0,0,1,.72.74,1.32,1.32,0,0,1,0,1l-2.26,5a1.93,1.93,0,0,1-1.75,1.08l-2.4-.12a1.54,1.54,0,0,0-1.18.6c-.55.81-1.14,1.6-1.75,2.33a2.34,2.34,0,0,0-.49,1.44l.22,3.55a2.47,2.47,0,0,1-.86,1.91l-3.73,2.94a1,1,0,0,1-1.66-.53L128.4,71a.46.46,0,0,0-.24-.3.56.56,0,0,0-.42,0,12.8,12.8,0,0,1-1.59.52,2.09,2.09,0,0,0-1.17.87l-2.34,4.46A1.74,1.74,0,0,1,121.13,77.48Zm-3.51-9.86a1.36,1.36,0,0,1,1.13.62,7.27,7.27,0,0,0,.61.74,2,2,0,0,1,.47,2l-1.69,4.56a.5.5,0,0,0,0,.4.47.47,0,0,0,.32.22l2.49.56a1,1,0,0,0,1-.46l2.34-4.46A2.85,2.85,0,0,1,126,70.51a10,10,0,0,0,1.49-.49,1.3,1.3,0,0,1,1,0,1.25,1.25,0,0,1,.65.77L130,73.6c0,.13.1.21.17.23s.17,0,.28-.09l3.73-2.93a1.72,1.72,0,0,0,.56-1.26L134.5,66a3.19,3.19,0,0,1,.67-2c.59-.71,1.17-1.47,1.71-2.26a2.27,2.27,0,0,1,1.85-.94l2.4.12a1.18,1.18,0,0,0,1-.62l2.25-5.06a.55.55,0,0,0-.3-.76l-1.94-.83a1.58,1.58,0,0,1-.88-1.78,20.58,20.58,0,0,0,.4-2.37,3.4,3.4,0,0,1,.93-1.87l3.31-3a1.62,1.62,0,0,0,.44-1.28l-.62-3.6c0-.12-.07-.21-.14-.24s-.15,0-.26.07L142,41.71a1.34,1.34,0,0,1-1.86-.4,7.18,7.18,0,0,0-.6-.74,2,2,0,0,1-.47-2L140.78,34a.5.5,0,0,0,0-.4.54.54,0,0,0-.33-.23L138,32.86a1,1,0,0,0-1,.45l-2.34,4.47A2.82,2.82,0,0,1,133,39a13.47,13.47,0,0,0-1.48.49,1.28,1.28,0,0,1-1,0,1.21,1.21,0,0,1-.64-.77L129,36c0-.13-.1-.21-.18-.23s-.17,0-.27.09l-3.73,2.93a1.68,1.68,0,0,0-.56,1.26l.22,3.55a3.19,3.19,0,0,1-.67,2,27.87,27.87,0,0,0-1.71,2.26,2.28,2.28,0,0,1-1.86.94l-2.4-.12a1.12,1.12,0,0,0-1,.62l-2.26,5a.59.59,0,0,0,0,.45.57.57,0,0,0,.31.32l1.94.83a1.59,1.59,0,0,1,.89,1.77,23.75,23.75,0,0,0-.41,2.38,3.3,3.3,0,0,1-.93,1.87L113,65a1.61,1.61,0,0,0-.44,1.28l.62,3.61a.32.32,0,0,0,.13.24.32.32,0,0,0,.26-.07l3.31-2.17A1.27,1.27,0,0,1,117.62,67.62Zm8.52-2.85a4.34,4.34,0,0,1-1.58-.28,4.74,4.74,0,0,1-2.8-3.89c-.75-4.37,2-10.57,6.14-13.82,2.28-1.79,4.64-2.42,6.47-1.72a4.76,4.76,0,0,1,2.8,3.89c.75,4.37-2,10.57-6.14,13.82A8.23,8.23,0,0,1,126.14,64.77Zm6.64-19.22a7.42,7.42,0,0,0-4.4,1.84c-3.94,3.09-6.57,9-5.86,13.08a4,4,0,0,0,2.31,3.3c1.57.6,3.66,0,5.72-1.61,3.94-3.09,6.57-9,5.86-13.08a3.94,3.94,0,0,0-2.32-3.3A3.72,3.72,0,0,0,132.78,45.55Z" style="fill:#fff"></path></g></g></g><g id="freepik--window-2--inject-85"><g id="freepik--Window--inject-85"><g id="freepik--window--inject-85"><path d="M272.44,26.92a1.75,1.75,0,0,0-.08-.41s0-.06,0-.09a2.24,2.24,0,0,0-.1-.41,2.18,2.18,0,0,0-.27-.58.83.83,0,0,0-.15-.23.7.7,0,0,0-.13-.17,1.65,1.65,0,0,0-.3-.29l0,0a1.9,1.9,0,0,0-.39-.23,3.29,3.29,0,0,0-3,.39L40.1,156c-2.5,1.44-4.53,5-4.53,10V335.28A3.07,3.07,0,0,0,37.2,338l.19.13.24.13a1.64,1.64,0,0,0,.39.14,2.79,2.79,0,0,0,.58.07,2.92,2.92,0,0,0,1.5-.43l.12-.07h0l4.32-2.5,223.39-128.6a10,10,0,0,0,4.53-7.84V27.49C272.47,27.29,272.45,27.1,272.44,26.92Z" style="fill:#455a64"></path><path d="M271,24.48a3.29,3.29,0,0,0-3,.39L40.1,156a10,10,0,0,0-4.53,7.85v8.78l-5.78-3.39v-8.68a10,10,0,0,1,4.51-7.83L262.16,21.6a3.15,3.15,0,0,1,3.28-.27C266.26,21.82,270,24,271,24.48Z" style="fill:#BA68C8"></path><path d="M272.46,27.46c0-2.86-2-4-4.52-2.58L40.1,156a10,10,0,0,0-4.53,7.83v8.79L272.46,36.29Z" style="fill:#BA68C8"></path><g style="opacity:0.2"><path d="M267.93,24.87,40.1,156a9.31,9.31,0,0,0-3.19,3.36L31.16,156a9,9,0,0,1,3.15-3.3L262.15,21.6a3.17,3.17,0,0,1,3.29-.27c.81.5,4.57,2.63,5.53,3.15A3.29,3.29,0,0,0,267.93,24.87Z" style="fill:#fff"></path></g><path d="M29.78,169.22v-8.7A9.34,9.34,0,0,1,31.16,156l5.77,3.32a9.14,9.14,0,0,0-1.36,4.5v8.78Z" style="opacity:0.15"></path><path d="M254.62,36.75a4.54,4.54,0,0,0-1.72,3.64c0,1.47.77,2.21,1.72,1.66a4.54,4.54,0,0,0,1.72-3.64C256.34,36.94,255.57,36.2,254.62,36.75Z" style="fill:#37474f"></path><path d="M260.81,33.17a4.54,4.54,0,0,0-1.72,3.64c0,1.46.77,2.21,1.72,1.66a4.54,4.54,0,0,0,1.72-3.64C262.53,33.36,261.76,32.62,260.81,33.17Z" style="fill:#37474f"></path><path d="M267,29.59a4.54,4.54,0,0,0-1.72,3.64c0,1.46.77,2.2,1.72,1.66a4.55,4.55,0,0,0,1.72-3.65C268.72,29.78,268,29,267,29.59Z" style="fill:#37474f"></path><path d="M37.19,338l-.23-.13-4.77-2.77a4.81,4.81,0,0,1-2.37-3.5,5.12,5.12,0,0,1,0-.67V169.2l5.79,3.39V335.27a3,3,0,0,0,1.4,2.57,1,1,0,0,0,.15.1l0,0Z" style="fill:#263238"></path></g><g id="freepik--Code--inject-85" style="opacity:0.5"><g style="opacity:0.6000000000000001"><path d="M48.41,265.82l6.17-3.56c.62-.36,1.12-.07,1.12.65v2.27a2.48,2.48,0,0,1-1.12,1.94l-6.17,3.56c-.62.36-1.12.07-1.12-.65v-2.27A2.48,2.48,0,0,1,48.41,265.82Z" style="fill:#fff"></path><path d="M48.41,274.85l6.17-3.56c.62-.36,1.12-.07,1.12.64v2.27a2.48,2.48,0,0,1-1.12,1.94l-6.17,3.56c-.62.36-1.12.07-1.12-.64v-2.27A2.45,2.45,0,0,1,48.41,274.85Z" style="fill:#fff"></path><path d="M48.41,283.87l6.17-3.56c.62-.36,1.12-.07,1.12.65v2.26a2.45,2.45,0,0,1-1.12,1.94l-6.17,3.57c-.62.35-1.12.06-1.12-.65v-2.27A2.48,2.48,0,0,1,48.41,283.87Z" style="fill:#fff"></path><path d="M48.41,292.89l6.17-3.56c.62-.35,1.12-.06,1.12.65v2.27a2.48,2.48,0,0,1-1.12,1.94l-6.17,3.56c-.62.36-1.12.07-1.12-.65v-2.26A2.49,2.49,0,0,1,48.41,292.89Z" style="fill:#fff"></path></g><g style="opacity:0.6000000000000001"><path d="M48.41,221.06l6.17-3.56c.62-.36,1.12-.07,1.12.65v2.26a2.45,2.45,0,0,1-1.12,1.94l-6.17,3.57c-.62.35-1.12.06-1.12-.65V223A2.48,2.48,0,0,1,48.41,221.06Z" style="fill:#fff"></path><path d="M48.41,230.08l6.17-3.56c.62-.35,1.12-.06,1.12.65v2.27a2.48,2.48,0,0,1-1.12,1.94l-6.17,3.56c-.62.36-1.12.07-1.12-.65V232A2.49,2.49,0,0,1,48.41,230.08Z" style="fill:#fff"></path><path d="M48.41,239.11l6.17-3.56c.62-.36,1.12-.07,1.12.64v2.27a2.45,2.45,0,0,1-1.12,1.94L48.41,244c-.62.36-1.12.07-1.12-.64v-2.27A2.47,2.47,0,0,1,48.41,239.11Z" style="fill:#fff"></path><path d="M48.41,248.13l6.17-3.56c.62-.36,1.12-.07,1.12.65v2.27a2.48,2.48,0,0,1-1.12,1.94L48.41,253c-.62.35-1.12.07-1.12-.65v-2.27A2.48,2.48,0,0,1,48.41,248.13Z" style="fill:#fff"></path><path d="M48.41,310.59,54.58,307c.62-.35,1.12-.06,1.12.65v2.27a2.48,2.48,0,0,1-1.12,1.94l-6.17,3.56c-.62.36-1.12.07-1.12-.65v-2.26A2.45,2.45,0,0,1,48.41,310.59Z" style="fill:#fff"></path><path d="M48.41,319.61l6.17-3.56c.62-.36,1.12-.07,1.12.64V319a2.45,2.45,0,0,1-1.12,1.94l-6.17,3.56c-.62.36-1.12.07-1.12-.64v-2.27A2.48,2.48,0,0,1,48.41,319.61Z" style="fill:#fff"></path></g><g style="opacity:0.6000000000000001"><path d="M48.41,176.3l6.17-3.56c.62-.36,1.12-.07,1.12.64v2.27a2.47,2.47,0,0,1-1.12,1.94l-6.17,3.56c-.62.36-1.12.07-1.12-.64v-2.27A2.47,2.47,0,0,1,48.41,176.3Z" style="fill:#fff"></path><path d="M48.41,185.32l6.17-3.56c.62-.36,1.12-.07,1.12.65v2.27a2.48,2.48,0,0,1-1.12,1.94l-6.17,3.56c-.62.35-1.12.06-1.12-.65v-2.27A2.48,2.48,0,0,1,48.41,185.32Z" style="fill:#fff"></path><path d="M48.41,194.35l6.17-3.57c.62-.35,1.12-.06,1.12.65v2.27a2.48,2.48,0,0,1-1.12,1.94l-6.17,3.56c-.62.36-1.12.07-1.12-.65v-2.26A2.45,2.45,0,0,1,48.41,194.35Z" style="fill:#fff"></path><path d="M48.41,203.37l6.17-3.56c.62-.36,1.12-.07,1.12.65v2.26a2.45,2.45,0,0,1-1.12,1.94l-6.17,3.57c-.62.35-1.12.06-1.12-.65v-2.27A2.48,2.48,0,0,1,48.41,203.37Z" style="fill:#fff"></path></g><path d="M259,121.32,211.7,148.64a7,7,0,0,0-3.18,5.51v71.27c0,2,1.43,2.85,3.18,1.84L259,199.93a7,7,0,0,0,3.18-5.5V123.15C262.2,121.13,260.78,120.3,259,121.32Z" style="fill:#37474f"></path><path d="M254.63,175.48,250.28,178a3.46,3.46,0,0,0-1.61,2.67c0,1,.72,1.33,1.61.82l4.35-2.52a3.44,3.44,0,0,0,1.61-2.67C256.24,175.34,255.52,175,254.63,175.48Z" style="fill:#BA68C8"></path><path d="M254.63,175.48,250.28,178a3.46,3.46,0,0,0-1.61,2.67c0,1,.72,1.33,1.61.82l4.35-2.52a3.44,3.44,0,0,0,1.61-2.67C256.24,175.34,255.52,175,254.63,175.48Z" style="fill:#fff;opacity:0.6000000000000001"></path><path d="M254.63,130.74l-4.35,2.51a3.46,3.46,0,0,0-1.61,2.68c0,1,.72,1.32,1.61.81l4.35-2.52a3.44,3.44,0,0,0,1.61-2.67C256.24,130.59,255.52,130.22,254.63,130.74Z" style="fill:#BA68C8"></path><path d="M254.63,130.74l-4.35,2.51a3.46,3.46,0,0,0-1.61,2.68c0,1,.72,1.32,1.61.81l4.35-2.52a3.44,3.44,0,0,0,1.61-2.67C256.24,130.59,255.52,130.22,254.63,130.74Z" style="fill:#fff;opacity:0.6000000000000001"></path><path d="M248.51,143.2l-4.36,2.52a3.44,3.44,0,0,0-1.61,2.67c0,1,.72,1.33,1.61.81l4.36-2.52a3.43,3.43,0,0,0,1.61-2.67C250.12,143.05,249.4,142.69,248.51,143.2Z" style="fill:#BA68C8"></path><path d="M248.51,143.2l-4.36,2.52a3.44,3.44,0,0,0-1.61,2.67c0,1,.72,1.33,1.61.81l4.36-2.52a3.43,3.43,0,0,0,1.61-2.67C250.12,143.05,249.4,142.69,248.51,143.2Z" style="fill:#fff;opacity:0.6000000000000001"></path><path d="M248.51,152.13l-4.36,2.52a3.43,3.43,0,0,0-1.61,2.67c0,1,.72,1.32,1.61.81l4.36-2.52a3.44,3.44,0,0,0,1.61-2.67C250.12,152,249.4,151.61,248.51,152.13Z" style="fill:#BA68C8"></path><path d="M248.51,152.13l-4.36,2.52a3.43,3.43,0,0,0-1.61,2.67c0,1,.72,1.32,1.61.81l4.36-2.52a3.44,3.44,0,0,0,1.61-2.67C250.12,152,249.4,151.61,248.51,152.13Z" style="fill:#fff;opacity:0.6000000000000001"></path><path d="M254.63,157.58l-4.35,2.52a3.44,3.44,0,0,0-1.61,2.67c0,1,.72,1.32,1.61.81l4.35-2.52a3.44,3.44,0,0,0,1.61-2.67C256.24,157.43,255.52,157.06,254.63,157.58Z" style="fill:#BA68C8"></path><path d="M254.63,157.58l-4.35,2.52a3.44,3.44,0,0,0-1.61,2.67c0,1,.72,1.32,1.61.81l4.35-2.52a3.44,3.44,0,0,0,1.61-2.67C256.24,157.43,255.52,157.06,254.63,157.58Z" style="fill:#fff;opacity:0.6000000000000001"></path><path d="M248.51,170.05l-4.36,2.52a3.44,3.44,0,0,0-1.61,2.67c0,1,.72,1.33,1.61.82l4.36-2.52a3.46,3.46,0,0,0,1.61-2.68C250.12,169.9,249.4,169.54,248.51,170.05Z" style="fill:#BA68C8"></path><path d="M248.51,170.05l-4.36,2.52a3.44,3.44,0,0,0-1.61,2.67c0,1,.72,1.33,1.61.82l4.36-2.52a3.46,3.46,0,0,0,1.61-2.68C250.12,169.9,249.4,169.54,248.51,170.05Z" style="fill:#fff;opacity:0.6000000000000001"></path><path d="M242.7,137.63,216.1,153a3.44,3.44,0,0,0-1.61,2.67c0,1,.72,1.33,1.61.81l26.6-15.36a3.44,3.44,0,0,0,1.61-2.67C244.31,137.48,243.59,137.11,242.7,137.63Z" style="fill:#BA68C8"></path><path d="M242.7,137.63,216.1,153a3.44,3.44,0,0,0-1.61,2.67c0,1,.72,1.33,1.61.81l26.6-15.36a3.44,3.44,0,0,0,1.61-2.67C244.31,137.48,243.59,137.11,242.7,137.63Z" style="fill:#fff;opacity:0.8"></path><path d="M242.7,182.38l-26.6,15.36a3.44,3.44,0,0,0-1.61,2.67c0,1,.72,1.32,1.61.81l26.6-15.36a3.44,3.44,0,0,0,1.61-2.67C244.31,182.23,243.59,181.86,242.7,182.38Z" style="fill:#BA68C8"></path><path d="M242.7,182.38l-26.6,15.36a3.44,3.44,0,0,0-1.61,2.67c0,1,.72,1.32,1.61.81l26.6-15.36a3.44,3.44,0,0,0,1.61-2.67C244.31,182.23,243.59,181.86,242.7,182.38Z" style="fill:#fff;opacity:0.8"></path><path d="M236.58,150.09,216.1,161.94a3.44,3.44,0,0,0-1.61,2.67c0,1,.72,1.33,1.61.81l20.48-11.85a3.43,3.43,0,0,0,1.61-2.67C238.19,149.94,237.47,149.58,236.58,150.09Z" style="fill:#BA68C8"></path><path d="M236.58,150.09,216.1,161.94a3.44,3.44,0,0,0-1.61,2.67c0,1,.72,1.33,1.61.81l20.48-11.85a3.43,3.43,0,0,0,1.61-2.67C238.19,149.94,237.47,149.58,236.58,150.09Z" style="fill:#fff;opacity:0.8"></path><path d="M236.58,159,216.1,170.89a3.44,3.44,0,0,0-1.61,2.67c0,1,.72,1.33,1.61.81l20.48-11.85a3.43,3.43,0,0,0,1.61-2.67C238.19,158.89,237.47,158.53,236.58,159Z" style="fill:#BA68C8"></path><path d="M236.58,159,216.1,170.89a3.44,3.44,0,0,0-1.61,2.67c0,1,.72,1.33,1.61.81l20.48-11.85a3.43,3.43,0,0,0,1.61-2.67C238.19,158.89,237.47,158.53,236.58,159Z" style="fill:#fff;opacity:0.8"></path><path d="M242.7,164.48l-26.6,15.36a3.44,3.44,0,0,0-1.61,2.67c0,1,.72,1.33,1.61.81L242.7,168a3.44,3.44,0,0,0,1.61-2.67C244.31,164.33,243.59,164,242.7,164.48Z" style="fill:#BA68C8"></path><path d="M242.7,164.48l-26.6,15.36a3.44,3.44,0,0,0-1.61,2.67c0,1,.72,1.33,1.61.81L242.7,168a3.44,3.44,0,0,0,1.61-2.67C244.31,164.33,243.59,164,242.7,164.48Z" style="fill:#fff;opacity:0.8"></path><path d="M236.58,176.94,216.1,188.79a3.44,3.44,0,0,0-1.61,2.67c0,1,.72,1.32,1.61.81l20.48-11.84a3.46,3.46,0,0,0,1.61-2.67C238.19,176.79,237.47,176.43,236.58,176.94Z" style="fill:#BA68C8"></path><path d="M236.58,176.94,216.1,188.79a3.44,3.44,0,0,0-1.61,2.67c0,1,.72,1.32,1.61.81l20.48-11.84a3.46,3.46,0,0,0,1.61-2.67C238.19,176.79,237.47,176.43,236.58,176.94Z" style="fill:#fff;opacity:0.8"></path><path d="M254.63,193.48,250.28,196a3.44,3.44,0,0,0-1.61,2.67c0,1,.72,1.33,1.61.81l4.35-2.51a3.46,3.46,0,0,0,1.61-2.68C256.24,193.33,255.52,193,254.63,193.48Z" style="fill:#BA68C8"></path><path d="M254.63,193.48,250.28,196a3.44,3.44,0,0,0-1.61,2.67c0,1,.72,1.33,1.61.81l4.35-2.51a3.46,3.46,0,0,0,1.61-2.68C256.24,193.33,255.52,193,254.63,193.48Z" style="fill:#fff;opacity:0.6000000000000001"></path><path d="M248.51,188.05l-4.36,2.52a3.44,3.44,0,0,0-1.61,2.67c0,1,.72,1.33,1.61.81l4.36-2.52a3.44,3.44,0,0,0,1.61-2.67C250.12,187.9,249.4,187.54,248.51,188.05Z" style="fill:#BA68C8"></path><path d="M248.51,188.05l-4.36,2.52a3.44,3.44,0,0,0-1.61,2.67c0,1,.72,1.33,1.61.81l4.36-2.52a3.44,3.44,0,0,0,1.61-2.67C250.12,187.9,249.4,187.54,248.51,188.05Z" style="fill:#fff;opacity:0.6000000000000001"></path><path d="M242.7,200.37l-26.6,15.36a3.46,3.46,0,0,0-1.61,2.67c0,1,.72,1.33,1.61.82l26.6-15.36a3.46,3.46,0,0,0,1.61-2.67C244.31,200.22,243.59,199.86,242.7,200.37Z" style="fill:#BA68C8"></path><path d="M242.7,200.37l-26.6,15.36a3.46,3.46,0,0,0-1.61,2.67c0,1,.72,1.33,1.61.82l26.6-15.36a3.46,3.46,0,0,0,1.61-2.67C244.31,200.22,243.59,199.86,242.7,200.37Z" style="fill:#fff;opacity:0.8"></path><path d="M236.58,194.94,216.1,206.78a3.46,3.46,0,0,0-1.61,2.68c0,1,.72,1.32,1.61.81l20.48-11.85a3.43,3.43,0,0,0,1.61-2.67C238.19,194.79,237.47,194.43,236.58,194.94Z" style="fill:#BA68C8"></path><path d="M236.58,194.94,216.1,206.78a3.46,3.46,0,0,0-1.61,2.68c0,1,.72,1.32,1.61.81l20.48-11.85a3.43,3.43,0,0,0,1.61-2.67C238.19,194.79,237.47,194.43,236.58,194.94Z" style="fill:#fff;opacity:0.8"></path><path d="M259,48,211.7,75.33a7,7,0,0,0-3.18,5.51v54.64c0,2,1.43,2.85,3.18,1.84L259,110a7,7,0,0,0,3.18-5.5V49.84C262.2,47.82,260.78,47,259,48Z" style="fill:#37474f"></path><path d="M254.63,102.17l-4.35,2.52a3.46,3.46,0,0,0-1.61,2.67c0,1,.72,1.33,1.61.82l4.35-2.52a3.44,3.44,0,0,0,1.61-2.67C256.24,102,255.52,101.66,254.63,102.17Z" style="fill:#BA68C8"></path><path d="M254.63,102.17l-4.35,2.52a3.46,3.46,0,0,0-1.61,2.67c0,1,.72,1.33,1.61.82l4.35-2.52a3.44,3.44,0,0,0,1.61-2.67C256.24,102,255.52,101.66,254.63,102.17Z" style="fill:#fff;opacity:0.6000000000000001"></path><path d="M254.63,57.43l-4.35,2.51a3.46,3.46,0,0,0-1.61,2.68c0,1,.72,1.32,1.61.81l4.35-2.52a3.44,3.44,0,0,0,1.61-2.67C256.24,57.28,255.52,56.91,254.63,57.43Z" style="fill:#BA68C8"></path><path d="M254.63,57.43l-4.35,2.51a3.46,3.46,0,0,0-1.61,2.68c0,1,.72,1.32,1.61.81l4.35-2.52a3.44,3.44,0,0,0,1.61-2.67C256.24,57.28,255.52,56.91,254.63,57.43Z" style="fill:#fff;opacity:0.6000000000000001"></path><path d="M248.51,69.89l-4.36,2.52a3.44,3.44,0,0,0-1.61,2.67c0,1,.72,1.33,1.61.81l4.36-2.52a3.43,3.43,0,0,0,1.61-2.67C250.12,69.74,249.4,69.38,248.51,69.89Z" style="fill:#BA68C8"></path><path d="M248.51,69.89l-4.36,2.52a3.44,3.44,0,0,0-1.61,2.67c0,1,.72,1.33,1.61.81l4.36-2.52a3.43,3.43,0,0,0,1.61-2.67C250.12,69.74,249.4,69.38,248.51,69.89Z" style="fill:#fff;opacity:0.6000000000000001"></path><path d="M248.51,78.82l-4.36,2.52A3.44,3.44,0,0,0,242.54,84c0,1,.72,1.32,1.61.81l4.36-2.52a3.44,3.44,0,0,0,1.61-2.67C250.12,78.67,249.4,78.3,248.51,78.82Z" style="fill:#BA68C8"></path><path d="M248.51,78.82l-4.36,2.52A3.44,3.44,0,0,0,242.54,84c0,1,.72,1.32,1.61.81l4.36-2.52a3.44,3.44,0,0,0,1.61-2.67C250.12,78.67,249.4,78.3,248.51,78.82Z" style="fill:#fff;opacity:0.6000000000000001"></path><path d="M254.63,84.27l-4.35,2.52a3.44,3.44,0,0,0-1.61,2.67c0,1,.72,1.32,1.61.81l4.35-2.52a3.44,3.44,0,0,0,1.61-2.67C256.24,84.12,255.52,83.76,254.63,84.27Z" style="fill:#BA68C8"></path><path d="M254.63,84.27l-4.35,2.52a3.44,3.44,0,0,0-1.61,2.67c0,1,.72,1.32,1.61.81l4.35-2.52a3.44,3.44,0,0,0,1.61-2.67C256.24,84.12,255.52,83.76,254.63,84.27Z" style="fill:#fff;opacity:0.6000000000000001"></path><path d="M248.51,96.74l-4.36,2.52a3.44,3.44,0,0,0-1.61,2.67c0,1,.72,1.33,1.61.82l4.36-2.52a3.46,3.46,0,0,0,1.61-2.68C250.12,96.59,249.4,96.23,248.51,96.74Z" style="fill:#BA68C8"></path><path d="M248.51,96.74l-4.36,2.52a3.44,3.44,0,0,0-1.61,2.67c0,1,.72,1.33,1.61.82l4.36-2.52a3.46,3.46,0,0,0,1.61-2.68C250.12,96.59,249.4,96.23,248.51,96.74Z" style="fill:#fff;opacity:0.6000000000000001"></path><path d="M242.7,64.32,216.1,79.68a3.44,3.44,0,0,0-1.61,2.67c0,1,.72,1.33,1.61.81L242.7,67.8a3.44,3.44,0,0,0,1.61-2.67C244.31,64.17,243.59,63.8,242.7,64.32Z" style="fill:#BA68C8"></path><path d="M242.7,64.32,216.1,79.68a3.44,3.44,0,0,0-1.61,2.67c0,1,.72,1.33,1.61.81L242.7,67.8a3.44,3.44,0,0,0,1.61-2.67C244.31,64.17,243.59,63.8,242.7,64.32Z" style="fill:#fff;opacity:0.8"></path><path d="M242.7,109.07l-26.6,15.36a3.44,3.44,0,0,0-1.61,2.67c0,1,.72,1.32,1.61.81l26.6-15.36a3.44,3.44,0,0,0,1.61-2.67C244.31,108.92,243.59,108.55,242.7,109.07Z" style="fill:#BA68C8"></path><path d="M242.7,109.07l-26.6,15.36a3.44,3.44,0,0,0-1.61,2.67c0,1,.72,1.32,1.61.81l26.6-15.36a3.44,3.44,0,0,0,1.61-2.67C244.31,108.92,243.59,108.55,242.7,109.07Z" style="fill:#fff;opacity:0.8"></path><path d="M236.58,76.78,216.1,88.63a3.44,3.44,0,0,0-1.61,2.67c0,1,.72,1.33,1.61.81l20.48-11.85a3.43,3.43,0,0,0,1.61-2.67C238.19,76.63,237.47,76.27,236.58,76.78Z" style="fill:#BA68C8"></path><path d="M236.58,76.78,216.1,88.63a3.44,3.44,0,0,0-1.61,2.67c0,1,.72,1.33,1.61.81l20.48-11.85a3.43,3.43,0,0,0,1.61-2.67C238.19,76.63,237.47,76.27,236.58,76.78Z" style="fill:#fff;opacity:0.8"></path><path d="M236.58,85.73,216.1,97.58a3.44,3.44,0,0,0-1.61,2.67c0,1,.72,1.33,1.61.81l20.48-11.85a3.43,3.43,0,0,0,1.61-2.67C238.19,85.58,237.47,85.22,236.58,85.73Z" style="fill:#BA68C8"></path><path d="M236.58,85.73,216.1,97.58a3.44,3.44,0,0,0-1.61,2.67c0,1,.72,1.33,1.61.81l20.48-11.85a3.43,3.43,0,0,0,1.61-2.67C238.19,85.58,237.47,85.22,236.58,85.73Z" style="fill:#fff;opacity:0.8"></path><path d="M242.7,91.17l-26.6,15.36a3.44,3.44,0,0,0-1.61,2.67c0,1,.72,1.32,1.61.81l26.6-15.36A3.44,3.44,0,0,0,244.31,92C244.31,91,243.59,90.65,242.7,91.17Z" style="fill:#BA68C8"></path><path d="M242.7,91.17l-26.6,15.36a3.44,3.44,0,0,0-1.61,2.67c0,1,.72,1.32,1.61.81l26.6-15.36A3.44,3.44,0,0,0,244.31,92C244.31,91,243.59,90.65,242.7,91.17Z" style="fill:#fff;opacity:0.8"></path><path d="M236.58,103.63,216.1,115.48a3.44,3.44,0,0,0-1.61,2.67c0,1,.72,1.32,1.61.81l20.48-11.84a3.46,3.46,0,0,0,1.61-2.67C238.19,103.48,237.47,103.12,236.58,103.63Z" style="fill:#BA68C8"></path><path d="M236.58,103.63,216.1,115.48a3.44,3.44,0,0,0-1.61,2.67c0,1,.72,1.32,1.61.81l20.48-11.84a3.46,3.46,0,0,0,1.61-2.67C238.19,103.48,237.47,103.12,236.58,103.63Z" style="fill:#fff;opacity:0.8"></path></g><path d="M64.54,165.88,109.31,140c.62-.36,1.13-.11,1.13.57a2.43,2.43,0,0,1-1.13,1.88L64.54,168.33c-.63.37-1.14.11-1.14-.57A2.42,2.42,0,0,1,64.54,165.88Z" style="fill:#BA68C8"></path><path d="M64.49,195.56l131.77-76c.63-.36,1.13-.1,1.13.58a2.42,2.42,0,0,1-1.13,1.88L64.49,198c-.62.36-1.13.11-1.13-.57A2.47,2.47,0,0,1,64.49,195.56Z" style="fill:#BA68C8"></path><path d="M113.7,137.49,197,89.59c.63-.36,1.13-.11,1.13.57A2.41,2.41,0,0,1,197,92L113.7,140c-.62.36-1.13.1-1.13-.58A2.43,2.43,0,0,1,113.7,137.49Z" style="fill:#BA68C8"></path><path d="M64.54,172.93l22.66-13.1c.63-.36,1.14-.1,1.14.58a2.43,2.43,0,0,1-1.14,1.88l-22.66,13.1c-.63.36-1.14.11-1.14-.57A2.45,2.45,0,0,1,64.54,172.93Z" style="fill:#BA68C8"></path><path d="M64.54,172.93l22.66-13.1c.63-.36,1.14-.1,1.14.58a2.43,2.43,0,0,1-1.14,1.88l-22.66,13.1c-.63.36-1.14.11-1.14-.57A2.45,2.45,0,0,1,64.54,172.93Z" style="fill:#fff;opacity:0.6000000000000001"></path><path d="M64.54,180l13.61-7.84c.63-.36,1.13-.1,1.13.58a2.42,2.42,0,0,1-1.13,1.88L64.54,182.4c-.63.37-1.14.11-1.14-.57A2.42,2.42,0,0,1,64.54,180Z" style="fill:#BA68C8"></path><path d="M64.54,180l13.61-7.84c.63-.36,1.13-.1,1.13.58a2.42,2.42,0,0,1-1.13,1.88L64.54,182.4c-.63.37-1.14.11-1.14-.57A2.42,2.42,0,0,1,64.54,180Z" style="fill:#fff;opacity:0.6000000000000001"></path><path d="M91.6,157.29l78.88-45.43c.62-.36,1.13-.11,1.13.57a2.47,2.47,0,0,1-1.13,1.89L91.6,159.75c-.63.36-1.13.11-1.13-.57A2.44,2.44,0,0,1,91.6,157.29Z" style="fill:#BA68C8"></path><path d="M91.6,157.29l78.88-45.43c.62-.36,1.13-.11,1.13.57a2.47,2.47,0,0,1-1.13,1.89L91.6,159.75c-.63.36-1.13.11-1.13-.57A2.44,2.44,0,0,1,91.6,157.29Z" style="fill:#fff;opacity:0.6000000000000001"></path><path d="M76.34,214.15,197,144.46c.63-.36,1.14-.1,1.14.57a2.44,2.44,0,0,1-1.14,1.89L76.34,216.61c-.62.36-1.13.1-1.13-.58A2.43,2.43,0,0,1,76.34,214.15Z" style="fill:#ffa8a7"></path><path d="M76.34,207.14,197,137.41c.63-.36,1.13-.1,1.13.58a2.41,2.41,0,0,1-1.13,1.88L76.34,209.59c-.62.37-1.13.11-1.13-.57A2.43,2.43,0,0,1,76.34,207.14Z" style="fill:#ffa8a7"></path><path d="M81.79,170l22.43-13c.63-.36,1.14-.1,1.14.58a2.43,2.43,0,0,1-1.14,1.88l-22.43,13c-.63.36-1.13.11-1.13-.57A2.41,2.41,0,0,1,81.79,170Z" style="fill:#BA68C8"></path><path d="M81.79,170l22.43-13c.63-.36,1.14-.1,1.14.58a2.43,2.43,0,0,1-1.14,1.88l-22.43,13c-.63.36-1.13.11-1.13-.57A2.41,2.41,0,0,1,81.79,170Z" style="fill:#fff;opacity:0.6000000000000001"></path><path d="M108.62,154.48l87.66-50.21c.63-.36,1.14-.11,1.14.57a2.42,2.42,0,0,1-1.14,1.88l-87.66,50.22c-.63.36-1.14.11-1.14-.57A2.45,2.45,0,0,1,108.62,154.48Z" style="fill:#BA68C8"></path><path d="M108.62,154.48l87.66-50.21c.63-.36,1.14-.11,1.14.57a2.42,2.42,0,0,1-1.14,1.88l-87.66,50.22c-.63.36-1.14.11-1.14-.57A2.45,2.45,0,0,1,108.62,154.48Z" style="fill:#fff;opacity:0.6000000000000001"></path><path d="M64.49,187.36l39.73-22.81c.63-.36,1.14-.1,1.14.58a2.43,2.43,0,0,1-1.14,1.88l-39.73,22.8c-.62.37-1.13.11-1.13-.57A2.43,2.43,0,0,1,64.49,187.36Z" style="fill:#BA68C8"></path><path d="M64.49,187.36l39.73-22.81c.63-.36,1.14-.1,1.14.58a2.43,2.43,0,0,1-1.14,1.88l-39.73,22.8c-.62.37-1.13.11-1.13-.57A2.43,2.43,0,0,1,64.49,187.36Z" style="fill:#fff;opacity:0.6000000000000001"></path><path d="M108.62,162l87.66-50.21c.63-.36,1.14-.11,1.14.57a2.42,2.42,0,0,1-1.14,1.88l-87.66,50.22c-.63.36-1.14.11-1.14-.57A2.45,2.45,0,0,1,108.62,162Z" style="fill:#BA68C8"></path><path d="M108.62,162l87.66-50.21c.63-.36,1.14-.11,1.14.57a2.42,2.42,0,0,1-1.14,1.88l-87.66,50.22c-.63.36-1.14.11-1.14-.57A2.45,2.45,0,0,1,108.62,162Z" style="fill:#fff;opacity:0.6000000000000001"></path><path d="M76.34,221.25,197,151.73c.63-.36,1.14-.1,1.14.58a2.42,2.42,0,0,1-1.14,1.88L76.34,223.71c-.62.36-1.13.1-1.13-.58A2.45,2.45,0,0,1,76.34,221.25Z" style="fill:#f28f8f"></path><path d="M76.34,228.28,197,158.76c.63-.36,1.14-.1,1.14.58a2.42,2.42,0,0,1-1.14,1.88L76.34,230.74c-.62.36-1.13.1-1.13-.58A2.43,2.43,0,0,1,76.34,228.28Z" style="fill:#f28f8f"></path><path d="M76.34,235.31,197,165.79c.63-.36,1.14-.1,1.14.58a2.43,2.43,0,0,1-1.14,1.88L76.34,237.77c-.62.36-1.13.1-1.13-.58A2.43,2.43,0,0,1,76.34,235.31Z" style="fill:#f28f8f"></path><path d="M76.34,244.64,197,175.14c.63-.36,1.13-.1,1.13.57A2.44,2.44,0,0,1,197,177.6L76.34,247.1c-.62.36-1.13.1-1.13-.58A2.45,2.45,0,0,1,76.34,244.64Z" style="fill:#BA68C8"></path><path d="M64.77,251.23l5.25-3c.63-.37,1.13-.11,1.13.57A2.41,2.41,0,0,1,70,250.67l-5.25,3c-.62.36-1.13.1-1.13-.58A2.43,2.43,0,0,1,64.77,251.23Z" style="fill:#BA68C8"></path><path d="M64.77,251.23l5.25-3c.63-.37,1.13-.11,1.13.57A2.41,2.41,0,0,1,70,250.67l-5.25,3c-.62.36-1.13.1-1.13-.58A2.43,2.43,0,0,1,64.77,251.23Z" style="fill:#fff;opacity:0.6000000000000001"></path><path d="M64.77,212.82l5.25-3c.63-.36,1.13-.11,1.13.57A2.41,2.41,0,0,1,70,212.26l-5.25,3c-.62.36-1.13.1-1.13-.57A2.45,2.45,0,0,1,64.77,212.82Z" style="fill:#BA68C8"></path><path d="M64.77,212.82l5.25-3c.63-.36,1.13-.11,1.13.57A2.41,2.41,0,0,1,70,212.26l-5.25,3c-.62.36-1.13.1-1.13-.57A2.45,2.45,0,0,1,64.77,212.82Z" style="fill:#fff;opacity:0.6000000000000001"></path><path d="M64.77,227.94l5.25-3c.63-.36,1.13-.1,1.13.58A2.41,2.41,0,0,1,70,227.38l-5.25,3c-.62.37-1.13.11-1.13-.57A2.43,2.43,0,0,1,64.77,227.94Z" style="fill:#BA68C8"></path><path d="M64.77,227.94l5.25-3c.63-.36,1.13-.1,1.13.58A2.41,2.41,0,0,1,70,227.38l-5.25,3c-.62.37-1.13.11-1.13-.57A2.43,2.43,0,0,1,64.77,227.94Z" style="fill:#fff;opacity:0.6000000000000001"></path><path d="M64.77,235,70,232c.63-.36,1.13-.1,1.13.58A2.42,2.42,0,0,1,70,234.41l-5.25,3c-.62.37-1.13.11-1.13-.57A2.43,2.43,0,0,1,64.77,235Z" style="fill:#BA68C8"></path><path d="M64.77,235,70,232c.63-.36,1.13-.1,1.13.58A2.42,2.42,0,0,1,70,234.41l-5.25,3c-.62.37-1.13.11-1.13-.57A2.43,2.43,0,0,1,64.77,235Z" style="fill:#fff;opacity:0.6000000000000001"></path><path d="M64.77,242,70,239c.63-.36,1.13-.1,1.13.58A2.42,2.42,0,0,1,70,241.44l-5.25,3c-.62.37-1.13.11-1.13-.57A2.43,2.43,0,0,1,64.77,242Z" style="fill:#BA68C8"></path><path d="M64.77,242,70,239c.63-.36,1.13-.1,1.13.58A2.42,2.42,0,0,1,70,241.44l-5.25,3c-.62.37-1.13.11-1.13-.57A2.43,2.43,0,0,1,64.77,242Z" style="fill:#fff;opacity:0.6000000000000001"></path><path d="M64.77,257.59l5.25-3c.63-.36,1.13-.1,1.13.57A2.42,2.42,0,0,1,70,257l-5.25,3c-.62.36-1.13.11-1.13-.57A2.43,2.43,0,0,1,64.77,257.59Z" style="fill:#BA68C8"></path><path d="M64.77,257.59l5.25-3c.63-.36,1.13-.1,1.13.57A2.42,2.42,0,0,1,70,257l-5.25,3c-.62.36-1.13.11-1.13-.57A2.43,2.43,0,0,1,64.77,257.59Z" style="fill:#fff;opacity:0.6000000000000001"></path><path d="M76.34,251,197,181.32c.63-.36,1.13-.11,1.13.57a2.41,2.41,0,0,1-1.13,1.88L76.34,253.5c-.62.36-1.13.1-1.13-.58A2.45,2.45,0,0,1,76.34,251Z" style="fill:#ffa8a7"></path><path d="M76.91,296.66,109.31,278c.62-.36,1.13-.1,1.13.57a2.45,2.45,0,0,1-1.13,1.89l-32.4,18.69c-.63.36-1.13.1-1.13-.57A2.44,2.44,0,0,1,76.91,296.66Z" style="fill:#BA68C8"></path><path d="M64.77,303.6l5.25-3c.63-.36,1.13-.11,1.13.57A2.41,2.41,0,0,1,70,303l-5.25,3c-.62.36-1.13.1-1.13-.58A2.45,2.45,0,0,1,64.77,303.6Z" style="fill:#BA68C8"></path><path d="M64.77,303.6l5.25-3c.63-.36,1.13-.11,1.13.57A2.41,2.41,0,0,1,70,303l-5.25,3c-.62.36-1.13.1-1.13-.58A2.45,2.45,0,0,1,64.77,303.6Z" style="fill:#fff;opacity:0.6000000000000001"></path><path d="M64.77,310l5.25-3c.63-.36,1.13-.1,1.13.58A2.42,2.42,0,0,1,70,309.4l-5.25,3c-.62.37-1.13.11-1.13-.57A2.43,2.43,0,0,1,64.77,310Z" style="fill:#BA68C8"></path><path d="M64.77,310l5.25-3c.63-.36,1.13-.1,1.13.58A2.42,2.42,0,0,1,70,309.4l-5.25,3c-.62.37-1.13.11-1.13-.57A2.43,2.43,0,0,1,64.77,310Z" style="fill:#fff;opacity:0.6000000000000001"></path><path d="M76.87,302.74l119.59-69c.63-.36,1.14-.1,1.14.58a2.43,2.43,0,0,1-1.14,1.88l-119.59,69c-.63.36-1.14.1-1.14-.57A2.44,2.44,0,0,1,76.87,302.74Z" style="fill:#ffa8a7"></path><path d="M76.54,266,197,196.66c.63-.36,1.14-.1,1.14.57a2.44,2.44,0,0,1-1.14,1.89L76.54,268.45c-.62.36-1.13.11-1.13-.57A2.47,2.47,0,0,1,76.54,266Z" style="fill:#BA68C8"></path><path d="M64.77,272.7l5.25-3c.63-.37,1.13-.11,1.13.57A2.41,2.41,0,0,1,70,272.14l-5.25,3c-.62.36-1.13.1-1.13-.58A2.43,2.43,0,0,1,64.77,272.7Z" style="fill:#BA68C8"></path><path d="M64.77,272.7l5.25-3c.63-.37,1.13-.11,1.13.57A2.41,2.41,0,0,1,70,272.14l-5.25,3c-.62.36-1.13.1-1.13-.58A2.43,2.43,0,0,1,64.77,272.7Z" style="fill:#fff;opacity:0.6000000000000001"></path><path d="M76.54,272.94,197,203.6c.63-.36,1.14-.1,1.14.58a2.42,2.42,0,0,1-1.14,1.88L76.54,275.39c-.62.37-1.13.11-1.13-.57A2.43,2.43,0,0,1,76.54,272.94Z" style="fill:#BA68C8"></path><path d="M64.77,279.73l5.25-3c.63-.37,1.13-.11,1.13.57A2.41,2.41,0,0,1,70,279.17l-5.25,3c-.62.36-1.13.1-1.13-.58A2.43,2.43,0,0,1,64.77,279.73Z" style="fill:#BA68C8"></path><path d="M64.77,279.73l5.25-3c.63-.37,1.13-.11,1.13.57A2.41,2.41,0,0,1,70,279.17l-5.25,3c-.62.36-1.13.1-1.13-.58A2.43,2.43,0,0,1,64.77,279.73Z" style="fill:#fff;opacity:0.6000000000000001"></path><path d="M76.54,280,197,210.66c.63-.36,1.14-.1,1.14.58a2.43,2.43,0,0,1-1.14,1.88L76.54,282.45c-.62.36-1.13.11-1.13-.57A2.43,2.43,0,0,1,76.54,280Z" style="fill:#f28f8f"></path><path d="M64.77,286.76l5.25-3c.63-.36,1.13-.1,1.13.58A2.41,2.41,0,0,1,70,286.2l-5.25,3c-.62.36-1.13.1-1.13-.58A2.43,2.43,0,0,1,64.77,286.76Z" style="fill:#BA68C8"></path><path d="M64.77,286.76l5.25-3c.63-.36,1.13-.1,1.13.58A2.41,2.41,0,0,1,70,286.2l-5.25,3c-.62.36-1.13.1-1.13-.58A2.43,2.43,0,0,1,64.77,286.76Z" style="fill:#fff;opacity:0.6000000000000001"></path></g></g><g id="freepik--Plants--inject-85"><g id="freepik--plants--inject-85"><path d="M71,420.61c.41-15.47,3-31-4.54-53.07C60.07,349,48.13,333.72,33.14,331.2c-6.22-1.05-10.88,0-13.93,4.18-5.36,7.39.72,16.42,7.63,22,3,2.44,28.37,18.75,32.78,50l1.54,17.71,1.11-.49Z" style="fill:#BA68C8"></path><path d="M71,420.61c.41-15.47,3-31-4.54-53.07C60.07,349,48.13,333.72,33.14,331.2c-6.22-1.05-10.88,0-13.93,4.18-5.36,7.39.72,16.42,7.63,22,3,2.44,28.37,18.75,32.78,50l1.54,17.71,1.11-.49Z" style="fill:#fff;opacity:0.25"></path><path d="M66.61,414.9a.68.68,0,0,1-.52-.64C64.84,376.61,52.83,353,27.91,341.82a.66.66,0,0,1-.26-.93.7.7,0,0,1,.93-.26c25.21,10.78,37.61,35.44,38.87,73.59a.67.67,0,0,1-.66.7A.55.55,0,0,1,66.61,414.9Z" style="fill:#fff"></path><path d="M55.86,427.6c-.58-5.44-2.86-11.89-12.57-24.82-8.39-11.16-22.45-18.28-24.7-24.94-2.7-8,4.12-14.45,15.72-11.8,13.95,3.17,26.37,25.55,28.54,58.27Z" style="fill:#BA68C8"></path><path d="M55.86,427.6c-.58-5.44-2.86-11.89-12.57-24.82-8.39-11.16-22.45-18.28-24.7-24.94-2.7-8,4.12-14.45,15.72-11.8,13.95,3.17,26.37,25.55,28.54,58.27Z" style="fill:#fff;opacity:0.65"></path><path d="M59.64,423.23a.7.7,0,0,1-.51-.55c-5-28.63-21.38-45.65-30.7-48.54a.69.69,0,1,1,.41-1.31c10.3,3.2,26.57,20.39,31.64,49.62a.67.67,0,0,1-.55.79A.7.7,0,0,1,59.64,423.23Z" style="fill:#fff"></path></g></g><g id="freepik--code-box--inject-85"><g id="freepik--code-box--inject-85"><path d="M144.2,435.08l44.69,25.82a6.46,6.46,0,0,0,5.81,0l142.31-82a6.41,6.41,0,0,0,2.9-5v-2.09a6.47,6.47,0,0,0-2.92-5L292.18,341a6.46,6.46,0,0,0-5.81,0l-142.2,82a6.41,6.41,0,0,0-2.9,5V430A6.46,6.46,0,0,0,144.2,435.08Z" style="fill:#f0f0f0"></path><path d="M286.55,340.85c2.21-1.28,4.52-.54,6.74.75l42.56,24.49c2.22,1.27,2.22,3.35,0,4.63L195.76,451.47h0a8,8,0,0,1-8,0L145.16,427a2.68,2.68,0,0,1,0-4.64h0Z" style="fill:#fafafa"></path><path d="M145.14,425.45a1.56,1.56,0,0,1,.58-2.13l141.39-81.5c1.5-.87,3.23-.64,5.62.74l42.57,24.49a2.58,2.58,0,0,1,1,.87c.5.87-.51,1.57-1,1.83L195.2,450.5a6.86,6.86,0,0,1-6.87,0L145.72,426a1.51,1.51,0,0,1-.58-.57m-1,.56a2.63,2.63,0,0,0,1,1l42.61,24.48a8,8,0,0,0,8,0l140.09-80.75c1.58-.91,2-2.22,1.37-3.36a3.62,3.62,0,0,0-1.37-1.27L293.29,341.6c-2.22-1.29-4.53-2-6.74-.75l-141.39,81.5a2.67,2.67,0,0,0-1,3.66Z" style="fill:#e0e0e0"></path><path d="M144.17,422.92l1-.57a2.68,2.68,0,0,0,0,4.64l42.61,24.48a7.79,7.79,0,0,0,4,1.07h.1v9.06a6,6,0,0,1-3-.7l-44.7-25.81a6.49,6.49,0,0,1-2.92-5V428A6.37,6.37,0,0,1,144.17,422.92Z" style="fill:#e6e6e6"></path><path d="M185.78,427.18,201,425.5l5.56,3.21-29.36,3.41,5.87-17,5.6,3.24Z" style="fill:#e0e0e0"></path><path d="M217.56,408.9l-15.28,1.71-5.57-3.21L226.08,404l-5.87,17-5.61-3.24Z" style="fill:#e0e0e0"></path><path d="M230,387.57l58.77-33.93a4.66,4.66,0,0,1,4.21-.07c1.14.66,1.08,1.74-.11,2.43l-58.81,33.91a4.62,4.62,0,0,1-4.19.08C228.76,389.34,228.82,388.26,230,387.57Z" style="fill:#e0e0e0"></path><path d="M240.2,393.43,299,359.5a4.69,4.69,0,0,1,4.22-.07c1.13.66,1.08,1.75-.12,2.43l-58.8,33.91a4.64,4.64,0,0,1-4.2.08C238.94,395.2,239,394.12,240.2,393.43Z" style="fill:#e0e0e0"></path><path d="M250.37,399.29l58.77-33.93a4.66,4.66,0,0,1,4.21-.07c1.14.66,1.08,1.75-.11,2.44l-58.81,33.9a4.62,4.62,0,0,1-4.19.08C249.11,401.06,249.17,400,250.37,399.29Z" style="fill:#e0e0e0"></path></g></g><g id="freepik--window-1--inject-85"><g id="freepik--window--inject-85"><g id="freepik--window--inject-85"><path d="M348.7,34.75a1.86,1.86,0,0,0-.08-.41s0-.06,0-.09a1.56,1.56,0,0,0-.11-.4,1.73,1.73,0,0,0-.26-.57.75.75,0,0,0-.15-.24.51.51,0,0,0-.13-.16,1.42,1.42,0,0,0-.3-.3l0,0a2.36,2.36,0,0,0-.38-.22c-.81-.38-1.86-.28-14.15,6.81L78.32,185.93a9.88,9.88,0,0,0-4.51,7.79V423.4s0,0,0,0v1a3.05,3.05,0,0,0,1.62,2.7l.19.13.23.13a1.79,1.79,0,0,0,.39.13,2.24,2.24,0,0,0,.57.08,3,3,0,0,0,1.49-.43l.12-.07h0l4.29-2.48,261.5-150.73a10,10,0,0,0,4.5-7.8V35.31C348.73,35.12,348.71,34.93,348.7,34.75Z" style="fill:#f0f0f0"></path><path d="M346.69,33.58h0l.07,0,0,0,.08.06.12.16h0v0l.1.16a.34.34,0,0,1,.06.12l0,.05.13.39v0l0,.06,0,0a.57.57,0,0,1,0,.12c0,.14,0,.29,0,.44V266.09a8.57,8.57,0,0,1-3.82,6.61L82.05,423.43l-4.17,2.41h0l-.12.08-.08.05a1.68,1.68,0,0,1-.75.25h-.07a1.51,1.51,0,0,1-.28-.05h-.06l-.12-.07-.12-.08,0,0-.06,0,0,0a1.66,1.66,0,0,1-.9-1.49v-1.12h0V193.72A8.52,8.52,0,0,1,79,187.11L333.78,40.32c3.17-1.82,11.54-6.65,12.91-6.74m0-1.37c-1,0-3.54,1.11-13.63,6.93L78.32,185.93a9.88,9.88,0,0,0-4.51,7.79V423.4s0,0,0,0v1a3.05,3.05,0,0,0,1.62,2.7l.19.13.23.13a1.79,1.79,0,0,0,.39.13,2.24,2.24,0,0,0,.57.08h.07a2.93,2.93,0,0,0,1.42-.43l.12-.07h0l4.29-2.48,261.5-150.73a10,10,0,0,0,4.5-7.8V35.31c0-.19,0-.38,0-.56a1.86,1.86,0,0,0-.08-.41s0-.06,0-.09a1.56,1.56,0,0,0-.11-.4,1.73,1.73,0,0,0-.26-.57.75.75,0,0,0-.15-.24.51.51,0,0,0-.13-.16,1.42,1.42,0,0,0-.3-.3l0,0a2.36,2.36,0,0,0-.38-.22,1.14,1.14,0,0,0-.52-.12Z" style="fill:#e0e0e0"></path><path d="M347.25,32.33a3.3,3.3,0,0,0-3,.39L132.87,154.45,78.32,185.93a5.72,5.72,0,0,0-.91.63,8,8,0,0,0-1.23,1.23,10.28,10.28,0,0,0-1,1.48L69.44,186a10.68,10.68,0,0,1,1.38-1.86l.42-.41a7.17,7.17,0,0,1,1.32-1l54.61-31.52L338.48,29.47a3.11,3.11,0,0,1,3.26-.26C342.56,29.69,346.29,31.83,347.25,32.33Z" style="fill:#37474f"></path><path d="M348.72,35.28c0-2.84-2.23-3.85-4.5-2.56L78.32,185.93a10.05,10.05,0,0,0-4.5,7.78V207L348.72,48.47Z" style="fill:#455a64"></path><path d="M73.81,193.72V423.4s0,0,0,0v1a3.05,3.05,0,0,0,1.62,2.7l.19.13.23.13a1.79,1.79,0,0,0,.39.13,2.24,2.24,0,0,0,.57.08,3,3,0,0,0,1.49-.43l.12-.07h0l4.29-2.48,50.06-28.9V154.49h0L78.31,185.92A10,10,0,0,0,73.81,193.72Z" style="fill:#455a64"></path><path d="M75.39,427.1s0,0,0,0a.65.65,0,0,1-.15-.1,3,3,0,0,1-1.4-2.55V214.15h0V193.72a9.1,9.1,0,0,1,1.34-4.45L69.44,186a9.12,9.12,0,0,0-1.37,4.51V420.13a4.87,4.87,0,0,0,0,.66,4.75,4.75,0,0,0,2.35,3.48L75.2,427l.23.13Z" style="fill:#263238"></path><path d="M132.79,154.49,78.32,185.93a5.44,5.44,0,0,0-.91.63,9.54,9.54,0,0,0-2.26,2.71L69.43,186a10.81,10.81,0,0,1,1.39-1.87l.41-.41a6.18,6.18,0,0,1,1.33-1l54.55-31.48Z" style="fill:#37474f"></path></g><path d="M322.6,52.64a.4.4,0,0,1-.32-.18.36.36,0,0,1,.14-.5l5.95-3.44a.37.37,0,1,1,.36.64l-6,3.43A.37.37,0,0,1,322.6,52.64Z" style="fill:#e0e0e0"></path><path d="M322.6,55.25a.37.37,0,0,1-.32-.18.36.36,0,0,1,.14-.5l5.95-3.43a.36.36,0,0,1,.5.13.37.37,0,0,1-.14.5l-6,3.43A.29.29,0,0,1,322.6,55.25Z" style="fill:#e0e0e0"></path><path d="M322.6,57.86a.37.37,0,0,1-.32-.18.37.37,0,0,1,.14-.5l5.95-3.43a.37.37,0,0,1,.5.13.36.36,0,0,1-.14.5l-6,3.43A.29.29,0,0,1,322.6,57.86Z" style="fill:#e0e0e0"></path><path d="M344.07,45.51a.42.42,0,0,1-.3-.12l-3.44-3.31a.44.44,0,0,1,.6-.63l3.44,3.31a.44.44,0,0,1,0,.62A.46.46,0,0,1,344.07,45.51Z" style="fill:#e0e0e0"></path><path d="M340.63,47.5a.45.45,0,0,1-.19,0,.42.42,0,0,1-.2-.57l3.44-7.29a.43.43,0,0,1,.57-.21.44.44,0,0,1,.21.58L341,47.25A.44.44,0,0,1,340.63,47.5Z" style="fill:#e0e0e0"></path><path d="M334.49,44.89A5.59,5.59,0,0,0,332,49.28c0,1.61,1.13,2.27,2.53,1.46A5.6,5.6,0,0,0,337,46.35C337,44.74,335.89,44.08,334.49,44.89Zm-.12.89c.42-.24.76,0,.76.44a1.66,1.66,0,0,1-.76,1.31c-.42.25-.76,0-.76-.43A1.67,1.67,0,0,1,334.37,45.78Zm1.49,3a3.2,3.2,0,0,1-1.46,1.59c-1.16.69-1.46.09-1.46.09v-.21a2.75,2.75,0,0,1,1.25-2.16l.43-.25c.68-.4,1.24,0,1.24.75Z" style="fill:#e0e0e0"></path><path d="M83.18,224.38l-.05,0s-.09-.06-.09-.14c0-.7-.24-.92-.7-.67-.07,0-.13,0-.13-.14a1.07,1.07,0,0,0-.17-.72c-.11-.1-.28-.09-.52.05h0a.09.09,0,0,1-.1,0,.17.17,0,0,1,0-.13,1.07,1.07,0,0,0-.17-.72c-.11-.1-.29-.08-.52,0h0a.08.08,0,0,1-.13,0,.41.41,0,0,1,0-.26l3.2-6.76c.06-.12.15-.17.2-.12l2.49,2.4a.18.18,0,0,1,0,.13.39.39,0,0,1,0,.18l-3.2,6.76A.32.32,0,0,1,83.18,224.38Zm-.7-1.29c.43-.17.7,0,.8.56l2.91-6.13-2.3-2.21L81,221.42a.42.42,0,0,1,.42.1,1.13,1.13,0,0,1,.24.76.5.5,0,0,1,.59,0A1.14,1.14,0,0,1,82.48,223.09Z" style="fill:#e0e0e0"></path><path d="M79.75,227.81a.08.08,0,0,1-.1,0s-.05-.1,0-.19l.94-5.82c0-.13.1-.24.17-.25s.12.08.1.21L80,227.17,83.14,224c.08-.07.15,0,.17.05a.4.4,0,0,1-.09.32l-3.44,3.43Z" style="fill:#e0e0e0"></path><polygon points="79.75 227.59 80.68 226.5 80.11 225.95 79.75 227.59" style="fill:#e0e0e0"></polygon><path d="M82.86,222.49a.06.06,0,0,1-.09,0c-.06,0-.06-.18,0-.3l2.69-5.67c.05-.12.14-.17.19-.12a.28.28,0,0,1,0,.31L83,222.37A.25.25,0,0,1,82.86,222.49Z" style="fill:#e0e0e0"></path><path d="M82,221.69a.08.08,0,0,1-.1,0,.31.31,0,0,1,0-.3l2.7-5.67c.05-.12.14-.17.19-.12a.28.28,0,0,1,0,.31l-2.69,5.67A.25.25,0,0,1,82,221.69Z" style="fill:#e0e0e0"></path><path d="M84.92,244l-3.71,2.15c-.7.4-1.27-.15-1.27-1.22v-5.72a3.36,3.36,0,0,1,1.27-2.68l3.71-2.14c.7-.4,1.27.14,1.27,1.22v5.71A3.33,3.33,0,0,1,84.92,244Zm-3.71-7a2.52,2.52,0,0,0-.95,2v5.72c0,.81.42,1.22.95.92l3.71-2.15a2.51,2.51,0,0,0,1-2v-5.71c0-.81-.43-1.22-1-.92Z" style="fill:#e0e0e0"></path><path d="M84.92,234.58l-3.71,2.14a3,3,0,0,0-1.11,2.36v1.53L86,237.18v-1.53C86,234.71,85.54,234.23,84.92,234.58Zm-.38,2.06a.61.61,0,0,1-.21.46l-2.52,1.45c-.12.07-.22,0-.22-.21v-.43a.58.58,0,0,1,.22-.46L84.33,236c.11-.07.21,0,.21.21Z" style="fill:#e0e0e0"></path><path d="M81.23,242h0c-.2.11-.36,0-.36-.28v-.14a.85.85,0,0,1,.36-.69h0c.2-.12.36,0,.36.27v.15A.88.88,0,0,1,81.23,242Z" style="fill:#e0e0e0"></path><path d="M83.07,241h0c-.2.11-.36,0-.36-.27v-.15a.85.85,0,0,1,.36-.69h0c.2-.12.36,0,.36.27v.15A.88.88,0,0,1,83.07,241Z" style="fill:#e0e0e0"></path><path d="M84.9,239.92h0c-.2.11-.36,0-.36-.27v-.15a.86.86,0,0,1,.36-.69h0c.2-.11.36,0,.36.27v.15A.86.86,0,0,1,84.9,239.92Z" style="fill:#e0e0e0"></path><path d="M81.23,244.28h0c-.2.12-.36,0-.36-.27v-.15a.84.84,0,0,1,.36-.68h0c.2-.12.36,0,.36.27v.15A.84.84,0,0,1,81.23,244.28Z" style="fill:#e0e0e0"></path><path d="M83.07,243.23h0c-.2.11-.36,0-.36-.28v-.14a.85.85,0,0,1,.36-.69h0c.2-.12.36,0,.36.27v.15A.88.88,0,0,1,83.07,243.23Z" style="fill:#e0e0e0"></path><path d="M84.9,242.17h0c-.2.11-.36,0-.36-.27v-.15a.85.85,0,0,1,.36-.69h0c.2-.12.36,0,.36.27v.15A.88.88,0,0,1,84.9,242.17Z" style="fill:#e0e0e0"></path><path d="M82.56,263a.25.25,0,0,1-.32,0l-1.83-1.76a.94.94,0,0,1,0-1c.18-.37.46-.54.64-.37l1.48,1.43,2.68-6.48c.16-.39.45-.59.64-.46s.22.56.06.95l-3,7.24a1,1,0,0,1-.33.44Z" style="fill:#e0e0e0"></path><path d="M83.38,359.66A7.91,7.91,0,0,0,80.07,366c0,2.44,1.48,3.56,3.31,2.5a7.92,7.92,0,0,0,3.3-6.31C86.68,359.73,85.2,358.61,83.38,359.66Zm.59,6.92a.49.49,0,0,1,0,.2.42.42,0,0,1-.12.14l-.83.47a.11.11,0,0,1-.12,0s0-.07,0-.14v-.88a.34.34,0,0,1,0-.19A.31.31,0,0,1,83,366l.83-.47a.09.09,0,0,1,.12,0,.16.16,0,0,1,0,.13Zm1.12-4.25a3.16,3.16,0,0,1-.2.54c-.08.18-.17.34-.26.5l-.28.46a4.92,4.92,0,0,0-.24.45,1.53,1.53,0,0,0-.15.44.76.76,0,0,1-.06.2.26.26,0,0,1-.12.13l-.79.46a.12.12,0,0,1-.13,0,.2.2,0,0,1,0-.14,1.77,1.77,0,0,1,.09-.56,3.21,3.21,0,0,1,.22-.54,4.16,4.16,0,0,1,.28-.51c.1-.17.2-.32.28-.47a2.82,2.82,0,0,0,.22-.42.87.87,0,0,0,.09-.37c0-.17,0-.27-.14-.31a.54.54,0,0,0-.45.11,1.28,1.28,0,0,0-.42.36,2,2,0,0,0-.18.36l-.11.32a.33.33,0,0,1-.16.22l-.8.46a.09.09,0,0,1-.1,0,.12.12,0,0,1,0-.11,2.29,2.29,0,0,1,.13-.72,4.13,4.13,0,0,1,.35-.82,4.87,4.87,0,0,1,.57-.8,3,3,0,0,1,.76-.62,2,2,0,0,1,.69-.26,1,1,0,0,1,.57.05.73.73,0,0,1,.37.35,1.28,1.28,0,0,1,.14.63A2.35,2.35,0,0,1,85.09,362.33Z" style="fill:#e0e0e0"></path><g id="freepik--Gear--inject-85"><path d="M86.55,382.85l-.68,0c-.05,0-.08-.07-.08-.15a3.44,3.44,0,0,0,0-.56.37.37,0,0,1,0-.24l.67-.95a.25.25,0,0,0,0-.21l-.34-.72c0-.07-.09-.09-.13-.05l-.75.79a.11.11,0,0,1-.15,0,.94.94,0,0,0-.32-.19.16.16,0,0,1-.07-.17l.17-1.08c0-.07,0-.13-.07-.12l-.79.09a.19.19,0,0,0-.12.14l-.33,1.12a.3.3,0,0,1-.12.16,2.6,2.6,0,0,0-.5.34.11.11,0,0,1-.15-.05l-.36-.56c0-.06-.1-.07-.14,0l-.78,1a.25.25,0,0,0,0,.21l.24.74a.35.35,0,0,1,0,.23,7.5,7.5,0,0,0-.33.7.36.36,0,0,1-.13.14l-.76.2a.29.29,0,0,0-.11.16l-.27,1.21c0,.08,0,.14.06.14l.68,0a.15.15,0,0,1,.08.15,3.54,3.54,0,0,0,0,.57.4.4,0,0,1,0,.23l-.67,1a.22.22,0,0,0,0,.21l.34.72c0,.07.08.09.12.05l.75-.79a.11.11,0,0,1,.15,0,1.09,1.09,0,0,0,.33.19.14.14,0,0,1,.06.17l-.16,1.07c0,.08,0,.14.06.13l.8-.09a.22.22,0,0,0,.12-.14l.33-1.12a.26.26,0,0,1,.12-.16,3.69,3.69,0,0,0,.5-.34.11.11,0,0,1,.14,0l.37.57c0,.06.1.07.13,0l.79-1a.24.24,0,0,0,0-.22l-.23-.73a.36.36,0,0,1,0-.23,5.66,5.66,0,0,0,.34-.7.23.23,0,0,1,.13-.14l.75-.21a.18.18,0,0,0,.11-.15l.28-1.22C86.62,382.91,86.6,382.85,86.55,382.85Zm-1.87.95c-.25,1.11-1,2.08-1.76,2.17s-1.11-.75-.86-1.86,1-2.07,1.76-2.16S84.93,382.69,84.68,383.8Z" style="fill:#e0e0e0"></path></g><path d="M86.33,397.08a.45.45,0,0,0-.45,0l-3.09,1.79a.45.45,0,0,0-.23.39v1.81l.44-.25v-1.58l3.1-1.77v5.63L83,404.87v-1.46l-.44.25v1.21a.46.46,0,0,0,.45.45.46.46,0,0,0,.23-.06l3.09-1.78a.44.44,0,0,0,.22-.39v-5.62A.44.44,0,0,0,86.33,397.08Z" style="fill:#e0e0e0"></path><path d="M83.31,401.2l-1.26.73c-.07,0-.13,0-.13-.08V401c0-.09,0-.1-.08,0l-1.74,2.7a.12.12,0,0,0,.06.19l1.62.67a.1.1,0,0,0,.14-.1v-.83a.32.32,0,0,1,.13-.24l1.26-.72a.3.3,0,0,0,.14-.24v-1.14C83.45,401.19,83.39,401.16,83.31,401.2Z" style="fill:#e0e0e0"></path><path d="M76.54,205.36a.38.38,0,0,1-.31-.18.36.36,0,0,1,.13-.49l50.7-29.27a.36.36,0,1,1,.36.62l-50.7,29.27A.41.41,0,0,1,76.54,205.36Z" style="fill:#37474f"></path><path d="M76.54,234.43a.36.36,0,0,1-.18-.67l50.7-29.27a.36.36,0,0,1,.49.13.37.37,0,0,1-.13.5l-50.7,29.27A.39.39,0,0,1,76.54,234.43Z" style="fill:#37474f"></path><path d="M76.54,253.76a.36.36,0,0,1-.18-.67l50.7-29.27a.36.36,0,0,1,.36.62l-50.7,29.27A.31.31,0,0,1,76.54,253.76Z" style="fill:#37474f"></path><path d="M76.54,273.09a.38.38,0,0,1-.31-.18.36.36,0,0,1,.13-.49l50.7-29.27a.36.36,0,0,1,.36.62L76.72,273A.41.41,0,0,1,76.54,273.09Z" style="fill:#37474f"></path><path d="M76.54,292.42a.38.38,0,0,1-.31-.18.36.36,0,0,1,.13-.49l50.7-29.27a.35.35,0,0,1,.49.13.36.36,0,0,1-.13.49l-50.7,29.27A.41.41,0,0,1,76.54,292.42Z" style="fill:#37474f"></path><path d="M76.54,311.75a.38.38,0,0,1-.31-.18.37.37,0,0,1,.13-.5l50.7-29.27a.36.36,0,0,1,.49.13.37.37,0,0,1-.13.5L76.72,311.7A.41.41,0,0,1,76.54,311.75Z" style="fill:#37474f"></path><path d="M76.54,377.39a.36.36,0,0,1-.18-.67l50.7-29.27a.36.36,0,0,1,.49.13.37.37,0,0,1-.13.5l-50.7,29.27A.39.39,0,0,1,76.54,377.39Z" style="fill:#37474f"></path><path d="M76.54,397.41a.38.38,0,0,1-.31-.18.37.37,0,0,1,.13-.5l50.7-29.27a.35.35,0,0,1,.49.14.36.36,0,0,1-.13.49l-50.7,29.27A.41.41,0,0,1,76.54,397.41Z" style="fill:#37474f"></path><polygon points="85.14 190.09 85.14 188.17 84.36 188.62 84.36 189.61 83.14 188.85 80.01 194.42 81.15 193.76 81.15 197.95 82.52 197.16 82.52 194.6 83.77 193.88 83.77 196.44 85.13 195.65 85.13 191.47 86.28 190.81 85.14 190.09" style="fill:#e0e0e0"></polygon><path d="M83,278.87l-3-1.58,6.25-3.6-3,5C83.21,278.84,83.08,278.92,83,278.87Z" style="fill:#e0e0e0"></path><path d="M83.34,279.69l2.93-5.79v6L80,283.48v-6L83,279.91C83.06,280,83.23,279.9,83.34,279.69Z" style="fill:#e0e0e0"></path><path d="M84.48,296l-.17.1L86,292.62l-.2-.12c-.43-.27-1.08.16-1.46.94l-1.55,3.2a2,2,0,0,0-.14.39l-.16.09-.35.2a2.9,2.9,0,0,0,.16-.9c0-1-.59-1.41-1.31-1a3.15,3.15,0,0,0-1.31,2.5c0,1,.59,1.4,1.31,1l.15-.11,1.42-.82a1,1,0,0,0,.06.25c-.36.72-.73,1.49-1.07,2.18h0a3.25,3.25,0,0,0-.38,1.43c0,1,.59,1.41,1.31,1a3.15,3.15,0,0,0,1.31-2.5c0-.82-.43-1.26-1-1.11l.27-.56h0l.15-.31a.77.77,0,0,0,.31-.09l2.32-1.34a2.49,2.49,0,0,0,1-2v-.37Zm-4.08,1.54a1.34,1.34,0,0,1,.56-1.06c.31-.17.55,0,.55.42a1.3,1.3,0,0,1-.55,1.06C80.65,298.09,80.4,297.9,80.4,297.49ZM83,300.78a1.34,1.34,0,0,1-.56,1.06c-.3.17-.55,0-.55-.42a1.33,1.33,0,0,1,.55-1.06C82.77,300.18,83,300.37,83,300.78Z" style="fill:#e0e0e0"></path><text transform="matrix(0.75, -0.43, 0, 1, 140.29, 183.92)" style="font-size:9.688960075378418px;fill:#455a64;font-family:Rubik-Medium, Rubik;font-weight:500"><tspan style="letter-spacing:-0.006051921626382671em">A</tspan><tspan x="6.76" y="0">dd N</tspan><tspan x="27.82" y="0" style="letter-spacing:-0.015013420957757007em">e</tspan><tspan x="33.23" y="0" style="letter-spacing:-0.02199640744973701em">w</tspan><tspan x="41.06" y="0" xml:space="preserve"> Snippet</tspan></text><text transform="matrix(0.75, -0.43, 0, 1, 140.29, 217.67)" style="font-size:9.688960075378418px;fill:#455a64;font-family:Rubik-Medium, Rubik;font-weight:500">Code</text><path d="M142.33,190.35,334.82,79.22c1.16-.67,2.11-.12,2.12,1.21l.07,8.73a4.58,4.58,0,0,1-2.08,3.63L142.33,204c-1.15.67-2.09.12-2.09-1.21V194A4.66,4.66,0,0,1,142.33,190.35Z" style="fill:#fafafa"></path><path d="M142.33,226.74,334.82,115.61c1.16-.67,2.11-.12,2.12,1.21l.07,54.12a4.58,4.58,0,0,1-2.08,3.63l-192.6,111.2c-1.15.66-2.09.12-2.09-1.22V230.38A4.66,4.66,0,0,1,142.33,226.74Z" style="fill:#fafafa"></path><path d="M142.33,304,334.82,192.84c1.16-.67,2.11-.13,2.12,1.21l.07,36a4.6,4.6,0,0,1-2.08,3.64L142.33,344.86c-1.15.67-2.09.13-2.09-1.21v-36A4.66,4.66,0,0,1,142.33,304Z" style="fill:#fafafa"></path><path d="M142.33,354,334.82,242.83c1.16-.67,2.11-.13,2.12,1.21l.07,4.18a4.6,4.6,0,0,1-2.08,3.64L142.33,363.05c-1.15.67-2.09.13-2.09-1.21v-4.25A4.64,4.64,0,0,1,142.33,354Z" style="fill:#fafafa"></path><path d="M142.33,372.14,175.56,353c1.15-.67,2.1-.12,2.11,1.21l.07,4.19a4.58,4.58,0,0,1-2.08,3.63l-33.33,19.25c-1.15.67-2.09.12-2.09-1.21v-4.25A4.64,4.64,0,0,1,142.33,372.14Z" style="fill:#BA68C8"></path><path d="M187.36,346.14,211,332.51c1.16-.67,2.1-.13,2.11,1.21l.07,4.18a4.61,4.61,0,0,1-2.07,3.64l-23.73,13.69c-1.16.67-2.1.13-2.1-1.21v-4.24A4.65,4.65,0,0,1,187.36,346.14Z" style="fill:#e0e0e0"></path><rect x="147.52" y="227.98" width="0.97" height="49.99" style="fill:#e0e0e0"></rect><path d="M146,290.48c0,1.26.88,1.77,2,1.14a4.37,4.37,0,0,0,2-3.42c0-1.27-.89-1.78-2-1.15A4.36,4.36,0,0,0,146,290.48Z" style="fill:#e0e0e0"></path><path d="M155.88,285.27a.48.48,0,0,1-.24-.9l35.42-20.45a.48.48,0,0,1,.66.17.5.5,0,0,1-.18.67l-35.42,20.45A.53.53,0,0,1,155.88,285.27Z" style="fill:#e0e0e0"></path><path d="M197.19,260.8c0,1.26.89,1.77,2,1.14a4.39,4.39,0,0,0,2-3.43c0-1.26-.89-1.77-2-1.14A4.39,4.39,0,0,0,197.19,260.8Z" style="fill:#e0e0e0"></path><path d="M207,255.59a.49.49,0,0,1-.42-.24.5.5,0,0,1,.18-.67l35.42-20.45a.49.49,0,0,1,.66.18.47.47,0,0,1-.18.66l-35.42,20.45A.42.42,0,0,1,207,255.59Z" style="fill:#e0e0e0"></path><path d="M248.36,231.11c0,1.27.88,1.78,2,1.15a4.38,4.38,0,0,0,2-3.43c0-1.26-.88-1.78-2-1.14A4.36,4.36,0,0,0,248.36,231.11Z" style="fill:#e0e0e0"></path><path d="M258.21,225.9a.47.47,0,0,1-.42-.24A.48.48,0,0,1,258,225l35.42-20.45a.49.49,0,1,1,.49.84l-35.42,20.45A.53.53,0,0,1,258.21,225.9Z" style="fill:#e0e0e0"></path><path d="M319.34,188.14l15.48-8.94c1.16-.67,2.1-.19,2.1,1.06a4.5,4.5,0,0,1-2.1,3.49l-15.48,8.93c-1.16.67-2.1.2-2.1-1.06A4.5,4.5,0,0,1,319.34,188.14Z" style="fill:#fafafa"></path><path d="M337,200.7v-6.65c0-1.34-1-1.88-2.12-1.21L142.33,304a4.66,4.66,0,0,0-2.09,3.63v6.67Z" style="fill:#e0e0e0"></path></g></g><g id="freepik--code--inject-85"><g id="freepik--window--inject-85"><g id="freepik--window--inject-85"><path d="M321.51,144.41a1.51,1.51,0,0,0-.07-.37s0,0,0-.08a1.36,1.36,0,0,0-.09-.36,2,2,0,0,0-.24-.51.92.92,0,0,0-.13-.21.88.88,0,0,0-.12-.15,1.6,1.6,0,0,0-.26-.26l0,0a1.93,1.93,0,0,0-.34-.19,2.92,2.92,0,0,0-2.71.34l-153,87.85a8.79,8.79,0,0,0-4,7.23v50.47c0-1.9,0-1.89,0-1.88v.88a2.72,2.72,0,0,0,1.44,2.41l.17.12.22.12a1.23,1.23,0,0,0,.34.11,2.24,2.24,0,0,0,.51.07,2.63,2.63,0,0,0,1.33-.38l.11-.06h0l3.83-2.21,149-85.64a8.87,8.87,0,0,0,4-7v-49.8C321.53,144.74,321.52,144.57,321.51,144.41Z" style="fill:#455a64;opacity:0.8"></path><g style="opacity:0.5"><path d="M317.51,142.59,164.56,230.44a8.3,8.3,0,0,0-2.83,3l-5.11-2.95a8,8,0,0,1,2.8-2.94l153-87.84a2.83,2.83,0,0,1,2.92-.24c.72.44,4.05,2.33,4.9,2.79A2.92,2.92,0,0,0,317.51,142.59Z" style="fill:#37474f"></path></g><path d="M305.69,153.13a4,4,0,0,0-1.52,3.23c0,1.3.68,2,1.52,1.47a4,4,0,0,0,1.53-3.23C307.22,153.3,306.54,152.65,305.69,153.13Z" style="fill:#fafafa"></path><path d="M311.19,150a4.06,4.06,0,0,0-1.53,3.24c0,1.29.69,1.95,1.53,1.46a4,4,0,0,0,1.53-3.23C312.72,150.12,312,149.47,311.19,150Z" style="fill:#fafafa"></path><path d="M316.68,146.78a4,4,0,0,0-1.52,3.23c0,1.29.68,2,1.52,1.47a4,4,0,0,0,1.53-3.24C318.21,147,317.53,146.29,316.68,146.78Z" style="fill:#BA68C8"></path><path d="M316.68,146.78a4,4,0,0,0-1.52,3.23c0,1.29.68,2,1.52,1.47a4,4,0,0,0,1.53-3.24C318.21,147,317.53,146.29,316.68,146.78Z" style="fill:#fff;opacity:0.30000000000000004"></path><path d="M161.94,289.53l0,0a.51.51,0,0,1-.13-.09,2.62,2.62,0,0,1-1.25-2.28V237.4a8.06,8.06,0,0,1,1.2-4l-5.12-2.94a8.3,8.3,0,0,0-1.22,4V283.3a3.9,3.9,0,0,0,0,.59,4.25,4.25,0,0,0,2.09,3.11l4.24,2.45.21.12Z" style="fill:#37474f;opacity:0.9"></path></g><g id="freepik--code--inject-85" style="opacity:0.7000000000000001"><g style="opacity:0.6000000000000001"><path d="M171.93,248.49l5.47-3.16c.55-.32,1-.06,1,.57v2a2.18,2.18,0,0,1-1,1.72l-5.47,3.16c-.55.32-1,.06-1-.57v-2A2.17,2.17,0,0,1,171.93,248.49Z" style="fill:#fff"></path><path d="M171.93,256.49l5.47-3.16c.55-.31,1-.06,1,.58v2a2.21,2.21,0,0,1-1,1.72l-5.47,3.16c-.55.32-1,.06-1-.57v-2A2.2,2.2,0,0,1,171.93,256.49Z" style="fill:#fff"></path><path d="M171.93,264.5l5.47-3.16c.55-.32,1-.06,1,.57v2a2.21,2.21,0,0,1-1,1.72l-5.47,3.16c-.55.32-1,.06-1-.58v-2A2.2,2.2,0,0,1,171.93,264.5Z" style="fill:#fff"></path><path d="M171.93,272.51l5.47-3.16c.55-.32,1-.06,1,.57v2a2.21,2.21,0,0,1-1,1.73l-5.47,3.16c-.55.31-1,.06-1-.58v-2A2.18,2.18,0,0,1,171.93,272.51Z" style="fill:#fff"></path></g></g><path d="M186.24,239.24,226,216.3c.55-.32,1-.09,1,.51a2.17,2.17,0,0,1-1,1.67l-39.73,22.94c-.56.32-1,.09-1-.51A2.15,2.15,0,0,1,186.24,239.24Z" style="fill:#BA68C8"></path><path d="M186.24,239.24,226,216.3c.55-.32,1-.09,1,.51a2.17,2.17,0,0,1-1,1.67l-39.73,22.94c-.56.32-1,.09-1-.51A2.15,2.15,0,0,1,186.24,239.24Z" style="fill:#fff;opacity:0.30000000000000004"></path><path d="M186.2,265.58l121.36-69.77c.56-.32,1-.1,1,.51a2.17,2.17,0,0,1-1,1.67L186.2,267.76c-.56.32-1,.09-1-.51A2.15,2.15,0,0,1,186.2,265.58Z" style="fill:#BA68C8"></path><path d="M186.2,265.58l121.36-69.77c.56-.32,1-.1,1,.51a2.17,2.17,0,0,1-1,1.67L186.2,267.76c-.56.32-1,.09-1-.51A2.15,2.15,0,0,1,186.2,265.58Z" style="fill:#fff;opacity:0.30000000000000004"></path><path d="M171.93,238.27l120.38-69.21c.55-.32,1-.09,1,.51a2.14,2.14,0,0,1-1,1.65L171.93,240.43c-.55.32-1,.09-1-.51A2.12,2.12,0,0,1,171.93,238.27Z" style="fill:#fafafa"></path><path d="M229.87,214.05l78.3-44.88c.56-.32,1-.09,1,.51a2.15,2.15,0,0,1-1,1.67l-78.3,44.88c-.56.32-1,.09-1-.51A2.15,2.15,0,0,1,229.87,214.05Z" style="fill:#BA68C8"></path><path d="M229.87,214.05l78.3-44.88c.56-.32,1-.09,1,.51a2.15,2.15,0,0,1-1,1.67l-78.3,44.88c-.56.32-1,.09-1-.51A2.15,2.15,0,0,1,229.87,214.05Z" style="fill:#fff;opacity:0.30000000000000004"></path><path d="M186.24,245.5l20.11-11.63c.56-.32,1-.09,1,.51a2.14,2.14,0,0,1-1,1.67l-20.11,11.63c-.56.32-1,.09-1-.51A2.15,2.15,0,0,1,186.24,245.5Z" style="fill:#BA68C8"></path><path d="M186.24,245.5l20.11-11.63c.56-.32,1-.09,1,.51a2.14,2.14,0,0,1-1,1.67l-20.11,11.63c-.56.32-1,.09-1-.51A2.15,2.15,0,0,1,186.24,245.5Z" style="fill:#fff;opacity:0.6000000000000001"></path><path d="M186.24,251.72l12.08-6.95c.56-.32,1-.09,1,.51a2.15,2.15,0,0,1-1,1.67l-12.08,7c-.56.32-1,.1-1-.5A2.17,2.17,0,0,1,186.24,251.72Z" style="fill:#BA68C8"></path><path d="M186.24,251.72l12.08-6.95c.56-.32,1-.09,1,.51a2.15,2.15,0,0,1-1,1.67l-12.08,7c-.56.32-1,.1-1-.5A2.17,2.17,0,0,1,186.24,251.72Z" style="fill:#fff;opacity:0.6000000000000001"></path><path d="M210.25,231.62l69.66-40c.56-.32,1-.09,1,.51a2.15,2.15,0,0,1-1,1.67l-69.66,40c-.55.32-1,.1-1-.51A2.17,2.17,0,0,1,210.25,231.62Z" style="fill:#BA68C8"></path><path d="M210.25,231.62l69.66-40c.56-.32,1-.09,1,.51a2.15,2.15,0,0,1-1,1.67l-69.66,40c-.55.32-1,.1-1-.51A2.17,2.17,0,0,1,210.25,231.62Z" style="fill:#fff;opacity:0.6000000000000001"></path><path d="M201.55,242.93l19.9-11.55c.56-.32,1-.09,1,.51a2.15,2.15,0,0,1-1,1.67l-19.9,11.55c-.56.32-1,.09-1-.51A2.15,2.15,0,0,1,201.55,242.93Z" style="fill:#BA68C8"></path><path d="M201.55,242.93l19.9-11.55c.56-.32,1-.09,1,.51a2.15,2.15,0,0,1-1,1.67l-19.9,11.55c-.56.32-1,.09-1-.51A2.15,2.15,0,0,1,201.55,242.93Z" style="fill:#fff;opacity:0.6000000000000001"></path><path d="M225.35,229.13l82.23-46.93c.56-.32,1-.09,1,.51a2.15,2.15,0,0,1-1,1.67l-82.23,46.93c-.55.32-1,.09-1-.51A2.17,2.17,0,0,1,225.35,229.13Z" style="fill:#BA68C8"></path><path d="M225.35,229.13l82.23-46.93c.56-.32,1-.09,1,.51a2.15,2.15,0,0,1-1,1.67l-82.23,46.93c-.55.32-1,.09-1-.51A2.17,2.17,0,0,1,225.35,229.13Z" style="fill:#fff;opacity:0.6000000000000001"></path><path d="M186.2,258.3l35.25-20.24c.56-.32,1-.09,1,.51a2.15,2.15,0,0,1-1,1.67L186.2,260.48c-.56.32-1,.09-1-.51A2.15,2.15,0,0,1,186.2,258.3Z" style="fill:#BA68C8"></path><path d="M186.2,258.3l35.25-20.24c.56-.32,1-.09,1,.51a2.15,2.15,0,0,1-1,1.67L186.2,260.48c-.56.32-1,.09-1-.51A2.15,2.15,0,0,1,186.2,258.3Z" style="fill:#fff;opacity:0.6000000000000001"></path><path d="M225.35,235.81l82.23-46.93c.56-.32,1-.09,1,.51a2.15,2.15,0,0,1-1,1.67L225.35,238c-.55.32-1,.09-1-.51A2.17,2.17,0,0,1,225.35,235.81Z" style="fill:#BA68C8"></path><path d="M225.35,235.81l82.23-46.93c.56-.32,1-.09,1,.51a2.15,2.15,0,0,1-1,1.67L225.35,238c-.55.32-1,.09-1-.51A2.17,2.17,0,0,1,225.35,235.81Z" style="fill:#fff;opacity:0.6000000000000001"></path></g></g><g id="freepik--Character--inject-85"><g id="freepik--character--inject-85"><g id="freepik--Bottom--inject-85"><path d="M398.51,353.65c-.18-4.3-2.65-48-2.65-48l21.77,15.68c-3.39,24.81-4.82,32.38-5.06,36.51h0a3.54,3.54,0,0,1,.07,1.06c-.21,4.91-6.14,7.36-10.82,10.47a85.93,85.93,0,0,1-12.59,7.2c-3.37,1.46-10.08,1.37-10.83-.68,5.69-3.82,12.27-8,16.85-12.42C397.43,361.36,398.72,358.82,398.51,353.65Z" style="fill:#ffa8a7"></path><path d="M371.77,380.9c-.26,0-.77,3,.62,4.27,1.6,1.51,6.39,4.08,12.86,3.46S395.3,386.11,398,384s6.39-5.07,9.33-5.62c2.73-.51,5.72-1.65,6.62-2.47s.92-4.61.92-4.61Z" style="fill:#263238"></path><path d="M412.65,356.64a.91.91,0,0,1,.84.88c.16,1.05.34,4.11.7,5.83.5,2.4.9,7.33.47,9.26s-4.89,3.11-7.75,4.1a36.1,36.1,0,0,0-9.37,5.55c-3.12,2.43-9.59,4.75-13.79,4.66-6.41-.13-10.5-2.05-11.69-4.44-1.48-3-.91-5,6.59-8.21a88.37,88.37,0,0,0,8.36-4.61,24.54,24.54,0,0,0,9.7-11.18,2.94,2.94,0,0,1,1.12-1.53,2.43,2.43,0,0,1,1.44-.08,31.74,31.74,0,0,1,5.85,1.38c1,.52,2.36,1.13,2.29,2.41a4.52,4.52,0,0,1-.33,1.3c-.1.26-.18.61,0,.77s.5,0,.69-.17a18.68,18.68,0,0,0,2.08-2.35A7.43,7.43,0,0,1,411.1,359a12.77,12.77,0,0,0,1.3-.78A15.45,15.45,0,0,0,412.65,356.64Z" style="fill:#455a64"></path><path d="M378.44,374.27c9.25,1,13.13,7.07,11.95,11.48a21.49,21.49,0,0,1-6.64,1.17c-6.41-.13-10.76-2.06-12-4.45C370.4,379.68,371.76,376.57,378.44,374.27Z" style="fill:#fafafa"></path><path d="M391,375.61a.45.45,0,0,0,.29-.1.46.46,0,0,0,.09-.64,10.78,10.78,0,0,0-8.26-3.67.46.46,0,0,0-.42.49.44.44,0,0,0,.48.43,10,10,0,0,1,7.48,3.31A.46.46,0,0,0,391,375.61Z" style="fill:#f0f0f0"></path><path d="M394.79,373.35a.52.52,0,0,0,.29-.09.47.47,0,0,0,.09-.65,10.79,10.79,0,0,0-8.27-3.67.46.46,0,0,0-.42.5.44.44,0,0,0,.48.42,10,10,0,0,1,7.48,3.31A.48.48,0,0,0,394.79,373.35Z" style="fill:#f0f0f0"></path><path d="M398.48,370.46a.47.47,0,0,0,.3-.1.46.46,0,0,0,.08-.64,10.78,10.78,0,0,0-8.26-3.67.46.46,0,0,0-.42.49.44.44,0,0,0,.48.43,10,10,0,0,1,7.48,3.3A.44.44,0,0,0,398.48,370.46Z" style="fill:#f0f0f0"></path><path d="M402.14,367.55a.37.37,0,0,0,.28-.09.45.45,0,0,0,.1-.64c-1.69-2.35-5.65-4-9-3.74a.46.46,0,0,0,.06.92c3.05-.23,6.74,1.28,8.24,3.36A.42.42,0,0,0,402.14,367.55Z" style="fill:#f0f0f0"></path><path d="M435.79,323.82l21.47-4.35c.73,13,.39,30.37.37,42.37,0,2.3,1.52,17.8.92,22.58-.89,7.18-10.5,6.84-11.35,2.63s-1.79-22.21-2-24.08a10.28,10.28,0,0,0-.19-1.67C442.66,350.36,435.93,324.44,435.79,323.82Z" style="fill:#ffa8a7"></path><path d="M443.85,390.24c.14,4.17.78,6.95,2.38,9.44s4.74,3.32,8,2.68,7.39-2.45,8.43-6,.93-6,.32-9.93Z" style="fill:#263238"></path><path d="M457.64,360.52c1.31.12,1.45,5.56,2,11.18.62,6,2.58,8.56,3.15,13.5.65,5.65.23,8.16-2.11,11.5s-10.37,6.51-14.11,1.54c-3.05-4-3-8.45-2.57-14.06a127.19,127.19,0,0,0,.76-14.3c-.13-4.22-.91-8.14.26-8.58.06.62.12,1.41.2,2s.11,2.75.85,2.79a7.67,7.67,0,0,0,.07-1.59,1.73,1.73,0,0,1,.4-1.35,5,5,0,0,1,2.07-.71c1.31-.2,2.62-.37,3.94-.45.66,0,1.32-.05,2,0a5.82,5.82,0,0,1,1.67.25,1.1,1.1,0,0,1,.69.58,1.58,1.58,0,0,1,.05.65,4.13,4.13,0,0,0,.13,1.16c0,.17.17.37.36.34a.33.33,0,0,0,.22-.34c0-.68-.05-1.18-.06-2,0-.36,0-.71,0-1.07S457.65,360.88,457.64,360.52Z" style="fill:#455a64"></path><path d="M463.08,388.47c.11,3.5-.19,5.89-2,8.51-2.34,3.35-11,6.5-14.74,1.53-1.86-2.47-2.29-5.34-2.46-8.27C446.31,386.53,459.5,385.19,463.08,388.47Z" style="fill:#fafafa"></path><path d="M447.43,384.2l.16,0a21.75,21.75,0,0,1,11.42-.77.51.51,0,0,0,.6-.31.43.43,0,0,0-.35-.53,22.49,22.49,0,0,0-12.06.82.41.41,0,0,0-.25.57A.5.5,0,0,0,447.43,384.2Z" style="fill:#f0f0f0"></path><path d="M458.83,379.19a.49.49,0,0,0,.42-.28.42.42,0,0,0-.29-.56c-5.86-1.9-11.79.61-12,.72a.41.41,0,0,0-.22.58.52.52,0,0,0,.65.2c.06,0,5.82-2.47,11.27-.69A.51.51,0,0,0,458.83,379.19Z" style="fill:#f0f0f0"></path><path d="M458.62,375.23A.49.49,0,0,0,459,375a.42.42,0,0,0-.28-.56,17.07,17.07,0,0,0-12.28.68.41.41,0,0,0-.19.59.53.53,0,0,0,.67.16,16.19,16.19,0,0,1,11.44-.62A.83.83,0,0,0,458.62,375.23Z" style="fill:#f0f0f0"></path><path d="M458.36,370.78a.54.54,0,0,0,.42-.27.43.43,0,0,0-.27-.57c-6-2.15-12.12.68-12.38.8a.42.42,0,0,0-.2.59.52.52,0,0,0,.67.17c.06,0,5.94-2.76,11.54-.76A.57.57,0,0,0,458.36,370.78Z" style="fill:#ebebeb"></path><path d="M450.53,223.79c1.34,24.51,4.37,69.59,4.37,69.59.29,2.85,2.9,15.46,3.17,25.75.43,16.52-.23,28-.23,28s-9.48,4-16,1.43c0,0-8.67-33.52-10.87-44.28-2.61-12.82-8.18-38.33-8.18-38.33l-4.39,33.86s1.38,12.06,0,22c-.93,6.79-4.44,25.54-4.44,25.54s-8.74,1.87-15.89-.41c0,0-3.35-44.15-3.77-50.4s-.41-38.46,1.13-77.93Z" style="fill:#455a64"></path><path d="M397.68,342.5c3.52,2.58,13.07,2.45,17.07.34L413.53,350c-2.86,1.65-11.29,2-15.51-.92Z" style="fill:#37474f"></path><path d="M440.71,344.36c5,2.19,14.37.9,17.32-1.86v6.92c-2.32,2.32-11.26,3.44-16,1.67Z" style="fill:#37474f"></path><path d="M422.74,265.93,419.09,244a19.7,19.7,0,0,1-12.29-5.26s.57,5.05,10.35,8.29l3.36,18.21-2.16,34.56Z" style="fill:#37474f"></path></g><g id="freepik--Top--inject-85"><g id="freepik--Arm--inject-85"><path d="M409.23,150.1c-12.81,1.81-14.92,7.09-18.86,15.1-3.13,6.38-9.27,20.78-9.27,20.78s-19.19-4.83-22.61-7c-2.34-1.48-1.91-2.43-5.78-4.94-2.73-1.76-5.62-2.59-7.33-4.33-1.35-1.39-3.48.82-1.33,3.77a16.38,16.38,0,0,0,2.28,2.29,12.82,12.82,0,0,1-4-1.55c-3.08-2.2-4.44-5-8.23-5.45-1.6-.19-1.92.92-1.32,2.15a1.94,1.94,0,0,0-.92,2.72c-.92.27-1,2.11-.65,2.64-.47.69-1.26,2.68,2.24,6.55a34.09,34.09,0,0,0,6,5,72.85,72.85,0,0,0,8.49,2.08,35.85,35.85,0,0,1,9.23,2.85c4.24,1.77,14.94,7.3,24.43,10.82,7.9,2.94,10.12-1.57,13.87-8.59,2.47-4.63,10.47-19.88,10.47-19.88C408.88,165.87,412,155.77,409.23,150.1Z" style="fill:#ffa8a7"></path><path d="M409.39,149.51c-6.91.59-11.64,2.06-15.1,7.34s-11.06,22.35-11.06,22.35,7.6,9.52,16.83,9.41c0,0,6.37-12.36,7.75-15.5S413.11,157.32,409.39,149.51Z" style="fill:#BA68C8"></path><path d="M409.39,149.51c-6.91.59-11.64,2.06-15.1,7.34s-11.06,22.35-11.06,22.35,7.6,9.52,16.83,9.41c0,0,6.37-12.36,7.75-15.5S413.11,157.32,409.39,149.51Z" style="opacity:0.2"></path><path d="M343.75,181.74c4.68-1.74,9.82.32,11.37,4.11a5.65,5.65,0,0,0-3.44-5.16C349.77,179.75,346.19,180,343.75,181.74Z" style="fill:#f28f8f"></path></g><g id="freepik--Chest--inject-85"><path d="M398.3,169.19c1.13-8.19,3.05-17.95,11.09-19.68a83.14,83.14,0,0,1,20.18-.29,77,77,0,0,1,17.53,3.89l2.48,35.59s1,21,.69,34.69c-11.73,7.43-38.7,10.11-54.73-2C395.06,210,397.18,177.3,398.3,169.19Z" style="fill:#f0f0f0"></path><path d="M403.84,121.06c-2.1-4.74-.11-11,2.35-14,3.56-4.3,9.11-6.17,17.51-5.7,6.39.36,12.68,3,13.92,9.52,5.14,1.5,4.6,9.93,3.35,13.65-2.55,7.56-7.6,14.15-7.67,18Z" style="fill:#263238"></path><path d="M404,138.8c1,3.64,3.15,6.3,6.52,6.8a28,28,0,0,0,5.32,0v4.89c-5.62,8,11.87,8.69,17.88-.1l-.16-15s2.08,2.33,5.46.09a7.41,7.41,0,0,0,2.26-9.08c-1.71-3.55-5.07-2.06-6.1-1s-2.23,3.12-3.1,2.84a3.16,3.16,0,0,1-2.1-2.12,19.21,19.21,0,0,1-1.14-6.88,7.68,7.68,0,0,1-2.4-1.85c-1.46-1.6-1.59-3.53-1.66-5.28-7.29-2.24-16.56-1.26-19.57,1.1-1.73,3.08-1.75,10.21-2,14.32A33.46,33.46,0,0,0,404,138.8Z" style="fill:#ffa8a7"></path><path d="M415.79,145.6c3.72-.24,11.21-2,13.19-4.11s2.81-6.35,2.81-6.35-.27,5.38-1.8,7.76-5.42,3.43-7.78,4a57.15,57.15,0,0,1-6.39,1Z" style="fill:#f28f8f"></path><path d="M418.07,126a1.54,1.54,0,1,0,1.53-1.6A1.55,1.55,0,0,0,418.07,126Z" style="fill:#263238"></path><path d="M405.74,122.3l3.73-.63a1.82,1.82,0,0,0-2.11-1.58A2,2,0,0,0,405.74,122.3Z" style="fill:#263238"></path><path d="M418.67,121.67l3.6,1.15a1.82,1.82,0,0,0-1.16-2.37A2,2,0,0,0,418.67,121.67Z" style="fill:#263238"></path><path d="M406.31,125.73a1.54,1.54,0,1,0,1.54-1.6A1.57,1.57,0,0,0,406.31,125.73Z" style="fill:#263238"></path><polygon points="414.14 122.48 413.09 133.54 407.15 131.79 414.14 122.48" style="fill:#f28f8f"></polygon><path d="M418.78,134.71a2.75,2.75,0,1,1-5.08,2.12Z" style="fill:#b16668"></path><path d="M418.35,136.19a2.67,2.67,0,0,0-2.64,2.29,2.75,2.75,0,0,0,3.24-2.21A2.41,2.41,0,0,0,418.35,136.19Z" style="fill:#f28f8f"></path></g><g id="freepik--Scissors--inject-85"><path d="M386.13,187.05l-2-1.18a34,34,0,0,0-1.8-5.09L362,139.08c-4.71-9.69-12.58-15.16-18.11-12.87l4.19-2.48c5.55-3.46,14.11,2.07,19.11,12.36l20.25,41.69a25.24,25.24,0,0,1,1.43,3.87h0a42.81,42.81,0,0,0,1.81,8Z" style="fill:#37474f"></path><path d="M403.2,248.85a42.09,42.09,0,0,0-4.85-18.64h0l-13.86-28.53a10.5,10.5,0,0,0,1.56-2.74c2,1.17,3.17,1.83,5.22,3l12.27,25.26,0,0a42.05,42.05,0,0,1,4.85,18.64c0,6.84-2.27,11.67-5.87,13.77l-5.26,3-.05,0C400.88,260.62,403.2,255.77,403.2,248.85Z" style="fill:#37474f"></path><polygon points="361.99 173.11 359.83 171.86 328.81 153.95 328.81 153.95 334 150.96 357.95 164.79 361.99 173.11" style="fill:#37474f"></polygon><path d="M328.81,154v4.8c0,10,6.05,21.53,13.52,25.84l30.28,17.48a14.66,14.66,0,0,0,4.43,2l1.58,3.27h0l3.55,7.29c-7.5-1.93-13.1,3.78-13.1,14.51,0,12.55,7.64,27.18,17.06,32.62s17.07-.36,17.07-12.91a42.09,42.09,0,0,0-4.85-18.64h0l-13.86-28.53a10.41,10.41,0,0,0,1.56-2.74l17.72,10.24c.65.46,1.27,1,1.93,1.37,9.42,5.44,17.08-.35,17.08-12.91s-7.66-27.17-17.08-32.61-17.06.35-17.06,12.9a38.93,38.93,0,0,0,2.05,11.78l-4.59-2.65-2-1.18a34,34,0,0,0-1.8-5.09L362,139.08c-5-10.28-13.55-15.82-19.11-12.36l-2.67,1.67L362,173.11l-2.16-1.25Zm76.92,43.5c-4-2.31-7.24-8.53-7.24-13.86s3.25-7.78,7.24-5.47S413,186.63,413,192,409.73,199.75,405.73,197.45Zm-19.6,31.88c4,2.31,7.25,8.52,7.25,13.85s-3.25,7.79-7.25,5.49-7.24-8.53-7.24-13.86S382.13,227,386.13,229.33Z" style="fill:#455a64"></path><path d="M387.17,192.46a25.5,25.5,0,0,1-1.05,5.27,10.29,10.29,0,0,1-2.68,4.41,6.77,6.77,0,0,1-4.65,1.82,12.93,12.93,0,0,1-5.14-1.27,10.29,10.29,0,0,0,5.12,1.95,7,7,0,0,0,5.26-1.86,9.77,9.77,0,0,0,2.74-4.85A16.58,16.58,0,0,0,387.17,192.46Z" style="fill:#37474f"></path><polygon points="383.23 185.38 361.99 173.11 360.52 170.08 383.23 185.38" style="fill:#37474f"></polygon><path d="M373.13,189.76c0-2.68,1.63-3.91,3.63-2.75s3.65,4.28,3.65,7-1.64,3.92-3.65,2.76S373.13,192.44,373.13,189.76Z" style="fill:#37474f"></path><path d="M375.21,193.76a.39.39,0,0,0,.27-.11l3.11-3a.38.38,0,0,0,0-.55.4.4,0,0,0-.56,0l-3.11,3a.4.4,0,0,0,.27.68Z" style="fill:#455a64"></path><path d="M378.32,195.55a.33.33,0,0,0,.17,0,.39.39,0,0,0,.19-.52l-3.11-6.58a.4.4,0,0,0-.53-.19.39.39,0,0,0-.18.52l3.11,6.59A.38.38,0,0,0,378.32,195.55Z" style="fill:#455a64"></path><polygon points="388.75 188.56 395.87 184.46 390.72 189.7 388.75 188.56" style="fill:#BA68C8"></polygon><polygon points="388.75 188.56 395.87 184.46 390.72 189.7 388.75 188.56" style="opacity:0.2"></polygon><path d="M422.81,197.63c0-12.55-7.66-27.17-17.08-32.61-4.26-2.46-8.16-2.61-11.16-.88l0,0,5.14-3c3-1.74,6.9-1.59,11.17.88,9.42,5.43,17.08,20.05,17.08,32.61,0,6.86-2.29,11.7-5.91,13.79l-5.25,3,0,0C420.47,209.42,422.81,204.56,422.81,197.63Z" style="fill:#BA68C8"></path><path d="M394.8,164c2.95-1.59,6.77-1.39,10.93,1,5.83,3.36,11,10.23,14,18l5.19-3c-3.07-7.72-8.23-14.59-14.05-18-4.27-2.46-8.17-2.61-11.17-.87Z" style="fill:#fff;opacity:0.2"></path><path d="M416.8,211.48l0,0,5.25-3c3.62-2.09,5.91-6.93,5.91-13.8A40.09,40.09,0,0,0,425,180l-5.19,3a40.26,40.26,0,0,1,3,14.65C422.81,204.56,420.48,209.42,416.8,211.48Z" style="opacity:0.2"></path><path d="M404.91,177.71a5.63,5.63,0,0,0-.75-.27,9.63,9.63,0,0,0-.48,3.16c0,5.33,3.25,11.54,7.24,13.85a7.24,7.24,0,0,0,1.58.68c-1,3-3.68,4.1-6.77,2.32-4-2.31-7.24-8.53-7.24-13.86C398.49,178.63,401.3,176.17,404.91,177.71Z" style="fill:#BA68C8"></path><path d="M404.91,177.71a5.63,5.63,0,0,0-.75-.27,9.63,9.63,0,0,0-.48,3.16c0,5.33,3.25,11.54,7.24,13.85a7.24,7.24,0,0,0,1.58.68c-1,3-3.68,4.1-6.77,2.32-4-2.31-7.24-8.53-7.24-13.86C398.49,178.63,401.3,176.17,404.91,177.71Z" style="opacity:0.2"></path><path d="M390.51,189.58l-1.76-1v11.92l13.75,7.93a22.39,22.39,0,0,0,3.23,2.28c9.47,5.47,17.2-.36,17.2-13s-7.73-27.35-17.2-32.82-17.17.35-17.17,13A39.11,39.11,0,0,0,390.51,189.58Zm15.22,7.87c-4-2.31-7.24-8.53-7.24-13.86s3.25-7.78,7.24-5.47S413,186.63,413,192,409.73,199.75,405.73,197.45Z" style="fill:#BA68C8"></path><path d="M382.17,214.63a9.46,9.46,0,0,0-7.15.76c.93-.53,4.21-2.42,5-2.91.27-.16.56-.31.85-.45Z" style="fill:#BA68C8"></path><path d="M382.17,214.63a9.46,9.46,0,0,0-7.15.76c.93-.53,4.21-2.42,5-2.91.27-.16.56-.31.85-.45Z" style="opacity:0.2"></path><path d="M385.31,228.93a6.86,6.86,0,0,0-.75-.27,9.63,9.63,0,0,0-.48,3.16c0,5.32,3.24,11.54,7.24,13.85a6.8,6.8,0,0,0,1.58.67c-1,3-3.68,4.11-6.77,2.33-4-2.31-7.24-8.53-7.24-13.86C378.89,229.85,381.7,227.39,385.31,228.93Z" style="fill:#BA68C8"></path><path d="M385.31,228.93a6.86,6.86,0,0,0-.75-.27,9.63,9.63,0,0,0-.48,3.16c0,5.32,3.24,11.54,7.24,13.85a6.8,6.8,0,0,0,1.58.67c-1,3-3.68,4.11-6.77,2.33-4-2.31-7.24-8.53-7.24-13.86C378.89,229.85,381.7,227.39,385.31,228.93Z" style="opacity:0.2"></path><path d="M390.23,213.42l5.18-3,8.16,16.78,0,0a42.05,42.05,0,0,1,4.85,18.64c0,6.84-2.27,11.67-5.87,13.77l-5.26,3-.05,0c3.67-2.07,6-6.92,6-13.84a42.09,42.09,0,0,0-4.85-18.64h0c-2.59-5.33-5.37-11-8.15-16.78Z" style="fill:#BA68C8"></path><path d="M390.23,213.42l5.18-3,8.16,16.78,0,0a42.05,42.05,0,0,1,4.85,18.64c0,6.84-2.27,11.67-5.87,13.77l-5.26,3-.05,0c3.67-2.07,6-6.92,6-13.84a42.09,42.09,0,0,0-4.85-18.64h0c-2.59-5.33-5.37-11-8.15-16.78Z" style="opacity:0.2"></path><path d="M369,229.07c0,12.63,7.7,27.37,17.18,32.84s17.19-.36,17.19-13a42.94,42.94,0,0,0-5.77-20.42l-7.32-15.07-12-6.95.42.87,2.46,5,1,2C374.54,212.5,369,218.31,369,229.07Zm9.93,5.74c0-5.33,3.25-7.78,7.25-5.47s7.25,8.51,7.25,13.84-3.26,7.79-7.25,5.49S378.88,240.14,378.88,234.81Z" style="fill:#BA68C8"></path></g><g id="freepik--arm--inject-85"><path d="M460.57,167.55c-2.91-10.13-8.77-11.84-13.41-13.68-6.58,6.54-6.48,17.11-3.24,30.59,2.28,9.49,5.14,21.69,5.14,21.69s-16.64,2.9-21.36.22a17,17,0,0,1-3.92-2.6c-2.71-2.1-3.88-2.47-6.48-4.34-2.05-1.46-2.7-2.86-3.24-2.55a2.84,2.84,0,0,0-.77,3.8,13.1,13.1,0,0,0,2.31,3.23,45.66,45.66,0,0,1-7.9-3.27c-3.44-1.81-5-3.38-6.38-2.21-.88.74-.34,2-.21,2.91.15,1.09-.44,2.26-.1,3.3.19.6.72,1.06.84,1.68s-.32,1.46-.28,2.2a3.24,3.24,0,0,0,.59,1.47c.87,1.43,1.84,3.43,3.11,4.55a13.39,13.39,0,0,0,2.92,1.62,49.7,49.7,0,0,0,8.88,3c5.63,1.48,9,1.26,14.61,2,10.51,1.32,23.41,1.26,28.67.65,5.91-.7,7.12-4.73,7.86-9.57C469.5,203.81,462.87,175.54,460.57,167.55Z" style="fill:#ffa8a7"></path><path d="M447.1,153.11c4.42,1.5,8.82,3.39,10.9,6.88s3.51,7.66,6.11,19.21c2,8.82,2.91,13.26,2.91,13.26a29,29,0,0,1-21,4.25s-3.57-14.38-5-20.27S439.51,157.49,447.1,153.11Z" style="fill:#BA68C8"></path><path d="M447.1,153.11c4.42,1.5,8.82,3.39,10.9,6.88s3.51,7.66,6.11,19.21c2,8.82,2.91,13.26,2.91,13.26a29,29,0,0,1-21,4.25s-3.57-14.38-5-20.27S439.51,157.49,447.1,153.11Z" style="opacity:0.2"></path></g></g></g></g><g id="freepik--speech-bubble--inject-85"><g id="freepik--speech-bubble--inject-85"><path d="M422.27,89.45l3.33-6.26-2.68-7.73V70.72l8.2,4.74v4.73l-3.53,6.1a.51.51,0,0,1-.24.22h0Z" style="fill:#BA68C8"></path><path d="M422.27,89.45l3.33-6.26-2.68-7.73V70.72l8.2,4.74v4.73l-3.53,6.1a.51.51,0,0,1-.24.22h0Z" style="fill:#fff;opacity:0.2"></path><path d="M402.69,33.09a5.42,5.42,0,0,1,2.46-4.25l2-1.16a5.46,5.46,0,0,1,4.92,0l30.69,17.75a5.44,5.44,0,0,1,2.46,4.26V83.46a5.44,5.44,0,0,1-2.46,4.26l-2,1.15a5.4,5.4,0,0,1-4.92,0L426,83.17l-3.52,6.09a.52.52,0,0,1-.95-.09l-3.71-10.73-12.64-7.32a5.42,5.42,0,0,1-2.46-4.26Z" style="fill:#BA68C8"></path><path d="M402.69,33.09a5.42,5.42,0,0,1,2.46-4.25l2-1.16a5.46,5.46,0,0,1,4.92,0l30.69,17.75a5.44,5.44,0,0,1,2.46,4.26V83.46a5.44,5.44,0,0,1-2.46,4.26l-2,1.15a5.4,5.4,0,0,1-4.92,0L426,83.17l-3.52,6.09a.52.52,0,0,1-.95-.09l-3.71-10.73-12.64-7.32a5.42,5.42,0,0,1-2.46-4.26Z" style="fill:#fff;opacity:0.5"></path><path d="M445.22,83.46a5.44,5.44,0,0,1-2.46,4.26l-2,1.15a5.51,5.51,0,0,1-4.5.2c1.16.44,2-.21,2-1.62V53.68a5.08,5.08,0,0,0-.72-2.42l6.92-4a5.08,5.08,0,0,1,.72,2.42Z" style="fill:#BA68C8;opacity:0.4"></path><path d="M402.77,32.4c.29-1,1.24-1.38,2.38-.73l30.69,17.76a4.78,4.78,0,0,1,1.73,1.83l6.92-4a5,5,0,0,0-1.73-1.83L412.07,27.68a5.46,5.46,0,0,0-4.92,0l-2,1.16A5.44,5.44,0,0,0,402.77,32.4Z" style="fill:#fff;opacity:0.5"></path><g id="freepik----inject-85"><path d="M433.79,68a.91.91,0,0,1-.13.56.81.81,0,0,1-.36.24l-6.67,3.08h-.11l-.07,0a.63.63,0,0,1-.25-.3,1,1,0,0,1-.1-.45V68.18c0-.34.06-.56.19-.64a1.44,1.44,0,0,1,.34-.16l3.44-1.58-3.44-5.25a5.7,5.7,0,0,1-.34-.57,1.75,1.75,0,0,1-.19-.87V55a.41.41,0,0,1,.1-.32c.06-.07.15-.07.25,0l.07.05a.81.81,0,0,1,.11.13l6.67,10.79a4,4,0,0,1,.36.65,1.86,1.86,0,0,1,.13.7Z" style="fill:#fff"></path><path d="M424.83,74.28a1.38,1.38,0,0,1,0,.25.42.42,0,0,1-.11.34.18.18,0,0,1-.25,0l-2.19-1.26a1.21,1.21,0,0,1-.5-.55,3,3,0,0,1-.23-.65l-5.64-24a.85.85,0,0,1,0-.25.46.46,0,0,1,.11-.34.21.21,0,0,1,.26,0l2.24,1.29a1.23,1.23,0,0,1,.48.53,3.94,3.94,0,0,1,.25.67Z" style="fill:#fff"></path><path d="M407,53.09a.93.93,0,0,1,.12-.56,1,1,0,0,1,.36-.24l6.68-3.08h.1a.2.2,0,0,1,.08,0,.61.61,0,0,1,.25.29,1,1,0,0,1,.1.45v4.16c0,.34-.06.56-.19.65a1.78,1.78,0,0,1-.34.17l-2.92,1.11,2.92,4.51c.09.15.21.33.34.56a1.71,1.71,0,0,1,.19.86v4.16a.45.45,0,0,1-.1.33.21.21,0,0,1-.25,0l-.08-.06-.1-.13-6.68-10.79a6.48,6.48,0,0,1-.36-.65,1.83,1.83,0,0,1-.12-.7Z" style="fill:#fff"></path></g></g></g></svg>