<svg xmlns="http://www.w3.org/2000/svg" viewBox="0 0 500 500"><g id="freepik--Floor--inject-383"><g id="freepik--floor--inject-383"><ellipse id="freepik--floor--inject-383" cx="248.37" cy="334.15" rx="228.54" ry="131.95" style="fill:#f0f0f0"></ellipse></g></g><g id="freepik--Shadows--inject-383"><g id="freepik--Shadow--inject-383" style="opacity:0.1"><polygon points="254.05 433.26 132.19 362.9 314.98 257.37 436.85 327.73 254.05 433.26"></polygon><ellipse cx="406.18" cy="370.78" rx="46.68" ry="26.95"></ellipse></g><polygon id="freepik--shadow--inject-383" points="75.62 364.76 37.09 342.52 287.54 197.92 326.07 220.16 75.62 364.76" style="opacity:0.1"></polygon></g><g id="freepik--Plants--inject-383"><g id="freepik--plants--inject-383"><path d="M62.58,322.72s-.42-13.91-6.38-25.17-14.82-18.73-23.55-20.16-16.5,6.07-7.56,12.4,25.17,13.4,31.12,34.8Z" style="fill:#37474f"></path><path d="M60.3,318.93l.1,0a.48.48,0,0,0,.31-.59c-7.37-23.61-24.23-34.62-32.11-37.14a.47.47,0,1,0-.29.9c7.72,2.47,24.24,13.28,31.5,36.52A.46.46,0,0,0,60.3,318.93Z" style="fill:#fff"></path><path d="M17.26,311.06c.59,1.76,2.35,2.81,4,3.66s3.45,1.77,4.23,3.46c1.56,3.4-1.93,7.65-.22,11A5.84,5.84,0,0,0,29,331.83a38.36,38.36,0,0,0,3.85.71,16.35,16.35,0,0,0,1.85,0A8.38,8.38,0,0,1,40,333.64c2.43,1.68,2.92,5,4.24,7.64a12.25,12.25,0,0,0,8.13,6.24c2.88.65,7.3.41,8.17-.81.67-.92-.76-4-.69-5.17a46.45,46.45,0,0,0-.29-8.74,16.53,16.53,0,0,1-.18-4c.15-1.49.29-3,.42-4.46s.64-2.84.21-4.52a16.75,16.75,0,0,0-2.12-4.46c-.85-1.38-1.71-2.76-2.58-4.12a23.24,23.24,0,0,0-3.5-4.55,12.23,12.23,0,0,0-9.13-3.24c-2.75.2-5.54,1.47-8.31,1.08s-5.29-1.35-8.08-1.42a9.7,9.7,0,0,0-7.87,3.21A5.13,5.13,0,0,0,17.26,311.06Z" style="fill:#455a64"></path><path d="M58.82,339.27h0a.42.42,0,0,0,.35-.48c-4.37-25.92-30.67-32.08-36.94-32.22a.42.42,0,1,0,0,.84c6.14.13,31.86,6.16,36.13,31.52A.42.42,0,0,0,58.82,339.27Z" style="fill:#fff"></path><path d="M30.42,323.68a.4.4,0,0,0,.23-.1,22.27,22.27,0,0,1,18.62-3.4.41.41,0,0,0,.5-.31.41.41,0,0,0-.31-.5,23.1,23.1,0,0,0-19.34,3.57.43.43,0,0,0-.06.59A.44.44,0,0,0,30.42,323.68Z" style="fill:#fff"></path></g></g><g id="freepik--Book--inject-383"><g id="freepik--book--inject-383"><rect x="161.83" y="106.71" width="3.02" height="3.99" style="fill:#BA68C8"></rect><rect x="161.83" y="106.71" width="3.02" height="3.99" style="opacity:0.15"></rect><polygon points="59.83 173.27 302.2 33.34 302.2 212.14 59.83 352.07 59.83 173.27" style="fill:#BA68C8"></polygon><polygon points="59.83 173.27 302.2 33.34 302.2 212.14 59.83 352.07 59.83 173.27" style="opacity:0.15"></polygon><path d="M181,107l3.73,2.2c4.6,2.71,22.57,2.05,34.46-4.81l96.28-55.6-16.82-9.71Z" style="fill:#fff"></path><path d="M315.49,48.8l-96.28,55.59c-11.89,6.88-29.87,7.53-34.46,4.83L181,107V278h0l3.73,2.2c4.61,2.71,22.58,2.05,34.47-4.81l96.22-55.58.06,0Z" style="fill:#fafafa"></path><path d="M315.49,48.8l-96.28,55.59c-11.89,6.88-29.87,7.53-34.46,4.83L181,107V278h0l3.73,2.2c4.61,2.71,22.58,2.05,34.47-4.81l96.28-55.6Z" style="fill:#f5f5f5"></path><path d="M218.18,105c-11.86,6.34-29,6.88-33.43,4.26L181,107V278h0l3.73,2.2c4.48,2.63,21.57,2.08,33.44-4.25Z" style="fill:#ebebeb"></path><path d="M198.57,110.46c-6.27.58-11.61.06-13.82-1.24L181,107V278h0l3.73,2.2c2.23,1.31,7.57,1.83,13.83,1.25Z" style="fill:#e0e0e0"></path><path d="M184.48,109.05c4.6,2.72,3.58,13.38-8.29,20.28L80.31,185.11,63,175.13,181,107Z" style="fill:#fff"></path><polygon points="63.03 175.13 80.31 185.11 80.31 356.14 63.03 346.16 63.03 175.13" style="fill:#e0e0e0"></polygon><path d="M176.19,129.32l-4.29,2.5L80.31,185.11v171l95.88-55.79c8.71-5.06,10.8-9.48,10.83-13.43h0V113.55C187,119.77,183.25,124.93,176.19,129.32Z" style="fill:#f5f5f5"></path><polygon points="56.35 171.22 59.83 173.27 59.83 352.07 56.35 350.06 56.35 171.22" style="fill:#BA68C8"></polygon><polygon points="56.35 171.22 59.83 173.27 59.83 352.07 56.35 350.06 56.35 171.22" style="opacity:0.30000000000000004"></polygon><polygon points="56.35 171.22 298.73 31.29 302.2 33.33 59.83 173.27 56.35 171.22" style="fill:#BA68C8"></polygon><path d="M189.82,92.56a5.42,5.42,0,0,0-4.93,0l-22,12.73c-1.36.78-1.36,2.06,0,2.84l4.9,2.83,27-15.57Z" style="fill:#BA68C8"></path><g style="opacity:0.30000000000000004"><path d="M92,197.27l79.89-46.15,2.25-1.31a4.1,4.1,0,0,0,2-3c0-1-.91-1.28-2-.62l-2.25,1.31L92,193.63a4.09,4.09,0,0,0-2.05,3C90,197.64,90.88,197.92,92,197.27Z"></path><path d="M92,206l79.89-46.15,2.25-1.31a4.1,4.1,0,0,0,2-3c0-1-.91-1.28-2-.62l-2.25,1.31L92,202.37a4.09,4.09,0,0,0-2.05,3C90,206.38,90.88,206.67,92,206Z"></path><path d="M92,214.75,171.9,168.6l2.25-1.31a4.1,4.1,0,0,0,2-3c0-1-.91-1.28-2-.62L171.9,165,92,211.11a4.09,4.09,0,0,0-2.05,3C90,215.12,90.88,215.41,92,214.75Z"></path><path d="M92,223.49l79.89-46.15,2.25-1.31a4.1,4.1,0,0,0,2-3c0-1-.91-1.28-2-.62l-2.25,1.31L92,219.85a4.09,4.09,0,0,0-2.05,3C90,223.86,90.88,224.15,92,223.49Z"></path><path d="M92,232.23l79.89-46.15,2.25-1.31a4.1,4.1,0,0,0,2-3c0-1-.91-1.28-2-.62l-2.25,1.31L92,228.59a4.09,4.09,0,0,0-2.05,3C90,232.6,90.88,232.89,92,232.23Z"></path><path d="M92,241l79.89-46.15,2.25-1.31a4.1,4.1,0,0,0,2-3c0-1-.91-1.28-2-.62l-2.25,1.31L92,237.33a4.09,4.09,0,0,0-2.05,3C90,241.34,90.88,241.63,92,241Z"></path><path d="M92,249.71l79.89-46.15,2.25-1.31a4.11,4.11,0,0,0,2-3c0-1-.91-1.29-2-.63l-2.25,1.31L92,246.07a4.09,4.09,0,0,0-2.05,3C90,250.08,90.88,250.37,92,249.71Z"></path><path d="M92,258.45,171.9,212.3l2.25-1.31a4.11,4.11,0,0,0,2-3c0-1-.91-1.29-2-.63l-2.25,1.31L92,254.81a4.09,4.09,0,0,0-2.05,3C90,258.82,90.88,259.11,92,258.45Z"></path><path d="M92,267.19,171.9,221l2.25-1.31a4.11,4.11,0,0,0,2-3c0-1-.91-1.29-2-.63l-2.25,1.31L92,263.55a4.09,4.09,0,0,0-2.05,3C90,267.56,90.88,267.85,92,267.19Z"></path><path d="M92,275.93l79.89-46.15,2.25-1.31a4.11,4.11,0,0,0,2-3c0-1-.91-1.29-2-.63l-2.25,1.31L92,272.29a4.09,4.09,0,0,0-2.05,3C90,276.3,90.88,276.59,92,275.93Z"></path><path d="M92,284.67l79.89-46.15,2.25-1.31a4.11,4.11,0,0,0,2-3c0-1-.91-1.29-2-.63l-2.25,1.31L92,281A4.09,4.09,0,0,0,90,284C90,285,90.88,285.33,92,284.67Z"></path><path d="M92,293.41l79.89-46.15,2.25-1.31a4.11,4.11,0,0,0,2-3c0-1-.91-1.29-2-.63l-2.25,1.31L92,289.77a4.09,4.09,0,0,0-2.05,3C90,293.78,90.88,294.07,92,293.41Z"></path><path d="M92,302.15,171.9,256l2.25-1.31a4.11,4.11,0,0,0,2-3c0-1-.91-1.29-2-.63l-2.25,1.31L92,298.51a4.1,4.1,0,0,0-2.05,3C90,302.52,90.88,302.81,92,302.15Z"></path><path d="M92,310.89l79.89-46.15,2.25-1.31a4.11,4.11,0,0,0,2-3c0-1-.91-1.29-2-.63l-2.25,1.31L92,307.25a4.1,4.1,0,0,0-2.05,3C90,311.26,90.88,311.55,92,310.89Z"></path><path d="M92,319.63l79.89-46.15,2.25-1.31a4.11,4.11,0,0,0,2-3c0-1-.91-1.29-2-.63l-2.25,1.31L92,316A4.1,4.1,0,0,0,90,319C90,320,90.88,320.29,92,319.63Z"></path><path d="M92,328.37l79.89-46.15,2.25-1.31a4.11,4.11,0,0,0,2-3c0-1-.91-1.29-2-.63l-2.25,1.31L92,324.73a4.1,4.1,0,0,0-2.05,3C90,328.74,90.88,329,92,328.37Z"></path><path d="M92,337.11,171.9,291l2.25-1.31a4.11,4.11,0,0,0,2-3c0-1-.91-1.29-2-.63l-2.25,1.31L92,333.47a4.1,4.1,0,0,0-2.05,3C90,337.48,90.88,337.77,92,337.11Z"></path></g><g style="opacity:0.30000000000000004"><path d="M206.65,125.16c-1.28.29-2.32,1.28-2.32,2.26s1,1.59,2.32,1.29A46.26,46.26,0,0,0,219.21,124l84.14-48.69a4.07,4.07,0,0,0,2-3c0-1-.92-1.24-2-.59l-84.14,48.69A46.28,46.28,0,0,1,206.65,125.16Z"></path><path d="M206.65,133.9c-1.28.3-2.32,1.29-2.32,2.27s1,1.58,2.32,1.29a46.28,46.28,0,0,0,12.56-4.77L303.35,84a4.06,4.06,0,0,0,2-3c0-1-.92-1.25-2-.59l-84.14,48.69A46.26,46.26,0,0,1,206.65,133.9Z"></path><path d="M206.65,142.65a2.76,2.76,0,0,0-2.32,2.27c0,1,1,1.58,2.32,1.28a46.26,46.26,0,0,0,12.56-4.76l84.14-48.69a4.07,4.07,0,0,0,2-3c0-1-.92-1.24-2-.59l-84.14,48.69A46.28,46.28,0,0,1,206.65,142.65Z"></path><path d="M206.65,151.39c-1.28.3-2.32,1.29-2.32,2.27s1,1.58,2.32,1.29a46.59,46.59,0,0,0,12.56-4.76l84.14-48.7a4.06,4.06,0,0,0,2-3c0-1-.92-1.25-2-.59l-84.14,48.69A46.26,46.26,0,0,1,206.65,151.39Z"></path><path d="M206.65,160.14a2.76,2.76,0,0,0-2.32,2.27c0,1,1,1.58,2.32,1.28a46.26,46.26,0,0,0,12.56-4.76l84.14-48.69a4.07,4.07,0,0,0,2-3c0-1-.92-1.24-2-.59l-84.14,48.69A46.28,46.28,0,0,1,206.65,160.14Z"></path><path d="M206.65,168.88c-1.28.3-2.32,1.29-2.32,2.27s1,1.59,2.32,1.29a46.59,46.59,0,0,0,12.56-4.76L303.35,119a4.06,4.06,0,0,0,2-3c0-1-.92-1.25-2-.59l-84.14,48.69A46.26,46.26,0,0,1,206.65,168.88Z"></path><path d="M206.65,177.63a2.76,2.76,0,0,0-2.32,2.27c0,1,1,1.58,2.32,1.28a46.26,46.26,0,0,0,12.56-4.76l84.14-48.69a4.07,4.07,0,0,0,2-3c0-1-.92-1.24-2-.59l-84.14,48.69A46.28,46.28,0,0,1,206.65,177.63Z"></path><path d="M206.65,186.37c-1.28.3-2.32,1.29-2.32,2.27s1,1.59,2.32,1.29a46.59,46.59,0,0,0,12.56-4.76l84.14-48.69a4.09,4.09,0,0,0,2-3c0-1-.92-1.25-2-.59l-84.14,48.69A46.26,46.26,0,0,1,206.65,186.37Z"></path><path d="M206.65,195.12a2.76,2.76,0,0,0-2.32,2.27c0,1,1,1.58,2.32,1.28a46.26,46.26,0,0,0,12.56-4.76l84.14-48.69a4.06,4.06,0,0,0,2-3c0-1-.92-1.24-2-.59l-84.14,48.69A46.28,46.28,0,0,1,206.65,195.12Z"></path><path d="M206.65,203.86c-1.28.3-2.32,1.29-2.32,2.27s1,1.59,2.32,1.29a46.59,46.59,0,0,0,12.56-4.76L303.35,154a4.09,4.09,0,0,0,2-3c0-1-.92-1.25-2-.59L219.21,199.1A46.26,46.26,0,0,1,206.65,203.86Z"></path><path d="M206.65,212.61a2.76,2.76,0,0,0-2.32,2.27c0,1,1,1.58,2.32,1.28a45.94,45.94,0,0,0,12.56-4.76l84.14-48.69a4.06,4.06,0,0,0,2-3c0-1-.92-1.25-2-.6l-84.14,48.69A46.28,46.28,0,0,1,206.65,212.61Z"></path><path d="M206.65,221.35c-1.28.3-2.32,1.29-2.32,2.27s1,1.59,2.32,1.29a46.59,46.59,0,0,0,12.56-4.76l84.14-48.69a4.09,4.09,0,0,0,2-3c0-1-.92-1.25-2-.59l-84.14,48.69A46.26,46.26,0,0,1,206.65,221.35Z"></path><path d="M206.65,230.1c-1.28.3-2.32,1.29-2.32,2.27s1,1.58,2.32,1.29a46.28,46.28,0,0,0,12.56-4.77l84.14-48.69a4.06,4.06,0,0,0,2-3c0-1-.92-1.25-2-.6l-84.14,48.7A46.59,46.59,0,0,1,206.65,230.1Z"></path><path d="M206.65,238.84c-1.28.3-2.32,1.29-2.32,2.27s1,1.59,2.32,1.29a46.59,46.59,0,0,0,12.56-4.76L303.35,189a4.09,4.09,0,0,0,2-3c0-1-.92-1.25-2-.59l-84.14,48.69A46.26,46.26,0,0,1,206.65,238.84Z"></path><path d="M206.65,247.59c-1.28.3-2.32,1.29-2.32,2.27s1,1.58,2.32,1.29a46.28,46.28,0,0,0,12.56-4.77l84.14-48.69a4.06,4.06,0,0,0,2-3c0-1-.92-1.25-2-.59l-84.14,48.69A46.59,46.59,0,0,1,206.65,247.59Z"></path><path d="M206.65,256.33c-1.28.3-2.32,1.29-2.32,2.27s1,1.59,2.32,1.29a46.26,46.26,0,0,0,12.56-4.76l84.14-48.69a4.09,4.09,0,0,0,2-3c0-1-.92-1.25-2-.59l-84.14,48.69A46.26,46.26,0,0,1,206.65,256.33Z"></path><path d="M206.65,265.08c-1.28.3-2.32,1.29-2.32,2.27s1,1.58,2.32,1.29a46.28,46.28,0,0,0,12.56-4.77l84.14-48.69a4.06,4.06,0,0,0,2-3c0-1-.92-1.25-2-.59l-84.14,48.69A46.59,46.59,0,0,1,206.65,265.08Z"></path></g><polygon points="76.5 183.02 90.3 174.02 75.3 182.21 75.3 199.15 76.5 183.02" style="opacity:0.2"></polygon><polygon points="67.91 177.93 94.84 162.38 69.15 178.67 67.91 212.91 67.91 177.93" style="opacity:0.2"></polygon><polygon points="76.5 353.94 75.99 327.49 74.68 352.89 76.5 353.94" style="opacity:0.2"></polygon><polygon points="69.76 350.01 68.78 310.61 68.15 349.12 69.76 350.01" style="opacity:0.2"></polygon><polygon points="290.69 57.81 310 45.65 311.43 46.47 290.69 57.81" style="opacity:0.2"></polygon><polygon points="304.87 42.67 271.74 62.41 305.93 43.28 304.87 42.67" style="opacity:0.2"></polygon><polygon points="87.18 273.55 87.18 280.23 179.65 226.84 179.65 220.16 87.18 273.55" style="fill:#BA68C8;opacity:0.30000000000000004"></polygon><polygon points="87.18 282.16 87.18 288.84 179.65 235.44 179.65 228.77 87.18 282.16" style="fill:#BA68C8;opacity:0.30000000000000004"></polygon><polygon points="87.18 291.22 87.18 297.89 179.65 244.5 179.65 237.83 87.18 291.22" style="fill:#BA68C8;opacity:0.30000000000000004"></polygon><polygon points="87.18 299.96 87.18 306.63 138.11 276.89 138.11 270.22 87.18 299.96" style="fill:#BA68C8;opacity:0.30000000000000004"></polygon><polygon points="233.59 189.02 306.8 146.75 306.8 153.43 233.59 196.26 233.59 189.02" style="fill:#BA68C8;opacity:0.30000000000000004"></polygon><path d="M218.18,206.82,306.8,155.7v6.68l-88.62,51.68c-4.48,2.75-9.88,4-15.65,4.76v-7.18A39.4,39.4,0,0,0,218.18,206.82Z" style="fill:#BA68C8;opacity:0.30000000000000004"></path><path d="M218.18,215.25l88.62-51.12v6.68l-88.62,51.68c-4.48,2.75-9.88,4-15.65,4.76v-7.18A39.24,39.24,0,0,0,218.18,215.25Z" style="fill:#BA68C8;opacity:0.30000000000000004"></path><path d="M218.18,223.68l88.62-51.11v6.67l-88.62,51.69c-4.48,2.74-9.88,4-15.65,4.76V228.5A39.24,39.24,0,0,0,218.18,223.68Z" style="fill:#BA68C8;opacity:0.30000000000000004"></path><polygon points="87.18 194.96 87.18 201.63 179.65 148.24 179.65 141.57 87.18 194.96" style="fill:#BA68C8;opacity:0.30000000000000004"></polygon><polygon points="87.18 203.57 87.18 210.24 179.65 156.85 179.65 150.18 87.18 203.57" style="fill:#BA68C8;opacity:0.30000000000000004"></polygon></g></g><g id="freepik--Note--inject-383"><g id="freepik--note--inject-383"><polygon points="261.58 104.04 261.58 169.07 315.45 137.97 315.45 72.94 261.58 104.04" style="opacity:0.1"></polygon><path d="M328.91,134.35s-2.62,4.45-12,9.88l-47.45,27.4-5.69-56.53L317.61,84l3.55,38.51C321.65,127.84,323.72,133.51,328.91,134.35Z" style="fill:#455a64"></path><polygon points="317.62 84 263.75 115.1 263.74 105.12 317.62 74.02 317.62 84" style="fill:#37474f"></polygon><path d="M312.09,103c-.77.8-2.2,1.83-3.15.7l-.05-.07a5.23,5.23,0,0,0,.61-3.73c-.08-.3-.61-.87-.95-.52a3.79,3.79,0,0,0-.92,3.85,11.71,11.71,0,0,1-2.07,2.45A4.14,4.14,0,0,1,303,107c-1.2,0-1-1.88-1-2.71,0-.37-.74-1.16-1-.6a21.7,21.7,0,0,1-2.53,3.9,12.4,12.4,0,0,1-1.8,2,2.58,2.58,0,0,1-.67.46h0a1.29,1.29,0,0,1-.05-.29c0-.48-.75-1.14-1.05-.48-.61,1.34-1.59,4.45-3.31,4.82-.53.11-1-.32-1.51-.32a1.55,1.55,0,0,0-1.11.48,15.3,15.3,0,0,0-1.68,2.44c-.22.3-.61,1-1,1.11-.55.17-.57-.86-.66-1.31s-.49-.81-.86-.56a4.82,4.82,0,0,0-1.59,2.17,3.79,3.79,0,0,1-.38-1.44c0-.33-.63-.92-.91-.49A20.86,20.86,0,0,1,278.6,120c-.81.75-3.15,3-4.29,1.71a2.63,2.63,0,0,1-.56-1.87,8.05,8.05,0,0,0,2.61-2.71,14.23,14.23,0,0,0,2.2-6.19c0-.25-.2-.61-.47-.6-1.55,0-2.64,2.14-3.25,3.31a15.1,15.1,0,0,0-1.94,5.74v.17a3.05,3.05,0,0,1-1.6.19c-.23,0-.22.49,0,.53a3.27,3.27,0,0,0,1.62-.08,3.22,3.22,0,0,0,1.73,2.81c1.46.55,3.07-.72,4.1-1.6a21.24,21.24,0,0,0,3.31-3.52,3.8,3.8,0,0,0,1,1.61c.23.21.62.31.76-.06a6.05,6.05,0,0,1,1-1.93c.28.89.81,1.78,1.79,1.49,1.13-.33,1.88-2,2.46-2.89.31-.46.65-1.2,1.3-1.18s1.08.55,1.91.2c1.58-.67,2.42-2.53,3.12-4.16a1,1,0,0,0,.59.27c.79.1,1.52-.71,2-1.22a22.85,22.85,0,0,0,3.07-4,2.68,2.68,0,0,0,1.21,1.8c1.05.62,2.28.09,3.2-.52a11,11,0,0,0,2.87-2.89c1.42,1.58,3.35.78,4.59-.65C313.34,103.38,312.54,102.48,312.09,103Zm-37.2,13a18.61,18.61,0,0,1,1.42-2.82,4.78,4.78,0,0,1,1.41-1.61,14.71,14.71,0,0,1-1.84,5,8.35,8.35,0,0,1-2,2.51A16.09,16.09,0,0,1,274.89,115.92Z" style="fill:#fafafa"></path><path d="M290.21,142.73c4.9-3,8.69-7.84,11.45-12.84s5.16-11.08,4-16.82c-.07-.34-.77-.76-.8-.19a36.68,36.68,0,0,1-4.77,16.23,35.79,35.79,0,0,1-9,10.85l.39-1.06a19.52,19.52,0,0,0,.76-2.79c.08-.43.16-.86.2-1.29a6.34,6.34,0,0,0-.13-1.5.54.54,0,0,0-.41-.46c-.29,0-.21.2-.32.35a3.66,3.66,0,0,0-.47,1.37c-.1.41-.22.82-.34,1.23-.27.85-.55,1.7-.87,2.54-.64,1.71-1.42,3.35-2.2,5-.26.58.34,1.2.91,1.2a14.35,14.35,0,0,0,5.52-1.14c.84-.33,1.66-.7,2.47-1.09A18.43,18.43,0,0,0,299,141.1c.76-.5-.36-1.5-1-1.29-1.58.51-3,1.44-4.56,2.08a15.2,15.2,0,0,1-3.48,1l0-.07A.72.72,0,0,0,290.21,142.73Z" style="fill:#fafafa"></path></g></g><g id="freepik--Notebook--inject-383"><g id="freepik--notebook--inject-383"><g id="freepik--notebook--inject-383"><path d="M222,307.66v-2.24l84.92-46.79a4.41,4.41,0,0,1,4,0l117.77,66.44v2.23a1.42,1.42,0,0,1-.83,1.16l-84.93,49Z" style="fill:#BA68C8"></path><path d="M428.72,327.3v-2.23l-1.44-.81-84.32,51v2.24l84.93-49A1.42,1.42,0,0,0,428.72,327.3Z" style="opacity:0.1"></path><path d="M222,305.42l84.92-49a4.47,4.47,0,0,1,4,0L427.89,323.9a1.22,1.22,0,0,1,0,2.32l-84.93,49Z" style="fill:#BA68C8"></path><polygon points="342.96 377.5 342.96 375.25 222 305.42 222 307.66 342.96 377.5" style="opacity:0.2"></polygon><path d="M223.94,308.73l-85.86,45.2-1.76,2.78V359a3.23,3.23,0,0,0,1.76,2.77l113.15,65.33a6.31,6.31,0,0,0,5.89,0l83.94-48.46v-2.24Z" style="fill:#BA68C8"></path><path d="M223.94,308.73l-85.86,45.2-1.76,2.78V359a3.23,3.23,0,0,0,1.76,2.77l113.15,65.33a6.31,6.31,0,0,0,5.89,0l83.94-48.46v-2.24Z" style="opacity:0.1"></path><path d="M254.18,425.54a6,6,0,0,1-3-.73L138.08,359.49a3.08,3.08,0,0,1,0-5.56l82.08-47.38,120.9,69.8-83.94,48.46A6,6,0,0,1,254.18,425.54Z" style="fill:#BA68C8"></path><path d="M224.64,296.24v9.86l117.24,67.6L424,326.28a2.28,2.28,0,0,0,1-1.78v-6.34a2.28,2.28,0,0,0-1-1.78L308.63,250.07a4,4,0,0,0-4,0Z" style="fill:#ebebeb"></path><polygon points="224.64 296.27 341.88 363.96 341.88 373.7 224.64 306.1 224.64 296.27" style="fill:#e0e0e0"></polygon><path d="M424.12,316.47a.87.87,0,0,1-.11-.09L308.63,250.07a4,4,0,0,0-4,0l-79.68,46-.28.2L341.88,364Z" style="fill:#fafafa"></path><path d="M220.93,299.53l-81.14,46.85-.84,1.16v8.71h0a1.41,1.41,0,0,0,.84,1.16l113.15,65.33a4.47,4.47,0,0,0,4,0l81.14-46.85v-8.71Z" style="fill:#ebebeb"></path><path d="M338.12,367.19l-1,.58-13.2,7.62-2.46,1.43L257,414a4.47,4.47,0,0,1-4,0L139.79,348.7a1.23,1.23,0,0,1,0-2.33l1.07-.62,80.07-46.22L337.11,366.6l.25.15Z" style="fill:#f0f0f0"></path><path d="M255,414.52v8.7a4,4,0,0,1-2-.48L139.79,357.41a1.42,1.42,0,0,1-.83-1.16v-8.71a1.43,1.43,0,0,0,.83,1.16L252.94,414A4,4,0,0,0,255,414.52Z" style="fill:#e0e0e0"></path><path d="M338.12,366l-14.61,8.43-2.29,1.33L257,412.87a4.47,4.47,0,0,1-4,0l-101.33-58.5q-1.37-.76-2.55-1.47c-4.12-2.52-6.6-4.76-8.2-7.15l-.19-.3a1.64,1.64,0,0,1-.25-.6,1.81,1.81,0,0,1,1.41-2.05,37.69,37.69,0,0,0,7.64-3.18l.11-.06,71.35-41.19Z" style="fill:#fafafa"></path><path d="M251.86,298.14a4.74,4.74,0,0,1-2.33-.58l-4.32-2.49a1.81,1.81,0,0,1-1.07-1.45,1.37,1.37,0,0,1,.78-1.16l60.58-35a4.6,4.6,0,0,1,4.14.17l4.33,2.49a1.82,1.82,0,0,1,1.06,1.45,1.36,1.36,0,0,1-.77,1.16h0l-60.58,35A3.67,3.67,0,0,1,251.86,298.14Zm55.45-40.72a3.34,3.34,0,0,0-1.62.37l-60.58,35a1,1,0,0,0-.58.83,1.44,1.44,0,0,0,.87,1.12l4.32,2.49a4.18,4.18,0,0,0,3.76.16l60.58-35h0a1,1,0,0,0,.59-.83,1.47,1.47,0,0,0-.87-1.12L309.45,258A4.44,4.44,0,0,0,307.31,257.42Z" style="fill:#e0e0e0"></path><rect x="242.49" y="277.4" width="74.2" height="0.38" transform="translate(-101.36 177.09) rotate(-30.02)" style="fill:#e0e0e0"></rect><path d="M346.66,352.82a4.22,4.22,0,0,1-2.06-.5l-86.48-49.81a1.39,1.39,0,0,1,0-2.61l60.3-34.84a4.58,4.58,0,0,1,4.14,0L409,314.87a1.39,1.39,0,0,1,0,2.61l-60.31,34.84A4.23,4.23,0,0,1,346.66,352.82Zm-26.17-87.88a3.78,3.78,0,0,0-1.87.45l-60.31,34.85a1,1,0,0,0,0,1.94L344.79,352a4.16,4.16,0,0,0,3.75,0l60.31-34.85a1,1,0,0,0,0-1.94l-86.47-49.81A3.84,3.84,0,0,0,320.49,264.94Z" style="fill:#e0e0e0"></path><rect x="255.58" y="284.94" width="74.2" height="0.39" transform="translate(-103.47 185.01) rotate(-30.07)" style="fill:#e0e0e0"></rect><rect x="259.89" y="287.42" width="74.2" height="0.39" transform="translate(-104.14 187.51) rotate(-30.07)" style="fill:#e0e0e0"></rect><rect x="264.19" y="289.9" width="74.2" height="0.39" transform="translate(-104.8 190) rotate(-30.07)" style="fill:#e0e0e0"></rect><rect x="268.5" y="292.38" width="74.2" height="0.39" transform="translate(-105.46 192.49) rotate(-30.07)" style="fill:#e0e0e0"></rect><rect x="272.81" y="294.86" width="74.2" height="0.39" transform="translate(-106.13 194.98) rotate(-30.07)" style="fill:#e0e0e0"></rect><rect x="277.12" y="297.35" width="74.2" height="0.39" transform="translate(-106.79 197.48) rotate(-30.07)" style="fill:#e0e0e0"></rect><rect x="281.43" y="299.83" width="74.2" height="0.39" transform="translate(-107.46 199.97) rotate(-30.07)" style="fill:#e0e0e0"></rect><rect x="285.74" y="302.31" width="74.2" height="0.39" transform="translate(-108.12 202.46) rotate(-30.07)" style="fill:#e0e0e0"></rect><rect x="290.05" y="304.79" width="74.2" height="0.39" transform="translate(-108.78 204.96) rotate(-30.07)" style="fill:#e0e0e0"></rect><rect x="294.36" y="307.27" width="74.2" height="0.39" transform="translate(-109.45 207.45) rotate(-30.07)" style="fill:#e0e0e0"></rect><rect x="298.67" y="309.76" width="74.2" height="0.39" transform="translate(-110.11 209.94) rotate(-30.07)" style="fill:#e0e0e0"></rect><rect x="302.97" y="312.24" width="74.2" height="0.39" transform="translate(-110.77 212.43) rotate(-30.07)" style="fill:#e0e0e0"></rect><rect x="307.28" y="314.72" width="74.2" height="0.39" transform="translate(-111.44 214.93) rotate(-30.07)" style="fill:#e0e0e0"></rect><rect x="311.59" y="317.2" width="74.2" height="0.39" transform="translate(-112.1 217.42) rotate(-30.07)" style="fill:#e0e0e0"></rect><rect x="315.9" y="319.68" width="74.2" height="0.39" transform="translate(-112.77 219.91) rotate(-30.07)" style="fill:#e0e0e0"></rect><rect x="320.21" y="322.17" width="74.2" height="0.39" transform="translate(-113.43 222.41) rotate(-30.07)" style="fill:#e0e0e0"></rect><rect x="324.52" y="324.65" width="74.2" height="0.39" transform="translate(-114.09 224.9) rotate(-30.07)" style="fill:#e0e0e0"></rect><rect x="328.83" y="327.13" width="74.2" height="0.39" transform="translate(-114.76 227.39) rotate(-30.07)" style="fill:#e0e0e0"></rect><rect x="333.14" y="329.61" width="74.2" height="0.39" transform="translate(-115.42 229.89) rotate(-30.07)" style="fill:#e0e0e0"></rect><rect x="337.45" y="332.09" width="74.2" height="0.39" transform="translate(-116.08 232.38) rotate(-30.07)" style="fill:#e0e0e0"></rect><path d="M159.89,351.4a4.85,4.85,0,0,1-2.33-.58l-4.32-2.49a1.81,1.81,0,0,1-1.07-1.46,1.37,1.37,0,0,1,.78-1.15l60.58-35a4.63,4.63,0,0,1,4.14.16l4.33,2.49a1.8,1.8,0,0,1,1.06,1.46,1.34,1.34,0,0,1-.77,1.16L161.7,351A3.67,3.67,0,0,1,159.89,351.4Zm55.46-40.73a3.29,3.29,0,0,0-1.62.37l-60.59,35a1,1,0,0,0-.58.82,1.46,1.46,0,0,0,.87,1.13l4.33,2.49a4.19,4.19,0,0,0,3.75.16l60.59-35a1,1,0,0,0,.58-.82,1.47,1.47,0,0,0-.87-1.12l-4.33-2.5A4.4,4.4,0,0,0,215.35,310.67Z" style="fill:#e0e0e0"></path><rect x="150.52" y="330.65" width="74.2" height="0.38" transform="translate(-140.34 138.22) rotate(-30.02)" style="fill:#e0e0e0"></rect><path d="M254.7,406.07a4.22,4.22,0,0,1-2.07-.49l-86.48-49.81a1.39,1.39,0,0,1,0-2.61l60.31-34.85a4.59,4.59,0,0,1,4.13,0l86.48,49.81a1.39,1.39,0,0,1,0,2.61l-60.31,34.85A4.21,4.21,0,0,1,254.7,406.07ZM228.53,318.2a3.84,3.84,0,0,0-1.88.45l-60.31,34.84a1,1,0,0,0,0,1.95l86.47,49.81a4.16,4.16,0,0,0,3.75,0l60.31-34.84a1.23,1.23,0,0,0,.72-1,1.19,1.19,0,0,0-.73-1L230.4,318.65A3.83,3.83,0,0,0,228.53,318.2Z" style="fill:#e0e0e0"></path><rect x="163.61" y="338.19" width="74.2" height="0.39" transform="translate(-142.53 146.1) rotate(-30.07)" style="fill:#e0e0e0"></rect><rect x="167.92" y="340.67" width="74.2" height="0.39" transform="translate(-143.2 148.59) rotate(-30.07)" style="fill:#e0e0e0"></rect><rect x="172.23" y="343.16" width="74.2" height="0.39" transform="translate(-143.86 151.09) rotate(-30.07)" style="fill:#e0e0e0"></rect><rect x="176.54" y="345.64" width="74.2" height="0.39" transform="translate(-144.52 153.58) rotate(-30.07)" style="fill:#e0e0e0"></rect><rect x="180.84" y="348.12" width="74.2" height="0.39" transform="translate(-145.19 156.07) rotate(-30.07)" style="fill:#e0e0e0"></rect><rect x="185.15" y="350.6" width="74.2" height="0.39" transform="translate(-145.85 158.56) rotate(-30.07)" style="fill:#e0e0e0"></rect><rect x="189.46" y="353.08" width="74.2" height="0.39" transform="translate(-146.52 161.06) rotate(-30.07)" style="fill:#e0e0e0"></rect><rect x="193.77" y="355.57" width="74.2" height="0.39" transform="translate(-147.18 163.55) rotate(-30.07)" style="fill:#e0e0e0"></rect><rect x="198.08" y="358.05" width="74.2" height="0.39" transform="translate(-147.84 166.04) rotate(-30.07)" style="fill:#e0e0e0"></rect><rect x="202.39" y="360.53" width="74.2" height="0.39" transform="translate(-148.51 168.54) rotate(-30.07)" style="fill:#e0e0e0"></rect><rect x="206.7" y="363.01" width="74.2" height="0.39" transform="translate(-149.17 171.03) rotate(-30.07)" style="fill:#e0e0e0"></rect><rect x="211.01" y="365.49" width="74.2" height="0.39" transform="translate(-149.83 173.52) rotate(-30.07)" style="fill:#e0e0e0"></rect><rect x="215.32" y="367.98" width="74.2" height="0.39" transform="translate(-150.5 176.01) rotate(-30.07)" style="fill:#e0e0e0"></rect><rect x="219.62" y="370.46" width="74.2" height="0.39" transform="translate(-151.16 178.51) rotate(-30.07)" style="fill:#e0e0e0"></rect><rect x="223.93" y="372.94" width="74.2" height="0.39" transform="translate(-151.82 181) rotate(-30.07)" style="fill:#e0e0e0"></rect><rect x="228.24" y="375.42" width="74.2" height="0.39" transform="translate(-152.49 183.49) rotate(-30.07)" style="fill:#e0e0e0"></rect><rect x="232.55" y="377.9" width="74.2" height="0.39" transform="translate(-153.15 185.99) rotate(-30.07)" style="fill:#e0e0e0"></rect><rect x="236.86" y="380.39" width="74.2" height="0.39" transform="translate(-153.82 188.48) rotate(-30.07)" style="fill:#e0e0e0"></rect><rect x="241.17" y="382.87" width="74.2" height="0.39" transform="translate(-154.48 190.97) rotate(-30.07)" style="fill:#e0e0e0"></rect><rect x="245.48" y="385.35" width="74.2" height="0.39" transform="translate(-155.14 193.47) rotate(-30.07)" style="fill:#e0e0e0"></rect><path d="M341.3,359.82a2.38,2.38,0,0,1-.45.33,3,3,0,0,1-.87.33,4.31,4.31,0,0,1-3.06-.33,1.21,1.21,0,0,1,0-2.28,2.55,2.55,0,0,1,.65-.28,4.64,4.64,0,0,1,2.56,0,3,3,0,0,1,.72.3C341.76,358.4,341.91,359.19,341.3,359.82Z" style="opacity:0.1"></path><path d="M329.45,353a1.77,1.77,0,0,1-.45.34,2.71,2.71,0,0,1-.86.34,4.4,4.4,0,0,1-3.07-.34,1.2,1.2,0,0,1,0-2.27,2.79,2.79,0,0,1,.66-.28h0a4.57,4.57,0,0,1,2.54,0,2.8,2.8,0,0,1,.73.3C329.91,351.56,330.06,352.36,329.45,353Z" style="opacity:0.1"></path><path d="M317.61,346.13a1.77,1.77,0,0,1-.45.34,3,3,0,0,1-.88.35,4.37,4.37,0,0,1-3-.35,1.2,1.2,0,0,1,0-2.27,2.79,2.79,0,0,1,.66-.28,4.48,4.48,0,0,1,2.54,0,2.6,2.6,0,0,1,.72.3C318.07,344.72,318.23,345.53,317.61,346.13Z" style="opacity:0.1"></path><path d="M305.76,339.3a2,2,0,0,1-.44.34,3.29,3.29,0,0,1-.88.34,4.35,4.35,0,0,1-3.05-.34,1.21,1.21,0,0,1,0-2.28,3,3,0,0,1,.66-.28,4.61,4.61,0,0,1,2.55,0h0a2.86,2.86,0,0,1,.72.29C306.23,337.88,306.38,338.69,305.76,339.3Z" style="opacity:0.1"></path><path d="M293.92,332.46a2,2,0,0,1-.44.34,3.58,3.58,0,0,1-.88.34,4.34,4.34,0,0,1-3.05-.34,1.21,1.21,0,0,1,0-2.28,3.37,3.37,0,0,1,.67-.28,4.57,4.57,0,0,1,2.54,0,3,3,0,0,1,.72.29C294.39,331.05,294.54,331.85,293.92,332.46Z" style="opacity:0.1"></path><path d="M282.08,325.63a2.78,2.78,0,0,1-.45.34,3.41,3.41,0,0,1-.86.33,4.45,4.45,0,0,1-3.07-.33,1.21,1.21,0,0,1,0-2.29,2.87,2.87,0,0,1,.65-.27h0a4.52,4.52,0,0,1,2.55,0,2.71,2.71,0,0,1,.72.29C282.54,324.21,282.69,325,282.08,325.63Z" style="opacity:0.1"></path><path d="M270.24,318.78a2.06,2.06,0,0,1-.45.35,3.36,3.36,0,0,1-.87.34,4.4,4.4,0,0,1-3.05-.34,1.2,1.2,0,0,1,0-2.28,2.54,2.54,0,0,1,.65-.27h0a4.39,4.39,0,0,1,2.54,0h0a2.65,2.65,0,0,1,.71.29C270.7,317.37,270.86,318.17,270.24,318.78Z" style="opacity:0.1"></path><path d="M258.39,312a2.39,2.39,0,0,1-.44.33,3.2,3.2,0,0,1-.88.33,4.34,4.34,0,0,1-3-.33,1.21,1.21,0,0,1,0-2.28,3,3,0,0,1,.66-.27,4.31,4.31,0,0,1,2.54,0,2.93,2.93,0,0,1,.73.29C258.86,310.53,259,311.34,258.39,312Z" style="opacity:0.1"></path><path d="M246.55,305.12a2.39,2.39,0,0,1-.44.33,3.58,3.58,0,0,1-.88.34,4.4,4.4,0,0,1-3-.34,1.21,1.21,0,0,1,0-2.28,2.87,2.87,0,0,1,.65-.27h0a4.43,4.43,0,0,1,2.55,0h0a2.94,2.94,0,0,1,.71.29C247,303.69,247.17,304.5,246.55,305.12Z" style="opacity:0.1"></path><path d="M234.71,298.27a2.31,2.31,0,0,1-.45.34,2.76,2.76,0,0,1-.87.33,4.27,4.27,0,0,1-3.06-.33,1.21,1.21,0,0,1,0-2.28,2.85,2.85,0,0,1,.67-.27,4.48,4.48,0,0,1,2.54,0,3.5,3.5,0,0,1,.72.29C235.17,296.86,235.32,297.66,234.71,298.27Z" style="opacity:0.1"></path><path d="M326.34,364a1.21,1.21,0,0,0,0,2.28,4.32,4.32,0,0,0,3.93,0,1.2,1.2,0,0,0,0-2.28A4.32,4.32,0,0,0,326.34,364Z" style="opacity:0.1"></path><path d="M340.13,357.57a4.11,4.11,0,0,0-1.16-1,5.16,5.16,0,0,0-5.28.37,14.93,14.93,0,0,0-5.52,6.54,18.31,18.31,0,0,0-1.13,3,1.55,1.55,0,0,0,.23.06,2.88,2.88,0,0,0,.51.1l.45,0h.25a15.75,15.75,0,0,1,1.19-3,13,13,0,0,1,4.74-5.47,4.87,4.87,0,0,1,2.41-.74,3.14,3.14,0,0,1,.75.09,2.58,2.58,0,0,1,.67.28,4.06,4.06,0,0,1,1.74,2.61,3,3,0,0,0,.87-.33,2.38,2.38,0,0,0,.45-.33A6.41,6.41,0,0,0,340.13,357.57Z" style="fill:#263238"></path><path d="M314.5,357.13a1.21,1.21,0,0,0,0,2.28,4.32,4.32,0,0,0,3.93,0,1.2,1.2,0,0,0,0-2.28A4.32,4.32,0,0,0,314.5,357.13Z" style="opacity:0.1"></path><path d="M328.28,350.73a4.27,4.27,0,0,0-1.15-1c-1.5-.87-3.37-.72-5.29.37a14.86,14.86,0,0,0-5.5,6.53,17.7,17.7,0,0,0-1.14,3l.07,0h0l.2,0h.05l.39.07a3.59,3.59,0,0,0,.47,0h.24a15.89,15.89,0,0,1,1.19-3,13,13,0,0,1,4.74-5.47,4.81,4.81,0,0,1,2.41-.74,2.61,2.61,0,0,1,.75.1h0a2.24,2.24,0,0,1,.66.27,4,4,0,0,1,1.74,2.62,2.71,2.71,0,0,0,.86-.34,1.77,1.77,0,0,0,.45-.34A6.27,6.27,0,0,0,328.28,350.73Z" style="fill:#263238"></path><path d="M302.66,350.29a1.21,1.21,0,0,0,0,2.28,4.32,4.32,0,0,0,3.93,0,1.2,1.2,0,0,0,0-2.28A4.32,4.32,0,0,0,302.66,350.29Z" style="opacity:0.1"></path><path d="M316.44,343.9a4.79,4.79,0,0,0-1.15-1c-1.5-.88-3.37-.73-5.29.37a15,15,0,0,0-5.52,6.53,20.43,20.43,0,0,0-1.13,3,3.63,3.63,0,0,0,.59.13.83.83,0,0,0,.22,0h.14a4.17,4.17,0,0,0,.5,0,18,18,0,0,1,1.18-3,13.21,13.21,0,0,1,4.75-5.47,4.94,4.94,0,0,1,2.41-.74,2.73,2.73,0,0,1,.76.1,2.7,2.7,0,0,1,.66.27,4,4,0,0,1,1.72,2.63,3,3,0,0,0,.88-.35,1.77,1.77,0,0,0,.45-.34A6.14,6.14,0,0,0,316.44,343.9Z" style="fill:#263238"></path><path d="M290.82,343.46a1.2,1.2,0,0,0,0,2.27,4.32,4.32,0,0,0,3.93,0,1.2,1.2,0,0,0,0-2.27A4.32,4.32,0,0,0,290.82,343.46Z" style="opacity:0.1"></path><path d="M304.6,337.07h0a4.57,4.57,0,0,0-1.15-1c-1.5-.87-3.38-.73-5.3.37a15,15,0,0,0-5.51,6.53,20.86,20.86,0,0,0-1.13,3,1.28,1.28,0,0,0,.28.07,3.14,3.14,0,0,0,.46.08,3.91,3.91,0,0,0,.49,0H293a17.87,17.87,0,0,1,1.18-3,13.18,13.18,0,0,1,4.75-5.48,5,5,0,0,1,2.4-.74,3,3,0,0,1,1.43.37,4,4,0,0,1,1.72,2.63,3.29,3.29,0,0,0,.88-.34,2,2,0,0,0,.44-.34A5.85,5.85,0,0,0,304.6,337.07Z" style="fill:#263238"></path><path d="M279,336.62a1.21,1.21,0,0,0,0,2.28,4.3,4.3,0,0,0,3.92,0,1.2,1.2,0,0,0,0-2.28A4.3,4.3,0,0,0,279,336.62Z" style="opacity:0.1"></path><path d="M292.76,330.23a4.18,4.18,0,0,0-1.16-1,5.18,5.18,0,0,0-5.28.37,14.89,14.89,0,0,0-5.52,6.53,18.76,18.76,0,0,0-1.13,3l.28.09.46.07a3.55,3.55,0,0,0,.46,0h.25a16.81,16.81,0,0,1,1.17-3,13.2,13.2,0,0,1,4.76-5.48,5,5,0,0,1,2.41-.74,3.23,3.23,0,0,1,.76.1,3.31,3.31,0,0,1,.65.27,4,4,0,0,1,1.73,2.63,3.58,3.58,0,0,0,.88-.34,2,2,0,0,0,.44-.34A6,6,0,0,0,292.76,330.23Z" style="fill:#263238"></path><path d="M267.13,329.78a1.21,1.21,0,0,0,0,2.28,4.32,4.32,0,0,0,3.93,0,1.2,1.2,0,0,0,0-2.28A4.32,4.32,0,0,0,267.13,329.78Z" style="opacity:0.1"></path><path d="M280.91,323.39a4.48,4.48,0,0,0-1.16-1,5.18,5.18,0,0,0-5.28.37,15.12,15.12,0,0,0-5.52,6.54,18.66,18.66,0,0,0-1.13,3l.23.07a4,4,0,0,0,.5.09h0l.45,0h.25a16.73,16.73,0,0,1,1.19-3A13.09,13.09,0,0,1,275.2,324a5,5,0,0,1,2.41-.73,2.59,2.59,0,0,1,.74.1h0a2.59,2.59,0,0,1,.67.26,4.12,4.12,0,0,1,1.74,2.63,3.41,3.41,0,0,0,.86-.33,2.78,2.78,0,0,0,.45-.34A6.11,6.11,0,0,0,280.91,323.39Z" style="fill:#263238"></path><path d="M255.29,322.94a1.21,1.21,0,0,0,0,2.28,4.32,4.32,0,0,0,3.93,0,1.2,1.2,0,0,0,0-2.28A4.32,4.32,0,0,0,255.29,322.94Z" style="opacity:0.1"></path><path d="M269.08,316.56h0a4.44,4.44,0,0,0-1.16-1c-1.49-.87-3.36-.73-5.28.36a15,15,0,0,0-5.51,6.54,19.42,19.42,0,0,0-1.14,3l.29.08a3.25,3.25,0,0,0,.45.07,3.59,3.59,0,0,0,.47,0h.24a18,18,0,0,1,1.18-3,13.21,13.21,0,0,1,4.75-5.47,4.94,4.94,0,0,1,2.41-.74,2.35,2.35,0,0,1,.75.11h0a2.16,2.16,0,0,1,.65.26,4.08,4.08,0,0,1,1.74,2.63,3.36,3.36,0,0,0,.87-.34,2.06,2.06,0,0,0,.45-.35A6.24,6.24,0,0,0,269.08,316.56Z" style="fill:#263238"></path><path d="M243.45,316.11a1.21,1.21,0,0,0,0,2.28,4.33,4.33,0,0,0,3.92,0,1.2,1.2,0,0,0,0-2.27A4.3,4.3,0,0,0,243.45,316.11Z" style="opacity:0.1"></path><path d="M257.22,309.72a4.47,4.47,0,0,0-1.15-1,5.2,5.2,0,0,0-5.29.37,15.06,15.06,0,0,0-5.52,6.54,20.31,20.31,0,0,0-1.13,3h0l.28.08.29.05a.83.83,0,0,0,.22,0h.14a4.34,4.34,0,0,0,.51,0,17.87,17.87,0,0,1,1.18-3,13.23,13.23,0,0,1,4.74-5.48,5.05,5.05,0,0,1,2.41-.74,2.33,2.33,0,0,1,.76.11,2.28,2.28,0,0,1,.67.26,4.08,4.08,0,0,1,1.72,2.62,3.2,3.2,0,0,0,.88-.33,2.39,2.39,0,0,0,.44-.33A5.76,5.76,0,0,0,257.22,309.72Z" style="fill:#263238"></path><path d="M231.6,309.27a1.21,1.21,0,0,0,0,2.28,4.32,4.32,0,0,0,3.93,0,1.2,1.2,0,0,0,0-2.28A4.32,4.32,0,0,0,231.6,309.27Z" style="opacity:0.1"></path><path d="M245.4,302.88h0a4.29,4.29,0,0,0-1.16-1,5.18,5.18,0,0,0-5.28.37,14.87,14.87,0,0,0-5.52,6.54,18.31,18.31,0,0,0-1.13,3l.28.08a2.21,2.21,0,0,0,.46.07,3.55,3.55,0,0,0,.46,0h.25a16.62,16.62,0,0,1,1.17-3,13.1,13.1,0,0,1,4.76-5.49,5,5,0,0,1,2.41-.74,2.29,2.29,0,0,1,.74.11h0a2.33,2.33,0,0,1,.66.26,4.07,4.07,0,0,1,1.73,2.63,3.58,3.58,0,0,0,.88-.34,2.39,2.39,0,0,0,.44-.33A6.09,6.09,0,0,0,245.4,302.88Z" style="fill:#263238"></path><path d="M219.76,302.43a1.21,1.21,0,0,0,0,2.28,4.32,4.32,0,0,0,3.93,0,1.2,1.2,0,0,0,0-2.28A4.32,4.32,0,0,0,219.76,302.43Z" style="opacity:0.1"></path><path d="M233.54,296a4.31,4.31,0,0,0-1.15-1,5.2,5.2,0,0,0-5.29.37,15,15,0,0,0-5.52,6.54,18.31,18.31,0,0,0-1.13,3l.23.07a3.7,3.7,0,0,0,.48.09h.06a3.4,3.4,0,0,0,.45,0h.23a16.44,16.44,0,0,1,1.19-3,13.16,13.16,0,0,1,4.74-5.48,5,5,0,0,1,2.41-.74,2.74,2.74,0,0,1,.76.11,3.12,3.12,0,0,1,.66.26,4.09,4.09,0,0,1,1.73,2.62,2.76,2.76,0,0,0,.87-.33,2.31,2.31,0,0,0,.45-.34A6.22,6.22,0,0,0,233.54,296Z" style="fill:#263238"></path></g><g id="freepik--note--inject-383"><polygon points="155.83 348.03 209.77 316.89 267.57 350.26 213.63 381.4 155.83 348.03" style="opacity:0.1"></polygon><polygon points="164.93 351.8 156.26 346.47 210.34 315.24 219.01 320.57 164.93 351.8" style="fill:#BA68C8"></polygon><polygon points="164.93 351.8 156.26 346.47 210.34 315.24 219.01 320.57 164.93 351.8" style="fill:#BA68C8;opacity:0.15"></polygon><path d="M256.84,339.07h0L219,320.57,164.93,351.8,212.84,375l46.81-27c2.86-1.66,5.63-4.45,5.46-8.11C263.48,340.64,260.86,340.93,256.84,339.07Z" style="fill:#BA68C8"></path><path d="M256.84,339.07h0L219,320.57,164.93,351.8,212.84,375l46.81-27c2.86-1.66,5.63-4.45,5.46-8.11C263.48,340.64,260.86,340.93,256.84,339.07Z" style="fill:#fff;opacity:0.30000000000000004"></path><path d="M201.2,348c.23,0,.21-.43.1-.55a1.56,1.56,0,0,0-1-.6,19.72,19.72,0,0,0-1.83-2,24,24,0,0,1-2-2,3.06,3.06,0,0,0-.74-1.08c-.44-.39-.79,0-.55.51a6.31,6.31,0,0,0,.52.82c.63,1.75-.16,5.17-1.91,4-.57-.38-1-1-1.75-.54a2,2,0,0,0-.76,1.75,1.37,1.37,0,0,0-1.53-.31,2.12,2.12,0,0,0-1.14,1.93c-.53-.45-1.23-.92-1.78-.4a2.74,2.74,0,0,0-.52,2,5.74,5.74,0,0,0-2.69-2.41c-1.54-.5-2.34,1-2.74,2.22-.06.2.15.51.26.23.46-1.17,1.26-2.44,2.68-1.79a7,7,0,0,1,2.57,2.7c.13.22.36.1.36-.14a4.21,4.21,0,0,1,.21-2c.49-.83,1.33,0,1.79.48.18.18.36,0,.35-.23-.1-1.27,1.25-2.76,2.27-1.27.14.21.52.28.51-.09,0-.55-.08-1.47.43-1.85.67-.49,1,.32,1.52.6a1.8,1.8,0,0,0,2.3-.73,4.59,4.59,0,0,0,.7-2.88c.4.39.81.76,1.21,1.14a18.78,18.78,0,0,1,1.4,1.56,2.22,2.22,0,0,0-1,2.47c.34,1.21,2.31,3.11,3.47,1.69C202.59,350.25,201.92,349,201.2,348Zm-.77,2.61a1.73,1.73,0,0,1-1.18-1.37,1.07,1.07,0,0,1,.9-1.27C200.53,348.48,202.1,350.83,200.43,350.59Z" style="fill:#455a64"></path><path d="M216.1,333c-.23-.41-.74-.35-.64.17.24,1.16-.8,1.33-1.7,1.14a4.53,4.53,0,0,1-2.39-1.54,5.83,5.83,0,0,0-.45-.51c-.43-.43-.9.13-.55.58.14.18.3.36.45.53.64.88,1.13,2.3.44,3.14-1,1.27-2.18-.62-2.68-1.43-.34-.55-.91-.16-.63.39a6.22,6.22,0,0,1,.49,1.81c.08.48.36,1.65,0,2.08-.69.83-2.21-1.4-2.44-2.22v0a.83.83,0,0,1,0-.13h0l0-.13c-.15-.47-.9-.55-.82.06a4.5,4.5,0,0,1-.38,3.18c-.67,1.09-2,.31-2.65-.54a2.16,2.16,0,0,0-.44-.67c-.4-.42-1-.2-.75.42a4.14,4.14,0,0,0,.37.61,4.75,4.75,0,0,1-.14,3.09c-.25.54-.63.65-.75,0a5,5,0,0,1,0-1.22c0-.46,0-1.35.73-1,.18.08.21-.28.14-.37-.4-.56-1.07-.82-1.42-.11a4.82,4.82,0,0,0-.39,1.87c0,1,.36,2.6,1.68,2.35,1-.2,1.2-1.65,1.25-2.48a7.84,7.84,0,0,0,0-1c.88.64,1.95,1,2.77.3a3.38,3.38,0,0,0,1-2.37c.79,1.06,1.89,1.92,2.76,1.34.65-.44.52-1.58.46-2.24,0-.32-.08-.64-.14-1,.81.78,1.8,1.23,2.73.19a2.77,2.77,0,0,0,.39-2.63,4.46,4.46,0,0,0,2.27.76,2,2,0,0,0,1.62-.54A1.68,1.68,0,0,0,216.1,333Z" style="fill:#455a64"></path><path d="M242.27,343.86c.08-.27-.14-.78-.43-.82h-.1l-.24-.34a27.93,27.93,0,0,0-5.22-5.14c-.39-.31-.7.12-.5.51a3.84,3.84,0,0,1,.62,1.27c0,.81-.73.75-1.21.54a4.52,4.52,0,0,1-.92-.6,6,6,0,0,0-1.36-1.54c-.39-.35-.73.18-.5.55a8.86,8.86,0,0,0,1.17,1.47,1.29,1.29,0,0,1,.1.35,5.68,5.68,0,0,1-.22,2.17c-.5,1.64-1.9-.47-2.56-1a1.17,1.17,0,0,0-1.89.51,3.69,3.69,0,0,0-.08,2c-.53-.48-1.14-.86-1.69-.39s-.52,1.52-.47,2.38a2.57,2.57,0,0,0-1.82-.8c-.71.07-1,.67-1,1.31-.94-1-2.36-2.24-3.07-.71-.35.76.13,2.32-.59,2.88-.43.32-1-.16-1.52-.72a2.81,2.81,0,0,0-1-1.2c-.58-.39-.72.4-.41.77l.56.68a4.84,4.84,0,0,1,.18,2.31c-1.37-.25-2.35-1.53-3.19-2.59a12,12,0,0,0-1-1.24,8.54,8.54,0,0,0-2.11-2c-.6-.37-.83.5-.39.85a15.33,15.33,0,0,1,2.13,2c.23.29.46.59.68.89a5.44,5.44,0,0,1,1.08,3c0,2.44-2.81.62-3.79-.13-.55-.42-.72.41-.41.77.72.84,2.33,3.41-.08,3.28-1.21-.07-2.42-1.06-3.37-1.73-.44-.31-.49.41-.34.66.53.88.84,3.28-.32,3.82-.16.07-.17.48.05.44,1.37-.25,1.48-2.13,1.19-3.54,1.32,1,3.18,2.05,4.46.86a2.09,2.09,0,0,0,.19-2.64c1.34.67,2.9,1,3.32-.68a4.16,4.16,0,0,0,0-1.89,4.19,4.19,0,0,0,2.5,1,.38.38,0,0,0,.38-.41,11,11,0,0,0,0-1.91c.66.49,1.36.7,1.9,0s.4-1.73.55-2.6c.3-1.66,2,.5,2.5,1,.3.3.7.23.69-.24s0-1.47.75-1.34a3.3,3.3,0,0,1,1.47,1.06c.21.21.66.31.69-.11a12.35,12.35,0,0,1,0-2.11c.31-1.23,1.25.14,1.81.56.39.29.67-.09.57-.47a4.93,4.93,0,0,1-.29-2.24c.33-1.46,1.21-.11,1.74.38s1.77,1.23,2.46.48a4.77,4.77,0,0,0,.65-3,3.36,3.36,0,0,0,1.15.48,1.38,1.38,0,0,0,1.61-.85,1.45,1.45,0,0,0,0-.85,22.52,22.52,0,0,1,2.84,2.77c.25.28.48.58.71.88a1.74,1.74,0,0,0-1.82,1.73,4.51,4.51,0,0,0,1.64,3.32c.74.62,1.74.83,2.2-.2A4.59,4.59,0,0,0,242.27,343.86Zm-.15,3.58c-.69.78-1.66-.81-1.89-1.35-.59-1.36.14-2,1.36-2.06a7.89,7.89,0,0,1,.46.92C242.32,345.6,242.68,346.83,242.12,347.44Z" style="fill:#455a64"></path></g><g style="opacity:0.5"><path d="M278.27,350.18c0-.24-.3-.24-.34,0a1.6,1.6,0,0,1-1.67,1.53,6.49,6.49,0,0,1-1.92,0,.18.18,0,0,0-.22.15,9,9,0,0,1-.53,1.74c-.44-.33-1-.7-1.38-.17s-.09,2.5-1.18,1.41a.18.18,0,0,0-.31,0c-.62,1-1.32,1-1.82.42a4.15,4.15,0,0,0-.49-1c-.18-.25-.35.12-.31.29a5.52,5.52,0,0,0,.28.84,2.85,2.85,0,0,1-.57,2.26c-1.06.76-2.3-1-2.46-1.91h0s0-.06,0-.09c-.1-.39-.51-.19-.45.16l0,.11a3.9,3.9,0,0,1-.37,2.51c-.59,1-1.32.5-2-.25-.18-.22-.33.07-.33.25,0,1.2-.95,2.88-2.08,1.43-.14-.19-.32,0-.37.14-.13.47-.24.94-.36,1.41a6.83,6.83,0,0,1-.31,1c-.06.5-.22.55-.5.16s-.7-.91-1.27-.85c-.77.07-.87,1.13-.84,1.88-.45-.23-1-.47-1.44-.2a2.22,2.22,0,0,0-.65,1.51c-.37-.34-.8-.68-1.28-.38s-.64,1.15-.76,1.75a2.21,2.21,0,0,1-1.27-1.08c-.11-.21-.27,0-.28.17,0,.57.16,1.56-.14,2.07-.59,1-1.86-.8-2.11-1.45-.13-.34-.51-.26-.5.1,0,1.06.31,4.31-1.37,4.16a1.86,1.86,0,0,1-.81-.31,3.73,3.73,0,0,0-2.08-4.52.21.21,0,0,0-.3.12c-.57,1.44.44,3.55,1.71,4.71a3,3,0,0,1-.49.65c-.59.56-1.43.2-1.92.79-.34.41-.14.45-.66.81s-.66.22-1.11-.17a3.33,3.33,0,0,1-.54-.65c-.14-.21-.33,0-.35.18,0,.46-.08,1.42-.66,1.58s-1.06-.42-1.37-.7-.33,0-.38.14-.08.58-.12.86a2.88,2.88,0,0,1-.07.59c-.16.46-.87,1.28-1.23.05-.1-.34-.5-.24-.49.09a3.38,3.38,0,0,1-.9,2.48,1.85,1.85,0,0,1-1.21.62h0a1.79,1.79,0,0,0,.13-.53c0-.62-.25-1.64-.94-1.82s-1.09.38-1.22.91a1.67,1.67,0,0,0,.91,1.82l.1,0a6.57,6.57,0,0,1-1.42.67,4.46,4.46,0,0,0-1.22.49c-.14.11-.26.48-.37.54-1.1.59-.56-.14-1.09-.12a1.7,1.7,0,0,0-1.75,1.38c-.89-.9-1.66.46-2,1.46-.38-.55-.85-1.43-1.48-1.58s-1.27.45-1.71.83c0,0,0,.07,0,.05.59-.44,1.24-.95,1.93-.42a8.31,8.31,0,0,1,1.21,1.6c.07.09.18,0,.19-.09.16-.67.89-2.54,1.77-1.28.1.15.24,0,.27-.1.26-1.08.79-1.38,1.84-1.12.42.11.52.2.91,0s.34-.53.66-.71a4.6,4.6,0,0,1,.52-.19,12.07,12.07,0,0,0,1.45-.56,3.41,3.41,0,0,0,.81-.58c1.57.36,2.73-1.28,3-2.83a.94.94,0,0,0,1.35.12c.53-.41.48-1.23.54-1.91.48.39,1.09.79,1.67.49a1.8,1.8,0,0,0,.71-1.5c.58.67,1.44,1.25,2.15.49.53-.56-.54-.51,1.09-1.08.21-.08.44,0,.67-.09a2.75,2.75,0,0,0,1.08-1.11c0-.06.05-.13.08-.2a3.59,3.59,0,0,0,.61.36c2.26,1,2.45-1.81,2.42-3.67.47.72,1.15,1.41,1.84,1.36,1.07-.08.88-1.59.74-2.6a2.69,2.69,0,0,0,1.23.86c.1,0,.19-.05.21-.14a9.94,9.94,0,0,1,.26-1.23c.37-.9,1-.58,1.48-.09.1.09.2,0,.22-.12.09-.44.16-1.34.66-1.55s1.05.33,1.38.57c.16.11.29-.07.3-.22,0-.64-.2-2,1-1.39.38.21.61.68,1,.89a.19.19,0,0,0,.26,0,8.36,8.36,0,0,0,.89-2.79c1.2,1.35,2.4-.15,2.53-1.67.6.66,1.44,1.17,2.17.33a3,3,0,0,0,.68-2c.62,1,1.58,1.78,2.6,1.34a2.11,2.11,0,0,0,1-2.4l.25.11c.81.27,1.3-.32,1.59-1,.2.15.41.29.6.46s.13.05.17,0a1.84,1.84,0,0,0,.65-1.16,2.7,2.7,0,0,1,.11-.71c.31-.54.71,0,1.05.31.07.07.21.12.29,0,.59-.55.37-1.06.57-1.76.16-.54.17-.37.78-.19a3.77,3.77,0,0,0,1.1.17C277.87,352.6,278.47,351.68,278.27,350.18Zm-46.15,26.39c0-.38.35-.87.76-.75.69.2.64,1.1.32,1.65C232.71,377.34,232.17,377,232.12,376.57ZM244,366.22a3,3,0,0,1,1.56,3.36A4.47,4.47,0,0,1,244,366.22Z"></path><path d="M304.38,365.25a.17.17,0,1,0-.34,0,1.6,1.6,0,0,1-1.68,1.53,6.19,6.19,0,0,1-1.92,0c-.11,0-.18.06-.21.15a9.35,9.35,0,0,1-.54,1.75c-.43-.34-1-.71-1.37-.18s-.09,2.51-1.19,1.41a.18.18,0,0,0-.31,0c-.62,1-1.31,1-1.81.41a4.16,4.16,0,0,0-.5-1c-.18-.25-.35.12-.3.3a6.26,6.26,0,0,0,.27.84,2.85,2.85,0,0,1-.56,2.26c-1.06.75-2.3-1.05-2.46-1.92h0a.29.29,0,0,1,0-.09c-.1-.38-.51-.18-.45.16a.5.5,0,0,1,0,.12,3.74,3.74,0,0,1-.37,2.5c-.58,1-1.31.5-1.94-.24-.19-.22-.34.07-.33.25,0,1.19-.95,2.87-2.08,1.42-.14-.19-.33,0-.37.14-.13.47-.24.94-.37,1.41a4.76,4.76,0,0,1-.31,1c-.05.5-.21.55-.49.17s-.7-.91-1.27-.86c-.77.07-.88,1.14-.84,1.88-.45-.23-1-.47-1.44-.19a2.15,2.15,0,0,0-.65,1.5c-.37-.34-.8-.68-1.28-.37s-.64,1.15-.76,1.74a2.18,2.18,0,0,1-1.27-1.08c-.11-.2-.27,0-.28.17,0,.57.15,1.57-.14,2.07-.6,1-1.86-.79-2.11-1.45-.13-.33-.51-.26-.5.1,0,1.06.3,4.31-1.38,4.16a1.71,1.71,0,0,1-.8-.31,3.73,3.73,0,0,0-2.08-4.52.23.23,0,0,0-.31.12c-.57,1.44.45,3.55,1.72,4.72a2.52,2.52,0,0,1-.5.64c-.58.56-1.42.2-1.91.8-.34.4-.14.45-.66.8s-.67.23-1.12-.17a3,3,0,0,1-.53-.65c-.14-.21-.33,0-.35.18,0,.46-.08,1.42-.66,1.58s-1.06-.41-1.38-.69c-.16-.15-.32-.06-.37.14a6.14,6.14,0,0,0-.12.86,3,3,0,0,1-.07.59c-.17.46-.88,1.27-1.24,0-.1-.34-.49-.24-.48.1a3.49,3.49,0,0,1-.9,2.48,1.89,1.89,0,0,1-1.21.61h0a1.79,1.79,0,0,0,.12-.53c0-.62-.24-1.64-.93-1.82a1.1,1.1,0,0,0-1.23.92,1.67,1.67,0,0,0,.92,1.81l.09.05a6.71,6.71,0,0,1-1.41.66,4.33,4.33,0,0,0-1.22.49c-.14.11-.26.48-.38.55-1.09.58-.55-.15-1.08-.13A1.7,1.7,0,0,0,253,396c-.89-.91-1.67.45-2,1.45-.38-.55-.85-1.42-1.48-1.58s-1.27.45-1.71.84c0,0,0,.07,0,0,.59-.44,1.23-.95,1.92-.41a7.9,7.9,0,0,1,1.22,1.59c.07.09.17,0,.19-.09.16-.67.89-2.53,1.76-1.27.11.15.24,0,.28-.11.26-1.08.79-1.38,1.84-1.11.42.1.52.19.91-.06s.34-.53.66-.71a4.6,4.6,0,0,1,.52-.19,11,11,0,0,0,1.44-.56,3.46,3.46,0,0,0,.82-.58c1.57.36,2.73-1.28,3-2.83a.94.94,0,0,0,1.34.13c.54-.42.49-1.24.55-1.92.47.4,1.09.79,1.66.49a1.77,1.77,0,0,0,.72-1.5c.58.68,1.44,1.25,2.15.5.53-.57-.55-.51,1.09-1.09.2-.07.43,0,.66-.09a2.63,2.63,0,0,0,1.08-1.11,1.21,1.21,0,0,0,.09-.2,3.24,3.24,0,0,0,.61.36c2.26,1,2.45-1.81,2.41-3.66.48.71,1.15,1.41,1.85,1.36,1.07-.08.88-1.59.73-2.61a2.88,2.88,0,0,0,1.24.87c.09,0,.18-.06.21-.14a12.36,12.36,0,0,1,.25-1.24c.37-.9,1-.57,1.49-.09.1.09.2,0,.22-.12.09-.44.16-1.34.65-1.54s1.06.32,1.39.56c.15.11.29-.07.29-.21,0-.65-.2-2.05,1-1.4.38.21.61.68,1,.9a.2.2,0,0,0,.26-.06,8.59,8.59,0,0,0,.89-2.79c1.2,1.35,2.4-.14,2.53-1.67.6.67,1.43,1.17,2.17.33a3.06,3.06,0,0,0,.68-2c.62,1,1.58,1.78,2.6,1.34a2.14,2.14,0,0,0,1-2.4,1,1,0,0,0,.25.12c.81.26,1.29-.33,1.59-1,.2.15.4.29.59.46a.15.15,0,0,0,.18,0,1.84,1.84,0,0,0,.65-1.16,2.77,2.77,0,0,1,.11-.71c.31-.53.71,0,1.05.32a.23.23,0,0,0,.29,0c.58-.55.37-1.05.57-1.76.15-.54.17-.36.78-.19a3.16,3.16,0,0,0,1.1.17C304,367.68,304.58,366.75,304.38,365.25Zm-46.15,26.39c0-.38.34-.87.76-.75.68.2.64,1.1.32,1.66C258.82,392.42,258.28,392.11,258.23,391.64Zm11.83-10.34a3,3,0,0,1,1.56,3.36A4.45,4.45,0,0,1,270.06,381.3Z"></path><path d="M243.71,384a2.42,2.42,0,0,0-1.42.56,19.46,19.46,0,0,1-1.76-1.71c-.18-.25-.36.1-.35.27a2.22,2.22,0,0,1-.69,1.6c-.4.38-.69.28-1.16.18s-.74.18-.76.59c-.71-.28-1.09.47-1.31,1.16a.86.86,0,0,0-1.09-.2,2.6,2.6,0,0,0-.81,1.29c-.59-.41-.87-1.55-1.75-1.37-.71.16-1.27,1.17-1.41,1.82,0,.18.14.21.18,0,.15-.63.9-1.8,1.66-1.43.59.28.72,1.09,1.31,1.39.06,0,.13,0,.15-.08.35-.82.8-1.85,1.74-.93.1.1.2,0,.23-.13.16-.58.46-1.53,1.21-1,.17.13.27-.14.25-.28-.11-.64.44-.31.81-.25a1.06,1.06,0,0,0,.85-.24,2.73,2.73,0,0,0,1-1.61c.31.32.67.6,1,.9l.41.39a1.43,1.43,0,0,0-.08.22,1.46,1.46,0,0,0,1.06,1.84c.11,0,.18-.06.22-.16a1.87,1.87,0,0,0-.49-1.9c.34-.2.75-.23,1.1-.43C243.94,384.49,244,384,243.71,384Zm-.89,2.39a.78.78,0,0,1-.5-1A1.69,1.69,0,0,1,242.82,386.43Z"></path><path d="M256.11,373.85c0-.08-.1,0-.1.06,0,.34,0,.8-.42.9s-.75-.21-1-.37c-.11-.07-.18.11-.19.19s-.11.93-.33,1.08-.8-.46-1-.67-.29,0-.28.18c0,.56-.3,1.9-1.07,1.78a1,1,0,0,1-.48-.24,2.36,2.36,0,0,0-.87-2.14c-.18-.12-.29.1-.31.25a3.48,3.48,0,0,0,.74,2.31,1.79,1.79,0,0,1-.59,1.21c-.47.33-.83,0-1.31,0-.3,0-.44.3-.52.57-.61-.4-1,.23-1.29.81-.76-.59-1.38.07-1.56.87a1.87,1.87,0,0,0-1.17-.47c-.67.05-.57.81-.49,1.28,0,.22.25,0,.23-.11-.1-1.06,1.11-.27,1.48.1.17.17.38,0,.37-.21,0-.74.46-1.42,1.14-.79a.16.16,0,0,0,.24-.07c.2-.45.45-1.36,1-.8.13.11.24,0,.26-.16.15-.91.73-.32,1.33-.41a1.53,1.53,0,0,0,1.06-1.11l.12-.41a1.26,1.26,0,0,0,.71.28c1,.05,1.22-1.13,1.25-2,.28.34.66.7,1,.52s.45-.85.47-1.33c.37.24.89.51,1.28.22S256.24,374.24,256.11,373.85Z"></path><path d="M257.57,373.8s-.08,0-.11,0l0,.06,0,0h0l-.07.08-.05,0,0,0h0l-.11,0s0,0,0,0h-.18a.92.92,0,0,1-.27-.16.08.08,0,0,0-.09,0,.16.16,0,0,0-.07.11.21.21,0,0,0,.05.24.77.77,0,0,0,.6.16.64.64,0,0,0,.43-.46A.15.15,0,0,0,257.57,373.8Z"></path><path d="M259.29,372c0-.06-.06,0-.06,0a1.33,1.33,0,0,1-.39,1,2.45,2.45,0,0,1-1,.3c-.28.06-.55.13-.82.21s-.15.4,0,.35c.46-.15.94-.21,1.4-.34a1.43,1.43,0,0,0,.45-.21.93.93,0,0,0,.31-.53A2.37,2.37,0,0,0,259.29,372Z"></path><path d="M283.43,357.76a.13.13,0,0,0-.25,0c-.35,1.05-1.19.95-1.7,0-.1-.18-.23.05-.23.16a4.59,4.59,0,0,1-.49,2.4c-.54.82-.89-.16-1.49-.14s-.74.69-.78,1.26c-.52-.32-1,0-1.25.67-.62-.54-1.09-.16-1.37.59-.32-.28-.76-.79-1.07-.71-.59.16-.68,3.21-1.57,1.39,0-.1-.09-.14-.14-.15a.44.44,0,0,0-.15-.32,1.22,1.22,0,0,0-2,.57c-.45,1-.81,4.61-2.38,2.32-.12-.18-.32,0-.32.15,0,.77-.08,1.83-1,.91-.13-.13-.28.08-.28.19,0,.52,0,1.83-.87,1.22a2.26,2.26,0,0,1-.81-1.35c-.06-.24-.31,0-.27.15a4,4,0,0,1-.61,2.75c-.08.15.05.42.18.21a4.61,4.61,0,0,0,.76-2.08c.29.56.73,1.11,1.25,1s.69-.8.73-1.37c.94.78,1.19,0,1.27-1,.6.66,1.34.84,1.95-.12A6.16,6.16,0,0,0,271,365a1.54,1.54,0,0,0,.47,1c.95.9,1.55-.55,1.75-1.62.34.44.79.66,1.22,0,.17-.28.41-1.55.54-1.56s.81.67.94.74.26,0,.31-.17c0-.6.36-.73,1-.4.13.16.32.05.36-.12,0-.53.31-.71.94-.56.16.23.42.14.42-.15s-.06-.7.07-.87c.34-.46.63,0,.92.12a.83.83,0,0,0,1-.35,3.86,3.86,0,0,0,.56-2.54c.61.85,1.6.93,1.88-.17a11.21,11.21,0,0,1,2.48,4.13c.11.29.36.05.35-.16C286.15,360.39,284.43,359.17,283.43,357.76Zm-11.19,7.67c-.76.58-.8-.85-.57-1.27a1,1,0,0,1,1.16-.56.11.11,0,0,0,0,0A2.46,2.46,0,0,1,272.24,365.43Z"></path><path d="M263.25,385.51a12.48,12.48,0,0,0-2.92-5.54c-.14-.15-.4-.22-.47,0-.19.67.09,2.36-.71,2.61-.6.19-.95-.91-1.47-1.22-.12-.07-.22,0-.28.11-.43.81-.31,2-.82,2.73-.21-.29-.48-.58-.82-.39s-.38.68-.45,1.09c-.68-.48-1.14.06-1.39.84-.77-.73-1.29-.2-1.73.7a1.59,1.59,0,0,0-1-.7.21.21,0,0,0-.22.12,10.38,10.38,0,0,0-.34,1.33c-.32,1.17-1,0-1.27-.51-.08-.15-.29-.21-.37,0a10.14,10.14,0,0,0-.37,1.72,2,2,0,0,1-.15.56.8.8,0,0,1-1,.2c-.32-.17-.49-.82-.58-1.15a.22.22,0,1,0-.43.05c0,1,.21,3-.92,3.53a1,1,0,0,1-.76,0A2.12,2.12,0,0,0,245,390c-.29-1-1.26-.81-1.38.18a2.4,2.4,0,0,0,.41,1.53,3.89,3.89,0,0,1-1.49,1.23c-.21.11-.13.66.11.54a5,5,0,0,0,1.74-1.35,1.11,1.11,0,0,0,1.28.18c1-.48,1.18-1.82,1.2-3,.32.54.79,1,1.39.74.86-.32.82-1.58,1-2.45.3.57.78,1.26,1.36.87.31-.2.4-.72.48-1,0-.14.08-.77.2-.85s.73.55.86.68a.19.19,0,0,0,.33-.05c.3-.67.68-1.57,1.46-.6.13.16.32,0,.36-.13.07-.36.28-1.55,1.08-.72.14.15.32.06.36-.13s.16-1.48.68-.66c.09.12.23.2.35.07.73-.74.6-1.9,1-2.82.52.5.72,1.53,1.64,1.19s.89-1.49,1-2.4a15.43,15.43,0,0,1,2.35,4.67C262.86,386.15,263.36,386,263.25,385.51Z"></path><path d="M273.48,374a1,1,0,0,0-.55.91c-.32-.31-.66-.79-1.1-.52a1,1,0,0,0-.39.82c-.35-.36-.79-.59-1.28-.2s-.37.78-.4,1.23a.64.64,0,0,0-.41-.33c-.28-.05-.46.22-.57.43a6.76,6.76,0,0,0-.45,1.47,3.76,3.76,0,0,0-1.49-1.21c-.88-.28-1.1.88-1.17,1.49-.05.35.38.56.43.13s.2-1.28.87-.92a6.12,6.12,0,0,1,1.33,1.21c.12.12.26.08.32-.09.14-.43.19-.89.33-1.32.05-.16.13-.5.29-.58s.38.3.45.43.26.13.31-.06c.11-.38,0-.85.16-1.21a.63.63,0,0,1,.77-.3,1.64,1.64,0,0,1,.57.6c.18.25.32-.12.3-.27s-.09-1.14.42-.94c.34.14.52.59.84.78.15.09.21-.2.2-.29a1.64,1.64,0,0,1,.29-1.07C273.59,374.13,273.6,374,273.48,374Z"></path><path d="M295.5,359.24c-.11-.16-.25,0-.26.14a8.57,8.57,0,0,1-.24,2.37c-.14.44-.36.87-.87.92s-.76-.35-1.16-.53c-1.17-.54-1.55,1-1.62,1.93-.43-.18-.8-.1-1,.29-.69-.64-1.2.11-1.36.92-.36-.38-.7-.72-1.22-.22s-.39,1.08-.44,1.67c-.5-.49-1-1.08-1.75-.58s-.63,1.37-.74,2.11a6.76,6.76,0,0,1-1.08-.68c-.06,0-.12,0-.15.05-.15.21-.19.38-.32.59a.87.87,0,0,1-.47.69,2.91,2.91,0,0,1-1-.75.18.18,0,0,0-.31,0c-.2.34-.24.73-.41,1.08-.34.71-.72.5-1.26,0-.2-.17-.37,0-.41.19a12.72,12.72,0,0,1-.19,1.38c-.46,1.32-1.66-.15-2-.75-.12-.25-.39-.12-.4.12,0,.74.46,2.58-.39,2.89-.19.07-.16.54.07.47.88-.26.86-1.44.8-2.39.45.62,1.12,1.19,1.82.87s.69-1.14.76-1.83c.38.29.84.54,1.25.2a2.78,2.78,0,0,0,.65-1.58,6.78,6.78,0,0,0,1.13.68.14.14,0,0,0,.17-.07,5.44,5.44,0,0,0,.37-.86c.38-.72.77-.07,1.34.14.1,0,.17-.06.19-.15.14-.57.06-1.79.75-2s1.14.52,1.52.9c.12.12.27.08.32-.1s0-.65.13-.91.67-.79.92-.71l.35.33c.19.17.29-.17.29-.3-.11-.63.21-.89,1-.79.16.19.32,0,.31-.21.16-.46.41-.51.75-.16.12.1.23,0,.25-.14a8.45,8.45,0,0,1,.26-1.33.85.85,0,0,1,.95-.64c.15,0,.38.35.51.43a1.2,1.2,0,0,0,1.51,0c.78-.64.74-2,.67-3.06.93,1.18,2.13,2.44,2.31,3.93,0,.28.3.18.32-.06C298.3,362,296.41,360.56,295.5,359.24Z"></path></g><g style="opacity:0.5"><path d="M325.12,268.89c0-.25-.3-.24-.34,0a1.6,1.6,0,0,1-1.67,1.53,6.49,6.49,0,0,1-1.92-.05.2.2,0,0,0-.22.16,9.23,9.23,0,0,1-.53,1.74c-.44-.33-1-.71-1.38-.17s-.09,2.5-1.18,1.41a.18.18,0,0,0-.31,0c-.62,1-1.32,1-1.82.42a4.15,4.15,0,0,0-.49-1c-.18-.25-.35.12-.31.29a5.91,5.91,0,0,0,.28.84,2.85,2.85,0,0,1-.57,2.26c-1.06.75-2.3-1.05-2.46-1.91h0s0-.06,0-.09c-.1-.39-.51-.19-.45.16l0,.11a3.9,3.9,0,0,1-.37,2.51c-.59,1-1.32.49-1.95-.25-.18-.22-.33.07-.33.25,0,1.19-.95,2.88-2.08,1.43-.14-.19-.33,0-.37.14-.13.47-.24.94-.36,1.4a6.57,6.57,0,0,1-.31,1c-.06.49-.22.55-.5.16s-.7-.91-1.27-.86c-.77.08-.87,1.14-.84,1.89-.45-.24-1-.48-1.44-.2a2.21,2.21,0,0,0-.65,1.5c-.37-.33-.8-.67-1.28-.37s-.64,1.15-.76,1.75a2.21,2.21,0,0,1-1.27-1.08c-.11-.21-.27,0-.28.16,0,.58.16,1.57-.14,2.08-.59,1-1.86-.8-2.11-1.46-.13-.33-.51-.25-.5.11,0,1.06.31,4.31-1.37,4.16a2,2,0,0,1-.81-.31,3.75,3.75,0,0,0-2.08-4.53.21.21,0,0,0-.3.13c-.57,1.43.44,3.54,1.71,4.71a2.76,2.76,0,0,1-.5.65c-.58.56-1.42.19-1.91.79-.34.41-.14.45-.66.8s-.66.23-1.11-.17a3,3,0,0,1-.54-.64c-.14-.22-.33,0-.35.18,0,.46-.08,1.41-.66,1.58s-1.06-.42-1.37-.7-.33-.05-.38.14a8.09,8.09,0,0,0-.12.86,2.88,2.88,0,0,1-.07.59c-.16.46-.87,1.28-1.23.05-.1-.35-.5-.25-.49.09a3.42,3.42,0,0,1-.9,2.48,1.85,1.85,0,0,1-1.21.62h0a1.87,1.87,0,0,0,.13-.53c0-.62-.25-1.64-.94-1.82a1.07,1.07,0,0,0-1.22.91,1.68,1.68,0,0,0,.91,1.82l.1,0a6.09,6.09,0,0,1-1.42.66,4.82,4.82,0,0,0-1.22.5c-.14.11-.26.48-.37.54-1.1.59-.56-.15-1.09-.12a1.7,1.7,0,0,0-1.75,1.38c-.89-.9-1.66.46-2,1.46-.38-.55-.85-1.43-1.48-1.59s-1.27.45-1.71.84c0,0,0,.07,0,.05.59-.44,1.24-1,1.93-.42a8.31,8.31,0,0,1,1.21,1.6c.07.09.18,0,.19-.1.16-.66.89-2.53,1.77-1.27.1.15.24,0,.27-.1.26-1.08.79-1.38,1.84-1.12.42.11.52.2.91-.05s.34-.53.66-.71a3.24,3.24,0,0,1,.52-.19,12.12,12.12,0,0,0,1.45-.57,3.11,3.11,0,0,0,.81-.57c1.57.36,2.73-1.29,3-2.83a1,1,0,0,0,1.35.12c.53-.42.48-1.24.54-1.91.48.39,1.09.79,1.67.48a1.78,1.78,0,0,0,.71-1.49c.58.67,1.44,1.25,2.15.49.53-.57-.54-.51,1.09-1.09.21-.07.43,0,.67-.08a2.88,2.88,0,0,0,1.08-1.11,1.21,1.21,0,0,1,.09-.2,2.67,2.67,0,0,0,.6.35c2.26,1,2.45-1.81,2.42-3.66.47.72,1.15,1.41,1.84,1.36,1.07-.08.88-1.59.74-2.6a2.85,2.85,0,0,0,1.23.86c.1,0,.19-.05.21-.14a9.57,9.57,0,0,1,.26-1.23c.37-.9,1-.58,1.48-.1.1.1.2,0,.22-.11.09-.44.16-1.34.66-1.55s1.05.33,1.38.57c.16.11.29-.08.3-.22,0-.64-.2-2.05,1-1.39.38.21.61.68,1,.89a.19.19,0,0,0,.26-.06,8.3,8.3,0,0,0,.89-2.78c1.2,1.34,2.4-.15,2.53-1.67.6.66,1.44,1.17,2.17.33a3,3,0,0,0,.68-2c.62,1,1.58,1.77,2.6,1.34a2.11,2.11,0,0,0,1-2.4l.25.11c.81.26,1.3-.32,1.59-1a6.38,6.38,0,0,1,.6.46.17.17,0,0,0,.17,0,1.84,1.84,0,0,0,.65-1.16,2.7,2.7,0,0,1,.11-.71c.31-.54.71,0,1.05.31.07.07.21.12.29,0,.59-.56.37-1.06.57-1.77.16-.53.17-.36.78-.19a3.47,3.47,0,0,0,1.1.18C324.72,271.31,325.32,270.39,325.12,268.89ZM279,295.28c0-.39.35-.87.76-.75.69.2.64,1.1.32,1.65C279.56,296.05,279,295.74,279,295.28Zm11.83-10.35a3,3,0,0,1,1.56,3.36A4.47,4.47,0,0,1,290.8,284.93Z"></path><path d="M351.23,284a.17.17,0,1,0-.34,0,1.61,1.61,0,0,1-1.68,1.53,6.19,6.19,0,0,1-1.92,0c-.11,0-.18.05-.21.15a9.35,9.35,0,0,1-.54,1.75c-.43-.34-1-.71-1.37-.18s-.09,2.5-1.19,1.41c-.11-.11-.22-.1-.31,0-.62,1-1.31,1-1.81.41a4,4,0,0,0-.5-1c-.18-.25-.35.12-.3.29a5.46,5.46,0,0,0,.27.84,2.88,2.88,0,0,1-.56,2.27c-1.06.75-2.3-1.06-2.46-1.92h0a.29.29,0,0,1,0-.09c-.1-.39-.51-.19-.45.16a.52.52,0,0,1,0,.11,3.77,3.77,0,0,1-.37,2.51c-.58,1-1.31.5-1.94-.24-.19-.23-.34.06-.33.24,0,1.2-1,2.88-2.08,1.43-.14-.19-.33,0-.37.14-.13.47-.24.94-.37,1.41a4.76,4.76,0,0,1-.31,1c0,.5-.21.55-.49.16s-.7-.91-1.27-.85c-.77.07-.88,1.13-.84,1.88-.45-.23-1-.47-1.44-.2s-.57,1-.65,1.51c-.37-.34-.8-.68-1.28-.38s-.64,1.15-.76,1.75a2.21,2.21,0,0,1-1.27-1.08c-.11-.21-.27,0-.28.17,0,.57.15,1.56-.14,2.07-.6,1-1.86-.8-2.11-1.45-.13-.34-.51-.26-.5.1,0,1.06.3,4.31-1.38,4.16a1.82,1.82,0,0,1-.8-.31,3.73,3.73,0,0,0-2.08-4.52.23.23,0,0,0-.31.12c-.57,1.44.45,3.55,1.72,4.71a2.76,2.76,0,0,1-.5.65c-.58.56-1.42.2-1.91.79-.34.41-.14.45-.66.81s-.67.22-1.12-.17a3,3,0,0,1-.53-.65c-.14-.21-.33,0-.35.18,0,.46-.08,1.42-.66,1.58s-1.06-.42-1.38-.7c-.16-.14-.32-.05-.37.15a6.21,6.21,0,0,0-.12.85,2.88,2.88,0,0,1-.07.59c-.17.46-.88,1.28-1.24.05-.1-.34-.49-.24-.48.09a3.46,3.46,0,0,1-.9,2.48,1.85,1.85,0,0,1-1.21.62h0a1.79,1.79,0,0,0,.12-.53c0-.62-.24-1.64-.93-1.82s-1.09.38-1.23.92a1.67,1.67,0,0,0,.92,1.81l.09,0a6.28,6.28,0,0,1-1.41.67,4.33,4.33,0,0,0-1.22.49c-.14.11-.26.48-.38.54-1.09.59-.55-.14-1.08-.12a1.7,1.7,0,0,0-1.75,1.38c-.89-.9-1.67.46-2,1.46-.38-.55-.85-1.42-1.48-1.58s-1.27.45-1.71.83c0,0,0,.07,0,0,.59-.44,1.23-.95,1.92-.42a8,8,0,0,1,1.22,1.6c.07.09.17,0,.19-.09.16-.67.89-2.54,1.76-1.28.11.16.24,0,.28-.1.26-1.08.79-1.38,1.84-1.12.42.11.52.2.91-.05s.34-.53.66-.71a4.6,4.6,0,0,1,.52-.19,11,11,0,0,0,1.44-.56,3.46,3.46,0,0,0,.82-.58c1.57.36,2.73-1.28,3-2.83a.93.93,0,0,0,1.34.12c.53-.41.49-1.23.55-1.91.47.39,1.09.79,1.66.49a1.78,1.78,0,0,0,.72-1.5c.58.67,1.44,1.25,2.15.49.53-.56-.55-.51,1.09-1.08.2-.08.43,0,.66-.09a2.63,2.63,0,0,0,1.08-1.11,1.21,1.21,0,0,0,.09-.2,3.24,3.24,0,0,0,.61.36c2.26,1,2.45-1.81,2.41-3.67.48.72,1.15,1.41,1.85,1.36,1.07-.08.88-1.59.73-2.6a2.78,2.78,0,0,0,1.24.86c.09,0,.18,0,.21-.14a9.92,9.92,0,0,1,.25-1.23c.37-.9,1-.58,1.49-.09.1.09.2,0,.22-.12.09-.44.16-1.34.65-1.55s1.06.33,1.39.57c.15.11.29-.07.29-.22,0-.64-.2-2.05,1-1.39.38.21.61.68,1,.89a.19.19,0,0,0,.26-.05,8.59,8.59,0,0,0,.89-2.79c1.2,1.35,2.4-.15,2.53-1.67.6.66,1.43,1.17,2.17.33a3.08,3.08,0,0,0,.68-2c.62,1,1.58,1.78,2.6,1.34a2.14,2.14,0,0,0,1-2.4l.25.11c.81.27,1.29-.32,1.59-1,.2.15.4.29.59.46,0,0,.14,0,.18,0a1.89,1.89,0,0,0,.65-1.16,2.7,2.7,0,0,1,.11-.71c.31-.54.71,0,1,.31a.22.22,0,0,0,.29,0c.58-.55.37-1.06.57-1.76.15-.54.17-.37.78-.19a3.72,3.72,0,0,0,1.1.17C350.82,286.38,351.43,285.46,351.23,284Zm-46.15,26.39c0-.38.34-.87.76-.75.68.2.64,1.1.32,1.65C305.67,311.12,305.13,310.82,305.08,310.35ZM316.91,300a3,3,0,0,1,1.56,3.36A4.44,4.44,0,0,1,316.91,300Z"></path><path d="M290.56,302.75a2.36,2.36,0,0,0-1.42.56,19.46,19.46,0,0,1-1.76-1.71c-.18-.25-.36.09-.35.26a2.24,2.24,0,0,1-.69,1.61c-.4.38-.69.27-1.16.18s-.74.18-.76.59c-.71-.29-1.09.46-1.31,1.16a.86.86,0,0,0-1.09-.2,2.61,2.61,0,0,0-.81,1.28c-.59-.4-.87-1.54-1.75-1.36-.71.15-1.27,1.17-1.41,1.82,0,.18.14.21.18,0,.15-.63.9-1.81,1.66-1.44.59.29.72,1.1,1.31,1.4a.12.12,0,0,0,.15-.08c.35-.83.8-1.85,1.74-.94.1.11.2,0,.23-.12.16-.58.46-1.53,1.21-1,.17.13.27-.15.25-.28-.11-.64.44-.31.81-.25a1.06,1.06,0,0,0,.85-.24,2.76,2.76,0,0,0,1-1.61c.31.32.67.6,1,.9l.41.39a1.43,1.43,0,0,0-.08.22,1.46,1.46,0,0,0,1.06,1.84c.11,0,.18-.06.22-.16a1.87,1.87,0,0,0-.49-1.9c.34-.21.75-.23,1.1-.43C290.79,303.2,290.82,302.73,290.56,302.75Zm-.89,2.38a.77.77,0,0,1-.5-1A1.64,1.64,0,0,1,289.67,305.13Z"></path><path d="M303,292.56c0-.08-.1,0-.1.05,0,.35,0,.8-.42.9s-.75-.2-1-.37c-.11-.06-.18.12-.19.19,0,.23-.11.94-.33,1.08s-.8-.46-1-.66-.29,0-.28.18c0,.56-.3,1.89-1.07,1.77a.85.85,0,0,1-.48-.24,2.33,2.33,0,0,0-.87-2.13c-.18-.12-.29.1-.31.25a3.45,3.45,0,0,0,.74,2.3,1.8,1.8,0,0,1-.59,1.22c-.47.33-.83,0-1.31,0-.3,0-.44.3-.52.57-.61-.41-1,.23-1.29.81-.76-.59-1.38.07-1.56.87a1.82,1.82,0,0,0-1.17-.47c-.67.05-.57.81-.49,1.28,0,.22.25,0,.23-.11-.1-1.06,1.11-.27,1.48.1.17.17.38,0,.37-.21,0-.74.46-1.42,1.14-.79a.16.16,0,0,0,.24-.07c.2-.46.45-1.36,1.05-.8.13.11.24-.06.26-.17.15-.9.73-.31,1.33-.4a1.54,1.54,0,0,0,1.06-1.12c0-.12.08-.26.12-.4a1.42,1.42,0,0,0,.71.28c1,.05,1.22-1.13,1.25-2,.28.34.66.7,1,.51s.45-.84.47-1.32c.37.24.89.5,1.28.22S303.09,293,303,292.56Z"></path><path d="M304.42,292.51s-.08,0-.11,0l0,.06,0,0s0,0,0,0l-.07.08-.05,0h0s0,0,0,0l-.11,0h-.09l-.06,0h0a1.2,1.2,0,0,1-.27-.16.08.08,0,0,0-.09,0,.16.16,0,0,0-.07.11.21.21,0,0,0,0,.24.77.77,0,0,0,.6.16.66.66,0,0,0,.43-.46A.15.15,0,0,0,304.42,292.51Z"></path><path d="M306.14,290.67c0-.06-.06,0-.06,0a1.34,1.34,0,0,1-.39,1,2.45,2.45,0,0,1-1,.3,7.58,7.58,0,0,0-.82.21c-.14.05-.15.4,0,.35.46-.15.94-.21,1.4-.34a1.43,1.43,0,0,0,.45-.21.93.93,0,0,0,.31-.53A2.43,2.43,0,0,0,306.14,290.67Z"></path><path d="M330.28,276.46a.13.13,0,0,0-.25.05c-.35,1.05-1.19.95-1.7,0-.1-.18-.23,0-.23.16a4.61,4.61,0,0,1-.49,2.4c-.54.82-.89-.16-1.49-.14s-.74.69-.78,1.25c-.52-.31-1,0-1.25.68-.62-.54-1.09-.16-1.37.58-.32-.27-.76-.78-1.07-.7-.59.16-.68,3.21-1.57,1.38,0-.09-.09-.13-.14-.14a.47.47,0,0,0-.15-.33,1.23,1.23,0,0,0-2,.58c-.45,1-.81,4.61-2.38,2.32-.12-.18-.32,0-.32.14,0,.78-.08,1.83-1,.92-.13-.13-.28.08-.28.19,0,.52,0,1.83-.87,1.22a2.26,2.26,0,0,1-.81-1.35c-.06-.25-.31,0-.27.15a4,4,0,0,1-.61,2.75c-.08.15,0,.42.18.21a4.65,4.65,0,0,0,.76-2.08c.29.56.73,1.11,1.25,1s.69-.8.73-1.37c.94.77,1.19-.05,1.27-1,.6.66,1.34.84,1.95-.12a6.16,6.16,0,0,0,.48-1.5,1.54,1.54,0,0,0,.47,1c.95.89,1.55-.55,1.75-1.62.34.43.79.65,1.22,0,.17-.28.41-1.56.54-1.56s.81.67.94.74.26,0,.31-.18c0-.59.36-.72,1-.39.14.16.33,0,.37-.13,0-.52.31-.71.94-.55.16.23.42.14.42-.15s-.06-.7.07-.88c.34-.45.63,0,.92.13a.83.83,0,0,0,1-.35,3.87,3.87,0,0,0,.56-2.54c.61.85,1.6.92,1.88-.17a11.21,11.21,0,0,1,2.48,4.13c.11.29.36.05.35-.16C333,279.1,331.28,277.88,330.28,276.46Zm-11.19,7.68c-.76.58-.8-.85-.57-1.27a1,1,0,0,1,1.16-.56.07.07,0,0,0,0,.05A2.46,2.46,0,0,1,319.09,284.14Z"></path><path d="M325.07,321.48a2.32,2.32,0,0,0-1.41.57,19.74,19.74,0,0,1-1.77-1.71c-.18-.25-.35.09-.34.26a2.32,2.32,0,0,1-.69,1.61c-.4.37-.69.27-1.17.18s-.74.18-.75.59c-.72-.29-1.1.46-1.31,1.16a.88.88,0,0,0-1.1-.2,2.57,2.57,0,0,0-.81,1.28c-.59-.4-.86-1.54-1.74-1.36-.72.15-1.28,1.17-1.42,1.82,0,.18.14.21.18,0,.15-.62.9-1.8,1.66-1.43.6.29.72,1.09,1.31,1.4.06,0,.13,0,.16-.08.34-.83.79-1.85,1.73-.94.11.1.2,0,.23-.12.16-.58.46-1.53,1.21-1,.18.13.27-.15.25-.28-.1-.64.45-.31.81-.26a1,1,0,0,0,.86-.23,2.72,2.72,0,0,0,1-1.61c.31.32.67.6,1,.9l.42.39a.85.85,0,0,0-.09.22,1.48,1.48,0,0,0,1.06,1.84c.12,0,.18-.06.22-.16a1.89,1.89,0,0,0-.49-1.91c.35-.2.76-.22,1.1-.42C325.3,321.94,325.33,321.47,325.07,321.48Zm-.89,2.39a.76.76,0,0,1-.49-1A1.62,1.62,0,0,1,324.18,323.87Z"></path><path d="M337.47,311.3c0-.08-.09,0-.1.05,0,.35,0,.8-.42.9s-.75-.21-1-.37-.19.12-.19.19c0,.22-.12.94-.34,1.08s-.8-.46-1-.66-.3,0-.29.18c0,.56-.3,1.89-1.07,1.77a.91.91,0,0,1-.48-.24,2.35,2.35,0,0,0-.86-2.13c-.19-.13-.3.1-.31.25a3.37,3.37,0,0,0,.74,2.3,1.85,1.85,0,0,1-.6,1.22c-.46.33-.83,0-1.31,0-.3,0-.44.3-.52.57-.6-.41-1,.23-1.28.81-.77-.59-1.39.07-1.57.86a1.84,1.84,0,0,0-1.17-.46c-.66.05-.57.81-.49,1.28,0,.22.25,0,.24-.11-.11-1.06,1.1-.27,1.47.1.17.17.38,0,.37-.22,0-.73.46-1.42,1.14-.79a.16.16,0,0,0,.25-.06c.19-.46.44-1.36,1.05-.8.12.11.24-.06.25-.17.15-.9.73-.31,1.33-.41s.88-.62,1.06-1.11a2.45,2.45,0,0,0,.12-.41,1.26,1.26,0,0,0,.72.28c1,.06,1.21-1.12,1.24-2,.28.34.66.7,1,.51s.45-.85.48-1.32c.37.24.89.5,1.27.22S337.6,311.69,337.47,311.3Z"></path><path d="M340.65,309.41c0-.06,0,0-.06,0a1.34,1.34,0,0,1-.39,1,2.57,2.57,0,0,1-1,.3,6.17,6.17,0,0,0-.82.21c-.14,0-.14.4,0,.35.46-.15.94-.22,1.4-.35a1.22,1.22,0,0,0,.45-.2,1,1,0,0,0,.32-.53A2.69,2.69,0,0,0,340.65,309.41Z"></path><path d="M364.8,295.2a.14.14,0,0,0-.26.05c-.34,1.05-1.19.94-1.7,0-.1-.18-.23,0-.23.15a4.55,4.55,0,0,1-.49,2.41c-.53.82-.89-.16-1.49-.14s-.74.68-.78,1.25c-.51-.31-1,0-1.25.68-.62-.54-1.09-.16-1.37.58-.32-.28-.76-.78-1.07-.7-.59.16-.67,3.21-1.57,1.38,0-.09-.09-.13-.14-.14a.41.41,0,0,0-.15-.33,1.23,1.23,0,0,0-2,.58c-.45,1-.8,4.61-2.38,2.31-.12-.17-.31,0-.32.15,0,.78-.08,1.83-1,.92-.13-.13-.27.07-.28.19,0,.52,0,1.82-.87,1.22a2.34,2.34,0,0,1-.81-1.35c-.05-.25-.3,0-.27.15a4,4,0,0,1-.61,2.75c-.08.14.05.42.18.21a4.84,4.84,0,0,0,.77-2.08c.28.56.72,1.1,1.24,1s.69-.8.73-1.37c.94.77,1.19-.05,1.28-1,.6.66,1.34.84,1.94-.12a5.75,5.75,0,0,0,.48-1.5,1.59,1.59,0,0,0,.47,1c.95.89,1.55-.55,1.75-1.63.35.44.8.66,1.22,0,.17-.28.41-1.56.55-1.57s.8.68.93.75.27,0,.31-.18c0-.59.36-.72,1-.39.13.16.33.05.36-.13,0-.52.31-.71.94-.55.16.23.42.13.42-.15s-.06-.7.08-.88c.33-.45.63,0,.91.13a.83.83,0,0,0,1-.35,3.87,3.87,0,0,0,.56-2.54c.61.85,1.6.92,1.88-.17a11.08,11.08,0,0,1,2.49,4.13c.1.29.36.05.35-.16C367.51,297.84,365.79,296.62,364.8,295.2Zm-11.2,7.68c-.76.57-.8-.85-.56-1.27a1,1,0,0,1,1.15-.56s0,0,0,.05A2.47,2.47,0,0,1,353.6,302.88Z"></path><path d="M310.1,304.21a12.5,12.5,0,0,0-2.92-5.53c-.14-.16-.4-.23-.47,0-.19.67.09,2.36-.71,2.61-.6.19-.95-.91-1.47-1.22a.19.19,0,0,0-.28.1c-.43.81-.31,2-.83,2.73-.2-.29-.47-.58-.81-.38s-.38.68-.45,1.08c-.68-.47-1.14.07-1.39.84-.77-.72-1.29-.2-1.73.71a1.52,1.52,0,0,0-1-.7.2.2,0,0,0-.22.12,10.38,10.38,0,0,0-.34,1.33c-.32,1.17-1,0-1.27-.51-.08-.15-.29-.21-.37,0a9.93,9.93,0,0,0-.37,1.72,2,2,0,0,1-.15.56.8.8,0,0,1-1,.2c-.32-.17-.49-.83-.58-1.15a.22.22,0,1,0-.43.05c0,1,.21,3-.92,3.53a1,1,0,0,1-.76,0,2.13,2.13,0,0,0,.27-1.64c-.29-1-1.26-.81-1.39.18a2.43,2.43,0,0,0,.42,1.52,4,4,0,0,1-1.49,1.24c-.21.11-.13.65.11.54a5,5,0,0,0,1.74-1.35,1.12,1.12,0,0,0,1.28.18c1-.48,1.18-1.83,1.2-3,.32.54.79,1,1.39.74.86-.32.82-1.58,1-2.45.3.57.78,1.25,1.36.87.31-.2.4-.73.48-1.05,0-.15.08-.77.19-.85s.74.55.87.67.27.11.33,0c.3-.68.68-1.58,1.46-.61.13.17.32,0,.36-.12.07-.36.28-1.56,1.08-.72.14.14.32.05.36-.13s.16-1.49.68-.67c.09.13.23.2.35.08.73-.74.6-1.9,1-2.82.52.5.72,1.53,1.64,1.18s.89-1.49,1-2.4a15.48,15.48,0,0,1,2.35,4.68C309.71,304.85,310.21,304.73,310.1,304.21Z"></path><path d="M320.33,292.71a1,1,0,0,0-.55.91c-.32-.31-.66-.8-1.1-.52a1,1,0,0,0-.39.82c-.35-.36-.79-.59-1.28-.2s-.37.78-.4,1.23a.64.64,0,0,0-.41-.33c-.28-.05-.46.21-.57.43a6.76,6.76,0,0,0-.45,1.47,3.76,3.76,0,0,0-1.49-1.21c-.88-.28-1.1.88-1.17,1.49,0,.35.38.56.43.13s.2-1.29.87-.92a6.08,6.08,0,0,1,1.33,1.2c.12.13.26.09.32-.08.14-.43.19-.89.33-1.33.05-.15.13-.5.29-.58s.38.31.45.44.26.13.31-.06c.11-.39,0-.86.16-1.22a.63.63,0,0,1,.77-.29,1.57,1.57,0,0,1,.57.6c.18.24.32-.12.3-.27,0-.3-.09-1.14.42-.94.34.13.52.59.84.78.15.09.21-.21.2-.29a1.64,1.64,0,0,1,.29-1.07C320.44,292.84,320.45,292.66,320.33,292.71Z"></path><path d="M342.35,278c-.11-.16-.25,0-.26.14a8.49,8.49,0,0,1-.24,2.36c-.14.44-.36.88-.87.93s-.76-.36-1.16-.54c-1.17-.53-1.55,1-1.62,1.94a.66.66,0,0,0-1,.28c-.69-.63-1.2.12-1.36.93-.36-.38-.7-.72-1.22-.23s-.39,1.09-.44,1.68c-.5-.49-1-1.08-1.75-.58s-.63,1.37-.74,2.11a6.76,6.76,0,0,1-1.08-.68c-.06,0-.13,0-.16,0-.14.2-.18.37-.31.59a.88.88,0,0,1-.47.69,3.2,3.2,0,0,1-1-.75.18.18,0,0,0-.31,0c-.2.35-.24.74-.41,1.09-.34.71-.72.5-1.26,0-.2-.17-.37,0-.41.18a12.39,12.39,0,0,1-.19,1.38c-.46,1.33-1.66-.14-2-.75-.12-.24-.39-.11-.4.13,0,.74.46,2.58-.39,2.89-.19.06-.16.54.07.47.88-.26.86-1.44.8-2.39.45.62,1.12,1.19,1.82.86s.69-1.14.76-1.83c.38.3.84.54,1.25.21a2.81,2.81,0,0,0,.65-1.59,6.21,6.21,0,0,0,1.13.69.14.14,0,0,0,.17-.07,5.87,5.87,0,0,0,.37-.86c.38-.73.77-.07,1.34.14.1,0,.17-.06.19-.15.14-.57.06-1.8.75-2s1.14.52,1.52.89c.12.13.27.09.32-.09s0-.65.13-.92.66-.78.92-.7l.35.33c.19.17.29-.18.29-.3-.11-.63.21-.89,1-.79.16.19.32,0,.31-.21.16-.46.41-.51.75-.16.12.1.23,0,.25-.14a8.45,8.45,0,0,1,.26-1.33.85.85,0,0,1,1-.64c.15,0,.38.34.51.43a1.2,1.2,0,0,0,1.51,0c.78-.65.74-2,.67-3.06.93,1.18,2.13,2.44,2.31,3.93,0,.28.3.18.32-.06C345.15,280.71,343.26,279.27,342.35,278Z"></path><path d="M324.47,315a12.48,12.48,0,0,0-2.92-5.54c-.14-.15-.4-.22-.47,0-.19.67.09,2.36-.72,2.62-.6.19-.94-.92-1.46-1.23a.19.19,0,0,0-.28.11c-.43.81-.31,2-.83,2.73-.2-.29-.47-.58-.81-.39s-.38.68-.45,1.09c-.68-.48-1.14.06-1.39.84-.77-.73-1.3-.2-1.73.7a1.54,1.54,0,0,0-1-.69.18.18,0,0,0-.21.12,9.83,9.83,0,0,0-.34,1.32c-.32,1.18-1,0-1.27-.51-.08-.15-.29-.21-.37,0a9.19,9.19,0,0,0-.37,1.73,2.21,2.21,0,0,1-.15.56.81.81,0,0,1-1,.19c-.32-.16-.49-.82-.58-1.15s-.43-.26-.43.05c0,1,.21,3-.92,3.53a1,1,0,0,1-.76,0,2.12,2.12,0,0,0,.27-1.64c-.29-1-1.26-.81-1.39.18a2.48,2.48,0,0,0,.42,1.53,4.08,4.08,0,0,1-1.49,1.24c-.21.1-.14.65.11.54a5.2,5.2,0,0,0,1.74-1.36,1.13,1.13,0,0,0,1.28.19c1-.49,1.18-1.83,1.2-3,.32.53.79,1,1.39.74.86-.33.82-1.58,1-2.46.31.57.79,1.26,1.37.87.31-.2.4-.72.48-1.05,0-.14.08-.77.19-.85s.74.55.87.68a.19.19,0,0,0,.33-.05c.3-.67.68-1.57,1.46-.6.13.16.32,0,.36-.13.07-.36.28-1.55,1.07-.72.15.15.33.06.37-.13s.16-1.48.68-.66c.08.13.23.2.35.07.72-.74.6-1.89,1-2.82.52.5.72,1.53,1.63,1.19s.9-1.49,1-2.4a15.43,15.43,0,0,1,2.35,4.67C324.08,315.63,324.58,315.5,324.47,315Z"></path><path d="M334.7,303.48a1,1,0,0,0-.55.91c-.32-.3-.66-.79-1.1-.52a1,1,0,0,0-.39.82c-.35-.36-.79-.59-1.28-.2s-.37.79-.4,1.23a.7.7,0,0,0-.41-.33c-.28-.05-.46.22-.57.43a6.93,6.93,0,0,0-.45,1.47,3.76,3.76,0,0,0-1.49-1.21c-.88-.28-1.1.88-1.17,1.49-.05.36.38.56.43.13s.2-1.28.87-.92a6.36,6.36,0,0,1,1.33,1.21c.12.12.26.08.31-.09.15-.43.2-.89.34-1.32.05-.15.13-.5.29-.58s.38.3.44.44.27.12.32-.07c.11-.38,0-.85.16-1.21a.61.61,0,0,1,.76-.29,1.5,1.5,0,0,1,.58.59c.17.25.32-.11.3-.27s-.09-1.14.42-.94c.34.14.52.59.84.78.15.09.21-.2.2-.29a1.6,1.6,0,0,1,.29-1.06C334.8,303.62,334.82,303.44,334.7,303.48Z"></path><path d="M356.72,288.72c-.11-.15-.25,0-.26.14a8.57,8.57,0,0,1-.24,2.37c-.14.44-.36.87-.87.92s-.76-.35-1.16-.53c-1.17-.54-1.55,1-1.62,1.93-.43-.18-.8-.1-1,.29-.69-.64-1.2.11-1.36.92-.36-.38-.7-.72-1.22-.22s-.4,1.08-.44,1.68c-.5-.5-1-1.08-1.75-.59s-.63,1.37-.74,2.11a6.34,6.34,0,0,1-1.08-.68c-.06,0-.13,0-.16.05-.14.21-.18.38-.31.59a.87.87,0,0,1-.47.69,2.91,2.91,0,0,1-1-.75.18.18,0,0,0-.31,0c-.2.34-.24.73-.41,1.09-.34.7-.72.49-1.26,0-.2-.17-.37,0-.41.19a12.72,12.72,0,0,1-.19,1.38c-.46,1.32-1.67-.15-2-.75-.12-.25-.39-.12-.4.12,0,.74.46,2.58-.39,2.89-.19.07-.16.54.07.47.88-.26.86-1.44.8-2.38.45.62,1.12,1.18,1.82.86s.69-1.14.75-1.83c.39.29.85.54,1.26.2a2.78,2.78,0,0,0,.65-1.58,6.78,6.78,0,0,0,1.13.68c.07,0,.13,0,.17-.06a6.37,6.37,0,0,0,.37-.86c.37-.73.77-.08,1.34.13.1,0,.17-.06.19-.14.13-.58.06-1.8.75-2.05s1.14.52,1.52.9a.18.18,0,0,0,.32-.09c.08-.29,0-.66.13-.92s.66-.79.92-.71l.35.33c.19.17.29-.17.29-.3-.11-.62.21-.89,1-.79.15.2.31,0,.31-.21.16-.46.41-.51.75-.16.12.1.23,0,.25-.14a8.45,8.45,0,0,1,.26-1.33.84.84,0,0,1,.94-.64c.16,0,.39.35.52.43a1.2,1.2,0,0,0,1.51,0c.78-.64.74-2,.67-3.05.93,1.17,2.13,2.43,2.31,3.92,0,.28.3.18.31-.06C359.52,291.49,357.63,290,356.72,288.72Z"></path></g></g></g><g id="freepik--Character--inject-383"><g id="freepik--character--inject-383"><path d="M355.23,314.47l-20.75,14-4.14,2.8h0a1.32,1.32,0,0,1-2-1.48.06.06,0,0,0,0,0l1.78-5.31L338,301.11l6.94,5.36Z" style="fill:#ffa8a7"></path><path d="M344.89,306.47l-13.62,20.67-2.6,3.94a1.29,1.29,0,0,1-.33-1.3.06.06,0,0,0,0,0l1.78-5.31L338,301.11Z" style="fill:#ffc4c3"></path><path d="M334.48,328.46l-4.14,2.8h0a1.32,1.32,0,0,1-2-1.48.06.06,0,0,0,0,0l1.78-5.31a5.24,5.24,0,0,0,1.14,2.71A4.1,4.1,0,0,0,334.48,328.46Z" style="fill:#37474f"></path><path d="M427.78,182.64,426,184.93l-2.11,2.76L338,301.1a13.89,13.89,0,0,0,4.73,9c3.88,3.62,9.24,5.51,12.54,4.35l85.42-112.68,4-5.28C441.86,199.77,425,186,427.78,182.64Z" style="fill:#263238"></path><path d="M426,184.93l-2.11,2.76L338,301.1a13.89,13.89,0,0,0,4.73,9L430.55,193Z" style="fill:#37474f"></path><path d="M421.12,191.34l-3.88,5.13c-1.18,1.45,1.26,4.8,4.67,7.91,4.51,4.13,10.73,7.8,12.29,5.89l3.93-5.18c-1.56,1.92-7.85-1.72-12.36-5.85-3.25-3-5.63-6.21-4.76-7.73h0A.39.39,0,0,1,421.12,191.34Z" style="fill:#f0f0f0"></path><path d="M425.77,199.24c-3.25-3-5.63-6.21-4.76-7.73h0a.39.39,0,0,1,.1-.16l-3.88,5.13c-1.18,1.45,1.26,4.8,4.67,7.91l3.87-5.14Z" style="fill:#fafafa"></path><path d="M420.16,192.63c-2.73,3.36,14.22,17.15,16.95,13.79L441,201.3c-2.74,3.36-19.67-10.43-16.93-13.79Z" style="fill:#BA68C8"></path><path d="M427.78,182.64l-3.85,5.05c-2.71,3.28,13.5,16.75,16.71,14.08a.64.64,0,0,0,.17-.16l3.85-5.12C441.86,199.77,425,186,427.78,182.64Z" style="fill:#f0f0f0"></path><path d="M444.12,161.18l-16.34,21.46c-1.18,1.42,1.22,4.75,4.58,7.85,4.5,4.14,10.7,7.88,12.3,6l0,0,15.72-20.64c4.06-4.51-3.47-13.52-10-15.66C447.93,159.35,445.64,159.5,444.12,161.18Z" style="fill:#f28f8f"></path><path d="M444.12,161.18l-16.34,21.46c-1.18,1.42,1.22,4.75,4.58,7.85l16.7-20.94s-4.35-4.39-4-6.88,2.56-3,5.29-2.5C447.93,159.35,445.64,159.5,444.12,161.18Z" style="fill:#ffa8a7"></path><path d="M424.07,187.51l-3.91,5.12c-1.17,1.44,1.27,4.79,4.65,7.89l3.88-5.15C425.32,192.28,422.9,189,424.07,187.51Z" style="fill:#fff;opacity:0.4"></path><path d="M427.78,182.64l-3.85,5.05c-1.18,1.43,1.23,4.79,4.59,7.91l3.84-5.11C429,187.39,426.6,184.06,427.78,182.64Z" style="fill:#fafafa"></path><g id="freepik--character--inject-383"><path d="M424.2,215.44c4.07-.08,7.84,1.57,10,8.24,2.42,7.41,6.73,23.13,5.13,28.52-1.26,4.26-19.19,6.13-19.19,6.13l-2.25-9.17,11-2.29-1.63-8.63Z" style="fill:#ffa8a7"></path><path d="M423.85,215c7-.51,9,3.58,10.48,8a145.05,145.05,0,0,1,4.3,15.1s-1.8,6.05-10.07,5l-1.13-3.87Z" style="fill:#BA68C8"></path><path d="M381.23,384.43c-.37,1.85.3,2.82,2.69,4.2s6.15,1.85,10.09.7,5.84-2.87,7.48-3.28,5.7-.45,7.32-.92,1.59-1.31,1.59-3.25Z" style="fill:#455a64"></path><path d="M408.81,372.48a44,44,0,0,1,1.18,4.38c.33,1.62.81,4.33.24,5.55s-2.79,2-6.22,2c-2.23,0-5.7,1.5-8.07,2.82a12.32,12.32,0,0,1-7.71,1.07c-3.06-.36-6.23-2.13-6.72-3.4s-.62-2.21,6.58-5.28c.07,0,8.36-3.09,11.85-6.94Z" style="fill:#BA68C8"></path><g style="opacity:0.30000000000000004"><path d="M408.81,372.48a44,44,0,0,1,1.18,4.38c.33,1.62.81,4.33.24,5.55s-2.79,2-6.22,2c-2.23,0-5.7,1.5-8.07,2.82a12.32,12.32,0,0,1-7.71,1.07c-3.06-.36-6.23-2.13-6.72-3.4s-.62-2.21,6.58-5.28c.07,0,8.36-3.09,11.85-6.94Z"></path></g><path d="M395,387.68s-.61-6.18-5.64-7.95c-4.55-1.6-8.52,1.77-8.08,4.7C381.53,386.4,387.07,390.87,395,387.68Z" style="fill:#fafafa"></path><path d="M390.58,378.57a5.86,5.86,0,0,1,3.43,1.52c1.45,1.22,1.49,2,1.49,2a.77.77,0,0,0,1.32-.63s-.34-3.12-4.45-3.76A1.67,1.67,0,0,0,390.58,378.57Z" style="fill:#fafafa"></path><path d="M393.46,377.19a5.17,5.17,0,0,1,3.46,1.38c1.45,1.22,1.46,2.18,1.46,2.18a.76.76,0,0,0,1.31-.63s-.34-3.12-4.44-3.76A1.67,1.67,0,0,0,393.46,377.19Z" style="fill:#fafafa"></path><path d="M396.31,375.56a5.13,5.13,0,0,1,3.55,1.14c1.53,1.12,1.61,2.07,1.61,2.07a.76.76,0,0,0,1.26-.71s-.55-3.09-4.69-3.45A1.68,1.68,0,0,0,396.31,375.56Z" style="fill:#fafafa"></path><path d="M408.81,367.23s0,4.34,0,5.48-1.34,2.83-4.82,2.71c-2.44-.09-4.15-.75-4.05-2.76v-5Z" style="fill:#ffa8a7"></path><path d="M412.39,352.11a10.25,10.25,0,0,0,.28,4.7c.88,2.48,2.72,3.61,3.81,4.58a18.57,18.57,0,0,1,3.15,3.83,16.13,16.13,0,0,0,3.3,4.12c1,.89,3.93,1,5.32.38s1.87-1.11,1.78-3.34-6.85-3-6.85-3Z" style="fill:#455a64"></path><path d="M429.16,359.72c.57.22.72,1.32.81,3.51.06,1.65.76,4.07-1.52,5.12a5.57,5.57,0,0,1-6-1.28,75.39,75.39,0,0,0-4.81-6c-1.91-2.06-3.91-2.76-4.76-6.87-.55-2.65-.12-3.75,1.66-4.51,2.45-1,6.3,2.37,8.21,2.91C424.39,353,428.58,359.51,429.16,359.72Z" style="fill:#BA68C8"></path><path d="M429.16,359.72c.57.22.72,1.32.81,3.51.06,1.65.76,4.07-1.52,5.12a5.57,5.57,0,0,1-6-1.28,75.39,75.39,0,0,0-4.81-6c-1.91-2.06-3.91-2.76-4.76-6.87-.55-2.65-.12-3.75,1.66-4.51,2.45-1,6.3,2.37,8.21,2.91C424.39,353,428.58,359.51,429.16,359.72Z" style="opacity:0.30000000000000004"></path><path d="M422.73,352.57l-.32-.12a6.29,6.29,0,0,0-5.3,3.48c-.33.72.68,1.28,1.28.72a6.69,6.69,0,0,1,5.29-3.45A2.66,2.66,0,0,0,422.73,352.57Z" style="fill:#fafafa"></path><path d="M424.32,353.81a6.28,6.28,0,0,0-4.93,3.45c-.32.72.68,1.28,1.28.72a6.46,6.46,0,0,1,4.42-3.3C424.83,354.37,424.57,354.08,424.32,353.81Z" style="fill:#fafafa"></path><path d="M429.49,355.77l-.33,4.61a6.57,6.57,0,0,1-6.79.19c-.11-.26-.45-4.38-.45-4.38Z" style="fill:#ffa8a7"></path><path d="M414,357.21s.19-4.9,6.82-5.58l.37.22a5.68,5.68,0,0,0-3.25-2.52,4.53,4.53,0,0,0-5.1,1.46C411.66,352.28,412.84,356.26,414,357.21Z" style="fill:#fafafa"></path><path d="M431.42,325.05a67,67,0,0,0-2.62-12.88s1.13-11.05,1.79-21.52c.71-11.32.55-25.57.83-28.4,0,0-35.11-8.1-36.05,5-1.07,14.72.06,47.13.28,51.23.3,5.76.31,11.76,1.29,21.11s2.59,30,2.59,30c4.67,1.68,9.77,0,9.77,0s2.71-25.09,2.59-31.73a56.88,56.88,0,0,0-2.19-14.55l4.36-36.47s.44,16.22.74,22,1.09,9.27,2.51,20c1.24,9.3,4.44,28.06,4.44,28.06a10.26,10.26,0,0,0,7.77,0S432.37,333.12,431.42,325.05Z" style="fill:#37474f"></path><path d="M426.76,279.19s-4.26,5.71-9.72,8.17c0,0-2.38,20.08-2.36,19.68l-.62-20.21S422.23,283,426.76,279.19Z" style="fill:#263238"></path><polygon points="407.05 210.53 408.94 222.48 420.79 221.85 419.09 207.95 407.05 210.53" style="fill:#ffa8a7"></polygon><path d="M431.61,221.31c-1-3.26-4.65-6.94-8.78-6.27-1,.15-1.87.23-2.78.39-.49,2-6.55,3.73-11.83,2.49l-6.89.8c-3.79,1.26-4.78,4.92-5.37,17.29,0,0-1,28.57-.86,36.29,9.37,3.95,17.8,4,23.26,3,11.36-2.21,13.23-7.08,13.23-7.08l-.8-19.87c0-4.32,1.62-10.17,2-12.95C433.79,226.84,432.29,223.55,431.61,221.31Z" style="fill:#455a64"></path><path d="M402.19,219.07c-8.8.29-8.91,2.06-11.77,11-1.34,4.23-3.37,11.05-5.25,16.87-1.13,1.11-10.13,7.26-13.29,9.46s-5,1.74-8,4.07c-2.07,1.56-2.78,3.63-3.8,6a11,11,0,0,0-.93,6.68l2.38-3.14s3.11-.23,4.68-.37c2.76-.26,5.06-3.77,7.77-5.24,5.23-2.83,12.59-5.74,17.34-8,2.38-1.11,3.06-1.88,3.64-3.76,2.23-7.32,4.16-14.65,4.16-14.65C403.22,232.72,404.54,222,402.19,219.07Z" style="fill:#ffa8a7"></path><path d="M402.4,218.6a17.62,17.62,0,0,0-5.64.47c-2.48.75-3.91,2.09-5.57,6.52s-5.24,18-5.24,18,.58,1.92,4.47,3.52c4.07,1.66,6.27.87,6.27.87l3.26-9.8s3.1-5.05,3.66-8.38S404.21,222.24,402.4,218.6Z" style="fill:#BA68C8"></path><path d="M399.08,195.86s-2.83,4.28-2.51,4.7,2.4.81,2.4.81Z" style="fill:#f28f8f"></path><path d="M406.92,184c-5.72,1.2-7.37,3.72-7.91,12.8-.56,9.49.41,12.47,1.66,13.75.84.86,5.51,1,7.87.37,3-.82,9.63-3.18,12.75-8,3.68-5.61,4.65-13.22.71-16.34C416.46,182.22,409.25,183.51,406.92,184Z" style="fill:#ffa8a7"></path><path d="M397.86,187.51a8.13,8.13,0,0,0,1.46,1.15,19.18,19.18,0,0,0,2.39,1.33,14,14,0,0,1,2.32,1.08,3.2,3.2,0,0,1,1.2,2.92c0,.78,0,1.74,0,2.79,0,1.58,1,2.78,1.52.67,0,0,.9-3.51,3.86-3.07s3.21,3.77,1.8,6.39c-.85,1.59-3.15,1.17-3.15,1.17a10.31,10.31,0,0,0,3.09,7.95s2.34,1.23,7,.24c3.19-4.38,5.19-6.51,6.89-10.3,3.59-8,1.86-13-.92-15.13-.55-3.69-3.46-5.34-6.77-6.1-4.95-1.14-9.57,1.8-14.47.7-.79-.18-1.62-.37-2.39-.62a1.29,1.29,0,0,0-1-.07,1.08,1.08,0,0,0-.46,1.09,2.93,2.93,0,0,0,1.44,2.32c-.11-.06-.58.07-.71.08l-.83,0c-.53,0-1.07-.07-1.6-.11a3,3,0,0,0-1.11,0,2,2,0,0,0-1.27,2,4.94,4.94,0,0,0,.88,2.37,7.27,7.27,0,0,0,.59.86Z" style="fill:#37474f"></path><path d="M400.67,210.55c.68.7,3.87.93,6.31.65l.17,0-.41-1.35S403,211,400.67,210.55Z" style="fill:#f28f8f"></path></g></g></g></svg>