<svg xmlns="http://www.w3.org/2000/svg" viewBox="0 0 500 500"><g id="freepik--Floor--inject-335"><ellipse id="freepik--floor--inject-335" cx="251.12" cy="350.43" rx="208.38" ry="122.42" style="fill:#f5f5f5"></ellipse></g><g id="freepik--Shadows--inject-335"><path id="freepik--Shadow--inject-335" d="M67.12,385.68c6.43,5.53,28.38,18.27,38.07,22s15.64,2.24,22.85,0,14.81-6.45,20.71-9.72c9.81-5.44,25.77-13.72,16.64-18.52l-37.91-21.89c-6.32-3.64-37.58,1.84-43.9,5.48,0,0-12.86,5.38-17.83,9.13S60.2,379.72,67.12,385.68Z" style="fill:#e0e0e0"></path><polygon id="freepik--shadow--inject-335" points="264.94 452.78 136.85 378.82 308.27 280.26 436.37 354.22 264.94 452.78" style="fill:#e0e0e0"></polygon><ellipse id="freepik--shadow--inject-335" cx="168.8" cy="317.82" rx="74.15" ry="41.06" style="fill:#e0e0e0"></ellipse><path id="freepik--shadow--inject-335" d="M211.94,461.85l44.19-25.51c.64-.37.64-1,0-1.32l-69.22-40a2.56,2.56,0,0,0-2.29,0l-44.19,25.52c-.64.36-.64.95,0,1.32l69.22,40A2.5,2.5,0,0,0,211.94,461.85Z" style="fill:#e0e0e0"></path></g><g id="freepik--Character--inject-335"><path d="M170.62,354A1.58,1.58,0,0,1,169,352.4V250.66a1.59,1.59,0,1,1,3.17,0V352.4A1.59,1.59,0,0,1,170.62,354Z" style="fill:#263238"></path><path d="M233.57,317a1.59,1.59,0,0,1-1.47-1l-31.2-79a1.58,1.58,0,0,1,2.95-1.16l31.19,79a1.57,1.57,0,0,1-.89,2.06A1.66,1.66,0,0,1,233.57,317Z" style="fill:#263238"></path><path d="M229.83,307.46a1.57,1.57,0,0,1-1.15-.49l-58.06-61.43-57.95,61.17a1.58,1.58,0,1,1-2.29-2.18l59.1-62.39a1.57,1.57,0,0,1,1.14-.49h0a1.56,1.56,0,0,1,1.14.5L231,304.79a1.58,1.58,0,0,1-.07,2.24A1.54,1.54,0,0,1,229.83,307.46Z" style="fill:#263238"></path><path d="M107.68,317a1.71,1.71,0,0,1-.59-.11,1.59,1.59,0,0,1-.89-2.06l31.2-79a1.58,1.58,0,0,1,2.95,1.16l-31.2,79A1.59,1.59,0,0,1,107.68,317Z" style="fill:#263238"></path><path d="M231.42,305l4.13,10.89a1.27,1.27,0,0,1,0,.28.67.67,0,0,1,0,.2,1.23,1.23,0,0,1-.62.68,2.78,2.78,0,0,1-2.51,0,1.18,1.18,0,0,1-.49-.51v0l0-.15-3.83-10.2Z" style="fill:#BA68C8"></path><path d="M109.83,305l-4.13,10.89a1.26,1.26,0,0,0,0,.28v.2a1.3,1.3,0,0,0,.63.68,2.78,2.78,0,0,0,2.51,0,1.09,1.09,0,0,0,.48-.51v0l0-.15,3.83-10.2Z" style="fill:#BA68C8"></path><path d="M172.45,344.52v9a.89.89,0,0,1-.54.74,2.86,2.86,0,0,1-2.58,0,.9.9,0,0,1-.53-.74v-9A3.87,3.87,0,0,1,172.45,344.52Z" style="fill:#BA68C8"></path><path d="M230.19,240.68c0-2.38-2.09-4.92-6.51-7.79-8.17-5.3-26.41-15.93-37.84-22.26a.12.12,0,0,0-.09-.1c-8.8-5.33-17-30.74-23.08-50.05-2.07-6.58-4.62-10.31-7.63-12.06-.71-.41-3.34-1.87-3.93-2.22-6-3.58-13.81.72-23.57,6.06-9,4.93-16,11.23-17.43,27.94-.86,10.18,0,29.63,2,44.38v0c3,24.63,6.66,24.67,12,28.79,9.18,7.1,29.86,17.07,38.57,20.49,15.8,6.22,28.72-3.36,38.34-8.12a223.26,223.26,0,0,0,25.51-15.11c2.41-1.75,3.66-3.52,3.64-5.38C230.18,244.49,230.19,241.45,230.19,240.68Z" style="fill:#BA68C8"></path><path d="M230.19,240.68c0-2.38-2.09-4.92-6.51-7.79-8.17-5.3-26.41-15.93-37.84-22.26a.12.12,0,0,0-.09-.1c-8.8-5.33-17-30.74-23.08-50.05-2.07-6.58-4.62-10.31-7.63-12.06-.71-.41-3.34-1.87-3.93-2.22-6-3.58-13.81.72-23.57,6.06-9,4.93-16,11.23-17.43,27.94-.86,10.18,0,29.63,2,44.38v0c3,24.63,6.66,24.67,12,28.79,9.18,7.1,29.86,17.07,38.57,20.49,15.8,6.22,28.72-3.36,38.34-8.12a223.26,223.26,0,0,0,25.51-15.11c2.41-1.75,3.66-3.52,3.64-5.38C230.18,244.49,230.19,241.45,230.19,240.68Z" style="opacity:0.25"></path><path d="M154.69,148.22c-5.91-3.11-13.6,1.12-23.11,6.33-6.09,3.34-11.28,7.29-14.44,14.7l-4-2.32c3.15-7.38,8.33-11.34,14.41-14.67,9.76-5.34,17.59-9.63,23.57-6.06C151.63,146.51,153.7,147.66,154.69,148.22Z" style="fill:#BA68C8"></path><path d="M223.68,232.89c-5.3-3.44-5.42-4.32-38.1-22.43a.47.47,0,0,1,.15.06c-8.78-5.35-17-30.74-23.06-50-6.18-19.61-16.48-13.93-31.09-5.93-9,4.92-16,11.22-17.43,27.94s1.67,58.16,7.38,63.18c6.22,6.88,31.19,19.67,41.17,23.59,15.8,6.22,28.72-3.37,38.34-8.12A223.26,223.26,0,0,0,226.55,246C232,242.05,231.53,238,223.68,232.89Z" style="fill:#BA68C8"></path><path d="M185.73,210.52h0Z" style="fill:#BA68C8"></path><g style="opacity:0.1"><path d="M131.58,154.55c14.61-8,24.91-13.68,31.09,5.93,6.08,19.31,14.28,44.72,23.08,50.05,0,0-15.08,0-36.93,11.79-22.72,12.27-26.19,24.27-27.23,23.4-5.75-4.76-8.86-46.51-7.44-63.23S122.58,159.47,131.58,154.55Z"></path></g><g id="freepik--character--inject-335"><path d="M228,211.93c-5.81,2.3-10.34,2.94-15.13-4.22-6-9-23.1-51.45-23.1-51.45l10.67-16.52c9.49,2.92,10.85,6.47,16,21.29s9.49,29.59,9.49,29.59" style="fill:#ffa8a7"></path><path d="M199.87,139.46a15.61,15.61,0,0,1,8.42,3.45c3.33,2.91,4.33,5,8.16,15s7.83,21.72,7.83,21.72-9.05,9.51-21,11.6c-.25-1.14-7.64-40.54-7.64-40.54Z" style="fill:#455a64"></path><path d="M234.11,330.83s2.69,15.85,7.48,21.66c4.32,5.24,7.49,12,12.59,17.4,1.12,1.18,3.63,3.37,4.54,4.32a1.92,1.92,0,0,1-.09,3c-2.08,2.16-11.25,3-16.56-.62s-10.67-10.8-13.86-13.78c-1.6-1.49-3.11-2.92-4.21-4a4.17,4.17,0,0,1-1.2-3.93q.13-.6.3-1.44c.58-3-3.83-15-3.83-15Z" style="fill:#ffa8a7"></path><path d="M223.73,362a8.18,8.18,0,0,0,.58,2.85c.54,1.12,3.24,2.76,4.94,3.51a10.82,10.82,0,0,1,5.47,5.41,19.17,19.17,0,0,0,9.27,8.53,27.6,27.6,0,0,0,16.33,1c6.75-1.51,7.13-5.55,7.13-5.55s.2-3.78-1.52-4.31S223.73,362,223.73,362Z" style="fill:#263238"></path><path d="M221.59,345.44a36.15,36.15,0,0,1,.69,9.77c-.1,2-.07,5.1,1.45,6.8,2.12,2.69,6.46,3.41,9.36,7.09s7.21,10.36,16.19,11.75,15.62-1.73,17.16-4.33-.06-4.93-5.9-7.77c-6.2-3-14.59-12.43-14.59-12.43-2.24-2.81-4.51-5.58-6-9.45L237.63,340c-.51-1.34-10.06,1.78-11,3.73l1.3,6.11-2.61-5.74C223.32,344.11,222.87,344.8,221.59,345.44Z" style="fill:#455a64"></path><path d="M243.42,379s-.38-6.23,6.19-10,10.74-1.68,12.86-.29c2.52,1.66,6.18,5.19,4.17,7.95-2.18,3-5.79,4.51-12.64,4.88S243.42,379,243.42,379Z" style="fill:#fafafa"></path><path d="M233.34,358.54a.79.79,0,0,0,.6-.35c.71-1.09,5.43-5.27,10.21-4.16.22-.55-.2-1.1-1.2-1.64-5-.23-9.46,3.7-10.32,5a.72.72,0,0,0,.24,1A.88.88,0,0,0,233.34,358.54Z" style="fill:#fafafa"></path><path d="M247,357.47a2.33,2.33,0,0,0-1.4-1.59c-4.72.1-8.88,3.77-9.71,5a.71.71,0,0,0,.24,1,.73.73,0,0,0,.47.11.75.75,0,0,0,.6-.34C237.9,360.64,242.38,356.68,247,357.47Z" style="fill:#fafafa"></path><path d="M241.94,350.85a1.36,1.36,0,0,0-1-1.82c-5.45-1-10.63,3.44-11.57,4.87a.73.73,0,0,0,.25,1,.79.79,0,0,0,1.06-.24C231.44,353.51,236.83,348.77,241.94,350.85Z" style="fill:#fafafa"></path><path d="M254.74,364.8a4.3,4.3,0,0,0-2.2-1.9c-4.89-.11-9.27,3.73-10.12,5a.72.72,0,0,0,.24,1,.8.8,0,0,0,.47.11.81.81,0,0,0,.6-.34C244.49,367.56,249.7,363,254.74,364.8Z" style="fill:#fafafa"></path><path d="M239.87,365.55a.73.73,0,0,0,.59-.34c.71-1.08,5.34-5.17,10.06-4.19a2.65,2.65,0,0,0-1.66-1.63c-4.72.1-8.87,3.77-9.7,5a.71.71,0,0,0,.24,1A.72.72,0,0,0,239.87,365.55Z" style="fill:#fafafa"></path><path d="M133.05,217.52c-2.31,12.27-2.33,18.29,1.85,26.94,4.3,8.88,17.61,16.27,30.39,24,11.84,7.16,24.6,15,27.54,16.83,3.17,2,4.82,3.19,5.59,8.35.9,6,4,15.68,10.67,28.19,7.64,14.29,10.64,21.45,10.64,21.45s9.3-3.29,16.38-6.45c0,0-14.06-58.43-17.09-66.27s-34-32.35-34-32.35,2.69-12.72,4.68-22Z" style="fill:#37474f"></path><path d="M273.7,316s4.51,12.93,8,18.95a93.44,93.44,0,0,0,12.37,17.08c1.09,1.17,3.55,3.31,4.45,4.25a1.89,1.89,0,0,1-.08,2.91c-2.05,2.13-11.06,3-16.27-.61s-10.47-10.6-13.61-13.53c-1.58-1.46-3-2.87-4.14-3.9a4.09,4.09,0,0,1-1.17-3.85c.09-.4.18-.87.29-1.42.58-2.94-3.76-14.75-3.76-14.75Z" style="fill:#ffa8a7"></path><path d="M177.35,201.92c-1.44,9.27-1.83,14.51,1.64,23.75s11.36,23.88,24.55,30.87c10.92,5.79,25.11,12.9,28.15,14.61,2.73,1.53,4.89,3.57,6.09,10.23,1.08,6,4.4,12.82,11.67,25,7.67,12.87,10.65,19.92,10.65,19.92,4.9-2.34,11.28-5.12,15.95-6.26,0,0-16.8-57.38-19.83-65.22s-23.9-19-32.86-23.9-14-8-24.23-14.56Z" style="fill:#37474f"></path><path d="M264.06,344.27a8,8,0,0,0,.57,2.8c.53,1.1,3.18,2.71,4.86,3.45a10.62,10.62,0,0,1,5.36,5.31A18.86,18.86,0,0,0,284,364.2a27,27,0,0,0,16,1c6.63-1.49,7-5.45,7-5.45s.2-3.72-1.49-4.23S264.06,344.27,264.06,344.27Z" style="fill:#263238"></path><path d="M262,328a36,36,0,0,1,.68,9.59c-.1,2-.07,5,1.42,6.68,2.09,2.64,6.35,3.35,9.19,7s7.08,10.18,15.9,11.54,15.34-1.69,16.85-4.25-.06-4.84-5.79-7.63c-6.09-3-14.33-12.2-14.33-12.2-2.2-2.77-4.42-5.48-5.88-9.29L278.08,323c-.5-1.31-10.05,1.37-11,3.28l1.32,5.83-2.76-5.43Z" style="fill:#455a64"></path><path d="M283.4,360.92s-.38-6.11,6.07-9.77,10.55-1.64,12.63-.28c2.48,1.63,6.07,5.1,4.09,7.81-2.13,2.93-5.68,4.42-12.41,4.79S283.4,360.92,283.4,360.92Z" style="fill:#fafafa"></path><path d="M273.5,340.86a.74.74,0,0,0,.58-.34c.71-1.07,5.34-5.18,10-4.08.22-.55-.2-1.09-1.17-1.62-4.89-.22-9.29,3.64-10.14,4.93a.7.7,0,0,0,.24,1A.75.75,0,0,0,273.5,340.86Z" style="fill:#fafafa"></path><path d="M286.92,339.81a2.31,2.31,0,0,0-1.39-1.56c-4.63.1-8.71,3.71-9.53,4.95a.71.71,0,0,0,.24,1,.87.87,0,0,0,.46.11.79.79,0,0,0,.59-.34C278,342.92,282.37,339,286.92,339.81Z" style="fill:#fafafa"></path><path d="M281.94,333.32a1.33,1.33,0,0,0-1-1.79c-5.36-1-10.45,3.37-11.37,4.78a.71.71,0,0,0,.24,1,.75.75,0,0,0,.46.11.81.81,0,0,0,.59-.34C271.63,335.92,276.93,331.27,281.94,333.32Z" style="fill:#fafafa"></path><path d="M294.51,347a4.23,4.23,0,0,0-2.16-1.86c-4.8-.11-9.1,3.66-9.94,4.94a.71.71,0,0,0,.24,1,.87.87,0,0,0,.46.11.77.77,0,0,0,.59-.34C284.44,349.72,289.57,345.22,294.51,347Z" style="fill:#fafafa"></path><path d="M279.91,347.75a.74.74,0,0,0,.58-.34c.7-1.06,5.24-5.08,9.88-4.11a2.63,2.63,0,0,0-1.63-1.6c-4.64.1-8.72,3.7-9.53,4.94a.7.7,0,0,0,.24,1A.75.75,0,0,0,279.91,347.75Z" style="fill:#fafafa"></path><path d="M195.65,227.56s-7.16,8.18-10.61,10.65l3.23,2.8S194.76,232.77,195.65,227.56Z" style="fill:#263238"></path><polygon points="185.04 238.21 210.32 260.1 223.45 266.85 211.17 257.39 187.75 236.93 185.04 238.21" style="fill:#263238"></polygon><path d="M150,146.73c-3.23,4.41-13.63,29.37-18.47,79.76,8.47,10.11,56.18,11.94,70.78-8.1,0,0-1.11-4.52-3.48-13.64,1.79-13.17,9.63-32,9.85-38.23.25-6.86,3-22.14-8.77-27.06l-17.92-2-25.56,1.76A71,71,0,0,0,150,146.73Z" style="fill:#f5f5f5"></path><path d="M174.26,84.77s-4.86.07-7,3.46c-1.91,2.94-2.29,10.56-1.27,19s2.32,13.68,3.23,16.11a6.36,6.36,0,0,0,3.29,3.37l1-9.81.48-6.85s5.11-5.43,6.19-10.26c1.4-6.22.39-9,.39-9Z" style="fill:#37474f"></path><path d="M179.33,96.62a18.39,18.39,0,1,0,20.44-16.07A18.37,18.37,0,0,0,179.33,96.62Z" style="fill:#37474f"></path><path d="M174.3,109.05c-1.82,1.22-2.7-2.63-3.91-4.24s-5.47-4.11-8.28.34.66,11.64,3.84,13.61c4.65,2.89,7.47-1.81,7.47-1.81l-2.21,22.16s.79,4.29,8.87,8.3c6.3,3.14,16.44.44,11.09-6.59l.79-6.7s5.43,1.5,8.18,1.41c4.57-.16,7.82-3.36,9.76-8.06,3.12-7.54,4-19.31,2.9-34.84-4.54-4.5-21-7.14-32.32-1.75C179.59,104.42,176.11,107.82,174.3,109.05Z" style="fill:#ffa8a7"></path><path d="M217.71,81.07a.85.85,0,0,0-.6-.58,1.09,1.09,0,0,0-.64.19,28.74,28.74,0,0,1-4.33,2.2,14.37,14.37,0,0,0,.74-5.44c-.06-1.13-.06-3.73-1.39-4.17-.8-.27-1.59.33-2.27.82-6.11,4.46-13,1.2-19.61.6-5.55-.51-12.49.92-15.65,6-1.44,2.31-2,4.88.09,6.86a15.85,15.85,0,0,0,6.43,3.34c10.77,3.27,25.12,8.86,34.52-.39a9.69,9.69,0,0,0,2.84-4.81,8.05,8.05,0,0,0-.11-4.54A.14.14,0,0,1,217.71,81.07Z" style="fill:#BA68C8"></path><path d="M217.71,81.07a.85.85,0,0,0-.6-.58,1.09,1.09,0,0,0-.64.19,28.74,28.74,0,0,1-4.33,2.2,14.37,14.37,0,0,0,.74-5.44c-.06-1.13-.06-3.73-1.39-4.17-.8-.27-1.59.33-2.27.82-6.11,4.46-13,1.2-19.61.6-5.55-.51-12.49.92-15.65,6-1.44,2.31-2,4.88.09,6.86a15.85,15.85,0,0,0,6.43,3.34c10.77,3.27,25.12,8.86,34.52-.39a9.69,9.69,0,0,0,2.84-4.81,8.05,8.05,0,0,0-.11-4.54A.14.14,0,0,1,217.71,81.07Z" style="opacity:0.2"></path><path d="M192,134.12s-9.78-3.22-13.06-5.5a11.65,11.65,0,0,1-4.26-5.37,15.93,15.93,0,0,0,2.07,6c2.17,3.58,14.93,7.55,14.93,7.55Z" style="fill:#f28f8f"></path><path d="M195.74,110.42a2,2,0,0,1-2.25,1.84,2.11,2.11,0,1,1,2.25-1.84Z" style="fill:#263238"></path><path d="M193.72,124.76a2,2,0,1,1-1.76-2.33A2.06,2.06,0,0,1,193.72,124.76Z" style="fill:#f28f8f"></path><path d="M194.13,101.32l-4.76,1.3a2.59,2.59,0,0,1,1.79-3.11A2.4,2.4,0,0,1,194.13,101.32Z" style="fill:#263238"></path><path d="M212.81,104.09l-4.57-2a2.39,2.39,0,0,1,3.19-1.36A2.62,2.62,0,0,1,212.81,104.09Z" style="fill:#263238"></path><path d="M211.35,111.56a2,2,0,1,1-4-.49,2,2,0,0,1,2.25-1.84A2.06,2.06,0,0,1,211.35,111.56Z" style="fill:#263238"></path><path d="M215,90.49a9.69,9.69,0,0,0,2.84-4.81,8.05,8.05,0,0,0-.11-4.54c.88,3.22-.24,8.07-7.64,10.31S194,91,189.21,90a15.09,15.09,0,0,0-8.73.87C191.25,94.15,205.6,99.74,215,90.49Z" style="opacity:0.2"></path><path d="M217.57,106.35l-.83-.17c-2.71-.52-6.28-.9-8.52-.43-2.8.58-3.86,1.4-5.36,1.28s-2.5-1.12-5.3-2.16c-2.22-.83-6.06-1.06-9-1l-.92,0a1.48,1.48,0,0,0-1.18,1.39,3.17,3.17,0,0,0,.66,1.78,2.28,2.28,0,0,1,.22.72,28.23,28.23,0,0,0,.54,4.81,5.73,5.73,0,0,0,1,1.8,6.88,6.88,0,0,0,.53.55l.32.25a5.16,5.16,0,0,0,1,.56l.16.06.27.11.27.09a8.78,8.78,0,0,0,.88.21l.38.06.48,0c3.72.33,5.48-1.28,6.62-3s1.21-4.26,2.92-4.11l.17,0,.15,0c1.23.39.8,2.7,1.39,4.44a6.65,6.65,0,0,0,1,1.92,3.88,3.88,0,0,0,.26.31,1741537566675.08,1741537566675.08,0,0,0,.28.28l.14.12.14.12a.47.47,0,0,0,.12.09.27.27,0,0,1,.08.07,5.37,5.37,0,0,0,1.42.7l.13,0a8.05,8.05,0,0,0,1.79.33,5.47,5.47,0,0,0,5.65-2.85,30.29,30.29,0,0,0,1.63-4.64,1.45,1.45,0,0,1,.39-.59,3.37,3.37,0,0,0,1-1.68A1.39,1.39,0,0,0,217.57,106.35Zm-18.66,5.21a5.55,5.55,0,0,1-1.59,2.39h0a5.49,5.49,0,0,1-4.23,1.09,4.44,4.44,0,0,1-3.68-2.14l-.1-.19a1.07,1.07,0,0,1-.09-.19,1.3,1.3,0,0,1-.08-.17l-.06-.16-.05-.12a.56.56,0,0,0,0-.12,1.21,1.21,0,0,1-.05-.18h0a4.2,4.2,0,0,1-.13-.54v0l-.06-.32c0-.19-.05-.36-.06-.52a.28.28,0,0,1,0-.09v-.1c-.14-1.27-.19-3.76.52-4.26s2.47-.94,5.21-.45l.29.06a10.7,10.7,0,0,1,1.24.31l.47.16c.42.15.83.32,1.19.49l.36.19c.14.07.26.15.38.22l.08,0a.71.71,0,0,1,.14.1,2.36,2.36,0,0,1,.75.72C199.75,108.58,199.39,110.19,198.91,111.56Zm16.23.8c-.33,1-1,3-3.1,3.79a5,5,0,0,1-2.11.27,4.39,4.39,0,0,1-3.92-2.21,0,0,0,0,1,0,0,1.39,1.39,0,0,1-.06-.13.61.61,0,0,1-.07-.14l0-.07-.09-.21-.08-.24s0-.07,0-.11a.19.19,0,0,0,0-.07s0-.06,0-.1a.19.19,0,0,1,0-.07,5.38,5.38,0,0,1-.15-1c-.12-1.41-.08-3,.54-3.77s2.76-1.4,4.75-1.48c.46,0,.89,0,1.29,0h.31l.44.05.16,0,.21,0,.34.06c.22,0,.43.11.62.17l.15,0h0l.1,0,.14.05.18.08.29.14.05,0a2.25,2.25,0,0,1,.63.48C216.19,108.7,215.56,111.13,215.14,112.36Z" style="fill:#37474f"></path><path d="M187.72,104.16,168,103a5.62,5.62,0,0,1,2.74,2.36l16.4,1.14Z" style="fill:#37474f"></path><path d="M201.56,109.63l-.9,10.51,6.85-1.51-5.18-9.42A1.49,1.49,0,0,0,201.56,109.63Z" style="fill:#f28f8f"></path></g><polygon points="266.8 336.32 149.67 268.7 306.42 178.57 423.55 246.2 266.8 336.32" style="fill:#455a64"></polygon><polygon points="149.67 268.7 149.67 376.13 155.84 379.69 155.84 289.35 260.63 349.86 260.63 440.19 266.8 443.75 266.8 336.32 149.67 268.7" style="fill:#263238"></polygon><polygon points="155.84 379.69 162 376.13 162 292.91 155.84 289.35 155.84 379.69"></polygon><polygon points="266.8 443.75 272.96 440.19 272.96 349.86 417.38 266.85 417.38 357.18 423.55 353.63 423.55 246.2 266.8 336.32 266.8 443.75" style="fill:#37474f"></polygon><polygon points="417.38 357.18 411.22 353.63 411.22 270.41 417.38 266.85 417.38 357.18" style="fill:#263238"></polygon><path d="M297.46,235.13a2.32,2.32,0,0,1-1.16-.29l-31.75-18.28a1.21,1.21,0,0,1,0-2.2l41.09-23.74,34.82,20-41.83,24.17A2.33,2.33,0,0,1,297.46,235.13Z" style="opacity:0.2"></path><path d="M306.94,190.87l-40.9,22-.67,1.06v.85a1.22,1.22,0,0,0,.67,1.05l30.49,17.56a2.38,2.38,0,0,0,2.24,0L339,210.15v-.85Z" style="fill:#BA68C8"></path><path d="M306.94,190.87l-40.9,22-.67,1.06v.85a1.22,1.22,0,0,0,.67,1.05l30.49,17.56a2.38,2.38,0,0,0,2.24,0L339,210.15v-.85Z" style="opacity:0.2"></path><path d="M297.65,232.78a2.26,2.26,0,0,1-1.12-.27L266,215a1.17,1.17,0,0,1,0-2.11L305.51,190,339,209.3l-40.18,23.21A2.26,2.26,0,0,1,297.65,232.78Z" style="fill:#BA68C8"></path><path d="M305.5,187.54l-39.11,22.6-.31.44v3.32h0a.53.53,0,0,0,.31.44l30.49,17.55a1.67,1.67,0,0,0,1.54,0l39.11-22.59V206Z" style="fill:#f5f5f5"></path><path d="M337.53,206l-.38.23-5,2.9-.93.54-32.77,18.93a1.72,1.72,0,0,1-1.53,0L266.39,211a.46.46,0,0,1,0-.88l.41-.24,38.7-22.36,31.65,18.22.09.06Z" style="fill:#ebebeb"></path><path d="M297.65,228.76v3.32a1.43,1.43,0,0,1-.76-.19l-30.5-17.55a.53.53,0,0,1-.31-.45v-3.31a.53.53,0,0,0,.31.44l30.5,17.56A1.53,1.53,0,0,0,297.65,228.76Z" style="fill:#e0e0e0"></path><path d="M337.53,205.54,332,208.75l-.87.5-32.68,18.89a1.72,1.72,0,0,1-1.53,0l-26-15c-.35-.19-.67-.38-1-.56a9.56,9.56,0,0,1-3.12-2.72l-.07-.11a.77.77,0,0,1-.1-.23.69.69,0,0,1,.54-.78,14.06,14.06,0,0,0,2.91-1.21l0,0L305.5,187.1Z" style="fill:#fafafa"></path><path d="M331.78,205.15a.44.44,0,0,0,0,.83,1.57,1.57,0,0,0,1.43,0,.44.44,0,0,0,0-.83A1.57,1.57,0,0,0,331.78,205.15Z" style="opacity:0.1"></path><path d="M336.38,202.47a1.88,1.88,0,0,0-1.93.13,6,6,0,0,0-2.42,3.49,1.54,1.54,0,0,0,.53.06,5.38,5.38,0,0,1,2.16-3.09,1.89,1.89,0,0,1,.87-.27,1,1,0,0,1,.52.14,2,2,0,0,1,.73,1.77,3.11,3.11,0,0,1,0,.43l.51.29a5.81,5.81,0,0,0,.05-.72A2.45,2.45,0,0,0,336.38,202.47Z" style="fill:#BA68C8"></path><path d="M337.27,205.69l0,.13-.09-.06Z" style="fill:#263238"></path><path d="M327.46,202.66a.44.44,0,0,0,0,.83,1.57,1.57,0,0,0,1.43,0,.44.44,0,0,0,0-.83A1.57,1.57,0,0,0,327.46,202.66Z" style="opacity:0.1"></path><path d="M332.06,200a1.87,1.87,0,0,0-1.92.13,6,6,0,0,0-2.42,3.49,1.49,1.49,0,0,0,.52.06,5.47,5.47,0,0,1,2.16-3.09,1.78,1.78,0,0,1,.88-.27,1,1,0,0,1,.52.14,2,2,0,0,1,.72,1.77,3.17,3.17,0,0,1,0,.43l.5.29a4.43,4.43,0,0,0,.05-.72A2.45,2.45,0,0,0,332.06,200Z" style="fill:#BA68C8"></path><path d="M323.15,200.17a.44.44,0,0,0,0,.83,1.57,1.57,0,0,0,1.43,0,.44.44,0,0,0,0-.83A1.57,1.57,0,0,0,323.15,200.17Z" style="opacity:0.1"></path><path d="M327.75,197.49a1.88,1.88,0,0,0-1.93.13,6,6,0,0,0-2.42,3.48,1.34,1.34,0,0,0,.53.07,5.38,5.38,0,0,1,2.16-3.09,1.78,1.78,0,0,1,.88-.27,1,1,0,0,1,.51.14,2,2,0,0,1,.73,1.77,3,3,0,0,1,0,.42l.51.29a5.78,5.78,0,0,0,.05-.71A2.44,2.44,0,0,0,327.75,197.49Z" style="fill:#BA68C8"></path><path d="M318.83,197.68a.44.44,0,0,0,0,.83,1.57,1.57,0,0,0,1.43,0,.44.44,0,0,0,0-.83A1.57,1.57,0,0,0,318.83,197.68Z" style="opacity:0.1"></path><path d="M323.43,195a1.87,1.87,0,0,0-1.92.13,6,6,0,0,0-2.42,3.48,1.29,1.29,0,0,0,.52.07,5.43,5.43,0,0,1,2.16-3.09,1.78,1.78,0,0,1,.88-.27,1,1,0,0,1,.52.14,2,2,0,0,1,.72,1.77,3,3,0,0,1,0,.42l.5.29a4.31,4.31,0,0,0,.05-.71A2.44,2.44,0,0,0,323.43,195Z" style="fill:#BA68C8"></path><path d="M314.52,195.19a.44.44,0,0,0,0,.83,1.57,1.57,0,0,0,1.43,0,.44.44,0,0,0,0-.83A1.57,1.57,0,0,0,314.52,195.19Z" style="opacity:0.1"></path><path d="M319.12,192.5a1.91,1.91,0,0,0-1.93.14,6,6,0,0,0-2.42,3.48,1.34,1.34,0,0,0,.53.07,5.34,5.34,0,0,1,2.16-3.09,1.78,1.78,0,0,1,.88-.27,1.1,1.1,0,0,1,.51.13,2,2,0,0,1,.73,1.78,3,3,0,0,1,0,.42l.51.29a5.78,5.78,0,0,0,.05-.71A2.47,2.47,0,0,0,319.12,192.5Z" style="fill:#BA68C8"></path><path d="M310.2,192.7a.44.44,0,0,0,0,.83,1.57,1.57,0,0,0,1.43,0,.44.44,0,0,0,0-.83A1.57,1.57,0,0,0,310.2,192.7Z" style="opacity:0.1"></path><path d="M314.8,190a1.89,1.89,0,0,0-1.92.14,6,6,0,0,0-2.42,3.48,1.49,1.49,0,0,0,.52.07,5.4,5.4,0,0,1,2.16-3.09,1.78,1.78,0,0,1,.88-.27,1,1,0,0,1,.52.13,2,2,0,0,1,.72,1.78,3,3,0,0,1,0,.42l.5.29a4.31,4.31,0,0,0,.05-.71A2.47,2.47,0,0,0,314.8,190Z" style="fill:#BA68C8"></path><path d="M305.89,190.21a.44.44,0,0,0,0,.83,1.57,1.57,0,0,0,1.43,0,.44.44,0,0,0,0-.83A1.57,1.57,0,0,0,305.89,190.21Z" style="opacity:0.1"></path><path d="M310.49,187.52a1.91,1.91,0,0,0-1.93.14,6,6,0,0,0-2.42,3.48,1.54,1.54,0,0,0,.53.06,5.32,5.32,0,0,1,2.16-3.08,1.78,1.78,0,0,1,.88-.27,1,1,0,0,1,.51.13,2,2,0,0,1,.73,1.78,3,3,0,0,1,0,.42l.51.29a5.78,5.78,0,0,0,.05-.71A2.47,2.47,0,0,0,310.49,187.52Z" style="fill:#BA68C8"></path><g style="opacity:0.30000000000000004"><path d="M336.38,202.47a1.88,1.88,0,0,0-1.93.13,6,6,0,0,0-2.42,3.49,1.54,1.54,0,0,0,.53.06,5.38,5.38,0,0,1,2.16-3.09,1.89,1.89,0,0,1,.87-.27,1,1,0,0,1,.52.14,2,2,0,0,1,.73,1.77,3.11,3.11,0,0,1,0,.43l.51.29a5.81,5.81,0,0,0,.05-.72A2.45,2.45,0,0,0,336.38,202.47Z"></path><path d="M332.06,200a1.87,1.87,0,0,0-1.92.13,6,6,0,0,0-2.42,3.49,1.49,1.49,0,0,0,.52.06,5.47,5.47,0,0,1,2.16-3.09,1.78,1.78,0,0,1,.88-.27,1,1,0,0,1,.52.14,2,2,0,0,1,.72,1.77,3.17,3.17,0,0,1,0,.43l.5.29a4.43,4.43,0,0,0,.05-.72A2.45,2.45,0,0,0,332.06,200Z"></path><path d="M327.75,197.49a1.88,1.88,0,0,0-1.93.13,6,6,0,0,0-2.42,3.48,1.34,1.34,0,0,0,.53.07,5.38,5.38,0,0,1,2.16-3.09,1.78,1.78,0,0,1,.88-.27,1,1,0,0,1,.51.14,2,2,0,0,1,.73,1.77,3,3,0,0,1,0,.42l.51.29a5.78,5.78,0,0,0,.05-.71A2.44,2.44,0,0,0,327.75,197.49Z"></path><path d="M323.43,195a1.87,1.87,0,0,0-1.92.13,6,6,0,0,0-2.42,3.48,1.29,1.29,0,0,0,.52.07,5.43,5.43,0,0,1,2.16-3.09,1.78,1.78,0,0,1,.88-.27,1,1,0,0,1,.52.14,2,2,0,0,1,.72,1.77,3,3,0,0,1,0,.42l.5.29a4.31,4.31,0,0,0,.05-.71A2.44,2.44,0,0,0,323.43,195Z"></path><path d="M319.12,192.5a1.91,1.91,0,0,0-1.93.14,6,6,0,0,0-2.42,3.48,1.34,1.34,0,0,0,.53.07,5.34,5.34,0,0,1,2.16-3.09,1.78,1.78,0,0,1,.88-.27,1.1,1.1,0,0,1,.51.13,2,2,0,0,1,.73,1.78,3,3,0,0,1,0,.42l.51.29a5.78,5.78,0,0,0,.05-.71A2.47,2.47,0,0,0,319.12,192.5Z"></path><path d="M314.8,190a1.89,1.89,0,0,0-1.92.14,6,6,0,0,0-2.42,3.48,1.49,1.49,0,0,0,.52.07,5.4,5.4,0,0,1,2.16-3.09,1.78,1.78,0,0,1,.88-.27,1,1,0,0,1,.52.13,2,2,0,0,1,.72,1.78,3,3,0,0,1,0,.42l.5.29a4.31,4.31,0,0,0,.05-.71A2.47,2.47,0,0,0,314.8,190Z"></path><path d="M310.49,187.52a1.91,1.91,0,0,0-1.93.14,6,6,0,0,0-2.42,3.48,1.54,1.54,0,0,0,.53.06,5.32,5.32,0,0,1,2.16-3.08,1.78,1.78,0,0,1,.88-.27,1,1,0,0,1,.51.13,2,2,0,0,1,.73,1.78,3,3,0,0,1,0,.42l.51.29a5.78,5.78,0,0,0,.05-.71A2.47,2.47,0,0,0,310.49,187.52Z"></path></g><path d="M298.15,225.79a1.93,1.93,0,0,1-1-.25l-1.81-1a.77.77,0,0,1-.45-.62.6.6,0,0,1,.33-.5l30.56-17.61a1.94,1.94,0,0,1,1.75.07l1.81,1a.8.8,0,0,1,.45.62.58.58,0,0,1-.34.5l-30.56,17.61A1.53,1.53,0,0,1,298.15,225.79Zm27.74-19.86-30.56,17.61a.4.4,0,0,0-.24.34.6.6,0,0,0,.36.46l1.81,1a1.76,1.76,0,0,0,1.56.07l30.56-17.62a.4.4,0,0,0,.24-.34c0-.16-.13-.32-.35-.46l-1.81-1a1.75,1.75,0,0,0-1.57-.07Z" style="fill:#e0e0e0"></path><polygon points="296.35 225.02 296.26 224.86 328.36 206.36 328.45 206.52 296.35 225.02" style="fill:#e0e0e0"></polygon><path d="M292.64,222.63a1.75,1.75,0,0,1-.87-.21l-19.94-11.55a.6.6,0,0,1,0-1.12l30.44-17.55a1.93,1.93,0,0,1,1.75,0L324,203.76a.59.59,0,0,1,0,1.11l-30.44,17.55A1.78,1.78,0,0,1,292.64,222.63Zm10.5-30.45a1.66,1.66,0,0,0-.78.18l-30.44,17.55a.42.42,0,0,0,0,.8l19.94,11.55a1.72,1.72,0,0,0,1.56,0l30.44-17.55a.41.41,0,0,0,0-.79l-19.94-11.56A1.61,1.61,0,0,0,303.14,192.18Z" style="fill:#e0e0e0"></path><rect x="288.36" y="212.43" width="37.05" height="0.18" transform="translate(-65.13 181.73) rotate(-29.97)" style="fill:#e0e0e0"></rect><rect x="286.56" y="211.39" width="37.05" height="0.18" transform="translate(-64.85 180.69) rotate(-29.97)" style="fill:#e0e0e0"></rect><rect x="284.76" y="210.35" width="37.05" height="0.18" transform="translate(-64.57 179.65) rotate(-29.97)" style="fill:#e0e0e0"></rect><rect x="282.95" y="209.3" width="37.05" height="0.18" transform="translate(-64.29 178.61) rotate(-29.97)" style="fill:#e0e0e0"></rect><rect x="281.15" y="208.26" width="37.05" height="0.18" transform="translate(-64.01 177.57) rotate(-29.97)" style="fill:#e0e0e0"></rect><rect x="279.35" y="207.22" width="37.05" height="0.18" transform="translate(-63.73 176.53) rotate(-29.97)" style="fill:#e0e0e0"></rect><rect x="277.55" y="206.18" width="37.05" height="0.18" transform="translate(-63.45 175.49) rotate(-29.97)" style="fill:#e0e0e0"></rect><rect x="275.75" y="205.13" width="37.05" height="0.18" transform="translate(-63.17 174.45) rotate(-29.97)" style="fill:#e0e0e0"></rect><rect x="273.94" y="204.09" width="37.05" height="0.18" transform="translate(-62.89 173.41) rotate(-29.97)" style="fill:#e0e0e0"></rect><rect x="272.14" y="203.05" width="37.05" height="0.18" transform="translate(-62.61 172.37) rotate(-29.97)" style="fill:#e0e0e0"></rect><rect x="270.34" y="202" width="37.05" height="0.18" transform="translate(-62.33 171.33) rotate(-29.97)" style="fill:#e0e0e0"></rect><g style="opacity:0.5"><path d="M303,215.8c0,.09.11.09.13,0a.58.58,0,0,1,.61-.56,2.11,2.11,0,0,1,.71,0,.07.07,0,0,0,.08-.05,2.88,2.88,0,0,1,.2-.65c.16.13.36.26.5.07s0-.92.44-.52a.07.07,0,0,0,.11,0c.23-.36.49-.38.67-.16a2.13,2.13,0,0,0,.18.37c.07.09.13-.05.12-.11a1.92,1.92,0,0,0-.11-.31,1.07,1.07,0,0,1,.21-.83c.39-.28.85.38.91.7h0v0c0,.14.18.06.16-.06a.09.09,0,0,0,0,0,1.41,1.41,0,0,1,.14-.92c.21-.36.48-.18.71.09.07.08.13,0,.13-.09,0-.44.35-1.06.76-.53.06.07.12,0,.14,0s.09-.34.13-.52a2.06,2.06,0,0,1,.12-.35q0-.28.18-.06c.15.09.26.33.47.31s.32-.42.31-.69c.16.08.37.17.53.07s.21-.36.24-.55c.13.12.29.25.47.13s.23-.42.28-.64a.79.79,0,0,1,.46.4c.05.08.1,0,.11-.06,0-.21-.06-.58.05-.76.22-.38.68.29.78.53s.18.09.18,0c0-.39-.11-1.59.51-1.53a.75.75,0,0,1,.29.11,1.38,1.38,0,0,0,.77,1.67.08.08,0,0,0,.11,0,1.81,1.81,0,0,0-.63-1.73,1.08,1.08,0,0,1,.18-.24c.22-.21.53-.07.71-.29s.05-.17.24-.3.25-.08.41.06a1.5,1.5,0,0,1,.2.24c0,.08.12,0,.13-.06s0-.53.24-.58.39.15.51.25.12,0,.13-.05a1.64,1.64,0,0,0,.05-.32.76.76,0,0,1,0-.21c.06-.17.32-.47.45,0,0,.13.18.09.18,0a1.28,1.28,0,0,1,.33-.91.75.75,0,0,1,.45-.23h0a1.17,1.17,0,0,0-.05.2c0,.23.09.6.35.67s.4-.14.45-.34a.62.62,0,0,0-.34-.67h0a2.27,2.27,0,0,1,.52-.25,1.46,1.46,0,0,0,.45-.18c.05,0,.09-.18.14-.2.4-.21.2.06.4.05a.63.63,0,0,0,.64-.51c.33.33.61-.17.72-.54.14.2.31.53.55.58s.46-.16.63-.3c0,0,0,0,0,0-.22.16-.45.35-.71.15a2.77,2.77,0,0,1-.44-.58s-.07,0-.08,0c-.05.24-.32.93-.64.47,0-.06-.09,0-.11,0-.09.39-.29.5-.67.41-.16,0-.19-.07-.34,0s-.12.19-.24.26l-.19.07a3.55,3.55,0,0,0-.54.21,1,1,0,0,0-.3.21c-.57-.13-1,.47-1.11,1a.35.35,0,0,0-.49-.05c-.2.16-.18.46-.2.71-.18-.15-.4-.29-.62-.18a.68.68,0,0,0-.26.55c-.21-.25-.53-.46-.79-.18s.2.19-.4.4c-.08,0-.16,0-.25,0a1.05,1.05,0,0,0-.4.41l0,.07-.22-.13c-.83-.36-.9.67-.89,1.35-.17-.26-.42-.52-.68-.5s-.32.59-.27,1a1,1,0,0,0-.46-.32s-.06,0-.07,0a3.41,3.41,0,0,1-.1.46c-.13.33-.36.21-.54,0,0,0-.08,0-.09,0s-.05.5-.24.57-.39-.12-.51-.2-.1,0-.1.08c0,.23.07.75-.37.51-.14-.08-.23-.25-.38-.33a.07.07,0,0,0-.09,0,2.89,2.89,0,0,0-.33,1c-.44-.5-.88.05-.93.61-.22-.24-.53-.43-.8-.12a1.09,1.09,0,0,0-.25.74c-.23-.36-.58-.65-1-.49s-.41.51-.37.88l-.09,0c-.3-.1-.48.12-.59.36l-.22-.17s-.05,0-.06,0a.67.67,0,0,0-.24.43c0,.07,0,.2,0,.26s-.26,0-.39-.11a.08.08,0,0,0-.1,0c-.22.21-.14.39-.22.65s-.06.14-.28.07a1.13,1.13,0,0,0-.41-.06C303.1,214.91,302.88,215.25,303,215.8Zm17-9.72c0,.14-.13.32-.28.28s-.24-.41-.12-.61C319.73,205.8,319.93,205.91,320,206.08Zm-4.36,3.81a1.09,1.09,0,0,1-.57-1.24A1.7,1.7,0,0,1,315.59,209.89Z"></path><path d="M292.63,209.65a.07.07,0,1,0,.13,0,.58.58,0,0,1,.61-.56,2.41,2.41,0,0,1,.71,0,.07.07,0,0,0,.08,0,3.4,3.4,0,0,1,.2-.64c.16.12.36.26.5.06s0-.92.44-.52c0,0,.08,0,.12,0,.22-.36.48-.38.66-.16a1.28,1.28,0,0,0,.19.37c.06.09.12-.05.11-.11s-.06-.21-.1-.31a1,1,0,0,1,.2-.83c.4-.28.85.39.91.7h0v0c0,.14.18.07.16-.06a.06.06,0,0,0,0,0,1.5,1.5,0,0,1,.14-.93c.21-.36.48-.18.72.09.06.09.12,0,.12-.09,0-.44.35-1.06.76-.52.06.07.12,0,.14-.06s.09-.34.13-.51a2.17,2.17,0,0,1,.12-.36q0-.27.18-.06c.15.09.26.33.47.31s.32-.41.31-.69a.54.54,0,0,0,.53.07c.16-.1.21-.36.24-.55.13.12.29.25.47.14s.24-.43.28-.65a.84.84,0,0,1,.47.4c0,.08.1,0,.1-.06,0-.21-.06-.58,0-.76.22-.38.69.29.78.53s.19.1.18,0c0-.39-.11-1.58.51-1.53a.56.56,0,0,1,.29.12,1.38,1.38,0,0,0,.77,1.66.07.07,0,0,0,.11,0,1.82,1.82,0,0,0-.63-1.74A1.37,1.37,0,0,1,305,202c.22-.2.53-.07.71-.29s.05-.16.24-.3.25-.08.41.07a1.16,1.16,0,0,1,.2.24c.05.07.12,0,.13-.07s0-.52.24-.58.39.15.51.25.12,0,.14,0,0-.21,0-.31a.78.78,0,0,1,0-.22c.06-.17.32-.47.45,0,0,.13.18.09.18,0a1.29,1.29,0,0,1,.33-.92.69.69,0,0,1,.45-.22h0a.58.58,0,0,0,0,.19c0,.23.08.61.34.67s.4-.14.45-.34a.6.6,0,0,0-.34-.66l0,0a2.21,2.21,0,0,1,.52-.24,2.23,2.23,0,0,0,.45-.18c.05-.05.09-.18.14-.21.4-.21.2.06.4.05a.63.63,0,0,0,.64-.51c.33.33.61-.17.72-.54.14.21.32.53.55.59s.47-.17.63-.31c0,0,0,0,0,0-.21.16-.45.35-.71.15a2.77,2.77,0,0,1-.44-.58s-.07,0-.07,0c-.06.25-.33.93-.65.47,0-.06-.09,0-.1,0-.1.4-.3.51-.68.41-.16,0-.19-.07-.34,0s-.12.2-.24.26a1.07,1.07,0,0,1-.19.07,3.44,3.44,0,0,0-.53.21,1.34,1.34,0,0,0-.3.21c-.58-.13-1,.47-1.12,1a.34.34,0,0,0-.49,0c-.2.15-.18.45-.2.7-.18-.14-.4-.29-.62-.18a.68.68,0,0,0-.26.55c-.21-.24-.53-.46-.79-.18s.2.19-.4.4c-.08,0-.16,0-.25,0a1,1,0,0,0-.39.4s0,.05,0,.08a.85.85,0,0,0-.22-.13c-.83-.37-.9.66-.89,1.34-.17-.26-.42-.51-.68-.5s-.32.59-.27,1a1.15,1.15,0,0,0-.45-.32s-.07,0-.08.06a3.27,3.27,0,0,1-.1.45c-.13.33-.36.21-.54,0,0,0-.08,0-.08.05s-.06.49-.24.57-.39-.12-.52-.21-.1,0-.1.08c0,.24.07.75-.37.51-.14-.08-.22-.25-.37-.33a.08.08,0,0,0-.1,0,3.18,3.18,0,0,0-.33,1c-.44-.5-.88.05-.93.61-.22-.24-.53-.43-.8-.12a1.16,1.16,0,0,0-.25.74c-.23-.35-.58-.65-1-.49a.79.79,0,0,0-.37.88l-.09,0c-.3-.1-.48.12-.59.36l-.22-.17s0,0-.06,0a.69.69,0,0,0-.24.42.8.8,0,0,1,0,.27c-.12.19-.26,0-.39-.12a.08.08,0,0,0-.1,0c-.22.2-.14.39-.21.65s-.07.13-.29.07a1.41,1.41,0,0,0-.41-.07C292.78,208.76,292.56,209.1,292.63,209.65Zm17-9.72c0,.15-.13.32-.28.28s-.24-.4-.12-.61C309.41,199.65,309.61,199.76,309.63,199.93Zm-4.36,3.81a1.09,1.09,0,0,1-.57-1.23A1.63,1.63,0,0,1,305.27,203.74Z"></path><path d="M315.18,203.21a.91.91,0,0,0,.52-.2,6.62,6.62,0,0,1,.65.63c.07.09.13,0,.13-.1a.82.82,0,0,1,.25-.59c.15-.14.25-.1.43-.07s.27-.07.28-.22c.26.11.4-.17.48-.42.12.1.26.17.4.07a.87.87,0,0,0,.3-.47c.22.15.32.57.64.5s.47-.43.53-.67c0-.07-.06-.08-.07,0-.06.23-.33.66-.61.52s-.27-.4-.48-.51a0,0,0,0,0-.06,0c-.13.3-.3.68-.64.34,0,0-.08,0-.09.05-.06.21-.16.56-.44.36-.07,0-.1.05-.09.1,0,.24-.17.12-.3.1a.41.41,0,0,0-.32.08,1.06,1.06,0,0,0-.36.6c-.11-.12-.24-.22-.36-.34a.92.92,0,0,1-.15-.14l0-.08a.54.54,0,0,0-.39-.68.08.08,0,0,0-.08.06.67.67,0,0,0,.18.7c-.13.08-.28.09-.41.16S315.08,203.22,315.18,203.21Zm.33-.88a.29.29,0,0,1,.18.38A.56.56,0,0,1,315.51,202.33Z"></path><path d="M297.91,217.62a.85.85,0,0,0,.53-.2,6.62,6.62,0,0,1,.65.63c.06.09.13,0,.12-.1a.84.84,0,0,1,.26-.59c.14-.14.25-.1.43-.07s.27-.06.28-.22c.26.11.4-.17.48-.42.12.1.25.17.4.07a1,1,0,0,0,.3-.47c.22.15.32.57.64.5s.47-.43.52-.67c0-.07,0-.08-.06,0-.06.23-.33.66-.62.52s-.26-.4-.48-.51a0,0,0,0,0-.05,0c-.13.3-.3.68-.64.34,0,0-.08,0-.09.05-.06.21-.17.56-.44.36-.07-.05-.1,0-.09.11,0,.23-.17.11-.3.09a.41.41,0,0,0-.32.08,1.06,1.06,0,0,0-.36.6c-.11-.12-.25-.22-.36-.33l-.16-.15a.2.2,0,0,0,0-.08.55.55,0,0,0-.39-.68.08.08,0,0,0-.08.06.67.67,0,0,0,.18.7c-.13.08-.28.09-.41.16S297.82,217.63,297.91,217.62Zm.33-.87a.29.29,0,0,1,.19.38A.63.63,0,0,1,298.24,216.75Z"></path><path d="M310.55,207s0,0,0,0,0-.3.15-.33.28.07.38.13.06,0,.07-.07,0-.34.12-.39.29.16.36.24.1,0,.1-.07.11-.69.39-.65a.31.31,0,0,1,.18.09.86.86,0,0,0,.32.78c.07.05.11,0,.11-.09a1.25,1.25,0,0,0-.27-.85.64.64,0,0,1,.22-.44c.17-.13.31,0,.48,0a.27.27,0,0,0,.2-.21c.22.15.36-.09.47-.3.28.22.51,0,.57-.32a.69.69,0,0,0,.43.17c.25,0,.22-.3.18-.47s-.09,0-.08,0c0,.39-.41.1-.54,0s-.14,0-.14.07c0,.28-.17.53-.42.29a.07.07,0,0,0-.09,0c-.07.17-.16.5-.39.29,0,0-.09,0-.09.06-.06.34-.27.12-.49.15a.56.56,0,0,0-.39.41.83.83,0,0,0,0,.15.63.63,0,0,0-.27-.1c-.38,0-.45.42-.46.74-.1-.12-.24-.25-.38-.18s-.17.31-.18.48c-.13-.08-.32-.18-.46-.08S310.5,206.87,310.55,207Z"></path><path d="M284.77,209.57s0,0,0,0,0-.3.15-.33.28.07.38.13.06,0,.07-.07,0-.34.12-.39.29.17.36.24.1,0,.1-.07.11-.69.39-.65a.31.31,0,0,1,.18.09.87.87,0,0,0,.32.79c.07,0,.11,0,.11-.1a1.25,1.25,0,0,0-.27-.85.66.66,0,0,1,.22-.44c.17-.12.31,0,.48,0a.27.27,0,0,0,.2-.21c.22.15.36-.09.47-.3.28.22.51,0,.57-.32a.64.64,0,0,0,.43.17c.25,0,.22-.29.18-.47s-.09,0-.08,0c0,.39-.41.1-.54,0s-.14,0-.14.08c0,.27-.17.52-.42.29a.06.06,0,0,0-.09,0c-.07.17-.16.5-.39.3,0-.05-.09,0-.09.06-.06.33-.27.11-.49.15a.74.74,0,0,0-.43.56.54.54,0,0,0-.27-.11c-.38,0-.45.42-.46.75-.1-.13-.24-.26-.38-.19s-.17.31-.17.48c-.14-.08-.33-.18-.47-.08A.46.46,0,0,0,284.77,209.57Z"></path><path d="M310.11,207.2s0,0,0,0l0,0v0h0l0,0h.14l.1.06h0l0,0a.1.1,0,0,0,0-.09.31.31,0,0,0-.22-.06.23.23,0,0,0-.16.17A.06.06,0,0,0,310.11,207.2Z"></path><path d="M309.48,207.87s0,0,0,0a.51.51,0,0,1,.14-.38,1.08,1.08,0,0,1,.36-.11,1.67,1.67,0,0,0,.3-.08c.05,0,.05-.14,0-.12s-.35.07-.52.12a.53.53,0,0,0-.17.08.37.37,0,0,0-.11.19A.81.81,0,0,0,309.48,207.87Z"></path><path d="M301.22,212.2a0,0,0,0,0,.09,0c.13-.39.44-.35.63,0,0,.07.08,0,.08-.06a1.67,1.67,0,0,1,.19-.88c.19-.3.32.06.54,0s.28-.25.29-.46c.19.11.37,0,.46-.25.23.2.4.06.51-.22.11.1.28.29.39.26s.25-1.18.58-.51a.08.08,0,0,0,0,.06.13.13,0,0,0,.06.12.45.45,0,0,0,.74-.22c.16-.37.29-1.7.88-.85,0,.07.11,0,.11-.05,0-.29,0-.68.37-.34.05,0,.1,0,.1-.07s0-.67.32-.45a.77.77,0,0,1,.3.5c0,.09.11,0,.1-.06a1.51,1.51,0,0,1,.23-1c0-.06,0-.16-.07-.08a1.71,1.71,0,0,0-.28.77c-.11-.21-.27-.41-.46-.38s-.25.29-.27.5c-.34-.28-.44,0-.47.38-.22-.24-.49-.31-.72,0a2.35,2.35,0,0,0-.17.56.63.63,0,0,0-.17-.37c-.35-.33-.57.21-.65.6-.12-.16-.29-.24-.45,0s-.15.57-.2.58-.29-.25-.34-.28-.1,0-.12.07c0,.22-.13.27-.37.14-.05-.06-.12,0-.13.05s-.12.26-.35.2c-.06-.08-.15-.05-.15.06s0,.26,0,.32-.23,0-.34,0a.31.31,0,0,0-.37.12,1.43,1.43,0,0,0-.21.94c-.22-.31-.58-.34-.69.06a4.06,4.06,0,0,1-.91-1.52c0-.11-.13,0-.13.06C300.22,211.23,300.85,211.67,301.22,212.2Zm4.12-2.83c.28-.21.3.31.21.47a.37.37,0,0,1-.42.2h0A.91.91,0,0,1,305.34,209.37Z"></path><path d="M300.68,195.05a.85.85,0,0,0,.52-.21,8,8,0,0,1,.65.63c.06.1.13,0,.13-.1a.79.79,0,0,1,.25-.59c.15-.13.25-.1.43-.06s.27-.07.28-.22c.26.1.4-.17.48-.43.12.1.26.17.4.08a.9.9,0,0,0,.3-.48c.22.15.32.57.64.51s.47-.44.53-.67c0-.07-.06-.08-.07,0-.06.23-.33.67-.61.53s-.27-.4-.48-.51c0,0-.05,0-.06,0-.13.31-.3.69-.64.35,0,0-.08,0-.09.05-.06.21-.16.56-.44.36-.07,0-.1.05-.09.1,0,.24-.17.11-.3.09a.42.42,0,0,0-.32.09,1,1,0,0,0-.36.59l-.36-.33-.15-.14,0-.08a.54.54,0,0,0-.39-.68s-.07,0-.08.06a.67.67,0,0,0,.18.7c-.13.07-.28.08-.41.16S300.58,195.06,300.68,195.05Zm.33-.88a.29.29,0,0,1,.18.38A.54.54,0,0,1,301,194.17Z"></path><path d="M296.11,198.8s0,0,0,0,0-.29.15-.33.28.08.38.14.06-.05.07-.07,0-.35.12-.4.29.17.36.24.1,0,.1-.06c0-.21.11-.7.39-.66a.38.38,0,0,1,.18.09.87.87,0,0,0,.32.79c.07,0,.11,0,.11-.09a1.22,1.22,0,0,0-.27-.85.67.67,0,0,1,.22-.45c.17-.12.31,0,.48,0s.17-.11.2-.21c.22.15.36-.08.47-.3.28.22.51,0,.57-.32a.71.71,0,0,0,.43.18c.25,0,.22-.3.18-.48s-.09,0-.08,0c0,.39-.41.1-.54,0s-.14,0-.14.08c0,.27-.17.52-.42.29a.06.06,0,0,0-.09,0c-.07.17-.16.5-.39.3,0,0-.09,0-.09.06-.06.33-.27.11-.49.15a.54.54,0,0,0-.39.41.83.83,0,0,0,0,.15.45.45,0,0,0-.27-.1c-.38,0-.45.41-.46.74-.1-.13-.24-.26-.38-.19s-.17.31-.17.49c-.14-.09-.33-.19-.47-.09A.46.46,0,0,0,296.11,198.8Z"></path><path d="M294.94,199.5s0,0,0,0a.49.49,0,0,1,.15-.39,1,1,0,0,1,.35-.11,1.67,1.67,0,0,0,.3-.08c.05,0,.05-.14,0-.12s-.35.07-.52.12a.4.4,0,0,0-.16.08.39.39,0,0,0-.12.19A.85.85,0,0,0,294.94,199.5Z"></path><path d="M286.05,204.73a0,0,0,0,0,.09,0c.13-.39.44-.35.63,0,0,.07.08,0,.08-.06a1.67,1.67,0,0,1,.19-.88c.19-.3.32.06.54,0s.27-.25.29-.46c.19.12.37,0,.46-.25.23.2.4.06.5-.22.12.11.28.29.4.26s.25-1.18.58-.51a.08.08,0,0,0,.05.06.15.15,0,0,0,.05.12.46.46,0,0,0,.75-.22c.16-.36.29-1.69.87-.85.05.07.12,0,.12-.05,0-.29,0-.68.37-.34.05,0,.1,0,.1-.07s0-.67.32-.45a.84.84,0,0,1,.3.5c0,.09.11,0,.1-.06a1.51,1.51,0,0,1,.23-1c0-.05,0-.15-.07-.08a1.71,1.71,0,0,0-.28.77c-.11-.21-.27-.41-.46-.38s-.26.29-.27.5c-.34-.28-.44,0-.47.38-.22-.24-.49-.31-.72,0a2.5,2.5,0,0,0-.17.56.58.58,0,0,0-.17-.36c-.35-.33-.57.2-.65.59-.13-.16-.29-.24-.45,0s-.15.58-.2.58-.3-.25-.34-.27-.1,0-.12.06c0,.22-.13.27-.37.14a.08.08,0,0,0-.13.05c0,.19-.12.26-.35.2-.06-.08-.15,0-.15.06s0,.26,0,.32-.23,0-.34,0a.3.3,0,0,0-.37.13,1.42,1.42,0,0,0-.21.93c-.22-.31-.59-.34-.69.06a3.94,3.94,0,0,1-.91-1.52c0-.1-.14,0-.13.06C285.05,203.76,285.68,204.21,286.05,204.73Zm4.12-2.83c.28-.21.3.32.21.47a.38.38,0,0,1-.42.21v0A.87.87,0,0,1,290.17,201.9Z"></path><path d="M286.86,216.74a.05.05,0,0,0,.1,0c.12-.39.44-.35.63,0,0,.06.08,0,.08-.06a1.72,1.72,0,0,1,.18-.89c.2-.3.33.06.55.06s.27-.26.29-.47c.18.12.37,0,.46-.24.22.19.4.06.5-.22.12.1.28.29.39.26s.25-1.18.58-.51c0,0,0,.05.05.05a.2.2,0,0,0,.06.12.45.45,0,0,0,.74-.21c.17-.37.3-1.7.88-.85,0,.06.11,0,.12-.06,0-.28,0-.67.37-.33,0,.05.1,0,.1-.07,0-.2,0-.68.32-.45a.87.87,0,0,1,.3.49c0,.09.11,0,.1,0a1.44,1.44,0,0,1,.22-1c0-.06,0-.16-.07-.08a1.8,1.8,0,0,0-.28.76c-.1-.2-.26-.4-.46-.37s-.25.29-.26.5c-.35-.28-.44,0-.47.38-.22-.25-.5-.31-.72,0a2.36,2.36,0,0,0-.18.55.58.58,0,0,0-.17-.36c-.35-.33-.57.21-.64.6-.13-.16-.3-.24-.45,0-.07.1-.15.57-.2.57a3.34,3.34,0,0,1-.35-.27c-.05,0-.1,0-.11.07,0,.22-.13.26-.37.14,0-.06-.12,0-.14,0s-.11.26-.34.2c-.06-.08-.16-.05-.16.06s0,.25,0,.32-.23,0-.33-.05a.32.32,0,0,0-.38.13,1.49,1.49,0,0,0-.2.94c-.23-.32-.59-.34-.69.06A4.25,4.25,0,0,1,286,215c0-.11-.13,0-.13.06C285.87,215.77,286.5,216.22,286.86,216.74Zm4.13-2.82c.28-.21.29.31.2.47a.36.36,0,0,1-.42.2v0A.9.9,0,0,1,291,213.92Z"></path><path d="M308,202.89a4.59,4.59,0,0,0,1.08,2s.14.08.17,0,0-.87.26-1,.35.34.54.45.08,0,.1,0c.16-.3.12-.73.31-1,.07.1.17.21.3.14s.14-.25.16-.4c.25.17.42,0,.51-.31.29.27.48.07.64-.26a.6.6,0,0,0,.38.26s.07,0,.08,0a3.51,3.51,0,0,0,.13-.49c.12-.43.37,0,.47.19a.07.07,0,0,0,.13,0,3.31,3.31,0,0,0,.14-.64.65.65,0,0,1,.05-.2.3.3,0,0,1,.39-.07c.11.06.18.3.21.42s.16.1.16,0c0-.38-.08-1.12.34-1.3a.34.34,0,0,1,.28,0,.75.75,0,0,0-.1.6c.1.38.46.3.51-.06a.93.93,0,0,0-.15-.57,1.48,1.48,0,0,1,.54-.45c.08,0,.05-.24,0-.2a1.73,1.73,0,0,0-.64.5.41.41,0,0,0-.47-.07c-.37.18-.43.67-.44,1.1-.12-.2-.29-.35-.51-.27s-.3.58-.37.9c-.11-.21-.28-.46-.5-.32s-.15.27-.18.39,0,.28-.07.31-.27-.2-.32-.25a.07.07,0,0,0-.12,0c-.11.25-.25.58-.53.22,0-.06-.12,0-.14,0s-.1.57-.39.26c-.06-.05-.12,0-.14,0s-.06.55-.25.24c0,0-.08-.07-.13,0-.26.27-.22.7-.35,1-.19-.19-.27-.57-.61-.44s-.33.55-.36.88a5.45,5.45,0,0,1-.86-1.72C308.16,202.65,308,202.7,308,202.89Z"></path><path d="M304.25,207.13a.37.37,0,0,0,.2-.34c.12.11.25.29.41.19a.36.36,0,0,0,.14-.3c.13.13.29.22.48.07s.13-.29.14-.45a.25.25,0,0,0,.15.12c.1,0,.17-.08.21-.16a2.43,2.43,0,0,0,.17-.54,1.32,1.32,0,0,0,.55.45c.32.1.4-.33.43-.55s-.14-.21-.16-.05-.07.47-.32.34a2.27,2.27,0,0,1-.49-.44c0-.05-.1,0-.12,0s-.07.33-.12.49-.05.18-.11.21-.14-.11-.16-.16-.1,0-.12,0,0,.32-.06.45a.23.23,0,0,1-.28.11.63.63,0,0,1-.21-.22c-.06-.09-.12,0-.11.1s0,.42-.15.34-.19-.21-.31-.28-.08.07-.08.1a.59.59,0,0,1-.1.39S304.21,207.14,304.25,207.13Z"></path><path d="M293.73,220.73a.36.36,0,0,0,.2-.34c.12.12.25.3.41.2a.37.37,0,0,0,.14-.31.33.33,0,0,0,.48.08c.15-.12.13-.29.14-.46a.31.31,0,0,0,.15.13c.1,0,.17-.08.21-.16a2.6,2.6,0,0,0,.17-.54,1.38,1.38,0,0,0,.55.44c.32.1.4-.32.43-.55s-.14-.2-.16-.05-.08.48-.32.34a2.27,2.27,0,0,1-.49-.44c-.05,0-.1,0-.12,0s-.07.33-.12.49,0,.18-.11.21-.14-.11-.16-.16-.1,0-.12,0,0,.31-.06.44a.23.23,0,0,1-.28.11.63.63,0,0,1-.21-.22c-.06-.09-.12,0-.11.1s0,.42-.15.35-.2-.22-.31-.29-.08.07-.08.11a.6.6,0,0,1-.1.39S293.69,220.75,293.73,220.73Z"></path><path d="M281.21,211.42a.34.34,0,0,0,.21-.33c.11.11.24.29.4.19a.37.37,0,0,0,.15-.3.32.32,0,0,0,.47.07c.15-.12.13-.29.14-.45a.24.24,0,0,0,.16.12c.1,0,.16-.08.21-.16a3.35,3.35,0,0,0,.16-.54,1.48,1.48,0,0,0,.55.45c.32.1.4-.33.43-.55s-.14-.21-.16,0-.07.47-.32.34a2.32,2.32,0,0,1-.49-.45s-.09,0-.11,0-.08.33-.13.49,0,.19-.1.22-.14-.12-.17-.17-.1,0-.12,0a2.3,2.3,0,0,1-.05.45.24.24,0,0,1-.28.1.58.58,0,0,1-.22-.22c-.06-.09-.11.05-.11.1s0,.42-.15.35-.19-.22-.31-.29-.08.08-.07.11a.68.68,0,0,1-.11.39S281.17,211.44,281.21,211.42Z"></path><path d="M296.14,212.56c0,.06.1,0,.1-.05a2.8,2.8,0,0,1,.09-.87c.05-.16.13-.32.32-.34s.28.13.42.19c.44.2.58-.36.6-.71.16.07.3,0,.36-.1.25.23.44,0,.5-.34.13.14.26.26.45.08s.14-.4.16-.62c.19.18.38.4.65.22s.23-.51.27-.78a2.42,2.42,0,0,1,.4.25,0,0,0,0,0,.05,0,1.55,1.55,0,0,0,.12-.22.32.32,0,0,1,.17-.25,1.09,1.09,0,0,1,.36.28s.08,0,.11,0,.09-.27.15-.4.26-.18.47,0,.13,0,.15-.07a4.18,4.18,0,0,1,.06-.51c.17-.49.62.05.73.28s.14,0,.14-.05c0-.27-.16-.95.15-1.06.07,0,.06-.2,0-.18-.32.1-.31.53-.29.88-.17-.23-.41-.44-.67-.32s-.26.42-.28.68c-.14-.11-.31-.2-.46-.08a1,1,0,0,0-.24.59,2.26,2.26,0,0,0-.42-.26s-.05,0-.06,0a3.09,3.09,0,0,0-.14.32c-.13.26-.28,0-.49-.06,0,0-.06,0-.07.06-.05.21,0,.66-.28.75s-.42-.19-.56-.33-.09,0-.11,0,0,.24,0,.33-.25.29-.34.26l-.13-.12c-.07-.06-.11.07-.11.11,0,.23-.07.33-.35.29-.06-.07-.12,0-.11.08s-.15.19-.28.06-.08,0-.09,0a2.66,2.66,0,0,1-.1.49.31.31,0,0,1-.35.24c-.05,0-.14-.13-.18-.16a.44.44,0,0,0-.56,0c-.29.23-.27.74-.25,1.12a3.23,3.23,0,0,1-.85-1.44c0-.11-.11-.07-.11,0C295.11,211.54,295.81,212.07,296.14,212.56Z"></path><path d="M301.53,198a4.57,4.57,0,0,0,1.07,2c0,.05.15.08.17,0s0-.87.27-1,.34.34.54.45c0,0,.08,0,.1,0,.16-.3.11-.73.3-1,.08.1.18.21.3.14s.15-.25.17-.4c.25.17.42,0,.51-.31.28.27.48.07.64-.26a.6.6,0,0,0,.38.26.08.08,0,0,0,.08-.05,3.51,3.51,0,0,0,.12-.49c.12-.43.37,0,.47.19s.11.08.14,0a3.3,3.3,0,0,0,.13-.64,1.17,1.17,0,0,1,.06-.2.29.29,0,0,1,.38-.07c.12.06.18.3.22.42s.16.1.15,0c0-.38-.07-1.12.34-1.3a.34.34,0,0,1,.28,0,.8.8,0,0,0-.1.6c.11.38.47.3.51-.06a.93.93,0,0,0-.15-.57,1.52,1.52,0,0,1,.55-.45c.08,0,0-.24,0-.2a1.65,1.65,0,0,0-.64.5.41.41,0,0,0-.47-.07c-.37.18-.44.67-.44,1.1-.12-.2-.3-.35-.52-.27s-.3.58-.36.9c-.11-.21-.29-.46-.5-.32s-.15.27-.18.39,0,.28-.07.31-.27-.2-.32-.25-.1,0-.12,0c-.11.25-.25.58-.54.22,0-.06-.12,0-.13.05s-.1.57-.4.26a.07.07,0,0,0-.13.05c0,.07-.06.55-.25.24,0,0-.09-.07-.13,0-.27.27-.22.7-.36,1-.19-.19-.26-.57-.6-.44s-.33.55-.36.88a5.69,5.69,0,0,1-.87-1.72C301.67,197.79,301.48,197.84,301.53,198Z"></path><path d="M282,213.52a4.57,4.57,0,0,0,1.07,2c.05.05.15.08.18,0,.06-.25,0-.87.26-1s.35.34.54.45a.07.07,0,0,0,.1,0c.16-.3.12-.73.31-1,.07.11.17.22.29.15a.57.57,0,0,0,.17-.4c.25.17.42,0,.51-.31.28.27.48.07.64-.26.11.12.2.24.38.25a.06.06,0,0,0,.08,0c.06-.16.08-.33.13-.49.11-.43.36,0,.46.19s.11.08.14,0a3.67,3.67,0,0,0,.14-.64.65.65,0,0,1,.05-.2.29.29,0,0,1,.38-.08c.12.06.19.31.22.43a.08.08,0,1,0,.16,0c0-.38-.08-1.12.34-1.3a.32.32,0,0,1,.27,0,.84.84,0,0,0-.1.6c.11.38.47.3.52-.07a.86.86,0,0,0-.16-.56,1.54,1.54,0,0,1,.55-.46c.08,0,.05-.24,0-.19a1.8,1.8,0,0,0-.64.49.42.42,0,0,0-.47-.06c-.37.17-.44.67-.44,1.1-.12-.2-.29-.36-.51-.27s-.31.58-.37.9c-.11-.21-.29-.46-.5-.32s-.15.27-.18.39,0,.28-.07.31-.27-.2-.32-.25-.1,0-.12,0c-.11.24-.25.58-.54.22-.05-.06-.12,0-.13,0s-.1.57-.4.26c0-.05-.11,0-.13,0s-.06.54-.25.24c0,0-.08-.07-.13,0-.27.28-.22.7-.36,1-.19-.18-.26-.56-.6-.43s-.33.55-.36.88a5.69,5.69,0,0,1-.87-1.72C282.14,213.28,282,213.33,282,213.52Z"></path><path d="M297.92,201.43a.36.36,0,0,0,.21-.34c.12.11.24.29.4.19a.37.37,0,0,0,.15-.3c.13.13.29.22.47.07s.13-.28.15-.45a.2.2,0,0,0,.15.12c.1,0,.17-.08.21-.15a2.66,2.66,0,0,0,.16-.55,1.39,1.39,0,0,0,.55.45c.32.1.4-.32.43-.55s-.14-.2-.16,0-.07.48-.32.34a2.27,2.27,0,0,1-.49-.44c0-.05-.09,0-.11,0s-.07.33-.13.49,0,.18-.1.21-.14-.11-.17-.16-.1-.05-.11,0,0,.32-.06.45a.23.23,0,0,1-.28.11.58.58,0,0,1-.22-.22c-.06-.09-.11,0-.1.1s0,.42-.16.34-.19-.21-.31-.28-.08.07-.07.1a.71.71,0,0,1-.11.4S297.88,201.44,297.92,201.43Z"></path><path d="M290.29,206.81c0,.05.09,0,.09-.05a3.7,3.7,0,0,1,.09-.88c0-.16.13-.32.32-.34s.28.13.43.2c.43.2.57-.36.59-.71a.25.25,0,0,0,.36-.11c.26.24.45,0,.5-.34.14.14.26.27.45.09a.85.85,0,0,0,.16-.62c.19.18.38.4.65.21s.23-.5.27-.78a2.75,2.75,0,0,1,.4.26s0,0,.06,0,.06-.14.11-.22a.31.31,0,0,1,.18-.25,1.14,1.14,0,0,1,.35.27.06.06,0,0,0,.11,0c.07-.13.09-.27.15-.4s.27-.18.47,0,.13,0,.15-.07a4,4,0,0,1,.07-.5c.17-.49.61.05.72.27s.15,0,.15,0c0-.28-.17-.95.14-1.07.07,0,.06-.2,0-.17-.32.09-.31.53-.29.88-.17-.23-.41-.44-.67-.32s-.25.42-.28.67c-.14-.1-.31-.19-.46-.07a1.06,1.06,0,0,0-.24.58,2.45,2.45,0,0,0-.42-.25s0,0-.06,0a2.15,2.15,0,0,0-.13.32c-.14.27-.29,0-.5,0,0,0-.06,0-.07,0-.05.22,0,.67-.27.76s-.42-.19-.56-.33-.1,0-.12,0,0,.24-.05.34-.24.29-.34.26l-.13-.12c-.07-.07-.1.06-.1.11,0,.23-.08.33-.36.29-.05-.07-.11,0-.11.08s-.15.18-.28,0-.08,0-.09.06a4.21,4.21,0,0,1-.09.49c-.05.13-.18.28-.35.23s-.15-.12-.19-.16a.47.47,0,0,0-.56,0c-.29.24-.27.74-.25,1.13a3.26,3.26,0,0,1-.85-1.45c0-.1-.11-.06-.11,0C289.25,205.79,290,206.32,290.29,206.81Z"></path></g><path d="M284.91,172.25a13.45,13.45,0,0,0-5.86-2.7c-5.72.08-9.3,1.62-14.46,4.09l-38.65,17L228,211.93c4.85-1.91,25.15-13.63,35.17-19.08,4.45-2.42,8.06-3.76,9.52-3.6,4.54.49,7.74,2.39,13.41,1.9C295.67,190.32,290,176.7,284.91,172.25Z" style="fill:#ffa8a7"></path><path d="M279.21,179.22l5.35,12a4.31,4.31,0,0,0-1.26,0s-2.25-4-3.5-6.14c-1.15-2-2.46-4.56-2.46-4.56s-4.19-2.63-5.34-5S279.21,179.22,279.21,179.22Z" style="fill:#f28f8f"></path><path d="M292.11,201.06a.27.27,0,0,1-.3-.18l-1.07-2.62a.32.32,0,0,1,.17-.39.3.3,0,0,1,.38.17l1.06,2.62a.3.3,0,0,1-.16.39Z" style="fill:#263238"></path><path d="M286.1,194.65l4.39,4.69a1,1,0,0,0,1.71-.77l-.63-6.44Z" style="fill:#BA68C8"></path><g style="opacity:0.2"><path d="M286.1,194.65l4.39,4.69a1,1,0,0,0,1.71-.77l-.63-6.44Z"></path></g><path d="M276.32,158.27a1.52,1.52,0,0,0-1.61-.66c-1.89.17-4.47,2.12-3.66,3.58l15.06,33.45a4.39,4.39,0,0,0,5.46-2.52Z" style="fill:#BA68C8"></path><g style="opacity:0.5"><path d="M276.32,158.27a1.52,1.52,0,0,0-1.61-.66c-1.89.17-4.47,2.12-3.66,3.58l15.06,33.45a4.39,4.39,0,0,0,5.46-2.52Z"></path></g><path d="M273.32,155.82a1.27,1.27,0,1,0-2.33,1l1.21,2.68h0a.62.62,0,0,0,.55.33,2,2,0,0,0,1.65-.73.62.62,0,0,0,.13-.63h0Z" style="fill:#37474f"></path><path d="M281.78,170.4a16.75,16.75,0,0,1,3,.24,10.57,10.57,0,0,1,4.26,1.53,3.37,3.37,0,0,1,1.23,1.2,5.33,5.33,0,0,1,.4,1.73c.43,3.06,2.44,5.6,2.87,8.64.39,2.69-.78,9.39-3.06,10.07-1.41.43-2.32-2.8-2.27-4.88-.95,1.17-2.64-.29-2.66-3.7,0-2.82.13-6.42.13-6.42Z" style="fill:#ffa8a7"></path><path d="M287.23,176.71a1.81,1.81,0,0,1-.09,1.83,4.71,4.71,0,0,1-1.46,1.51l0-1.24Z" style="fill:#f28f8f"></path><path d="M264.59,173.64c4.21-2,7.88-3.53,10.94-3,4.09.76,4.54,2.08,8.9,3.74,6.19,2.35,1.06,6.17-4.56,5s-7.87-3.89-7.87-3.89S264.14,180.19,264.59,173.64Z" style="fill:#ffa8a7"></path><polygon points="226.94 293.73 302.74 249.97 254.31 222.01 178.51 265.77 226.94 293.73" style="fill:#BA68C8"></polygon><polygon points="226.94 293.73 302.74 249.97 254.31 222.01 178.51 265.77 226.94 293.73" style="opacity:0.15"></polygon><path d="M263.83,271.27v-1.36c0-1.67,3-6.43,6.69-8.58L300.62,244V250Z" style="fill:#f5f5f5"></path><path d="M300.62,244l-30.11,17.38c-3.72,2.15-6.71,6.92-6.69,8.58v1.36l-46.32-26.75h0v-1.35c0-1.67,3-6.43,6.69-8.58l30.1-17.37h0Z" style="fill:#fafafa"></path><path d="M300.62,244l-30.11,17.38c-3.72,2.15-6.71,6.92-6.69,8.58v1.36l-46.32-26.75h0v-1.35c0-1.67,3-6.43,6.69-8.58l30.11-17.38Z" style="fill:#fafafa"></path><path d="M263.82,270l-2.88-1.67-3.8-2.2a7.51,7.51,0,0,1,4.68.68A3.91,3.91,0,0,1,263.82,270Z" style="fill:#f0f0f0"></path><path d="M263.82,270l-2.88-1.67-3.8-2.2a7.51,7.51,0,0,1,4.68.68A3.91,3.91,0,0,1,263.82,270Z" style="fill:#e0e0e0"></path><polygon points="226.95 294.99 226.94 293.73 178.51 265.77 178.51 267.03 226.95 294.99" style="fill:#BA68C8"></polygon><polygon points="226.95 294.99 226.94 293.73 178.51 265.77 178.51 267.03 226.95 294.99" style="opacity:0.30000000000000004"></polygon><polygon points="226.95 294.99 302.75 251.23 302.74 249.97 226.94 293.73 226.95 294.99" style="fill:#BA68C8"></polygon><path d="M263.82,270c0-1.67-3.06-3.06-6.79-.93l-30.1,17.25v6.24l36.9-21.3S263.83,271.68,263.82,270Z" style="fill:#f5f5f5"></path><polygon points="226.93 292.57 226.93 286.33 180.61 259.59 180.61 265.83 226.93 292.57" style="fill:#ebebeb"></polygon><path d="M257,269.08l-1.35.78-28.76,16.47L186,262.71l-5.41-3.12,30.11-17.25c2.73-1.56,4.25-1.44,5.33-.83h0L263,268.62C261.3,267.66,259.33,267.86,257,269.08Z" style="fill:#fafafa"></path><polygon points="224.83 281.63 250.46 266.84 251.81 266.07 252.8 266.64 251.45 267.41 225.81 282.2 224.83 281.63" style="fill:#e0e0e0"></polygon><polygon points="222.46 280.26 248.09 265.47 249.44 264.7 250.43 265.27 249.08 266.04 223.45 280.83 222.46 280.26" style="fill:#e0e0e0"></polygon><polygon points="220.09 278.9 245.73 264.11 247.08 263.33 248.06 263.9 246.71 264.68 221.08 279.46 220.09 278.9" style="fill:#e0e0e0"></polygon><polygon points="217.73 277.53 243.36 262.74 244.71 261.97 245.69 262.54 244.35 263.31 218.71 278.1 217.73 277.53" style="fill:#e0e0e0"></polygon><polygon points="215.36 276.16 240.99 261.37 242.34 260.6 243.33 261.17 241.98 261.94 216.35 276.73 215.36 276.16" style="fill:#e0e0e0"></polygon><polygon points="212.99 274.8 238.63 260.01 239.97 259.23 240.96 259.8 239.61 260.57 213.98 275.37 212.99 274.8" style="fill:#e0e0e0"></polygon><polygon points="210.63 273.43 236.26 258.64 237.61 257.87 238.59 258.44 237.25 259.21 211.61 274 210.63 273.43" style="fill:#e0e0e0"></polygon><polygon points="208.26 272.06 233.89 257.27 235.24 256.5 236.23 257.07 234.88 257.84 209.24 272.63 208.26 272.06" style="fill:#e0e0e0"></polygon><polygon points="205.89 270.7 231.52 255.91 232.87 255.13 233.86 255.7 232.51 256.48 206.88 271.27 205.89 270.7" style="fill:#e0e0e0"></polygon><polygon points="203.52 269.33 229.16 254.54 230.51 253.77 231.49 254.34 230.14 255.11 204.51 269.9 203.52 269.33" style="fill:#e0e0e0"></polygon><polygon points="201.16 267.96 226.79 253.17 228.14 252.4 229.13 252.97 227.78 253.74 202.14 268.53 201.16 267.96" style="fill:#e0e0e0"></polygon><polygon points="198.79 266.6 224.42 251.81 225.77 251.03 226.76 251.6 225.41 252.38 199.78 267.17 198.79 266.6" style="fill:#e0e0e0"></polygon><polygon points="196.42 265.23 222.06 250.44 223.41 249.67 224.39 250.24 223.04 251.01 197.41 265.8 196.42 265.23" style="fill:#e0e0e0"></polygon><polygon points="194.06 263.86 219.69 249.07 221.04 248.3 222.02 248.87 220.68 249.64 195.04 264.43 194.06 263.86" style="fill:#e0e0e0"></polygon><polygon points="191.69 262.5 217.32 247.71 218.67 246.94 219.66 247.5 218.31 248.28 192.68 263.07 191.69 262.5" style="fill:#e0e0e0"></polygon><polygon points="189.32 261.13 214.95 246.34 216.3 245.57 217.29 246.14 215.94 246.91 190.31 261.7 189.32 261.13" style="fill:#e0e0e0"></polygon><polygon points="186.95 259.76 212.59 244.97 213.94 244.2 214.92 244.77 213.57 245.54 187.94 260.33 186.95 259.76" style="fill:#e0e0e0"></polygon><path d="M257.32,267.47c-.55,0-1.73.43-2.38.58-2.74.61-7.57,2.82-12.19,5.14-6.18,3.09-12,6.39-12,6.39l-42.38-24.44,22.35-12.8a9.74,9.74,0,0,1,2.75-1.14,6.1,6.1,0,0,1,1.94.66l.3-.52.34.17L263,268.62A7.62,7.62,0,0,0,257.32,267.47Z" style="opacity:0.1"></path><polygon points="226.9 287.69 231.5 285.36 226.93 288.14 222.35 285.49 226.9 287.69" style="fill:#e6e6e6"></polygon><polygon points="226.94 290.81 235.36 285.95 226.94 290.48 217.47 285.34 226.94 290.81" style="fill:#e6e6e6"></polygon><polygon points="180.61 260.96 187.7 265.24 180.61 261.62 180.61 260.96" style="fill:#e6e6e6"></polygon><polygon points="180.62 263.4 191.14 269.83 180.61 263.98 180.62 263.4" style="fill:#e6e6e6"></polygon><path d="M257.14,266.14a15.28,15.28,0,0,0-1.81.31c-2.74.61-7.56,2.82-12.19,5.13-6.18,3.1-12,6.4-12,6.4L184.8,251.25s17.63-10.15,24.55-11.49c3.25-.62,5.24-.19,6.45.5h0l46,26.57A7.51,7.51,0,0,0,257.14,266.14Z" style="fill:#f5f5f5"></path><path d="M256.55,263.78a7.55,7.55,0,0,0-4.67-.68,15.28,15.28,0,0,0-1.81.31,44.76,44.76,0,0,0-7.57,2.91c-1.5.69-3.07,1.45-4.62,2.23-3.72,1.86-7.31,3.8-9.57,5l1.05.61c2.27-1.25,5.85-3.18,9.57-5,1.55-.78,3.12-1.54,4.63-2.24a44.21,44.21,0,0,1,7.56-2.9,15.28,15.28,0,0,1,1.81-.31,7.57,7.57,0,0,1,4.68.68Z" style="fill:#e0e0e0"></path><path d="M254.18,262.41a7.57,7.57,0,0,0-4.68-.68,15.48,15.48,0,0,0-1.8.31,44.76,44.76,0,0,0-7.57,2.91c-1.5.69-3.07,1.45-4.62,2.23-3.72,1.86-7.31,3.8-9.57,5l1.05.61c2.27-1.25,5.85-3.18,9.57-5,1.55-.78,3.12-1.54,4.62-2.23a43.91,43.91,0,0,1,7.57-2.91,15.28,15.28,0,0,1,1.81-.31,7.58,7.58,0,0,1,4.68.68Z" style="fill:#e0e0e0"></path><path d="M251.81,261a7.57,7.57,0,0,0-4.68-.68,17.48,17.48,0,0,0-1.8.31,44.76,44.76,0,0,0-7.57,2.91c-1.51.69-3.07,1.45-4.62,2.23-3.72,1.86-7.31,3.8-9.58,5l1.06.61c2.26-1.24,5.85-3.18,9.57-5,1.55-.78,3.12-1.54,4.62-2.23a43.91,43.91,0,0,1,7.57-2.91,15.28,15.28,0,0,1,1.81-.31,7.55,7.55,0,0,1,4.67.68Z" style="fill:#e0e0e0"></path><path d="M249.44,259.67a7.57,7.57,0,0,0-4.68-.68c-.55.07-1.16.17-1.8.31a44.44,44.44,0,0,0-7.57,2.91c-1.51.69-3.08,1.46-4.62,2.23-3.72,1.86-7.31,3.8-9.58,5.05l1.06.6c2.26-1.24,5.85-3.18,9.57-5,1.55-.78,3.12-1.54,4.62-2.23a44.76,44.76,0,0,1,7.57-2.91,15.48,15.48,0,0,1,1.8-.31,7.57,7.57,0,0,1,4.68.68Z" style="fill:#e0e0e0"></path><path d="M247.07,258.3a7.5,7.5,0,0,0-4.68-.67,17.46,17.46,0,0,0-1.81.3,44.4,44.4,0,0,0-7.56,2.91c-1.51.7-3.08,1.46-4.62,2.23-3.72,1.86-7.31,3.8-9.58,5.05l1.05.6c2.27-1.24,5.86-3.18,9.58-5,1.55-.78,3.11-1.54,4.62-2.23a44.76,44.76,0,0,1,7.57-2.91,17.48,17.48,0,0,1,1.8-.31,7.57,7.57,0,0,1,4.68.68Z" style="fill:#e0e0e0"></path><path d="M244.7,256.93a7.5,7.5,0,0,0-4.68-.67,15.28,15.28,0,0,0-1.81.31,44.21,44.21,0,0,0-7.56,2.9c-1.51.7-3.08,1.46-4.63,2.23-3.71,1.86-7.3,3.8-9.57,5.05l1.05.61c2.27-1.25,5.86-3.19,9.58-5.05,1.54-.78,3.11-1.54,4.62-2.23a44.44,44.44,0,0,1,7.57-2.91c.64-.14,1.25-.24,1.8-.31a7.57,7.57,0,0,1,4.68.68Z" style="fill:#e0e0e0"></path><path d="M242.33,255.56a7.5,7.5,0,0,0-4.68-.67,15.28,15.28,0,0,0-1.81.31,44.21,44.21,0,0,0-7.56,2.9c-1.51.7-3.08,1.46-4.63,2.23-3.72,1.87-7.3,3.8-9.57,5.05l1,.61c2.27-1.25,5.86-3.19,9.58-5.05,1.54-.77,3.11-1.54,4.62-2.23a44.4,44.4,0,0,1,7.56-2.91c.65-.14,1.25-.24,1.81-.31a7.57,7.57,0,0,1,4.68.68Z" style="fill:#e0e0e0"></path><path d="M240,254.2a7.44,7.44,0,0,0-4.68-.68,15.28,15.28,0,0,0-1.81.31,44.57,44.57,0,0,0-7.57,2.9c-1.5.7-3.07,1.46-4.62,2.23-3.72,1.87-7.3,3.8-9.57,5.05l1,.61c2.27-1.25,5.86-3.19,9.57-5.05,1.55-.77,3.12-1.53,4.63-2.23a43.37,43.37,0,0,1,7.56-2.9,15.28,15.28,0,0,1,1.81-.31,7.5,7.5,0,0,1,4.68.67Z" style="fill:#e0e0e0"></path><path d="M234,252.76a15.28,15.28,0,0,0-1.81.31c-2.74.61-7.56,2.82-12.19,5.13-3.72,1.86-7.3,3.8-9.57,5.05l-1-.61c2.26-1.25,5.85-3.18,9.57-5,4.62-2.32,9.45-4.53,12.19-5.14a15.28,15.28,0,0,1,1.81-.31,7.55,7.55,0,0,1,4.67.68l1.06.6A7.5,7.5,0,0,0,234,252.76Z" style="fill:#e0e0e0"></path><path d="M231.59,251.39a15.28,15.28,0,0,0-1.81.31c-2.74.61-7.56,2.82-12.19,5.13-3.72,1.87-7.3,3.8-9.57,5.05l-1.05-.61c2.26-1.25,5.85-3.18,9.57-5,4.62-2.32,9.45-4.52,12.19-5.14a15.48,15.48,0,0,1,1.8-.31,7.57,7.57,0,0,1,4.68.68l1.06.61A7.44,7.44,0,0,0,231.59,251.39Z" style="fill:#e0e0e0"></path><path d="M229.22,250a15.28,15.28,0,0,0-1.81.31c-2.74.61-7.57,2.82-12.19,5.13-3.72,1.87-7.3,3.8-9.57,5l-1.06-.61c2.27-1.24,5.86-3.18,9.58-5,4.62-2.32,9.45-4.52,12.19-5.14a15.13,15.13,0,0,1,1.8-.31,7.57,7.57,0,0,1,4.68.68l1,.61A7.47,7.47,0,0,0,229.22,250Z" style="fill:#e0e0e0"></path><path d="M226.85,248.65A15.28,15.28,0,0,0,225,249c-2.74.62-7.57,2.82-12.19,5.14-3.72,1.86-7.31,3.79-9.57,5l-1.06-.61c2.27-1.24,5.86-3.18,9.58-5,4.62-2.32,9.45-4.52,12.19-5.14a15.13,15.13,0,0,1,1.8-.31,7.57,7.57,0,0,1,4.68.68l1.05.61A7.55,7.55,0,0,0,226.85,248.65Z" style="fill:#e0e0e0"></path><path d="M224.47,247.28a15.13,15.13,0,0,0-1.8.31c-2.74.62-7.57,2.82-12.19,5.14-3.72,1.86-7.31,3.79-9.58,5l-1.05-.61c2.27-1.24,5.86-3.18,9.58-5,4.62-2.32,9.45-4.52,12.18-5.14a18.11,18.11,0,0,1,1.81-.31,7.57,7.57,0,0,1,4.68.68l1.05.61A7.57,7.57,0,0,0,224.47,247.28Z" style="fill:#e0e0e0"></path><path d="M222.1,245.91a15.13,15.13,0,0,0-1.8.31c-2.74.62-7.57,2.82-12.19,5.14-3.72,1.86-7.31,3.8-9.58,5l-1.05-.6c2.27-1.25,5.86-3.19,9.57-5.05,4.63-2.32,9.46-4.52,12.19-5.14.65-.14,1.25-.24,1.81-.31a7.57,7.57,0,0,1,4.68.68l1.05.61A7.57,7.57,0,0,0,222.1,245.91Z" style="fill:#e0e0e0"></path><path d="M219.73,244.54a18.11,18.11,0,0,0-1.81.31c-2.73.62-7.56,2.82-12.18,5.14-3.72,1.86-7.31,3.8-9.58,5l-1-.6c2.27-1.25,5.85-3.19,9.57-5.05,4.63-2.32,9.45-4.52,12.19-5.14.65-.14,1.25-.24,1.81-.31a7.57,7.57,0,0,1,4.68.68l1,.61A7.57,7.57,0,0,0,219.73,244.54Z" style="fill:#e0e0e0"></path><path d="M217.36,243.17c-.56.07-1.16.17-1.81.31-2.73.62-7.56,2.82-12.18,5.14-3.72,1.86-7.31,3.8-9.58,5l-1-.6c2.27-1.25,5.85-3.19,9.57-5.05,4.63-2.31,9.45-4.52,12.19-5.13a15.28,15.28,0,0,1,1.81-.31,7.52,7.52,0,0,1,4.68.67l1,.61A7.57,7.57,0,0,0,217.36,243.17Z" style="fill:#e0e0e0"></path><path d="M215,241.8c-.56.07-1.16.17-1.81.31-2.74.62-7.56,2.82-12.19,5.14-3.72,1.86-7.3,3.8-9.57,5.05l-1-.61c2.27-1.25,5.85-3.19,9.57-5.05,4.62-2.31,9.45-4.52,12.19-5.13a15.28,15.28,0,0,1,1.81-.31,7.48,7.48,0,0,1,4.67.67l1.06.61A7.57,7.57,0,0,0,215,241.8Z" style="fill:#e0e0e0"></path><path d="M266.18,258.83a15.08,15.08,0,0,0-3.75,3.21l-1-.56a14.89,14.89,0,0,1,3.75-3.2l27-15.55,1,.56Z" style="fill:#e0e0e0"></path><path d="M266.18,258.83a15.08,15.08,0,0,0-3.75,3.21l-1-.56a14.89,14.89,0,0,1,3.75-3.2l27-15.55,1,.56Z" style="fill:#e0e0e0"></path><path d="M260.71,261.61l.39-.44a15.41,15.41,0,0,1,3.87-3.32l27.23-15.68,1.94,1.12-27.72,16a14.41,14.41,0,0,0-3.62,3.11l-.27.3Z" style="fill:#BA68C8;opacity:0.30000000000000004"></path><path d="M263.81,257.46a15.51,15.51,0,0,0-3.75,3.21l-1-.55a15.08,15.08,0,0,1,3.75-3.21l27-15.55,1,.56Z" style="fill:#e0e0e0"></path><path d="M261.44,256.1a15.08,15.08,0,0,0-3.75,3.21l-1-.56a15.08,15.08,0,0,1,3.75-3.21l27-15.54,1,.55Z" style="fill:#e0e0e0"></path><path d="M259.07,254.73a15.08,15.08,0,0,0-3.75,3.21l-1-.56a15.29,15.29,0,0,1,3.75-3.21l27-15.54,1,.55Z" style="fill:#e0e0e0"></path><path d="M256.71,253.36a14.73,14.73,0,0,0-3.75,3.21l-1-.56a15.25,15.25,0,0,1,3.75-3.2l27-15.55,1,.56Z" style="fill:#e0e0e0"></path><path d="M254.34,252a15.32,15.32,0,0,0-3.75,3.21l-1-.55a15.08,15.08,0,0,1,3.75-3.21l27-15.55,1,.56Z" style="fill:#e0e0e0"></path><path d="M252,250.63a15.08,15.08,0,0,0-3.75,3.21l-1-.56a14.86,14.86,0,0,1,3.74-3.21l27-15.54,1,.55Z" style="fill:#e0e0e0"></path><path d="M249.6,249.26a15.08,15.08,0,0,0-3.75,3.21l-1-.56a15.11,15.11,0,0,1,3.75-3.21l27-15.54,1,.55Z" style="fill:#e0e0e0"></path><path d="M247.23,247.89a15.08,15.08,0,0,0-3.75,3.21l-1-.56a15.25,15.25,0,0,1,3.75-3.2l27-15.55,1,.56Z" style="fill:#e0e0e0"></path><path d="M244.86,246.53a15.25,15.25,0,0,0-3.75,3.2l-1-.55A15.08,15.08,0,0,1,243.9,246l27-15.55,1,.56Z" style="fill:#e0e0e0"></path><path d="M242.49,245.16a15.08,15.08,0,0,0-3.75,3.21l-1-.56a15.08,15.08,0,0,1,3.75-3.21l27-15.54,1,.55Z" style="fill:#e0e0e0"></path><path d="M240.13,243.79a14.73,14.73,0,0,0-3.75,3.21l-1-.56a15.51,15.51,0,0,1,3.75-3.21l27-15.54,1,.55Z" style="fill:#e0e0e0"></path><path d="M237.76,242.42a15.08,15.08,0,0,0-3.75,3.21l-1-.56a15.25,15.25,0,0,1,3.75-3.2l27-15.55,1,.56Z" style="fill:#e0e0e0"></path><path d="M235.39,241.06a15.25,15.25,0,0,0-3.75,3.2l-1-.55a14.73,14.73,0,0,1,3.75-3.21l27-15.55,1,.56Z" style="fill:#e0e0e0"></path><path d="M233,239.69a15.08,15.08,0,0,0-3.75,3.21l-1-.56a14.9,14.9,0,0,1,3.75-3.21l27-15.54,1,.55Z" style="fill:#e0e0e0"></path><path d="M230.65,238.32a15.08,15.08,0,0,0-3.75,3.21l-1-.56a15.51,15.51,0,0,1,3.75-3.21l27-15.54,1,.55Z" style="fill:#e0e0e0"></path><path d="M228.28,237a15.08,15.08,0,0,0-3.75,3.21l-1-.55a15.08,15.08,0,0,1,3.75-3.21l27-15.55,1,.56Z" style="fill:#e0e0e0"></path><path d="M258.37,260.21l.38-.44a15.56,15.56,0,0,1,3.88-3.31l27.23-15.69,1.93,1.12-27.71,16a14.57,14.57,0,0,0-3.63,3.1l-.26.3Z" style="fill:#BA68C8;opacity:0.30000000000000004"></path><path d="M256,258.82l.39-.45a15.36,15.36,0,0,1,3.87-3.31l27.23-15.69,1.94,1.12-27.72,16a14.36,14.36,0,0,0-3.62,3.1l-.27.31Z" style="fill:#BA68C8;opacity:0.30000000000000004"></path><path d="M253.68,257.42l.38-.45a15.78,15.78,0,0,1,3.88-3.31L285.17,238l1.93,1.11-27.71,16a14.78,14.78,0,0,0-3.63,3.1l-.26.31Z" style="fill:#BA68C8;opacity:0.30000000000000004"></path><path d="M239.49,249.17l.38-.44a15.56,15.56,0,0,1,3.88-3.31L271,229.73l1.94,1.12-27.72,16a14.62,14.62,0,0,0-3.63,3.11l-.26.3Z" style="fill:#BA68C8;opacity:0.30000000000000004"></path><path d="M237.14,247.77l.39-.44A15.36,15.36,0,0,1,241.4,244l27.23-15.69,1.94,1.12-27.72,16a14.53,14.53,0,0,0-3.62,3.1l-.26.31Z" style="fill:#BA68C8;opacity:0.30000000000000004"></path><path d="M234.8,246.38l.38-.45a15.56,15.56,0,0,1,3.88-3.31l27.23-15.69,1.94,1.12-27.72,16a14.78,14.78,0,0,0-3.63,3.1l-.26.31Z" style="fill:#BA68C8;opacity:0.30000000000000004"></path><polygon points="294.31 249.26 300.62 245.93 300.62 245.41 294.31 249.26" style="fill:#e6e6e6"></polygon><polygon points="300.62 247.79 290.1 253.67 300.62 247.4 300.62 247.79" style="fill:#e6e6e6"></polygon><path d="M192,247.29c5.69-3,13.31-6.75,17.33-7.53,3.25-.62,5.24-.19,6.45.5h0l46,26.57a7.51,7.51,0,0,0-4.68-.68s-22.78-13.89-37.48-18.64A47.41,47.41,0,0,0,192,247.29Z" style="opacity:0.02"></path><path d="M160.08,140.16c-8.68.49-18.94,5.6-20.37,18.26-1.21,10.68,0,46.48.75,54.67.87,9.88,1.06,12.77,7.1,17.62,8.73,7,37.24,30,48.86,34.52,7.19,2.82,14.18,5,20,4.28l-16.71-9.64a86.36,86.36,0,0,0,10.67-1.4c4.53-1,2.58-4.53-2.17-4.38-3.87.11-10.07-4.59-19.54-5l5.36-2.84-31.3-30.54s.16-51.67-.76-48.19C161.93,167.79,160.08,140.16,160.08,140.16Z" style="fill:#ffa8a7"></path><path d="M161.09,138.89s-6.51-.19-10.75,1.62c-6.87,2.93-11.21,10.88-11.82,21.33-.48,8.08,0,35.77,0,35.77a36.84,36.84,0,0,0,24.4-.87c.12-1,1-30.22,1-30.22S169.09,148.19,161.09,138.89Z" style="fill:#455a64"></path></g><g id="freepik--Paper--inject-335"><g style="opacity:0.2"><path d="M365.73,264.81l-43,24.84a2.67,2.67,0,0,1-2.43,0l-31.66-18.28a.74.74,0,0,1,0-1.4l43-24.84a2.65,2.65,0,0,1,2.42,0l31.67,18.28A.74.74,0,0,1,365.73,264.81Z"></path></g><g style="opacity:0.2"><path d="M365.73,269.25l-43,24.84a2.67,2.67,0,0,1-2.43,0l-31.66-18.28a.74.74,0,0,1,0-1.4l43-24.84a2.65,2.65,0,0,1,2.42,0l31.67,18.28A.74.74,0,0,1,365.73,269.25Z"></path></g><path d="M365.73,267l-43,24.84a2.65,2.65,0,0,1-2.42,0l-31.67-18.28a.74.74,0,0,1,0-1.4l43-24.84a2.65,2.65,0,0,1,2.42,0l31.67,18.28A.74.74,0,0,1,365.73,267Z" style="fill:#ebebeb"></path><path d="M334.06,247.35l30.07,17.36L322.7,288.63a2.67,2.67,0,0,1-2.43,0l-30.06-17.36,41.43-23.92A2.65,2.65,0,0,1,334.06,247.35Z" style="fill:#e0e0e0"></path><path d="M365.73,262.65l-43,24.85a2.73,2.73,0,0,1-2.43,0l-31.66-18.28a.74.74,0,0,1,0-1.4l43-24.85a2.71,2.71,0,0,1,2.42,0l31.67,18.29A.74.74,0,0,1,365.73,262.65Z" style="fill:#fafafa"></path></g><g id="freepik--Pencil--inject-335"><g id="freepik--pencil--inject-335"><path id="freepik--shadow--inject-335" d="M310.14,236.65c-1.37.7,2.09,3.14,3.81,2.2l30-17.59,3.6-3.8a.24.24,0,0,0-.24-.4l-6.95,2.13Z" style="opacity:0.2"></path><path d="M340.66,216.51l6.4-1.25a.2.2,0,0,1,.19.32l-4.34,4.92Z" style="fill:#ffa8a7"></path><path d="M347.25,215.58a.2.2,0,0,0-.19-.32l-1.25.24h0a1.11,1.11,0,0,1,.52,1v.11Z" style="fill:#263238"></path><path d="M319.05,234.18l.52-.3.63-.36,22.71-13a2.94,2.94,0,0,0-.18-2.12,3,3,0,0,0-2.07-1.87l-22.68,13-1.21.69C317.57,229.81,319.85,233.76,319.05,234.18Z" style="fill:#BA68C8"></path><path d="M321,233l1.17-.67c.35-.18.15-1-.25-1.91-.54-1.16-1.59-2.29-2-2.05l-.86.5-.3.18c.46-.24,1.51.89,2,2,.39.84.58,1.66.29,1.88h0Z" style="fill:#ebebeb"></path><path d="M321.33,232.87c.81-.42-1.49-4.38-2.29-4l-1.17.67c.8-.43,3.09,3.53,2.29,3.95Z" style="fill:#BA68C8"></path><path d="M319.05,234.18l1.15-.66c.79-.41-1.39-4.25-2.22-4l-.05,0-1.16.67C317.57,229.81,319.85,233.76,319.05,234.18Z" style="fill:#ebebeb"></path><path d="M347.28,215.37l-.22-.11-4.64,2.54-24,13.77c0-.07-.08-.08-.11,0,.68,1.07,1.2,2.41.75,2.64l.52-.3.63-.36,22.71-13h0l4.34-4.92A.18.18,0,0,0,347.28,215.37Z" style="opacity:0.15"></path><path d="M314.14,237l4.91-2.81c.34-.18.15-1-.25-1.89-.52-1.17-1.57-2.3-2-2.07h0L311.84,233c-1,.56-.08,2.68,1,3.63A1.17,1.17,0,0,0,314.14,237Z" style="fill:#f28f8f"></path><path d="M314.44,235.47a3.59,3.59,0,0,0-2-2.43.83.83,0,0,0-.74.1c-.74.69.12,2.64,1.15,3.53a1.2,1.2,0,0,0,1.27.33C314.49,236.78,314.63,236.22,314.44,235.47Z" style="opacity:0.1"></path></g></g><g id="freepik--Lamp--inject-335"><g id="freepik--lamp--inject-335"><ellipse id="freepik--shadow--inject-335" cx="381.95" cy="246.67" rx="20.29" ry="11.24" style="opacity:0.2"></ellipse><path d="M369.37,183.83c-2.27,8.65-10,11.48-17.34,6.33s-11.38-16.35-9.12-25,10-11.48,17.34-6.32S371.63,175.18,369.37,183.83Z" style="fill:#BA68C8"></path><path d="M377.35,159.8l2.26,6.14,2.25,6.14c-2.57,6.78-8.42,16.11-19.24,20.08l-13-35.33C360.47,152.86,371,156.3,377.35,159.8Z" style="fill:#BA68C8"></path><g style="opacity:0.25"><path d="M374.45,158.45s-5.65,6.42-2.64,13.22c0,0-3.95-4.77-3.05-9.27S374.45,158.45,374.45,158.45Z"></path></g><path d="M373.3,158.83a23.39,23.39,0,0,1,12-.94l1.79,5,.19.54,1.79,5a23.51,23.51,0,0,1-9.85,6.91h0a5.29,5.29,0,0,1-4.88-.95,11.66,11.66,0,0,1-4.21-11.64,5.28,5.28,0,0,1,3.18-3.87Z" style="fill:#BA68C8"></path><g style="opacity:0.15"><path d="M373.3,158.83a23.39,23.39,0,0,1,12-.94l1.79,5,.19.54,1.79,5a23.51,23.51,0,0,1-9.85,6.91h0a5.29,5.29,0,0,1-4.88-.95,11.66,11.66,0,0,1-4.21-11.64,5.28,5.28,0,0,1,3.18-3.87Z"></path></g><path d="M349.66,156.84h0l.07,0c9.34-3.4,18.45-1.29,24.84,1.61a23.42,23.42,0,0,1,10.74-.53l1.79,5,.19.54,1.79,5a23.55,23.55,0,0,1-8.32,6.29c-3,6.39-8.65,14-18.15,17.5h0c-3.14,1.16-6.92.58-10.59-2-7.3-5.16-11.38-16.35-9.12-25C344,160.85,346.54,158,349.66,156.84Z" style="opacity:0.15"></path><path d="M390.24,166.38c-.7,2.66-3.09,3.52-5.33,1.93a7.71,7.71,0,0,1-2.79-7.7c.71-2.65,3.1-3.52,5.34-1.93A7.71,7.71,0,0,1,390.24,166.38Z" style="fill:#BA68C8"></path><path d="M381.79,172.07a4.38,4.38,0,0,1,3.52-1.81,1.34,1.34,0,0,1,1.28.72h0l13.89,29h0a1.42,1.42,0,0,1-.23,1.29,4.39,4.39,0,0,1-3.52,1.81,1.34,1.34,0,0,1-1.29-.72h0l-13.87-28.93h0A1.41,1.41,0,0,1,381.79,172.07Z" style="fill:#37474f"></path><path d="M365.87,244.62a5.62,5.62,0,0,1,.13-1.35c.81-5.05,5.17-10.5,8.21-12.24h17.16c3,1.74,7.4,7.19,8.21,12.24a6.18,6.18,0,0,1,.13,1.35c0,.08,0,.23,0,.23-.16,2.37-1.79,4.72-4.93,6.53-6.61,3.82-17.33,3.82-23.94,0-3.14-1.81-4.77-4.16-4.93-6.53C365.89,244.85,365.87,244.7,365.87,244.62Z" style="fill:#BA68C8"></path><g style="opacity:0.15"><path d="M365.87,244.62a5.62,5.62,0,0,1,.13-1.35c.81-5.05,5.17-10.5,8.21-12.24h17.16c3,1.74,7.4,7.19,8.21,12.24a6.18,6.18,0,0,1,.13,1.35c0,.08,0,.23,0,.23-.16,2.37-1.79,4.72-4.93,6.53-6.61,3.82-17.33,3.82-23.94,0-3.14-1.81-4.77-4.16-4.93-6.53C365.89,244.85,365.87,244.7,365.87,244.62Z"></path></g><path d="M390.93,230.76c4.49,2.59,4.49,6.8,0,9.39s-11.78,2.6-16.28,0-4.49-6.8,0-9.39S386.43,228.16,390.93,230.76Z" style="fill:#BA68C8"></path><path d="M384.92,233.52c1.26.72,1.26,1.89,0,2.62a5,5,0,0,1-4.53,0c-1.25-.73-1.25-1.9,0-2.62A5,5,0,0,1,384.92,233.52Z" style="fill:#37474f"></path><polygon points="393.81 203.22 379.84 233.92 385.49 235.72 399.07 205.98 393.81 203.22" style="fill:#37474f"></polygon><path d="M399.5,195.81h0a2.65,2.65,0,0,1,2.67.93,8.53,8.53,0,0,1,2,7.45,2.79,2.79,0,0,1-1.53,2v0l-5.89,2.2L393.8,198Z" style="fill:#BA68C8"></path><g style="opacity:0.15"><path d="M399.5,195.81h0a2.65,2.65,0,0,1,2.67.93,8.53,8.53,0,0,1,2,7.45,2.79,2.79,0,0,1-1.53,2v0l-5.89,2.2L393.8,198Z"></path></g><path d="M396.37,198.92a8.5,8.5,0,0,1,2,7.45c-.65,2.37-2.57,2.88-4.3,1.14a8.5,8.5,0,0,1-2-7.45C392.71,197.69,394.64,197.18,396.37,198.92Z" style="fill:#BA68C8"></path></g></g><g id="freepik--Backpack--inject-335"><g id="freepik--backpack--inject-335"><path d="M101,277c-6.54-.49-21.9,8.37-24.5,13.33C73.73,295.49,60.83,367.4,66,374.5c6.51,8.9,40,27.56,55.13,28,12.48.34,25-10.4,27.1-13.62,3.43-5.28,3.88-80,.3-86.55C142.72,291.74,109.29,277.57,101,277Z" style="fill:#BA68C8"></path><path d="M101,277c-6.54-.49-21.9,8.37-24.5,13.33C73.73,295.49,60.83,367.4,66,374.5c6.51,8.9,40,27.56,55.13,28,12.48.34,25-10.4,27.1-13.62,3.43-5.28,3.88-80,.3-86.55C142.72,291.74,109.29,277.57,101,277Z" style="fill:#fff;opacity:0.1"></path><path d="M151,340.37c0-3.13,0-6.23-.1-9.22,0-1.2,0-2.38-.07-3.54-.06-2.33-.14-4.57-.22-6.69,0-1.07-.09-2.1-.14-3.1-.08-1.5-.17-2.93-.26-4.27s-.19-2.58-.3-3.73c0-.38-.08-.76-.12-1.11-.34-3.24-.77-5.5-1.27-6.42-.17-.29-.36-.6-.57-.9l-.21-.3-.48-.62-.29-.36c-.17-.19-.34-.39-.52-.58s-.22-.25-.34-.37c-.27-.28-.55-.56-.85-.84l-.59-.54-.4-.37-.7-.59-.35-.29-.81-.65c-6,2.11-11.72,4.11-11.89,4.21-.37.21-6.56,3.46-6.81,12.62l-2.13,37-.21,3.52c-.2,4.91-7.08,50,7,48.17l.55-.06c9.52-2.76,17.69-10,19.35-12.53a7.89,7.89,0,0,0,.75-2.45c.09-.47.18-1,.27-1.6,0-.29.08-.6.12-.92.13-1,.25-2,.36-3.21,0-.39.07-.8.11-1.21.53-6.21.89-14.82,1.06-24.05,0-1.84.06-3.72.08-5.6l0-3.77c0-.63,0-1.26,0-1.89C151,342.88,151,341.62,151,340.37Z" style="opacity:0.1"></path><path d="M149.54,306.48a15,15,0,0,0-1-4.19C142.72,291.74,109.29,277.57,101,277c-6.54-.49-21.9,8.37-24.5,13.33a40.22,40.22,0,0,0-1.87,6.57c12.69,7.71,45.6,25.12,49.15,24.06,4.36-1.31,25.4-13.84,25.8-14.41Z" style="opacity:0.4"></path><path d="M106.12,361.76c-6.76-3.65-21.71-13.32-25.88-15.54-2-1.05-3.64-1-4.76-.28-.64.39-2.84,1.78-3.42,2.1a3.13,3.13,0,0,0-1.61,2.56c-.55,7.82-.91,11-.79,14.83.09,2.59.43,4.9,4,7.84s19.44,12.56,24.14,15.16c4.43,2.44,9.19,4.33,11.23,3,.53-.35,2.92-1.74,3.55-2.15a2.49,2.49,0,0,0,1-2.14c.17-4,.78-12.55,1-15.46C114.84,368.06,113.24,365.61,106.12,361.76Z" style="fill:#BA68C8"></path><path d="M106.12,361.76c-6.76-3.65-21.71-13.32-25.88-15.54-2-1.05-3.64-1-4.76-.28-.64.39-2.84,1.78-3.42,2.1a3.13,3.13,0,0,0-1.61,2.56c-.55,7.82-.91,11-.79,14.83.09,2.59.43,4.9,4,7.84s19.44,12.56,24.14,15.16c4.43,2.44,9.19,4.33,11.23,3,.53-.35,2.92-1.74,3.55-2.15a2.49,2.49,0,0,0,1-2.14c.17-4,.78-12.55,1-15.46C114.84,368.06,113.24,365.61,106.12,361.76Z" style="opacity:0.30000000000000004"></path><path d="M110.56,370.53l3.61-2c-.88-2.15-3.17-4.13-8-6.77-6.76-3.65-21.71-13.32-25.88-15.54-2-1.05-3.64-1-4.76-.28-.64.39-2.84,1.78-3.42,2.1a3.13,3.13,0,0,0-1.46,1.78Z" style="opacity:0.4"></path><path d="M70.45,350.6c-.55,7.82-.91,11-.79,14.83.09,2.59.43,4.9,4,7.84s19.44,12.56,24.14,15.16c5.75,3.17,12.08,5.44,12.26.85.16-4,.77-12.55,1-15.46.24-3.6-1.36-6-8.49-9.89-6.76-3.66-21.7-13.33-25.88-15.55C73.18,346.5,70.61,348.26,70.45,350.6Z" style="fill:#BA68C8"></path><path d="M70.45,350.6c-.55,7.82-.91,11-.79,14.83.09,2.59.43,4.9,4,7.84s19.44,12.56,24.14,15.16c5.75,3.17,12.08,5.44,12.26.85.16-4,.77-12.55,1-15.46.24-3.6-1.36-6-8.49-9.89-6.76-3.66-21.7-13.33-25.88-15.55C73.18,346.5,70.61,348.26,70.45,350.6Z" style="opacity:0.18"></path><path d="M114.17,368.53c-.7-2.07-4.13-.71-4.94,2s-.79,6.34-1.18,7.51-37.4-20.87-38.41-22.12c-.47-.58.11-7.16,1.48-8.33s4.51-3.23,6.56-2.79,24.51,14,28.9,16.37S114.43,366,114.17,368.53Z" style="fill:#BA68C8"></path><path d="M114.17,368.53c-.7-2.07-4.13-.71-4.94,2s-.79,6.34-1.18,7.51-37.4-20.87-38.41-22.12c-.47-.58.11-7.16,1.48-8.33s4.51-3.23,6.56-2.79,24.51,14,28.9,16.37S114.43,366,114.17,368.53Z" style="opacity:0.1"></path><path d="M96.58,375.41l4.47,2.44a.81.81,0,0,0,1.24-.55l.57-2.26a1.27,1.27,0,0,0-.58-1.34l-4.48-2.52a.79.79,0,0,0-1.22.54L96,374.08A1.26,1.26,0,0,0,96.58,375.41Z" style="fill:#37474f"></path><path d="M74.52,362.22,79,364.65a.82.82,0,0,0,1.25-.54l.57-2.27a1.28,1.28,0,0,0-.58-1.34L75.75,358a.8.8,0,0,0-1.23.53l-.58,2.37A1.27,1.27,0,0,0,74.52,362.22Z" style="fill:#37474f"></path><path d="M68.53,330c.87-5.68,1.38-9.56,2.34-14.32,1.85-1.31,4.41-3,4.41-3l16,5.62,15,5.26,3.39,1.19c1.06.37,2.13,1,3.19,1.33,2.73.74,6.8-1.47,8.88-3s3.35-3.06,6-3.62q-.57,7.76-1.25,15.5c-.42,4.86-.5,9.79-2.18,14.39a7.52,7.52,0,0,1-5.24,4.82,21.62,21.62,0,0,1-8.74-.08s-.42,4.36-.91,6.51c-.7,1.9-3.47,3.46-3.88,3.35-2.52-.66-2.52-12.47-2.52-12.47L84,341.18s-.68,4.25-1.29,6.31c-1.07,1.64-3.09,3.45-3.83,3.26-3.19-.82-1.8-13.52-1.8-13.52S71.35,334.05,68.53,330Z" style="opacity:0.15"></path><path d="M100.28,276.9c-7.2-.44-20.39,6.13-24.39,11.56s-9.33,32.84-7,37.85,21.89,16.53,33.73,22.25c9.47,4.57,14.42,3.49,18.21,1.61,2.85-1.41,3-6.05,3.33-9.49,1-8.84,2.24-24.7,7.91-29.57s16-8.64,17.41-4.61c0,0,1.95-5.81-8.75-12.19C123.05,283.73,109.13,277.46,100.28,276.9Z" style="fill:#BA68C8"></path><path d="M100.28,276.9c-7.2-.44-20.39,6.13-24.39,11.56s-9.33,32.84-7,37.85,21.89,16.53,33.73,22.25c9.47,4.57,14.42,3.49,18.21,1.61,2.85-1.41,3-6.05,3.33-9.49,1-8.84,2.24-24.7,7.91-29.57s16-8.64,17.41-4.61c0,0,1.95-5.81-8.75-12.19C123.05,283.73,109.13,277.46,100.28,276.9Z" style="opacity:0.1"></path><path d="M104,333.57l6.26,2.83s-2,15.52-2.45,23.17c0,0-1.7,3.21-3.14,3.66s-3-3.35-3.16-6.13S102.88,340.15,104,333.57Z" style="fill:#455a64"></path><path d="M103.69,335.07l6.38,2.67a1.12,1.12,0,0,0,1.61-.92l.45-3.14a1.72,1.72,0,0,0-1-1.73l-6.41-2.77a1.09,1.09,0,0,0-1.59.9l-.45,3.28A1.71,1.71,0,0,0,103.69,335.07Z" style="fill:#37474f"></path><path d="M104.8,354a3.14,3.14,0,0,1,1.62,2.84,1.26,1.26,0,0,1-1.87,1.21,3.07,3.07,0,0,1-1.62-2.83C103,354.11,103.84,353.57,104.8,354Z" style="fill:#e0e0e0"></path><path d="M78.11,320.53l6.1,3.16s-1.8,15.33-2.65,22.95c0,0-1.87,3.11-3.32,3.49s-2.85-3.5-2.84-6.29A184.68,184.68,0,0,1,78.11,320.53Z" style="fill:#455a64"></path><path d="M77.75,322,84,325a1.11,1.11,0,0,0,1.65-.83l.61-3.11a1.72,1.72,0,0,0-.88-1.78l-6.26-3.1a1.09,1.09,0,0,0-1.63.82l-.62,3.25A1.71,1.71,0,0,0,77.75,322Z" style="fill:#37474f"></path><path d="M78.87,341a3.15,3.15,0,0,1,1.47,2.92A1.27,1.27,0,0,1,78.41,345a3.07,3.07,0,0,1-1.47-2.91C77.07,340.94,77.93,340.44,78.87,341Z" style="fill:#e0e0e0"></path><path d="M152.9,355.22c-.38-.22-5.89-4.83-6.54-5.21-1.14-.66-18.78,9.95-20.46,11.82-1.16,1.3-.58,22.42,0,24,.22.55,6.33,4.65,6.54,5.2.58,1.54,19.18-9.2,20.46-12S154.58,356.19,152.9,355.22Z" style="fill:#BA68C8"></path><path d="M152.9,355.22c-.38-.22-5.89-4.83-6.54-5.21-1.14-.66-18.78,9.95-20.46,11.82-1.16,1.3-.58,22.42,0,24,.22.55,6.33,4.65,6.54,5.2.58,1.54,19.18-9.2,20.46-12S154.58,356.19,152.9,355.22Z" style="opacity:0.18"></path><path d="M132.44,367c-1.17,1.3-.59,22.43,0,24s19.18-9.2,20.46-12,1.68-22.82,0-23.79C151.76,354.56,134.12,365.16,132.44,367Z" style="fill:#BA68C8"></path><path d="M146.37,350c.64.36,6.14,5,6.52,5.2-1.13-.66-18.77,9.94-20.45,11.81l-6.53-5.2C127.58,360,145.22,349.35,146.37,350Z" style="opacity:0.4"></path><path d="M132.44,367c-1.17,1.3-.59,22.43,0,24s19.18-9.2,20.46-12,1.68-22.82,0-23.79C151.76,354.56,134.12,365.16,132.44,367Z" style="opacity:0.30000000000000004"></path><path d="M125.91,361.83c1.3-.76,5,1.46,6.55,2.95s3,8.18,7.16,9.45,10.42-4,11.86-7.52,3.32-10.95,1.41-13.74-5.4-4.44-8.47-3S126.44,358.55,125.91,361.83Z" style="fill:#BA68C8"></path><path d="M125.91,361.83c1.3-.76,5,1.46,6.55,2.95s3,8.18,7.16,9.45,10.42-4,11.86-7.52,3.32-10.95,1.41-13.74-5.4-4.44-8.47-3S126.44,358.55,125.91,361.83Z" style="opacity:0.2"></path><path d="M144.77,365.74a3.15,3.15,0,0,0-1.62,2.83,1.27,1.27,0,0,0,1.87,1.22,3.07,3.07,0,0,0,1.62-2.84C146.57,365.82,145.73,365.27,144.77,365.74Z" style="fill:#37474f"></path></g></g><g id="freepik--Books--inject-335"><g id="freepik--books--inject-335"><g id="freepik--Book--inject-335"><polygon points="249.88 431.98 211.82 453.67 148.96 417.6 187.01 395.9 249.88 431.98"></polygon><path d="M211.39,452,248.1,431a15.19,15.19,0,0,1,.2-9.52l-36.48,20.84S211.13,444.58,211.39,452Z" style="fill:#f5f5f5"></path><path d="M213.7,439.31a7.73,7.73,0,0,0-3.53,6.07v7.09c0,2.24,1.58,3.15,3.53,2l36.17-20.76V432l-35.7,20.35c-1.16.68-2.11.13-2.11-1.21l0-6.57a4.64,4.64,0,0,1,2.12-3.65l35.65-20.36v-2Z" style="fill:#263238"></path><path d="M249.87,418.55,187,382.47l-36.18,20.76a7.76,7.76,0,0,0-3.52,6.07v7.1a2.47,2.47,0,0,0,1,2.27l62.87,36.07a2.42,2.42,0,0,1-1-2.26v-7.1a7.73,7.73,0,0,1,3.52-6.07Z" style="fill:#455a64"></path><path d="M211.2,441.92a7.13,7.13,0,0,0-1,3.46v7.1a2.42,2.42,0,0,0,1,2.26l-62.87-36.07a2.47,2.47,0,0,1-1-2.27v-7.1a7.12,7.12,0,0,1,1-3.45Z" style="fill:#37474f"></path></g><g id="freepik--book--inject-335"><polygon points="246.14 413.65 210.86 433.77 152.57 400.32 187.85 380.2 246.14 413.65" style="fill:#e0e0e0"></polygon><path d="M210.46,432.24l34-19.53a14.16,14.16,0,0,1,.18-8.83l-33.81,19.33S210.21,425.34,210.46,432.24Z" style="fill:#fff"></path><path d="M212.6,420.45a7.18,7.18,0,0,0-3.27,5.63v6.58c0,2.07,1.46,2.91,3.27,1.87l33.54-19.25v-1.63l-33.09,18.88c-1.09.62-2,.11-2-1.13l0-6.1a4.3,4.3,0,0,1,2-3.37l33.06-18.88V401.2Z" style="fill:#BA68C8"></path><path d="M212.6,420.45a7.18,7.18,0,0,0-3.27,5.63v6.58c0,2.07,1.46,2.91,3.27,1.87l33.54-19.25v-1.63l-33.09,18.88c-1.09.62-2,.11-2-1.13l0-6.1a4.3,4.3,0,0,1,2-3.37l33.06-18.88V401.2Z" style="opacity:0.35000000000000003"></path><path d="M246.14,401.2l-58.29-33.45L154.31,387a7.2,7.2,0,0,0-3.27,5.63v6.58a2.28,2.28,0,0,0,1,2.1l58.29,33.45a2.26,2.26,0,0,1-1-2.1v-6.58a7.19,7.19,0,0,1,3.27-5.63Z" style="fill:#BA68C8"></path><path d="M246.14,401.2l-58.29-33.45L154.31,387a7.2,7.2,0,0,0-3.27,5.63v6.58a2.28,2.28,0,0,0,1,2.1l58.29,33.45a2.26,2.26,0,0,1-1-2.1v-6.58a7.19,7.19,0,0,1,3.27-5.63Z" style="opacity:0.15"></path><path d="M210.28,422.87a6.65,6.65,0,0,0-1,3.21v6.58a2.26,2.26,0,0,0,1,2.1L152,401.31a2.28,2.28,0,0,1-1-2.1v-6.58a6.65,6.65,0,0,1,1-3.2Z" style="fill:#BA68C8"></path><path d="M210.28,422.87a6.65,6.65,0,0,0-1,3.21v6.58a2.26,2.26,0,0,0,1,2.1L152,401.31a2.28,2.28,0,0,1-1-2.1v-6.58a6.65,6.65,0,0,1,1-3.2Z" style="opacity:0.25"></path></g></g></g><g id="freepik--speech-bubble--inject-335"><g id="freepik--Bubble--inject-335"><g id="freepik--Facebook--inject-335"><path d="M241.27,103.09a1.22,1.22,0,0,0-1.23.12,3.83,3.83,0,0,0-1.73,3,1.22,1.22,0,0,0,.51,1.12l1.53.89a1.23,1.23,0,0,0,1.22-.12,3.84,3.84,0,0,0,1.73-3,1.2,1.2,0,0,0-.51-1.12" style="fill:#BA68C8"></path><path d="M241.57,104.1a3.81,3.81,0,0,0-1.73,3c0,1.1.77,1.55,1.73,1a3.84,3.84,0,0,0,1.73-3C243.3,104,242.52,103.55,241.57,104.1Z" style="fill:#BA68C8"></path><path d="M241.27,103.09l1.52.89a1.2,1.2,0,0,0-1.22.12,3.72,3.72,0,0,0-1.48,1.81l-1.53-.89a3.83,3.83,0,0,1,1.48-1.81A1.22,1.22,0,0,1,241.27,103.09Z" style="fill:#fff;opacity:0.4"></path><path d="M240.32,108.2l-1.5-.87a1.22,1.22,0,0,1-.51-1.12l1.53.89A1.22,1.22,0,0,0,240.32,108.2Z" style="opacity:0.2"></path><path d="M238.56,105l1.53.89a3.26,3.26,0,0,0-.25,1.19h0l-1.53-.89A3.26,3.26,0,0,1,238.56,105Z" style="opacity:0.1"></path></g><g id="freepik--facebook--inject-335"><path d="M255.06,99.33a1.92,1.92,0,0,0-1.93.2,6,6,0,0,0-2.74,4.73,1.93,1.93,0,0,0,.81,1.78l1.77,1a1.91,1.91,0,0,0,1.94-.19,6,6,0,0,0,2.73-4.74,1.92,1.92,0,0,0-.8-1.77" style="fill:#BA68C8"></path><path d="M254.91,100.55a6.08,6.08,0,0,0-2.74,4.74c0,1.75,1.23,2.45,2.74,1.58a6,6,0,0,0,2.73-4.74C257.64,100.39,256.42,99.68,254.91,100.55Z" style="fill:#BA68C8"></path><path d="M255.06,99.34l1.78,1a1.94,1.94,0,0,0-1.93.19,6,6,0,0,0-2.34,2.87l-1.78-1a5.92,5.92,0,0,1,2.34-2.86A1.89,1.89,0,0,1,255.06,99.34Z" style="fill:#fff;opacity:0.4"></path><path d="M252.94,107l-1.74-1a1.93,1.93,0,0,1-.81-1.78l1.78,1A1.93,1.93,0,0,0,252.94,107Z" style="opacity:0.2"></path><path d="M250.79,102.39l1.78,1a5.11,5.11,0,0,0-.4,1.87h0l-1.78-1A5.11,5.11,0,0,1,250.79,102.39Z" style="opacity:0.1"></path></g><g id="freepik--facebook--inject-335"><path d="M268.08,88.5a2.65,2.65,0,0,0-2.66.26,8.32,8.32,0,0,0-3.76,6.51,2.65,2.65,0,0,0,1.11,2.44l1.77,1a2.65,2.65,0,0,0,2.66-.26A8.34,8.34,0,0,0,271,92a2.63,2.63,0,0,0-1.1-2.43" style="fill:#BA68C8"></path><path d="M267.2,89.79a8.3,8.3,0,0,0-3.76,6.51c0,2.39,1.68,3.37,3.76,2.17A8.34,8.34,0,0,0,271,92C271,89.56,269.27,88.59,267.2,89.79Z" style="fill:#BA68C8"></path><path d="M268.08,88.5l1.78,1a2.62,2.62,0,0,0-2.66.26A8.14,8.14,0,0,0,264,93.72l-1.78-1a8.22,8.22,0,0,1,3.21-3.94A2.65,2.65,0,0,1,268.08,88.5Z" style="fill:#fff;opacity:0.4"></path><path d="M264.49,98.7l-1.72-1a2.65,2.65,0,0,1-1.11-2.44l1.78,1A2.66,2.66,0,0,0,264.49,98.7Z" style="opacity:0.2"></path><path d="M262.21,92.7l1.78,1a7,7,0,0,0-.55,2.58h0l-1.78-1A6.87,6.87,0,0,1,262.21,92.7Z" style="opacity:0.1"></path></g><path d="M306.81,19.75c-1.88-1.11-4.35-1-7.06.54-.49.29,2.49,2.47,2,2.82a5.32,5.32,0,0,0-2.16-3.94c-.46-.28-5.77-3.21-6.25-3.47a4.39,4.39,0,0,0-4.34.41,11.89,11.89,0,0,0-4.94,4.62l-3.89-2.14c-1.88-1.1-4.34-1-7,.55-5.72,3.3-10.37,11.94-10.7,19.64A13.17,13.17,0,0,0,258,40.46C249.68,45.26,243,58.13,243,69.21c0,5.88,1.89,10.07,4.91,12,.52.34,6,3.34,6.49,3.6,2.62,1.45,6,1.28,9.72-.86a21.53,21.53,0,0,0,4.14-3.17,6.87,6.87,0,0,0,2,1.71l2.6,1.5c2.25,1.31,5.18,1.2,8.4-.66,4.28-2.46,8.06-7.44,10.39-13.08a7.49,7.49,0,0,0,5.8-1.06c5.42-3.13,9.88-11.06,10.62-18.44,4.89-4.16,8.58-12.06,8.58-19,0-4.34-1.45-7.39-3.74-8.69C312.39,22.82,307.24,20,306.81,19.75Z" style="fill:#BA68C8"></path><path d="M306.81,19.75c-1.88-1.11-4.35-1-7.06.54-.49.29,2.49,2.47,2,2.82a5.32,5.32,0,0,0-2.16-3.94c-.46-.28-5.77-3.21-6.25-3.47a4.39,4.39,0,0,0-4.34.41,11.89,11.89,0,0,0-4.94,4.62l-3.89-2.14c-1.88-1.1-4.34-1-7,.55-5.72,3.3-10.37,11.94-10.7,19.64A13.17,13.17,0,0,0,258,40.46C249.68,45.26,243,58.13,243,69.21c0,5.88,1.89,10.07,4.91,12,.52.34,6,3.34,6.49,3.6,2.62,1.45,6,1.28,9.72-.86a21.53,21.53,0,0,0,4.14-3.17,6.87,6.87,0,0,0,2,1.71l2.6,1.5c2.25,1.31,5.18,1.2,8.4-.66,4.28-2.46,8.06-7.44,10.39-13.08a7.49,7.49,0,0,0,5.8-1.06c5.42-3.13,9.88-11.06,10.62-18.44,4.89-4.16,8.58-12.06,8.58-19,0-4.34-1.45-7.39-3.74-8.69C312.39,22.82,307.24,20,306.81,19.75Z" style="fill:#fff;opacity:0.4"></path><path d="M272.26,30a27.46,27.46,0,0,0-3.73,12.18l-6.07-3.35A27.25,27.25,0,0,1,266.2,26.6Z" style="fill:#BA68C8"></path><path d="M272.26,30a27.46,27.46,0,0,0-3.73,12.18l-6.07-3.35A27.25,27.25,0,0,1,266.2,26.6Z" style="opacity:0.1"></path><path d="M263.2,33.94a22.71,22.71,0,0,0-.74,4.84l6.07,3.35a24.16,24.16,0,0,1,.74-4.84Z" style="opacity:0.2"></path><path d="M254,84.62c-.75-.42-5.72-3.14-6.16-3.42-3-1.92-4.91-6.11-4.91-12a36.41,36.41,0,0,1,3.44-14.76l6.07,3.35A36.41,36.41,0,0,0,249,72.57C249,78.5,251,82.71,254,84.62Z" style="fill:#BA68C8"></path><path d="M254,84.62c-.75-.42-5.72-3.14-6.16-3.42-3-1.92-4.91-6.11-4.91-12a36.41,36.41,0,0,1,3.44-14.76l6.07,3.35A36.41,36.41,0,0,0,249,72.57C249,78.5,251,82.71,254,84.62Z" style="opacity:0.1"></path><path d="M247.86,81.2c.44.28,5.41,3,6.16,3.42-3.07-1.91-5-6.12-5-12.05,0-.53,0-1.07,0-1.61L243,67.6c0,.54-.05,1.08-.05,1.61C243,75.09,244.84,79.28,247.86,81.2Z" style="opacity:0.2"></path><path d="M272.49,83.82c-.64-.38-1.95-1.12-2.32-1.34a7,7,0,0,1-2-1.7c.38-.36.76-.74,1.12-1.14A8.5,8.5,0,0,0,272.49,83.82Z" style="fill:#BA68C8"></path><path d="M272.49,83.82c-.64-.38-1.95-1.12-2.32-1.34a7,7,0,0,1-2-1.7c.38-.36.76-.74,1.12-1.14A8.5,8.5,0,0,0,272.49,83.82Z" style="opacity:0.30000000000000004"></path><path d="M316.56,31.76c0-7.9-4.81-11.53-10.73-8.11a16.71,16.71,0,0,0-4.22,3.59,14.16,14.16,0,0,0,.26-2.65c0-5-3-7.29-6.78-5.13a14.58,14.58,0,0,0-5.6,7.2c-1.36-5.06-5.44-6.95-10.26-4.16-5.71,3.29-10.37,11.94-10.7,19.63a13.61,13.61,0,0,0-4.46,1.68c-8.31,4.8-15,17.67-15,28.76s6.74,16.17,15,11.37a23.17,23.17,0,0,0,5.26-4.3c1.94,5.06,6.51,6.76,11.84,3.68,4.28-2.46,8.06-7.44,10.39-13.08a7.49,7.49,0,0,0,5.8-1.06c5.42-3.13,9.88-11.06,10.62-18.44C312.87,46.58,316.56,38.68,316.56,31.76Z" style="fill:#BA68C8"></path><path d="M304.6,24.45a18.14,18.14,0,0,0-3,2.79,13.41,13.41,0,0,0,.28-2.65,9.79,9.79,0,0,0-.11-1.48L302,23Z" style="fill:#BA68C8"></path><path d="M304.6,24.45a18.14,18.14,0,0,0-3,2.79,13.41,13.41,0,0,0,.28-2.65,9.79,9.79,0,0,0-.11-1.48L302,23Z" style="opacity:0.1"></path><path d="M291.49,22.92a17.85,17.85,0,0,0-2,3.74,8.42,8.42,0,0,0-2.43-4.16,13.2,13.2,0,0,0-3-1.77,13.65,13.65,0,0,1,1.09-1.6Z" style="fill:#BA68C8"></path><path d="M291.49,22.92a17.85,17.85,0,0,0-2,3.74,8.42,8.42,0,0,0-2.43-4.16,13.2,13.2,0,0,0-3-1.77,13.65,13.65,0,0,1,1.09-1.6Z" style="opacity:0.1"></path><path d="M269.27,56.85a6.55,6.55,0,0,0-3,5.12c0,1.89,1.33,2.66,3,1.71a6.52,6.52,0,0,0,3-5.13C272.23,56.67,270.9,55.9,269.27,56.85Z" style="fill:#fafafa"></path><path d="M282.36,49.26a6.56,6.56,0,0,0-3,5.13c0,1.89,1.32,2.66,3,1.71a6.55,6.55,0,0,0,3-5.13C285.32,49.09,284,48.32,282.36,49.26Z" style="fill:#fafafa"></path><path d="M295.44,41.72a6.55,6.55,0,0,0-3,5.13c0,1.89,1.33,2.65,3,1.71a6.54,6.54,0,0,0,3-5.13C298.4,41.54,297.08,40.78,295.44,41.72Z" style="fill:#fafafa"></path></g></g></svg>